<svg xmlns="http://www.w3.org/2000/svg" xmlns:xlink="http://www.w3.org/1999/xlink" version="1.1" x="0px" y="0px" viewBox="0 0 338 442" style="enable-background:new 0 0 338 442;" xml:space="preserve">
<style type="text/css">
	.st0{clip-path:url(#SVGID_00000103949480755374920750000015183381828912742543_);}

		.st1{clip-path:url(#SVGID_00000103949480755374920750000015183381828912742543_);fill:url(#SVGID_00000163767952013118807970000005041857653936339090_);}

		.st2{clip-path:url(#SVGID_00000103949480755374920750000015183381828912742543_);fill:url(#SVGID_00000136385217225059942340000009114498530490914441_);}

		.st3{clip-path:url(#SVGID_00000103949480755374920750000015183381828912742543_);fill:url(#SVGID_00000109023975657410860650000017763750891160159406_);}

		.st4{clip-path:url(#SVGID_00000103949480755374920750000015183381828912742543_);fill:url(#SVGID_00000057130509851911894860000009387094441021567638_);}

		.st5{clip-path:url(#SVGID_00000103949480755374920750000015183381828912742543_);fill:url(#SVGID_00000063625180247478407540000006716776847867501978_);}
	.st6{clip-path:url(#SVGID_00000008141792753610115520000002869620062384679066_);}

		.st7{clip-path:url(#SVGID_00000008141792753610115520000002869620062384679066_);fill:url(#SVGID_00000119114004830570821400000001068942584347491775_);}

		.st8{clip-path:url(#SVGID_00000008141792753610115520000002869620062384679066_);fill:url(#SVGID_00000114074627617528500470000007585389393285244596_);}

		.st9{clip-path:url(#SVGID_00000008141792753610115520000002869620062384679066_);fill:url(#SVGID_00000086664084670164050770000000554875219286367380_);}

		.st10{clip-path:url(#SVGID_00000008141792753610115520000002869620062384679066_);fill:url(#SVGID_00000026864945529869026610000005110147156293975993_);}

		.st11{clip-path:url(#SVGID_00000008141792753610115520000002869620062384679066_);fill:url(#SVGID_00000101084600943494267500000008125664089871902091_);}
	.st12{clip-path:url(#SVGID_00000051352951798039841710000015690303676615421833_);fill:#960E0E;}
	.st13{clip-path:url(#SVGID_00000051352951798039841710000015690303676615421833_);}

		.st14{clip-path:url(#SVGID_00000051352951798039841710000015690303676615421833_);fill:url(#SVGID_00000055672574962785963210000006180475953884979852_);}

		.st15{clip-path:url(#SVGID_00000051352951798039841710000015690303676615421833_);fill:url(#SVGID_00000170969796801916628080000017018763572601096872_);}

		.st16{clip-path:url(#SVGID_00000051352951798039841710000015690303676615421833_);fill:url(#SVGID_00000108990741996118739970000004369341699399260044_);}

		.st17{clip-path:url(#SVGID_00000051352951798039841710000015690303676615421833_);fill:url(#SVGID_00000137125562498882162470000011523551981703255449_);}

		.st18{clip-path:url(#SVGID_00000051352951798039841710000015690303676615421833_);fill:url(#SVGID_00000018939758135404427610000006027299251077960889_);}
	.st19{clip-path:url(#SVGID_00000078037963061664254260000012229846513046068384_);}

		.st20{clip-path:url(#SVGID_00000078037963061664254260000012229846513046068384_);fill:url(#SVGID_00000029008050912670931240000006475797754810601896_);}
	.st21{clip-path:url(#SVGID_00000078037963061664254260000012229846513046068384_);fill:#D88D2B;}

		.st22{clip-path:url(#SVGID_00000078037963061664254260000012229846513046068384_);fill:url(#SVGID_00000094587804803103776590000017784180229430295707_);}

		.st23{clip-path:url(#SVGID_00000078037963061664254260000012229846513046068384_);fill:url(#SVGID_00000020385615758989537470000008362117786191210159_);}

		.st24{clip-path:url(#SVGID_00000078037963061664254260000012229846513046068384_);fill:url(#SVGID_00000151533859894882838890000017577964969732019641_);}
	.st25{clip-path:url(#SVGID_00000181083507124953098430000006195157141490997939_);}

		.st26{clip-path:url(#SVGID_00000181083507124953098430000006195157141490997939_);fill:url(#SVGID_00000057847943849238634700000002361400803484998333_);}

		.st27{clip-path:url(#SVGID_00000181083507124953098430000006195157141490997939_);fill:url(#SVGID_00000053507640628184470260000010028428677006407045_);}

		.st28{clip-path:url(#SVGID_00000181083507124953098430000006195157141490997939_);fill:url(#SVGID_00000161604404986466517660000005494555174539521206_);}

		.st29{clip-path:url(#SVGID_00000181083507124953098430000006195157141490997939_);fill:url(#SVGID_00000016760797237882122790000003861192980518858642_);}

		.st30{clip-path:url(#SVGID_00000181083507124953098430000006195157141490997939_);fill:url(#SVGID_00000160902435677674013860000011934604336942403232_);}
</style>
    <g id="Laag_2">
</g>
    <g id="Laag_6">
</g>
    <g id="Laag_3">
</g>
    <g id="Laag_4">
	<g>
		<defs>
			<rect id="SVGID_00000141434505865777812170000008446639952188678073_" x="0" y="0" width="338" height="442"/>
		</defs>
        <clipPath id="SVGID_00000099658463424170473260000018119789343715612033_">
			<use xlink:href="#SVGID_00000141434505865777812170000008446639952188678073_" style="overflow:visible;"/>
		</clipPath>
        <g style="clip-path:url(#SVGID_00000099658463424170473260000018119789343715612033_);">
			<defs>
				<rect id="SVGID_00000054234464268081852670000001535568300979854215_" x="-669.2" y="-25.4" width="1709.3" height="491.9"/>
			</defs>
            <clipPath id="SVGID_00000155827268769422709550000008521837629051277240_">
				<use xlink:href="#SVGID_00000054234464268081852670000001535568300979854215_" style="overflow:visible;"/>
			</clipPath>
            <g style="clip-path:url(#SVGID_00000155827268769422709550000008521837629051277240_);">

					<image style="overflow:visible;" width="2294" height="1755" xlink:href="../../../../../Afbeeldingen voor designs/Depositphotos_3846803_XL.jpg" transform="matrix(0.7451 0 0 0.7451 -669.1636 -441.4608)">
				</image>
			</g>
		</g>

        <linearGradient id="SVGID_00000067236686255106988590000001419813863931237264_" gradientUnits="userSpaceOnUse" x1="185.5" y1="720.5271" x2="185.5" y2="1212.4196" gradientTransform="matrix(1 0 0 1 0 -745.9099)">
			<stop offset="0" style="stop-color:#0F243F"/>
            <stop offset="1" style="stop-color:#C63926"/>
		</linearGradient>

        <rect x="-669.2" y="-25.4" style="clip-path:url(#SVGID_00000099658463424170473260000018119789343715612033_);fill:url(#SVGID_00000067236686255106988590000001419813863931237264_);" width="1709.3" height="491.9"/>

        <rect x="-669.2" y="-25.4" style="clip-path:url(#SVGID_00000099658463424170473260000018119789343715612033_);fill:#D88D2B;" width="1709.3" height="491.9"/>

        <radialGradient id="SVGID_00000088852590600776134130000003270840027371820962_" cx="215.9373" cy="-706.0098" r="1516.5906" gradientTransform="matrix(0.9854 0 0 0.4978 -27.2955 572.0148)" gradientUnits="userSpaceOnUse">
			<stop offset="0" style="stop-color:#000000;stop-opacity:0"/>
            <stop offset="0.8" style="stop-color:#000000"/>
		</radialGradient>

        <rect x="-669.2" y="-25.4" style="clip-path:url(#SVGID_00000099658463424170473260000018119789343715612033_);fill:url(#SVGID_00000088852590600776134130000003270840027371820962_);" width="1709.3" height="491.9"/>

        <linearGradient id="SVGID_00000073684046633909951930000011418036267018853523_" gradientUnits="userSpaceOnUse" x1="2145.6721" y1="2333.8354" x2="2145.6721" y2="1841.943" gradientTransform="matrix(1 0 0 1 -1960.1725 -1866.8893)">
			<stop offset="0" style="stop-color:#100C18;stop-opacity:0"/>
            <stop offset="0.7" style="stop-color:#100C18"/>
		</linearGradient>

        <rect x="-669.2" y="-24.9" style="clip-path:url(#SVGID_00000099658463424170473260000018119789343715612033_);fill:url(#SVGID_00000073684046633909951930000011418036267018853523_);" width="1709.3" height="491.9"/>

        <radialGradient id="SVGID_00000083090267455579598700000003731834460516713344_" cx="168.5" cy="221" r="268.6594" gradientUnits="userSpaceOnUse">
			<stop offset="0" style="stop-color:#FFB048"/>
            <stop offset="0.9453" style="stop-color:#E5B745;stop-opacity:0"/>
		</radialGradient>

        <path style="clip-path:url(#SVGID_00000099658463424170473260000018119789343715612033_);fill:url(#SVGID_00000083090267455579598700000003731834460516713344_);" d="    M610.4-27.6H592h-0.4h-18h-0.4h-18h-0.4h-18h-0.4h-18H518h-18h-0.4h-18h-0.4h-18h-0.4h-18h-0.4h-18H426h-18h-0.4h-18h-0.4h-18    h-0.4h-18h-0.4h-18h-0.4h-18h-0.4h-18h-0.4h-18h-0.4h-18h-0.4h-18h-0.4h-18h-0.4h-18h-0.4h-18h-0.4h-18h-0.4h-18h-0.4h-18h-0.4    h-18h-0.4h-18h-0.4h-18h-0.4h-18h-0.4h-18h-0.4h-18h-0.4h-18H2.7h-18h-0.4h-18h-0.4h-18h-0.4h-18h-0.4h-18h-0.4h-18h-0.4h-18h-0.4    h-18h-0.4h-18h-0.4h-18h-0.4h-18h-0.4h-18h-0.4h-18h-0.4h-18h-0.4h-18.4h-1.2v18.4v0.4v18v0.4v18v0.4v18v0.4v18v0.4v18v0.4v18v0.4    v18v0.4v18v0.4v18v0.4v18v0.4v18v0.4v18v0.4v18v0.4v18v0.4v18v0.4v18v0.4v18v0.4v18v0.4v18v0.4v18v0.4v18v0.4v18v0.4v18v0.4v18    v0.4v18v0.4v18.4h886v-18.4v-0.4v-18v-0.4v-18v-0.4v-18v-0.4v-18v-0.4v-18v-0.4v-18v-0.4v-18V322v-18v-0.4v-18v-0.4v-18v-0.4v-18    v-0.4v-18V230v-18v-0.4v-18v-0.4v-18v-0.4v-18v-0.4v-18V138v-18v-0.4v-18v-0.4v-18v-0.4v-18v-0.4v-18V46v-18v-0.4v-18V9.2v-18    v-0.4v-18.4H610.4z M610-27.3v18h-18v-18H610z M-273,451.2h18v18h-18V451.2z M-254.6,451.2h18v18h-18V451.2z M-15.3,230.4h18v18    h-18V230.4z M-15.7,248.4h-18v-18h18V248.4z M3.1,230.4h18v18h-18V230.4z M21.5,230.4h18v18h-18V230.4z M39.9,230.4h18v18h-18    V230.4z M58.3,230.4h18v18h-18V230.4z M76.7,230.4h18v18h-18V230.4z M95.1,230.4h18v18h-18V230.4z M113.5,230.4h18v18h-18V230.4z     M131.9,230.4h18v18h-18V230.4z M150.3,230.4h18v18h-18V230.4z M168.7,230.4h18v18h-18V230.4z M187.1,230.4h18v18h-18V230.4z     M205.5,230.4h18v18h-18V230.4z M223.9,230.4h18v18h-18V230.4z M242.3,230.4h18v18h-18V230.4z M260.7,230.4h18v18h-18V230.4z     M279.1,230.4h18v18h-18V230.4z M297.5,230.4h18v18h-18V230.4z M315.9,230.4h18v18h-18V230.4z M334.3,230.4h18v18h-18V230.4z     M352.7,230.4h18v18h-18V230.4z M352.7,230v-18h18v18H352.7z M352.3,230h-18v-18h18V230z M333.9,230h-18v-18h18V230z M315.5,230    h-18v-18h18V230z M297.1,230h-18v-18h18V230z M278.7,230h-18v-18h18V230z M260.3,230h-18v-18h18V230z M241.9,230h-18v-18h18V230z     M223.5,230h-18v-18h18V230z M205.1,230h-18v-18h18V230z M186.7,230h-18v-18h18V230z M168.3,230h-18v-18h18V230z M149.9,230h-18    v-18h18V230z M131.5,230h-18v-18h18V230z M113.1,230h-18v-18h18V230z M94.7,230h-18v-18h18V230z M76.3,230h-18v-18h18V230z     M57.9,230h-18v-18h18V230z M39.5,230h-18v-18h18V230z M21.1,230h-18v-18h18V230z M2.7,230h-18v-18h18V230z M-15.7,230h-18v-18h18    V230z M-34.1,230h-18v-18h18V230z M-34.1,230.4v18h-18v-18H-34.1z M-34.1,248.8v18h-18v-18H-34.1z M-33.8,248.8h18v18h-18V248.8z     M-15.3,248.8h18v18h-18V248.8z M3.1,248.8h18v18h-18V248.8z M21.5,248.8h18v18h-18V248.8z M39.9,248.8h18v18h-18V248.8z     M58.3,248.8h18v18h-18V248.8z M76.7,248.8h18v18h-18V248.8z M95.1,248.8h18v18h-18V248.8z M113.5,248.8h18v18h-18V248.8z     M131.9,248.8h18v18h-18V248.8z M150.3,248.8h18v18h-18V248.8z M168.7,248.8h18v18h-18V248.8z M187.1,248.8h18v18h-18V248.8z     M205.5,248.8h18v18h-18V248.8z M223.9,248.8h18v18h-18V248.8z M242.3,248.8h18v18h-18V248.8z M260.7,248.8h18v18h-18V248.8z     M279.1,248.8h18v18h-18V248.8z M297.5,248.8h18v18h-18V248.8z M315.9,248.8h18v18h-18V248.8z M334.3,248.8h18v18h-18V248.8z     M352.7,248.8h18v18h-18V248.8z M371.1,248.8h18v18h-18V248.8z M371.1,248.4v-18h18v18H371.1z M371.1,230v-18h18v18H371.1z     M371.1,211.6v-18h18v18H371.1z M370.8,211.6h-18v-18h18V211.6z M352.3,211.6h-18v-18h18V211.6z M333.9,211.6h-18v-18h18V211.6z     M315.5,211.6h-18v-18h18V211.6z M297.1,211.6h-18v-18h18V211.6z M278.7,211.6h-18v-18h18V211.6z M260.3,211.6h-18v-18h18V211.6z     M241.9,211.6h-18v-18h18V211.6z M223.5,211.6h-18v-18h18V211.6z M205.1,211.6h-18v-18h18V211.6z M186.7,211.6h-18v-18h18V211.6z     M168.3,211.6h-18v-18h18V211.6z M149.9,211.6h-18v-18h18V211.6z M131.5,211.6h-18v-18h18V211.6z M113.1,211.6h-18v-18h18V211.6z     M94.7,211.6h-18v-18h18V211.6z M76.3,211.6h-18v-18h18V211.6z M57.9,211.6h-18v-18h18V211.6z M39.5,211.6h-18v-18h18V211.6z     M21.1,211.6h-18v-18h18V211.6z M2.7,211.6h-18v-18h18V211.6z M-15.7,211.6h-18v-18h18V211.6z M-34.1,211.6h-18v-18h18V211.6z     M-52.5,211.6h-18v-18h18V211.6z M-52.5,212v18h-18v-18H-52.5z M-52.5,230.4v18h-18v-18H-52.5z M-52.5,248.8v18h-18v-18H-52.5z     M-52.5,267.2v18h-18v-18H-52.5z M-52.2,267.2h18v18h-18V267.2z M-33.8,267.2h18v18h-18V267.2z M-15.3,267.2h18v18h-18V267.2z     M3.1,267.2h18v18h-18V267.2z M21.5,267.2h18v18h-18V267.2z M39.9,267.2h18v18h-18V267.2z M58.3,267.2h18v18h-18V267.2z     M76.7,267.2h18v18h-18V267.2z M95.1,267.2h18v18h-18V267.2z M113.5,267.2h18v18h-18V267.2z M131.9,267.2h18v18h-18V267.2z     M150.3,267.2h18v18h-18V267.2z M168.7,267.2h18v18h-18V267.2z M187.1,267.2h18v18h-18V267.2z M205.5,267.2h18v18h-18V267.2z     M223.9,267.2h18v18h-18V267.2z M242.3,267.2h18v18h-18V267.2z M260.7,267.2h18v18h-18V267.2z M279.1,267.2h18v18h-18V267.2z     M297.5,267.2h18v18h-18V267.2z M315.9,267.2h18v18h-18V267.2z M334.3,267.2h18v18h-18V267.2z M352.7,267.2h18v18h-18V267.2z     M371.1,267.2h18v18h-18V267.2z M389.5,267.2h18v18h-18V267.2z M389.5,266.8v-18h18v18H389.5z M389.5,248.4v-18h18v18H389.5z     M389.5,230v-18h18v18H389.5z M389.5,211.6v-18h18v18H389.5z M389.5,193.2v-18h18v18H389.5z M389.2,193.2h-18v-18h18V193.2z     M370.8,193.2h-18v-18h18V193.2z M352.3,193.2h-18v-18h18V193.2z M333.9,193.2h-18v-18h18V193.2z M315.5,193.2h-18v-18h18V193.2z     M297.1,193.2h-18v-18h18V193.2z M278.7,193.2h-18v-18h18V193.2z M260.3,193.2h-18v-18h18V193.2z M241.9,193.2h-18v-18h18V193.2z     M223.5,193.2h-18v-18h18V193.2z M205.1,193.2h-18v-18h18V193.2z M186.7,193.2h-18v-18h18V193.2z M168.3,193.2h-18v-18h18V193.2z     M149.9,193.2h-18v-18h18V193.2z M131.5,193.2h-18v-18h18V193.2z M113.1,193.2h-18v-18h18V193.2z M94.7,193.2h-18v-18h18V193.2z     M76.3,193.2h-18v-18h18V193.2z M57.9,193.2h-18v-18h18V193.2z M39.5,193.2h-18v-18h18V193.2z M21.1,193.2h-18v-18h18V193.2z     M2.7,193.2h-18v-18h18V193.2z M-15.7,193.2h-18v-18h18V193.2z M-34.1,193.2h-18v-18h18V193.2z M-52.5,193.2h-18v-18h18V193.2z     M-70.9,193.2h-18v-18h18V193.2z M-70.9,193.6v18h-18v-18H-70.9z M-70.9,212v18h-18v-18H-70.9z M-70.9,230.4v18h-18v-18H-70.9z     M-70.9,248.8v18h-18v-18H-70.9z M-70.9,267.2v18h-18v-18H-70.9z M-70.9,285.6v18h-18v-18H-70.9z M-70.6,285.6h18v18h-18V285.6z     M-52.2,285.6h18v18h-18V285.6z M-33.8,285.6h18v18h-18V285.6z M-15.3,285.6h18v18h-18V285.6z M3.1,285.6h18v18h-18V285.6z     M21.5,285.6h18v18h-18V285.6z M39.9,285.6h18v18h-18V285.6z M58.3,285.6h18v18h-18V285.6z M76.7,285.6h18v18h-18V285.6z     M95.1,285.6h18v18h-18V285.6z M113.5,285.6h18v18h-18V285.6z M131.9,285.6h18v18h-18V285.6z M150.3,285.6h18v18h-18V285.6z     M168.7,285.6h18v18h-18V285.6z M187.1,285.6h18v18h-18V285.6z M205.5,285.6h18v18h-18V285.6z M223.9,285.6h18v18h-18V285.6z     M242.3,285.6h18v18h-18V285.6z M260.7,285.6h18v18h-18V285.6z M279.1,285.6h18v18h-18V285.6z M297.5,285.6h18v18h-18V285.6z     M315.9,285.6h18v18h-18V285.6z M334.3,285.6h18v18h-18V285.6z M352.7,285.6h18v18h-18V285.6z M371.1,285.6h18v18h-18V285.6z     M389.5,285.6h18v18h-18V285.6z M407.9,285.6h18v18h-18V285.6z M407.9,285.2v-18h18v18H407.9z M407.9,266.8v-18h18v18H407.9z     M407.9,248.4v-18h18v18H407.9z M407.9,230v-18h18v18H407.9z M407.9,211.6v-18h18v18H407.9z M407.9,193.2v-18h18v18H407.9z     M407.9,174.8v-18h18v18H407.9z M407.6,174.8h-18v-18h18V174.8z M389.2,174.8h-18v-18h18V174.8z M370.8,174.8h-18v-18h18V174.8z     M352.3,174.8h-18v-18h18V174.8z M333.9,174.8h-18v-18h18V174.8z M315.5,174.8h-18v-18h18V174.8z M297.1,174.8h-18v-18h18V174.8z     M278.7,174.8h-18v-18h18V174.8z M260.3,174.8h-18v-18h18V174.8z M241.9,174.8h-18v-18h18V174.8z M223.5,174.8h-18v-18h18V174.8z     M205.1,174.8h-18v-18h18V174.8z M186.7,174.8h-18v-18h18V174.8z M168.3,174.8h-18v-18h18V174.8z M149.9,174.8h-18v-18h18V174.8z     M131.5,174.8h-18v-18h18V174.8z M113.1,174.8h-18v-18h18V174.8z M94.7,174.8h-18v-18h18V174.8z M76.3,174.8h-18v-18h18V174.8z     M57.9,174.8h-18v-18h18V174.8z M39.5,174.8h-18v-18h18V174.8z M21.1,174.8h-18v-18h18V174.8z M2.7,174.8h-18v-18h18V174.8z     M-15.7,174.8h-18v-18h18V174.8z M-34.1,174.8h-18v-18h18V174.8z M-52.5,174.8h-18v-18h18V174.8z M-70.9,174.8h-18v-18h18V174.8z     M-89.3,174.8h-18v-18h18V174.8z M-89.3,175.2v18h-18v-18H-89.3z M-89.3,193.6v18h-18v-18H-89.3z M-89.3,212v18h-18v-18H-89.3z     M-89.3,230.4v18h-18v-18H-89.3z M-89.3,248.8v18h-18v-18H-89.3z M-89.3,267.2v18h-18v-18H-89.3z M-89.3,285.6v18h-18v-18H-89.3z     M-89.3,304v18h-18v-18H-89.3z M-89,304h18v18h-18V304z M-70.6,304h18v18h-18V304z M-52.2,304h18v18h-18V304z M-33.8,304h18v18    h-18V304z M-15.3,304h18v18h-18V304z M3.1,304h18v18h-18V304z M21.5,304h18v18h-18V304z M39.9,304h18v18h-18V304z M58.3,304h18v18    h-18V304z M76.7,304h18v18h-18V304z M95.1,304h18v18h-18V304z M113.5,304h18v18h-18V304z M131.9,304h18v18h-18V304z M150.3,304h18    v18h-18V304z M168.7,304h18v18h-18V304z M187.1,304h18v18h-18V304z M205.5,304h18v18h-18V304z M223.9,304h18v18h-18V304z     M242.3,304h18v18h-18V304z M260.7,304h18v18h-18V304z M279.1,304h18v18h-18V304z M297.5,304h18v18h-18V304z M315.9,304h18v18h-18    V304z M334.3,304h18v18h-18V304z M352.7,304h18v18h-18V304z M371.1,304h18v18h-18V304z M389.5,304h18v18h-18V304z M407.9,304h18    v18h-18V304z M426.3,304h18v18h-18V304z M426.3,303.6v-18h18v18H426.3z M426.3,285.2v-18h18v18H426.3z M426.3,266.8v-18h18v18    H426.3z M426.3,248.4v-18h18v18H426.3z M426.3,230v-18h18v18H426.3z M426.3,211.6v-18h18v18H426.3z M426.3,193.2v-18h18v18H426.3z     M426.3,174.8v-18h18v18H426.3z M426.3,156.4v-18h18v18H426.3z M426,156.4h-18v-18h18V156.4z M407.6,156.4h-18v-18h18V156.4z     M389.2,156.4h-18v-18h18V156.4z M370.8,156.4h-18v-18h18V156.4z M352.3,156.4h-18v-18h18V156.4z M333.9,156.4h-18v-18h18V156.4z     M315.5,156.4h-18v-18h18V156.4z M297.1,156.4h-18v-18h18V156.4z M278.7,156.4h-18v-18h18V156.4z M260.3,156.4h-18v-18h18V156.4z     M241.9,156.4h-18v-18h18V156.4z M223.5,156.4h-18v-18h18V156.4z M205.1,156.4h-18v-18h18V156.4z M186.7,156.4h-18v-18h18V156.4z     M168.3,156.4h-18v-18h18V156.4z M149.9,156.4h-18v-18h18V156.4z M131.5,156.4h-18v-18h18V156.4z M113.1,156.4h-18v-18h18V156.4z     M94.7,156.4h-18v-18h18V156.4z M76.3,156.4h-18v-18h18V156.4z M57.9,156.4h-18v-18h18V156.4z M39.5,156.4h-18v-18h18V156.4z     M21.1,156.4h-18v-18h18V156.4z M2.7,156.4h-18v-18h18V156.4z M-15.7,156.4h-18v-18h18V156.4z M-34.1,156.4h-18v-18h18V156.4z     M-52.5,156.4h-18v-18h18V156.4z M-70.9,156.4h-18v-18h18V156.4z M-89.3,156.4h-18v-18h18V156.4z M-107.7,156.4h-18v-18h18V156.4z     M-107.7,156.8v18h-18v-18H-107.7z M-107.7,175.2v18h-18v-18H-107.7z M-107.7,193.6v18h-18v-18H-107.7z M-107.7,212v18h-18v-18    H-107.7z M-107.7,230.4v18h-18v-18H-107.7z M-107.7,248.8v18h-18v-18H-107.7z M-107.7,267.2v18h-18v-18H-107.7z M-107.7,285.6v18    h-18v-18H-107.7z M-107.7,304v18h-18v-18H-107.7z M-107.7,322.4v18h-18v-18H-107.7z M-107.4,322.4h18v18h-18V322.4z M-89,322.4h18    v18h-18V322.4z M-70.6,322.4h18v18h-18V322.4z M-52.2,322.4h18v18h-18V322.4z M-33.8,322.4h18v18h-18V322.4z M-15.3,322.4h18v18    h-18V322.4z M3.1,322.4h18v18h-18V322.4z M21.5,322.4h18v18h-18V322.4z M39.9,322.4h18v18h-18V322.4z M58.3,322.4h18v18h-18V322.4    z M76.7,322.4h18v18h-18V322.4z M95.1,322.4h18v18h-18V322.4z M113.5,322.4h18v18h-18V322.4z M131.9,322.4h18v18h-18V322.4z     M150.3,322.4h18v18h-18V322.4z M168.7,322.4h18v18h-18V322.4z M187.1,322.4h18v18h-18V322.4z M205.5,322.4h18v18h-18V322.4z     M223.9,322.4h18v18h-18V322.4z M242.3,322.4h18v18h-18V322.4z M260.7,322.4h18v18h-18V322.4z M279.1,322.4h18v18h-18V322.4z     M297.5,322.4h18v18h-18V322.4z M315.9,322.4h18v18h-18V322.4z M334.3,322.4h18v18h-18V322.4z M352.7,322.4h18v18h-18V322.4z     M371.1,322.4h18v18h-18V322.4z M389.5,322.4h18v18h-18V322.4z M407.9,322.4h18v18h-18V322.4z M426.3,322.4h18v18h-18V322.4z     M444.7,322.4h18v18h-18V322.4z M444.7,322v-18h18v18H444.7z M444.7,303.6v-18h18v18H444.7z M444.7,285.2v-18h18v18H444.7z     M444.7,266.8v-18h18v18H444.7z M444.7,248.4v-18h18v18H444.7z M444.7,230v-18h18v18H444.7z M444.7,211.6v-18h18v18H444.7z     M444.7,193.2v-18h18v18H444.7z M444.7,174.8v-18h18v18H444.7z M444.7,156.4v-18h18v18H444.7z M444.7,138v-18h18v18H444.7z     M444.4,138h-18v-18h18V138z M426,138h-18v-18h18V138z M407.6,138h-18v-18h18V138z M389.2,138h-18v-18h18V138z M370.8,138h-18v-18    h18V138z M352.3,138h-18v-18h18V138z M333.9,138h-18v-18h18V138z M315.5,138h-18v-18h18V138z M297.1,138h-18v-18h18V138z     M278.7,138h-18v-18h18V138z M260.3,138h-18v-18h18V138z M241.9,138h-18v-18h18V138z M223.5,138h-18v-18h18V138z M205.1,138h-18    v-18h18V138z M186.7,138h-18v-18h18V138z M168.3,138h-18v-18h18V138z M149.9,138h-18v-18h18V138z M131.5,138h-18v-18h18V138z     M113.1,138h-18v-18h18V138z M94.7,138h-18v-18h18V138z M76.3,138h-18v-18h18V138z M57.9,138h-18v-18h18V138z M39.5,138h-18v-18    h18V138z M21.1,138h-18v-18h18V138z M2.7,138h-18v-18h18V138z M-15.7,138h-18v-18h18V138z M-34.1,138h-18v-18h18V138z M-52.5,138    h-18v-18h18V138z M-70.9,138h-18v-18h18V138z M-89.3,138h-18v-18h18V138z M-107.7,138h-18v-18h18V138z M-126.1,138h-18v-18h18V138    z M-126.1,138.4v18h-18v-18H-126.1z M-126.1,156.8v18h-18v-18H-126.1z M-126.1,175.2v18h-18v-18H-126.1z M-126.1,193.6v18h-18v-18    H-126.1z M-126.1,212v18h-18v-18H-126.1z M-126.1,230.4v18h-18v-18H-126.1z M-126.1,248.8v18h-18v-18H-126.1z M-126.1,267.2v18    h-18v-18H-126.1z M-126.1,285.6v18h-18v-18H-126.1z M-126.1,304v18h-18v-18H-126.1z M-126.1,322.4v18h-18v-18H-126.1z     M-126.1,340.8v18h-18v-18H-126.1z M-125.8,340.8h18v18h-18V340.8z M-107.4,340.8h18v18h-18V340.8z M-89,340.8h18v18h-18V340.8z     M-70.6,340.8h18v18h-18V340.8z M-52.2,340.8h18v18h-18V340.8z M-33.8,340.8h18v18h-18V340.8z M-15.3,340.8h18v18h-18V340.8z     M3.1,340.8h18v18h-18V340.8z M21.5,340.8h18v18h-18V340.8z M39.9,340.8h18v18h-18V340.8z M58.3,340.8h18v18h-18V340.8z     M76.7,340.8h18v18h-18V340.8z M95.1,340.8h18v18h-18V340.8z M113.5,340.8h18v18h-18V340.8z M131.9,340.8h18v18h-18V340.8z     M150.3,340.8h18v18h-18V340.8z M168.7,340.8h18v18h-18V340.8z M187.1,340.8h18v18h-18V340.8z M205.5,340.8h18v18h-18V340.8z     M223.9,340.8h18v18h-18V340.8z M242.3,340.8h18v18h-18V340.8z M260.7,340.8h18v18h-18V340.8z M279.1,340.8h18v18h-18V340.8z     M297.5,340.8h18v18h-18V340.8z M315.9,340.8h18v18h-18V340.8z M334.3,340.8h18v18h-18V340.8z M352.7,340.8h18v18h-18V340.8z     M371.1,340.8h18v18h-18V340.8z M389.5,340.8h18v18h-18V340.8z M407.9,340.8h18v18h-18V340.8z M426.3,340.8h18v18h-18V340.8z     M444.7,340.8h18v18h-18V340.8z M463.1,340.8h18v18h-18V340.8z M463.1,340.4v-18h18v18H463.1z M463.1,322v-18h18v18H463.1z     M463.1,303.6v-18h18v18H463.1z M463.1,285.2v-18h18v18H463.1z M463.1,266.8v-18h18v18H463.1z M463.1,248.4v-18h18v18H463.1z     M463.1,230v-18h18v18H463.1z M463.1,211.6v-18h18v18H463.1z M463.1,193.2v-18h18v18H463.1z M463.1,174.8v-18h18v18H463.1z     M463.1,156.4v-18h18v18H463.1z M463.1,138v-18h18v18H463.1z M463.1,119.6v-18h18v18H463.1z M462.8,119.6h-18v-18h18V119.6z     M444.4,119.6h-18v-18h18V119.6z M426,119.6h-18v-18h18V119.6z M407.6,119.6h-18v-18h18V119.6z M389.2,119.6h-18v-18h18V119.6z     M370.8,119.6h-18v-18h18V119.6z M352.3,119.6h-18v-18h18V119.6z M333.9,119.6h-18v-18h18V119.6z M315.5,119.6h-18v-18h18V119.6z     M297.1,119.6h-18v-18h18V119.6z M278.7,119.6h-18v-18h18V119.6z M260.3,119.6h-18v-18h18V119.6z M241.9,119.6h-18v-18h18V119.6z     M223.5,119.6h-18v-18h18V119.6z M205.1,119.6h-18v-18h18V119.6z M186.7,119.6h-18v-18h18V119.6z M168.3,119.6h-18v-18h18V119.6z     M149.9,119.6h-18v-18h18V119.6z M131.5,119.6h-18v-18h18V119.6z M113.1,119.6h-18v-18h18V119.6z M94.7,119.6h-18v-18h18V119.6z     M76.3,119.6h-18v-18h18V119.6z M57.9,119.6h-18v-18h18V119.6z M39.5,119.6h-18v-18h18V119.6z M21.1,119.6h-18v-18h18V119.6z     M2.7,119.6h-18v-18h18V119.6z M-15.7,119.6h-18v-18h18V119.6z M-34.1,119.6h-18v-18h18V119.6z M-52.5,119.6h-18v-18h18V119.6z     M-70.9,119.6h-18v-18h18V119.6z M-89.3,119.6h-18v-18h18V119.6z M-107.7,119.6h-18v-18h18V119.6z M-126.1,119.6h-18v-18h18V119.6    z M-144.5,119.6h-18v-18h18V119.6z M-144.5,120v18h-18v-18H-144.5z M-144.5,138.4v18h-18v-18H-144.5z M-144.5,156.8v18h-18v-18    H-144.5z M-144.5,175.2v18h-18v-18H-144.5z M-144.5,193.6v18h-18v-18H-144.5z M-144.5,212v18h-18v-18H-144.5z M-144.5,230.4v18    h-18v-18H-144.5z M-144.5,248.8v18h-18v-18H-144.5z M-144.5,267.2v18h-18v-18H-144.5z M-144.5,285.6v18h-18v-18H-144.5z     M-144.5,304v18h-18v-18H-144.5z M-144.5,322.4v18h-18v-18H-144.5z M-144.5,340.8v18h-18v-18H-144.5z M-144.5,359.2v18h-18v-18    H-144.5z M-144.2,359.2h18v18h-18V359.2z M-125.8,359.2h18v18h-18V359.2z M-107.4,359.2h18v18h-18V359.2z M-89,359.2h18v18h-18    V359.2z M-70.6,359.2h18v18h-18V359.2z M-52.2,359.2h18v18h-18V359.2z M-33.8,359.2h18v18h-18V359.2z M-15.3,359.2h18v18h-18    V359.2z M3.1,359.2h18v18h-18V359.2z M21.5,359.2h18v18h-18V359.2z M39.9,359.2h18v18h-18V359.2z M58.3,359.2h18v18h-18V359.2z     M76.7,359.2h18v18h-18V359.2z M95.1,359.2h18v18h-18V359.2z M113.5,359.2h18v18h-18V359.2z M131.9,359.2h18v18h-18V359.2z     M150.3,359.2h18v18h-18V359.2z M168.7,359.2h18v18h-18V359.2z M187.1,359.2h18v18h-18V359.2z M205.5,359.2h18v18h-18V359.2z     M223.9,359.2h18v18h-18V359.2z M242.3,359.2h18v18h-18V359.2z M260.7,359.2h18v18h-18V359.2z M279.1,359.2h18v18h-18V359.2z     M297.5,359.2h18v18h-18V359.2z M315.9,359.2h18v18h-18V359.2z M334.3,359.2h18v18h-18V359.2z M352.7,359.2h18v18h-18V359.2z     M371.1,359.2h18v18h-18V359.2z M389.5,359.2h18v18h-18V359.2z M407.9,359.2h18v18h-18V359.2z M426.3,359.2h18v18h-18V359.2z     M444.7,359.2h18v18h-18V359.2z M463.1,359.2h18v18h-18V359.2z M481.5,359.2h18v18h-18V359.2z M481.5,358.8v-18h18v18H481.5z     M481.5,340.4v-18h18v18H481.5z M481.5,322v-18h18v18H481.5z M481.5,303.6v-18h18v18H481.5z M481.5,285.2v-18h18v18H481.5z     M481.5,266.8v-18h18v18H481.5z M481.5,248.4v-18h18v18H481.5z M481.5,230v-18h18v18H481.5z M481.5,211.6v-18h18v18H481.5z     M481.5,193.2v-18h18v18H481.5z M481.5,174.8v-18h18v18H481.5z M481.5,156.4v-18h18v18H481.5z M481.5,138v-18h18v18H481.5z     M481.5,119.6v-18h18v18H481.5z M481.5,101.2v-18h18v18H481.5z M481.2,101.2h-18v-18h18V101.2z M462.8,101.2h-18v-18h18V101.2z     M444.4,101.2h-18v-18h18V101.2z M426,101.2h-18v-18h18V101.2z M407.6,101.2h-18v-18h18V101.2z M389.2,101.2h-18v-18h18V101.2z     M370.8,101.2h-18v-18h18V101.2z M352.3,101.2h-18v-18h18V101.2z M333.9,101.2h-18v-18h18V101.2z M315.5,101.2h-18v-18h18V101.2z     M297.1,101.2h-18v-18h18V101.2z M278.7,101.2h-18v-18h18V101.2z M260.3,101.2h-18v-18h18V101.2z M241.9,101.2h-18v-18h18V101.2z     M223.5,101.2h-18v-18h18V101.2z M205.1,101.2h-18v-18h18V101.2z M186.7,101.2h-18v-18h18V101.2z M168.3,101.2h-18v-18h18V101.2z     M149.9,101.2h-18v-18h18V101.2z M131.5,101.2h-18v-18h18V101.2z M113.1,101.2h-18v-18h18V101.2z M94.7,101.2h-18v-18h18V101.2z     M76.3,101.2h-18v-18h18V101.2z M57.9,101.2h-18v-18h18V101.2z M39.5,101.2h-18v-18h18V101.2z M21.1,101.2h-18v-18h18V101.2z     M2.7,101.2h-18v-18h18V101.2z M-15.7,101.2h-18v-18h18V101.2z M-34.1,101.2h-18v-18h18V101.2z M-52.5,101.2h-18v-18h18V101.2z     M-70.9,101.2h-18v-18h18V101.2z M-89.3,101.2h-18v-18h18V101.2z M-107.7,101.2h-18v-18h18V101.2z M-126.1,101.2h-18v-18h18V101.2    z M-144.5,101.2h-18v-18h18V101.2z M-162.9,101.2h-18v-18h18V101.2z M-162.9,101.6v18h-18v-18H-162.9z M-162.9,120v18h-18v-18    H-162.9z M-162.9,138.4v18h-18v-18H-162.9z M-162.9,156.8v18h-18v-18H-162.9z M-162.9,175.2v18h-18v-18H-162.9z M-162.9,193.6v18    h-18v-18H-162.9z M-162.9,212v18h-18v-18H-162.9z M-162.9,230.4v18h-18v-18H-162.9z M-162.9,248.8v18h-18v-18H-162.9z     M-162.9,267.2v18h-18v-18H-162.9z M-162.9,285.6v18h-18v-18H-162.9z M-162.9,304v18h-18v-18H-162.9z M-162.9,322.4v18h-18v-18    H-162.9z M-162.9,340.8v18h-18v-18H-162.9z M-162.9,359.2v18h-18v-18H-162.9z M-162.9,377.6v18h-18v-18H-162.9z M-162.6,377.6h18    v18h-18V377.6z M-144.2,377.6h18v18h-18V377.6z M-125.8,377.6h18v18h-18V377.6z M-107.4,377.6h18v18h-18V377.6z M-89,377.6h18v18    h-18V377.6z M-70.6,377.6h18v18h-18V377.6z M-52.2,377.6h18v18h-18V377.6z M-33.8,377.6h18v18h-18V377.6z M-15.3,377.6h18v18h-18    V377.6z M3.1,377.6h18v18h-18V377.6z M21.5,377.6h18v18h-18V377.6z M39.9,377.6h18v18h-18V377.6z M58.3,377.6h18v18h-18V377.6z     M76.7,377.6h18v18h-18V377.6z M95.1,377.6h18v18h-18V377.6z M113.5,377.6h18v18h-18V377.6z M131.9,377.6h18v18h-18V377.6z     M150.3,377.6h18v18h-18V377.6z M168.7,377.6h18v18h-18V377.6z M187.1,377.6h18v18h-18V377.6z M205.5,377.6h18v18h-18V377.6z     M223.9,377.6h18v18h-18V377.6z M242.3,377.6h18v18h-18V377.6z M260.7,377.6h18v18h-18V377.6z M279.1,377.6h18v18h-18V377.6z     M297.5,377.6h18v18h-18V377.6z M315.9,377.6h18v18h-18V377.6z M334.3,377.6h18v18h-18V377.6z M352.7,377.6h18v18h-18V377.6z     M371.1,377.6h18v18h-18V377.6z M389.5,377.6h18v18h-18V377.6z M407.9,377.6h18v18h-18V377.6z M426.3,377.6h18v18h-18V377.6z     M444.7,377.6h18v18h-18V377.6z M463.1,377.6h18v18h-18V377.6z M481.5,377.6h18v18h-18V377.6z M499.9,377.6h18v18h-18V377.6z     M499.9,377.2v-18h18v18H499.9z M499.9,358.8v-18h18v18H499.9z M499.9,340.4v-18h18v18H499.9z M499.9,322v-18h18v18H499.9z     M499.9,303.6v-18h18v18H499.9z M499.9,285.2v-18h18v18H499.9z M499.9,266.8v-18h18v18H499.9z M499.9,248.4v-18h18v18H499.9z     M499.9,230v-18h18v18H499.9z M499.9,211.6v-18h18v18H499.9z M499.9,193.2v-18h18v18H499.9z M499.9,174.8v-18h18v18H499.9z     M499.9,156.4v-18h18v18H499.9z M499.9,138v-18h18v18H499.9z M499.9,119.6v-18h18v18H499.9z M499.9,101.2v-18h18v18H499.9z     M499.9,82.8v-18h18v18H499.9z M499.6,82.8h-18v-18h18V82.8z M481.2,82.8h-18v-18h18V82.8z M462.8,82.8h-18v-18h18V82.8z     M444.4,82.8h-18v-18h18V82.8z M426,82.8h-18v-18h18V82.8z M407.6,82.8h-18v-18h18V82.8z M389.2,82.8h-18v-18h18V82.8z     M370.8,82.8h-18v-18h18V82.8z M352.3,82.8h-18v-18h18V82.8z M333.9,82.8h-18v-18h18V82.8z M315.5,82.8h-18v-18h18V82.8z     M297.1,82.8h-18v-18h18V82.8z M278.7,82.8h-18v-18h18V82.8z M260.3,82.8h-18v-18h18V82.8z M241.9,82.8h-18v-18h18V82.8z     M223.5,82.8h-18v-18h18V82.8z M205.1,82.8h-18v-18h18V82.8z M186.7,82.8h-18v-18h18V82.8z M168.3,82.8h-18v-18h18V82.8z     M149.9,82.8h-18v-18h18V82.8z M131.5,82.8h-18v-18h18V82.8z M113.1,82.8h-18v-18h18V82.8z M94.7,82.8h-18v-18h18V82.8z     M76.3,82.8h-18v-18h18V82.8z M57.9,82.8h-18v-18h18V82.8z M39.5,82.8h-18v-18h18V82.8z M21.1,82.8h-18v-18h18V82.8z M2.7,82.8    h-18v-18h18V82.8z M-15.7,82.8h-18v-18h18V82.8z M-34.1,82.8h-18v-18h18V82.8z M-52.5,82.8h-18v-18h18V82.8z M-70.9,82.8h-18v-18    h18V82.8z M-89.3,82.8h-18v-18h18V82.8z M-107.7,82.8h-18v-18h18V82.8z M-126.1,82.8h-18v-18h18V82.8z M-144.5,82.8h-18v-18h18    V82.8z M-162.9,82.8h-18v-18h18V82.8z M-181.3,82.8h-18v-18h18V82.8z M-181.3,83.2v18h-18v-18H-181.3z M-181.3,101.6v18h-18v-18    H-181.3z M-181.3,120v18h-18v-18H-181.3z M-181.3,138.4v18h-18v-18H-181.3z M-181.3,156.8v18h-18v-18H-181.3z M-181.3,175.2v18    h-18v-18H-181.3z M-181.3,193.6v18h-18v-18H-181.3z M-181.3,212v18h-18v-18H-181.3z M-181.3,230.4v18h-18v-18H-181.3z     M-181.3,248.8v18h-18v-18H-181.3z M-181.3,267.2v18h-18v-18H-181.3z M-181.3,285.6v18h-18v-18H-181.3z M-181.3,304v18h-18v-18    H-181.3z M-181.3,322.4v18h-18v-18H-181.3z M-181.3,340.8v18h-18v-18H-181.3z M-181.3,359.2v18h-18v-18H-181.3z M-181.3,377.6v18    h-18v-18H-181.3z M-181.3,396v18h-18v-18H-181.3z M-181,396h18v18h-18V396z M-162.6,396h18v18h-18V396z M-144.2,396h18v18h-18V396    z M-125.8,396h18v18h-18V396z M-107.4,396h18v18h-18V396z M-89,396h18v18h-18V396z M-70.6,396h18v18h-18V396z M-52.2,396h18v18    h-18V396z M-33.8,396h18v18h-18V396z M-15.3,396h18v18h-18V396z M3.1,396h18v18h-18V396z M21.5,396h18v18h-18V396z M39.9,396h18    v18h-18V396z M58.3,396h18v18h-18V396z M76.7,396h18v18h-18V396z M95.1,396h18v18h-18V396z M113.5,396h18v18h-18V396z M131.9,396    h18v18h-18V396z M150.3,396h18v18h-18V396z M168.7,396h18v18h-18V396z M187.1,396h18v18h-18V396z M205.5,396h18v18h-18V396z     M223.9,396h18v18h-18V396z M242.3,396h18v18h-18V396z M260.7,396h18v18h-18V396z M279.1,396h18v18h-18V396z M297.5,396h18v18h-18    V396z M315.9,396h18v18h-18V396z M334.3,396h18v18h-18V396z M352.7,396h18v18h-18V396z M371.1,396h18v18h-18V396z M389.5,396h18    v18h-18V396z M407.9,396h18v18h-18V396z M426.3,396h18v18h-18V396z M444.7,396h18v18h-18V396z M463.1,396h18v18h-18V396z     M481.5,396h18v18h-18V396z M499.9,396h18v18h-18V396z M518.3,396h18v18h-18V396z M518.3,395.6v-18h18v18H518.3z M518.3,377.2v-18    h18v18H518.3z M518.3,358.8v-18h18v18H518.3z M518.3,340.4v-18h18v18H518.3z M518.3,322v-18h18v18H518.3z M518.3,303.6v-18h18v18    H518.3z M518.3,285.2v-18h18v18H518.3z M518.3,266.8v-18h18v18H518.3z M518.3,248.4v-18h18v18H518.3z M518.3,230v-18h18v18H518.3z     M518.3,211.6v-18h18v18H518.3z M518.3,193.2v-18h18v18H518.3z M518.3,174.8v-18h18v18H518.3z M518.3,156.4v-18h18v18H518.3z     M518.3,138v-18h18v18H518.3z M518.3,119.6v-18h18v18H518.3z M518.3,101.2v-18h18v18H518.3z M518.3,82.8v-18h18v18H518.3z     M518.3,64.4v-18h18v18H518.3z M518,64.4h-18v-18h18V64.4z M499.6,64.4h-18v-18h18V64.4z M481.2,64.4h-18v-18h18V64.4z     M462.8,64.4h-18v-18h18V64.4z M444.4,64.4h-18v-18h18V64.4z M426,64.4h-18v-18h18V64.4z M407.6,64.4h-18v-18h18V64.4z     M389.2,64.4h-18v-18h18V64.4z M370.8,64.4h-18v-18h18V64.4z M352.3,64.4h-18v-18h18V64.4z M333.9,64.4h-18v-18h18V64.4z     M315.5,64.4h-18v-18h18V64.4z M297.1,64.4h-18v-18h18V64.4z M278.7,64.4h-18v-18h18V64.4z M260.3,64.4h-18v-18h18V64.4z     M241.9,64.4h-18v-18h18V64.4z M223.5,64.4h-18v-18h18V64.4z M205.1,64.4h-18v-18h18V64.4z M186.7,64.4h-18v-18h18V64.4z     M168.3,64.4h-18v-18h18V64.4z M149.9,64.4h-18v-18h18V64.4z M131.5,64.4h-18v-18h18V64.4z M113.1,64.4h-18v-18h18V64.4z     M94.7,64.4h-18v-18h18V64.4z M76.3,64.4h-18v-18h18V64.4z M57.9,64.4h-18v-18h18V64.4z M39.5,64.4h-18v-18h18V64.4z M21.1,64.4    h-18v-18h18V64.4z M2.7,64.4h-18v-18h18V64.4z M-15.7,64.4h-18v-18h18V64.4z M-34.1,64.4h-18v-18h18V64.4z M-52.5,64.4h-18v-18h18    V64.4z M-70.9,64.4h-18v-18h18V64.4z M-89.3,64.4h-18v-18h18V64.4z M-107.7,64.4h-18v-18h18V64.4z M-126.1,64.4h-18v-18h18V64.4z     M-144.5,64.4h-18v-18h18V64.4z M-162.9,64.4h-18v-18h18V64.4z M-181.3,64.4h-18v-18h18V64.4z M-199.8,64.4h-18v-18h18V64.4z     M-199.8,64.8v18h-18v-18H-199.8z M-199.8,83.2v18h-18v-18H-199.8z M-199.8,101.6v18h-18v-18H-199.8z M-199.8,120v18h-18v-18    H-199.8z M-199.8,138.4v18h-18v-18H-199.8z M-199.8,156.8v18h-18v-18H-199.8z M-199.8,175.2v18h-18v-18H-199.8z M-199.8,193.6v18    h-18v-18H-199.8z M-199.8,212v18h-18v-18H-199.8z M-199.8,230.4v18h-18v-18H-199.8z M-199.8,248.8v18h-18v-18H-199.8z     M-199.8,267.2v18h-18v-18H-199.8z M-199.8,285.6v18h-18v-18H-199.8z M-199.8,304v18h-18v-18H-199.8z M-199.8,322.4v18h-18v-18    H-199.8z M-199.8,340.8v18h-18v-18H-199.8z M-199.8,359.2v18h-18v-18H-199.8z M-199.8,377.6v18h-18v-18H-199.8z M-199.8,396v18    h-18v-18H-199.8z M-199.8,414.4v18h-18v-18H-199.8z M-199.4,414.4h18v18h-18V414.4z M-181,414.4h18v18h-18V414.4z M-162.6,414.4    h18v18h-18V414.4z M-144.2,414.4h18v18h-18V414.4z M-125.8,414.4h18v18h-18V414.4z M-107.4,414.4h18v18h-18V414.4z M-89,414.4h18    v18h-18V414.4z M-70.6,414.4h18v18h-18V414.4z M-52.2,414.4h18v18h-18V414.4z M-33.8,414.4h18v18h-18V414.4z M-15.3,414.4h18v18    h-18V414.4z M3.1,414.4h18v18h-18V414.4z M21.5,414.4h18v18h-18V414.4z M39.9,414.4h18v18h-18V414.4z M58.3,414.4h18v18h-18V414.4    z M76.7,414.4h18v18h-18V414.4z M95.1,414.4h18v18h-18V414.4z M113.5,414.4h18v18h-18V414.4z M131.9,414.4h18v18h-18V414.4z     M150.3,414.4h18v18h-18V414.4z M168.7,414.4h18v18h-18V414.4z M187.1,414.4h18v18h-18V414.4z M205.5,414.4h18v18h-18V414.4z     M223.9,414.4h18v18h-18V414.4z M242.3,414.4h18v18h-18V414.4z M260.7,414.4h18v18h-18V414.4z M279.1,414.4h18v18h-18V414.4z     M297.5,414.4h18v18h-18V414.4z M315.9,414.4h18v18h-18V414.4z M334.3,414.4h18v18h-18V414.4z M352.7,414.4h18v18h-18V414.4z     M371.1,414.4h18v18h-18V414.4z M389.5,414.4h18v18h-18V414.4z M407.9,414.4h18v18h-18V414.4z M426.3,414.4h18v18h-18V414.4z     M444.7,414.4h18v18h-18V414.4z M463.1,414.4h18v18h-18V414.4z M481.5,414.4h18v18h-18V414.4z M499.9,414.4h18v18h-18V414.4z     M518.3,414.4h18v18h-18V414.4z M536.8,414.4h18v18h-18V414.4z M536.8,414.1v-18h18v18H536.8z M536.8,395.6v-18h18v18H536.8z     M536.8,377.2v-18h18v18H536.8z M536.8,358.8v-18h18v18H536.8z M536.8,340.4v-18h18v18H536.8z M536.8,322v-18h18v18H536.8z     M536.8,303.6v-18h18v18H536.8z M536.8,285.2v-18h18v18H536.8z M536.8,266.8v-18h18v18H536.8z M536.8,248.4v-18h18v18H536.8z     M536.8,230v-18h18v18H536.8z M536.8,211.6v-18h18v18H536.8z M536.8,193.2v-18h18v18H536.8z M536.8,174.8v-18h18v18H536.8z     M536.8,156.4v-18h18v18H536.8z M536.8,138v-18h18v18H536.8z M536.8,119.6v-18h18v18H536.8z M536.8,101.2v-18h18v18H536.8z     M536.8,82.8v-18h18v18H536.8z M536.8,64.4v-18h18v18H536.8z M536.8,46v-18h18v18H536.8z M536.4,46h-18v-18h18V46z M518,46h-18    v-18h18V46z M499.6,46h-18v-18h18V46z M481.2,46h-18v-18h18V46z M462.8,46h-18v-18h18V46z M444.4,46h-18v-18h18V46z M426,46h-18    v-18h18V46z M407.6,46h-18v-18h18V46z M389.2,46h-18v-18h18V46z M370.8,46h-18v-18h18V46z M352.3,46h-18v-18h18V46z M333.9,46h-18    v-18h18V46z M315.5,46h-18v-18h18V46z M297.1,46h-18v-18h18V46z M278.7,46h-18v-18h18V46z M260.3,46h-18v-18h18V46z M241.9,46h-18    v-18h18V46z M223.5,46h-18v-18h18V46z M205.1,46h-18v-18h18V46z M186.7,46h-18v-18h18V46z M168.3,46h-18v-18h18V46z M149.9,46h-18    v-18h18V46z M131.5,46h-18v-18h18V46z M113.1,46h-18v-18h18V46z M94.7,46h-18v-18h18V46z M76.3,46h-18v-18h18V46z M57.9,46h-18    v-18h18V46z M39.5,46h-18v-18h18V46z M21.1,46h-18v-18h18V46z M2.7,46h-18v-18h18V46z M-15.7,46h-18v-18h18V46z M-34.1,46h-18v-18    h18V46z M-52.5,46h-18v-18h18V46z M-70.9,46h-18v-18h18V46z M-89.3,46h-18v-18h18V46z M-107.7,46h-18v-18h18V46z M-126.1,46h-18    v-18h18V46z M-144.5,46h-18v-18h18V46z M-162.9,46h-18v-18h18V46z M-181.3,46h-18v-18h18V46z M-199.8,46h-18v-18h18V46z     M-218.2,46h-18v-18h18V46z M-218.2,46.4v18h-18v-18H-218.2z M-218.2,64.8v18h-18v-18H-218.2z M-218.2,83.2v18h-18v-18H-218.2z     M-218.2,101.6v18h-18v-18H-218.2z M-218.2,120v18h-18v-18H-218.2z M-218.2,138.4v18h-18v-18H-218.2z M-218.2,156.8v18h-18v-18    H-218.2z M-218.2,175.2v18h-18v-18H-218.2z M-218.2,193.6v18h-18v-18H-218.2z M-218.2,212v18h-18v-18H-218.2z M-218.2,230.4v18    h-18v-18H-218.2z M-218.2,248.8v18h-18v-18H-218.2z M-218.2,267.2v18h-18v-18H-218.2z M-218.2,285.6v18h-18v-18H-218.2z     M-218.2,304v18h-18v-18H-218.2z M-218.2,322.4v18h-18v-18H-218.2z M-218.2,340.8v18h-18v-18H-218.2z M-218.2,359.2v18h-18v-18    H-218.2z M-218.2,377.6v18h-18v-18H-218.2z M-218.2,396v18h-18v-18H-218.2z M-218.2,414.4v18h-18v-18H-218.2z M-218.2,432.8v18    h-18v-18H-218.2z M-217.8,432.8h18v18h-18V432.8z M-199.4,432.8h18v18h-18V432.8z M-181,432.8h18v18h-18V432.8z M-162.6,432.8h18    v18h-18V432.8z M-144.2,432.8h18v18h-18V432.8z M-125.8,432.8h18v18h-18V432.8z M-107.4,432.8h18v18h-18V432.8z M-89,432.8h18v18    h-18V432.8z M-70.6,432.8h18v18h-18V432.8z M-52.2,432.8h18v18h-18V432.8z M-33.8,432.8h18v18h-18V432.8z M-15.3,432.8h18v18h-18    V432.8z M3.1,432.8h18v18h-18V432.8z M21.5,432.8h18v18h-18V432.8z M39.9,432.8h18v18h-18V432.8z M58.3,432.8h18v18h-18V432.8z     M76.7,432.8h18v18h-18V432.8z M95.1,432.8h18v18h-18V432.8z M113.5,432.8h18v18h-18V432.8z M131.9,432.8h18v18h-18V432.8z     M150.3,432.8h18v18h-18V432.8z M168.7,432.8h18v18h-18V432.8z M187.1,432.8h18v18h-18V432.8z M205.5,432.8h18v18h-18V432.8z     M223.9,432.8h18v18h-18V432.8z M242.3,432.8h18v18h-18V432.8z M260.7,432.8h18v18h-18V432.8z M279.1,432.8h18v18h-18V432.8z     M297.5,432.8h18v18h-18V432.8z M315.9,432.8h18v18h-18V432.8z M334.3,432.8h18v18h-18V432.8z M352.7,432.8h18v18h-18V432.8z     M371.1,432.8h18v18h-18V432.8z M389.5,432.8h18v18h-18V432.8z M407.9,432.8h18v18h-18V432.8z M426.3,432.8h18v18h-18V432.8z     M444.7,432.8h18v18h-18V432.8z M463.1,432.8h18v18h-18V432.8z M481.5,432.8h18v18h-18V432.8z M499.9,432.8h18v18h-18V432.8z     M518.3,432.8h18v18h-18V432.8z M536.8,432.8h18v18h-18V432.8z M555.2,432.8h18v18h-18V432.8z M555.2,432.5v-18h18v18H555.2z     M555.2,414.1v-18h18v18H555.2z M555.2,395.6v-18h18v18H555.2z M555.2,377.2v-18h18v18H555.2z M555.2,358.8v-18h18v18H555.2z     M555.2,340.4v-18h18v18H555.2z M555.2,322v-18h18v18H555.2z M555.2,303.6v-18h18v18H555.2z M555.2,285.2v-18h18v18H555.2z     M555.2,266.8v-18h18v18H555.2z M555.2,248.4v-18h18v18H555.2z M555.2,230v-18h18v18H555.2z M555.2,211.6v-18h18v18H555.2z     M555.2,193.2v-18h18v18H555.2z M555.2,174.8v-18h18v18H555.2z M555.2,156.4v-18h18v18H555.2z M555.2,138v-18h18v18H555.2z     M555.2,119.6v-18h18v18H555.2z M555.2,101.2v-18h18v18H555.2z M555.2,82.8v-18h18v18H555.2z M555.2,64.4v-18h18v18H555.2z     M555.2,46v-18h18v18H555.2z M555.2,27.6v-18h18v18H555.2z M554.8,27.6h-18v-18h18V27.6z M536.4,27.6h-18v-18h18V27.6z M518,27.6    h-18v-18h18V27.6z M499.6,27.6h-18v-18h18V27.6z M481.2,27.6h-18v-18h18V27.6z M462.8,27.6h-18v-18h18V27.6z M444.4,27.6h-18v-18    h18V27.6z M426,27.6h-18v-18h18V27.6z M407.6,27.6h-18v-18h18V27.6z M389.2,27.6h-18v-18h18V27.6z M370.8,27.6h-18v-18h18V27.6z     M352.3,27.6h-18v-18h18V27.6z M333.9,27.6h-18v-18h18V27.6z M315.5,27.6h-18v-18h18V27.6z M297.1,27.6h-18v-18h18V27.6z     M278.7,27.6h-18v-18h18V27.6z M260.3,27.6h-18v-18h18V27.6z M241.9,27.6h-18v-18h18V27.6z M223.5,27.6h-18v-18h18V27.6z     M205.1,27.6h-18v-18h18V27.6z M186.7,27.6h-18v-18h18V27.6z M168.3,27.6h-18v-18h18V27.6z M149.9,27.6h-18v-18h18V27.6z     M131.5,27.6h-18v-18h18V27.6z M113.1,27.6h-18v-18h18V27.6z M94.7,27.6h-18v-18h18V27.6z M76.3,27.6h-18v-18h18V27.6z M57.9,27.6    h-18v-18h18V27.6z M39.5,27.6h-18v-18h18V27.6z M21.1,27.6h-18v-18h18V27.6z M2.7,27.6h-18v-18h18V27.6z M-15.7,27.6h-18v-18h18    V27.6z M-34.1,27.6h-18v-18h18V27.6z M-52.5,27.6h-18v-18h18V27.6z M-70.9,27.6h-18v-18h18V27.6z M-89.3,27.6h-18v-18h18V27.6z     M-107.7,27.6h-18v-18h18V27.6z M-126.1,27.6h-18v-18h18V27.6z M-144.5,27.6h-18v-18h18V27.6z M-162.9,27.6h-18v-18h18V27.6z     M-181.3,27.6h-18v-18h18V27.6z M-199.8,27.6h-18v-18h18V27.6z M-218.2,27.6h-18v-18h18V27.6z M-236.6,27.6h-18v-18h18V27.6z     M-236.6,27.9v18h-18v-18H-236.6z M-236.6,46.4v18h-18v-18H-236.6z M-236.6,64.8v18h-18v-18H-236.6z M-236.6,83.2v18h-18v-18    H-236.6z M-236.6,101.6v18h-18v-18H-236.6z M-236.6,120v18h-18v-18H-236.6z M-236.6,138.4v18h-18v-18H-236.6z M-236.6,156.8v18    h-18v-18H-236.6z M-236.6,175.2v18h-18v-18H-236.6z M-236.6,193.6v18h-18v-18H-236.6z M-236.6,212v18h-18v-18H-236.6z     M-236.6,230.4v18h-18v-18H-236.6z M-236.6,248.8v18h-18v-18H-236.6z M-236.6,267.2v18h-18v-18H-236.6z M-236.6,285.6v18h-18v-18    H-236.6z M-236.6,304v18h-18v-18H-236.6z M-236.6,322.4v18h-18v-18H-236.6z M-236.6,340.8v18h-18v-18H-236.6z M-236.6,359.2v18    h-18v-18H-236.6z M-236.6,377.6v18h-18v-18H-236.6z M-236.6,396v18h-18v-18H-236.6z M-236.6,414.4v18h-18v-18H-236.6z     M-236.6,432.8v18h-18v-18H-236.6z M-236.2,451.2h18v18h-18V451.2z M-217.8,451.2h18v18h-18V451.2z M-199.4,451.2h18v18h-18V451.2    z M-181,451.2h18v18h-18V451.2z M-162.6,451.2h18v18h-18V451.2z M-144.2,451.2h18v18h-18V451.2z M-125.8,451.2h18v18h-18V451.2z     M-107.4,451.2h18v18h-18V451.2z M-89,451.2h18v18h-18V451.2z M-70.6,451.2h18v18h-18V451.2z M-52.2,451.2h18v18h-18V451.2z     M-33.8,451.2h18v18h-18V451.2z M-15.3,451.2h18v18h-18V451.2z M3.1,451.2h18v18h-18V451.2z M21.5,451.2h18v18h-18V451.2z     M39.9,451.2h18v18h-18V451.2z M58.3,451.2h18v18h-18V451.2z M76.7,451.2h18v18h-18V451.2z M95.1,451.2h18v18h-18V451.2z     M113.5,451.2h18v18h-18V451.2z M131.9,451.2h18v18h-18V451.2z M150.3,451.2h18v18h-18V451.2z M168.7,451.2h18v18h-18V451.2z     M187.1,451.2h18v18h-18V451.2z M205.5,451.2h18v18h-18V451.2z M223.9,451.2h18v18h-18V451.2z M242.3,451.2h18v18h-18V451.2z     M260.7,451.2h18v18h-18V451.2z M279.1,451.2h18v18h-18V451.2z M297.5,451.2h18v18h-18V451.2z M315.9,451.2h18v18h-18V451.2z     M334.3,451.2h18v18h-18V451.2z M352.7,451.2h18v18h-18V451.2z M371.1,451.2h18v18h-18V451.2z M389.5,451.2h18v18h-18V451.2z     M407.9,451.2h18v18h-18V451.2z M426.3,451.2h18v18h-18V451.2z M444.7,451.2h18v18h-18V451.2z M463.1,451.2h18v18h-18V451.2z     M481.5,451.2h18v18h-18V451.2z M499.9,451.2h18v18h-18V451.2z M518.3,451.2h18v18h-18V451.2z M536.8,451.2h18v18h-18V451.2z     M555.2,451.2h18v18h-18V451.2z M573.6,451.2h18v18h-18V451.2z M573.6,450.9v-18h18v18H573.6z M573.6,432.5v-18h18v18H573.6z     M573.6,414.1v-18h18v18H573.6z M573.6,395.6v-18h18v18H573.6z M573.6,377.2v-18h18v18H573.6z M573.6,358.8v-18h18v18H573.6z     M573.6,340.4v-18h18v18H573.6z M573.6,322v-18h18v18H573.6z M573.6,303.6v-18h18v18H573.6z M573.6,285.2v-18h18v18H573.6z     M573.6,266.8v-18h18v18H573.6z M573.6,248.4v-18h18v18H573.6z M573.6,230v-18h18v18H573.6z M573.6,211.6v-18h18v18H573.6z     M573.6,193.2v-18h18v18H573.6z M573.6,174.8v-18h18v18H573.6z M573.6,156.4v-18h18v18H573.6z M573.6,138v-18h18v18H573.6z     M573.6,119.6v-18h18v18H573.6z M573.6,101.2v-18h18v18H573.6z M573.6,82.8v-18h18v18H573.6z M573.6,64.4v-18h18v18H573.6z     M573.6,46v-18h18v18H573.6z M573.6,27.6v-18h18v18H573.6z M573.6,9.2v-18h18v18H573.6z M573.2,9.2h-18v-18h18V9.2z M554.8,9.2    h-18v-18h18V9.2z M536.4,9.2h-18v-18h18V9.2z M518,9.2h-18v-18h18V9.2z M499.6,9.2h-18v-18h18V9.2z M481.2,9.2h-18v-18h18V9.2z     M462.8,9.2h-18v-18h18V9.2z M444.4,9.2h-18v-18h18V9.2z M426,9.2h-18v-18h18V9.2z M407.6,9.2h-18v-18h18V9.2z M389.2,9.2h-18v-18    h18V9.2z M370.8,9.2h-18v-18h18V9.2z M352.3,9.2h-18v-18h18V9.2z M333.9,9.2h-18v-18h18V9.2z M315.5,9.2h-18v-18h18V9.2z     M297.1,9.2h-18v-18h18V9.2z M278.7,9.2h-18v-18h18V9.2z M260.3,9.2h-18v-18h18V9.2z M241.9,9.2h-18v-18h18V9.2z M223.5,9.2h-18    v-18h18V9.2z M205.1,9.2h-18v-18h18V9.2z M186.7,9.2h-18v-18h18V9.2z M168.3,9.2h-18v-18h18V9.2z M149.9,9.2h-18v-18h18V9.2z     M131.5,9.2h-18v-18h18V9.2z M113.1,9.2h-18v-18h18V9.2z M94.7,9.2h-18v-18h18V9.2z M76.3,9.2h-18v-18h18V9.2z M57.9,9.2h-18v-18    h18V9.2z M39.5,9.2h-18v-18h18V9.2z M21.1,9.2h-18v-18h18V9.2z M2.7,9.2h-18v-18h18V9.2z M-15.7,9.2h-18v-18h18V9.2z M-34.1,9.2    h-18v-18h18V9.2z M-52.5,9.2h-18v-18h18V9.2z M-70.9,9.2h-18v-18h18V9.2z M-89.3,9.2h-18v-18h18V9.2z M-107.7,9.2h-18v-18h18V9.2z     M-126.1,9.2h-18v-18h18V9.2z M-144.5,9.2h-18v-18h18V9.2z M-162.9,9.2h-18v-18h18V9.2z M-181.3,9.2h-18v-18h18V9.2z M-199.8,9.2    h-18v-18h18V9.2z M-218.2,9.2h-18v-18h18V9.2z M-236.6,9.2h-18v-18h18V9.2z M-255,9.2h-18v-18h18V9.2z M-255,9.5v18h-18v-18H-255z     M-255,27.9v18h-18v-18H-255z M-255,46.4v18h-18v-18H-255z M-255,64.8v18h-18v-18H-255z M-255,83.2v18h-18v-18H-255z M-255,101.6    v18h-18v-18H-255z M-255,120v18h-18v-18H-255z M-255,138.4v18h-18v-18H-255z M-255,156.8v18h-18v-18H-255z M-255,175.2v18h-18v-18    H-255z M-255,193.6v18h-18v-18H-255z M-255,212v18h-18v-18H-255z M-255,230.4v18h-18v-18H-255z M-255,248.8v18h-18v-18H-255z     M-255,267.2v18h-18v-18H-255z M-255,285.6v18h-18v-18H-255z M-255,304v18h-18v-18H-255z M-255,322.4v18h-18v-18H-255z     M-255,340.8v18h-18v-18H-255z M-255,359.2v18h-18v-18H-255z M-255,377.6v18h-18v-18H-255z M-255,396v18h-18v-18H-255z     M-255,414.4v18h-18v-18H-255z M-255,432.8v18h-18v-18H-255z M592,469.3v-18h18v18H592z M592,450.9v-18h18v18H592z M592,432.5v-18    h18v18H592z M592,414.1v-18h18v18H592z M592,395.6v-18h18v18H592z M592,377.2v-18h18v18H592z M592,358.8v-18h18v18H592z     M592,340.4v-18h18v18H592z M592,322v-18h18v18H592z M592,303.6v-18h18v18H592z M592,285.2v-18h18v18H592z M592,266.8v-18h18v18    H592z M592,248.4v-18h18v18H592z M592,230v-18h18v18H592z M592,211.6v-18h18v18H592z M592,193.2v-18h18v18H592z M592,174.8v-18h18    v18H592z M592,156.4v-18h18v18H592z M592,138v-18h18v18H592z M592,119.6v-18h18v18H592z M592,101.2v-18h18v18H592z M592,82.8v-18    h18v18H592z M592,64.4v-18h18v18H592z M592,46v-18h18v18H592z M592,27.6v-18h18v18H592z M592,9.2v-18h18v18H592z M591.6-27.3v18    h-18v-18H591.6z M573.2-27.3v18h-18v-18H573.2z M554.8-27.3v18h-18v-18H554.8z M536.4-27.3v18h-18v-18H536.4z M518-27.3v18h-18    v-18H518z M499.6-27.3v18h-18v-18H499.6z M481.2-27.3v18h-18v-18H481.2z M462.8-27.3v18h-18v-18H462.8z M444.4-27.3v18h-18v-18    H444.4z M426-27.3v18h-18v-18H426z M407.6-27.3v18h-18v-18H407.6z M389.2-27.3v18h-18v-18H389.2z M370.8-27.3v18h-18v-18H370.8z     M352.3-27.3v18h-18v-18H352.3z M333.9-27.3v18h-18v-18H333.9z M315.5-27.3v18h-18v-18H315.5z M297.1-27.3v18h-18v-18H297.1z     M278.7-27.3v18h-18v-18H278.7z M260.3-27.3v18h-18v-18H260.3z M241.9-27.3v18h-18v-18H241.9z M223.5-27.3v18h-18v-18H223.5z     M205.1-27.3v18h-18v-18H205.1z M186.7-27.3v18h-18v-18H186.7z M168.3-27.3v18h-18v-18H168.3z M149.9-27.3v18h-18v-18H149.9z     M131.5-27.3v18h-18v-18H131.5z M113.1-27.3v18h-18v-18H113.1z M94.7-27.3v18h-18v-18H94.7z M76.3-27.3v18h-18v-18H76.3z     M57.9-27.3v18h-18v-18H57.9z M39.5-27.3v18h-18v-18H39.5z M21.1-27.3v18h-18v-18H21.1z M2.7-27.3v18h-18v-18H2.7z M-15.7-27.3v18    h-18v-18H-15.7z M-34.1-27.3v18h-18v-18H-34.1z M-52.5-27.3v18h-18v-18H-52.5z M-70.9-27.3v18h-18v-18H-70.9z M-89.3-27.3v18h-18    v-18H-89.3z M-107.7-27.3v18h-18v-18H-107.7z M-126.1-27.3v18h-18v-18H-126.1z M-144.5-27.3v18h-18v-18H-144.5z M-162.9-27.3v18    h-18v-18H-162.9z M-181.3-27.3v18h-18v-18H-181.3z M-199.8-27.3v18h-18v-18H-199.8z M-218.2-27.3v18h-18v-18H-218.2z M-236.6-27.3    v18h-18v-18H-236.6z M-255-27.3v18h-18v-18H-255z M-274.1-27.3h0.8v18h-0.8V-27.3z M-274.1-8.9h0.8v18h-0.8V-8.9z M-274.1,9.5h0.8    v18h-0.8V9.5z M-274.1,27.9h0.8v18h-0.8V27.9z M-274.1,46.4h0.8v18h-0.8V46.4z M-274.1,64.8h0.8v18h-0.8V64.8z M-274.1,83.2h0.8    v18h-0.8V83.2z M-274.1,101.6h0.8v18h-0.8V101.6z M-274.1,120h0.8v18h-0.8V120z M-274.1,138.4h0.8v18h-0.8V138.4z M-274.1,156.8    h0.8v18h-0.8V156.8z M-274.1,175.2h0.8v18h-0.8V175.2z M-274.1,193.6h0.8v18h-0.8V193.6z M-274.1,212h0.8v18h-0.8V212z     M-274.1,230.4h0.8v18h-0.8V230.4z M-274.1,248.8h0.8v18h-0.8V248.8z M-274.1,267.2h0.8v18h-0.8V267.2z M-274.1,285.6h0.8v18h-0.8    V285.6z M-274.1,304h0.8v18h-0.8V304z M-274.1,322.4h0.8v18h-0.8V322.4z M-274.1,340.8h0.8v18h-0.8V340.8z M-274.1,359.2h0.8v18    h-0.8V359.2z M-274.1,377.6h0.8v18h-0.8V377.6z M-274.1,396h0.8v18h-0.8V396z M-274.1,414.4h0.8v18h-0.8V414.4z M-274.1,432.8h0.8    v18h-0.8V432.8z M-274.1,451.2h0.8v18h-0.8V451.2z M611.1,469.3h-0.8v-18h0.8V469.3z M611.1,450.9h-0.8v-18h0.8V450.9z     M611.1,432.5h-0.8v-18h0.8V432.5z M611.1,414.1h-0.8v-18h0.8V414.1z M611.1,395.6h-0.8v-18h0.8V395.6z M611.1,377.2h-0.8v-18h0.8    V377.2z M611.1,358.8h-0.8v-18h0.8V358.8z M611.1,340.4h-0.8v-18h0.8V340.4z M611.1,322h-0.8v-18h0.8V322z M611.1,303.6h-0.8v-18    h0.8V303.6z M611.1,285.2h-0.8v-18h0.8V285.2z M611.1,266.8h-0.8v-18h0.8V266.8z M611.1,248.4h-0.8v-18h0.8V248.4z M611.1,230    h-0.8v-18h0.8V230z M611.1,211.6h-0.8v-18h0.8V211.6z M611.1,193.2h-0.8v-18h0.8V193.2z M611.1,174.8h-0.8v-18h0.8V174.8z     M611.1,156.4h-0.8v-18h0.8V156.4z M611.1,138h-0.8v-18h0.8V138z M611.1,119.6h-0.8v-18h0.8V119.6z M611.1,101.2h-0.8v-18h0.8    V101.2z M611.1,82.8h-0.8v-18h0.8V82.8z M611.1,64.4h-0.8v-18h0.8V64.4z M611.1,46h-0.8v-18h0.8V46z M611.1,27.6h-0.8v-18h0.8    V27.6z M611.1,9.2h-0.8v-18h0.8V9.2z M610.4-9.2v-18h0.8v18H610.4z"/>
	</g>
</g>
    <g id="Laag_5">
</g>
</svg>