<svg xmlns="http://www.w3.org/2000/svg" xmlns:xlink="http://www.w3.org/1999/xlink" version="1.1" x="0px" y="0px" viewBox="0 0 338 442" style="enable-background:new 0 0 338 442;" xml:space="preserve">
<style type="text/css">
	.st0{clip-path:url(#SVGID_00000083768997952862439290000002308040325718919323_);}

		.st1{clip-path:url(#SVGID_00000083768997952862439290000002308040325718919323_);fill:url(#SVGID_00000165210959413514208200000015010899323439007373_);}

		.st2{clip-path:url(#SVGID_00000083768997952862439290000002308040325718919323_);fill:url(#SVGID_00000092435975702729345580000014636944297604347794_);}

		.st3{clip-path:url(#SVGID_00000083768997952862439290000002308040325718919323_);fill:url(#SVGID_00000062189897291413223300000014959180010930304139_);}

		.st4{clip-path:url(#SVGID_00000083768997952862439290000002308040325718919323_);fill:url(#SVGID_00000042727939700256287260000006558947298081262498_);}

		.st5{clip-path:url(#SVGID_00000083768997952862439290000002308040325718919323_);fill:url(#SVGID_00000055668751334544473070000016735510484599356585_);}
	.st6{clip-path:url(#SVGID_00000022547487882950205610000006697710729095824043_);}

		.st7{clip-path:url(#SVGID_00000022547487882950205610000006697710729095824043_);fill:url(#SVGID_00000121965970072963777580000002159847064245911685_);}

		.st8{clip-path:url(#SVGID_00000022547487882950205610000006697710729095824043_);fill:url(#SVGID_00000104676043066677907000000006790788002930494394_);}

		.st9{clip-path:url(#SVGID_00000022547487882950205610000006697710729095824043_);fill:url(#SVGID_00000170251778508719109900000010547905973301203634_);}

		.st10{clip-path:url(#SVGID_00000022547487882950205610000006697710729095824043_);fill:url(#SVGID_00000032623317110881219550000001733653506463928484_);}

		.st11{clip-path:url(#SVGID_00000022547487882950205610000006697710729095824043_);fill:url(#SVGID_00000025434275987868022810000012932957223157352335_);}
	.st12{clip-path:url(#SVGID_00000174569102431819154780000002381155718606178186_);fill:#960E0E;}
	.st13{clip-path:url(#SVGID_00000174569102431819154780000002381155718606178186_);}

		.st14{clip-path:url(#SVGID_00000174569102431819154780000002381155718606178186_);fill:url(#SVGID_00000048500873091723689390000001964622677080000664_);}

		.st15{clip-path:url(#SVGID_00000174569102431819154780000002381155718606178186_);fill:url(#SVGID_00000031929469691823475920000006106685509336452797_);}

		.st16{clip-path:url(#SVGID_00000174569102431819154780000002381155718606178186_);fill:url(#SVGID_00000131362163170920834730000004829064951399378587_);}

		.st17{clip-path:url(#SVGID_00000174569102431819154780000002381155718606178186_);fill:url(#SVGID_00000026131644745118290110000010919707847909739653_);}

		.st18{clip-path:url(#SVGID_00000174569102431819154780000002381155718606178186_);fill:url(#SVGID_00000074403003296536944120000008697166869942303122_);}
	.st19{clip-path:url(#SVGID_00000066499033765131320730000009130892651648543396_);}

		.st20{clip-path:url(#SVGID_00000066499033765131320730000009130892651648543396_);fill:url(#SVGID_00000169524322962984430260000016617826992549002422_);}
	.st21{clip-path:url(#SVGID_00000066499033765131320730000009130892651648543396_);fill:#D88D2B;}

		.st22{clip-path:url(#SVGID_00000066499033765131320730000009130892651648543396_);fill:url(#SVGID_00000004504192262795755650000009153624102402151580_);}

		.st23{clip-path:url(#SVGID_00000066499033765131320730000009130892651648543396_);fill:url(#SVGID_00000132050528952049284940000005172020734319137193_);}

		.st24{clip-path:url(#SVGID_00000066499033765131320730000009130892651648543396_);fill:url(#SVGID_00000008111707238512414870000004541087977163274429_);}
	.st25{clip-path:url(#SVGID_00000111886103681732542730000016166513959572637324_);}

		.st26{clip-path:url(#SVGID_00000111886103681732542730000016166513959572637324_);fill:url(#SVGID_00000156557920366099351170000008298626296337032361_);}

		.st27{clip-path:url(#SVGID_00000111886103681732542730000016166513959572637324_);fill:url(#SVGID_00000143583284963069157620000004616988526566760074_);}

		.st28{clip-path:url(#SVGID_00000111886103681732542730000016166513959572637324_);fill:url(#SVGID_00000013892479123208795760000002034285979007509925_);}

		.st29{clip-path:url(#SVGID_00000111886103681732542730000016166513959572637324_);fill:url(#SVGID_00000154427800998688384060000015629141609713916051_);}

		.st30{clip-path:url(#SVGID_00000111886103681732542730000016166513959572637324_);fill:url(#SVGID_00000070834154151329384320000012756469311555544238_);}
</style>
	<g id="Laag_2">
</g>
	<g id="Laag_6">
</g>
	<g id="Laag_3">
</g>
	<g id="Laag_4">
</g>
	<g id="Laag_5">
	<g>
		<defs>
			<rect id="SVGID_00000003801252867855430590000017280911976621219254_" x="0" y="0" width="338" height="442"/>
		</defs>
		<clipPath id="SVGID_00000008114720695416707620000002486783290144644267_">
			<use xlink:href="#SVGID_00000003801252867855430590000017280911976621219254_" style="overflow:visible;"/>
		</clipPath>
		<g style="clip-path:url(#SVGID_00000008114720695416707620000002486783290144644267_);">
			<defs>
				<rect id="SVGID_00000012472628768537976450000008964241875767236784_" x="-669.2" y="-25.4" width="1709.3" height="491.9"/>
			</defs>
			<clipPath id="SVGID_00000108283115674470690030000006429039869065876380_">
				<use xlink:href="#SVGID_00000012472628768537976450000008964241875767236784_" style="overflow:visible;"/>
			</clipPath>
			<g style="clip-path:url(#SVGID_00000108283115674470690030000006429039869065876380_);">

					<image style="overflow:visible;" width="2294" height="1755" xlink:href="../../../../../Afbeeldingen voor designs/Depositphotos_3846803_XL.jpg" transform="matrix(0.7451 0 0 0.7451 -669.1636 -441.4608)">
				</image>
			</g>
		</g>

		<linearGradient id="SVGID_00000142134622313849232650000007211297984567654318_" gradientUnits="userSpaceOnUse" x1="185.5" y1="720.5271" x2="185.5" y2="1212.4196" gradientTransform="matrix(1 0 0 1 0 -745.9099)">
			<stop offset="0" style="stop-color:#0F243F"/>
			<stop offset="1" style="stop-color:#214C19"/>
		</linearGradient>

		<rect x="-669.2" y="-25.4" style="clip-path:url(#SVGID_00000008114720695416707620000002486783290144644267_);fill:url(#SVGID_00000142134622313849232650000007211297984567654318_);" width="1709.3" height="491.9"/>

		<linearGradient id="SVGID_00000083771562666063584480000012764179757807732608_" gradientUnits="userSpaceOnUse" x1="185.5" y1="720.5271" x2="185.5" y2="1212.4196" gradientTransform="matrix(1 0 0 1 0 -745.9099)">
			<stop offset="0" style="stop-color:#0F243F"/>
			<stop offset="0.2609" style="stop-color:#1B3034"/>
			<stop offset="0.6595" style="stop-color:#354A1D"/>
			<stop offset="1" style="stop-color:#35681D"/>
		</linearGradient>

		<rect x="-669.2" y="-25.4" style="clip-path:url(#SVGID_00000008114720695416707620000002486783290144644267_);fill:url(#SVGID_00000083771562666063584480000012764179757807732608_);" width="1709.3" height="491.9"/>

		<radialGradient id="SVGID_00000087395496982311720400000008823143242313767342_" cx="246.4084" cy="-706.0098" r="1516.5906" gradientTransform="matrix(0.9854 0 0 0.4978 -57.3232 572.0148)" gradientUnits="userSpaceOnUse">
			<stop offset="0" style="stop-color:#000000;stop-opacity:0"/>
			<stop offset="0.8" style="stop-color:#000000"/>
		</radialGradient>

		<rect x="-669.2" y="-25.4" style="clip-path:url(#SVGID_00000008114720695416707620000002486783290144644267_);fill:url(#SVGID_00000087395496982311720400000008823143242313767342_);" width="1709.3" height="491.9"/>

		<linearGradient id="SVGID_00000139261734095373169440000012886057176115234738_" gradientUnits="userSpaceOnUse" x1="2145.6721" y1="2333.8354" x2="2145.6721" y2="1841.943" gradientTransform="matrix(1 0 0 1 -1960.1725 -1866.8893)">
			<stop offset="0" style="stop-color:#100C18;stop-opacity:0"/>
			<stop offset="0.7" style="stop-color:#100C18"/>
		</linearGradient>

		<rect x="-669.2" y="-24.9" style="clip-path:url(#SVGID_00000008114720695416707620000002486783290144644267_);fill:url(#SVGID_00000139261734095373169440000012886057176115234738_);" width="1709.3" height="491.9"/>

		<radialGradient id="SVGID_00000079479728674690978010000016780053519242560174_" cx="169.5" cy="221" r="268.6594" gradientUnits="userSpaceOnUse">
			<stop offset="0" style="stop-color:#6AEA5C"/>
			<stop offset="0.9453" style="stop-color:#7FDD6B;stop-opacity:0"/>
		</radialGradient>

		<path style="clip-path:url(#SVGID_00000008114720695416707620000002486783290144644267_);fill:url(#SVGID_00000079479728674690978010000016780053519242560174_);" d="    M611.4-27.6H593h-0.4h-18h-0.4h-18h-0.4h-18h-0.4h-18H519h-18h-0.4h-18h-0.4h-18h-0.4h-18h-0.4h-18H427h-18h-0.4h-18h-0.4h-18    h-0.4h-18h-0.4h-18h-0.4h-18h-0.4h-18h-0.4h-18h-0.4h-18h-0.4h-18h-0.4h-18h-0.4h-18h-0.4h-18h-0.4h-18h-0.4h-18h-0.4h-18h-0.4    h-18h-0.4h-18h-0.4h-18h-0.4h-18h-0.4h-18h-0.4h-18h-0.4h-18H3.7h-18h-0.4h-18h-0.4h-18h-0.4h-18h-0.4h-18h-0.4h-18h-0.4h-18h-0.4    h-18h-0.4h-18h-0.4h-18h-0.4h-18h-0.4h-18h-0.4h-18h-0.4h-18h-0.4h-18.4h-1.2v18.4v0.4v18v0.4v18v0.4v18v0.4v18v0.4v18v0.4v18v0.4    v18v0.4v18v0.4v18v0.4v18v0.4v18v0.4v18v0.4v18v0.4v18v0.4v18v0.4v18v0.4v18v0.4v18v0.4v18v0.4v18v0.4v18v0.4v18v0.4v18v0.4v18    v0.4v18v0.4v18.4h886v-18.4v-0.4v-18v-0.4v-18v-0.4v-18v-0.4v-18v-0.4v-18v-0.4v-18v-0.4v-18V322v-18v-0.4v-18v-0.4v-18v-0.4v-18    v-0.4v-18V230v-18v-0.4v-18v-0.4v-18v-0.4v-18v-0.4v-18V138v-18v-0.4v-18v-0.4v-18v-0.4v-18v-0.4v-18V46v-18v-0.4v-18V9.2v-18    v-0.4v-18.4H611.4z M611-27.3v18h-18v-18H611z M-272,451.2h18v18h-18V451.2z M-253.6,451.2h18v18h-18V451.2z M-14.3,230.4h18v18    h-18V230.4z M-14.7,248.4h-18v-18h18V248.4z M4.1,230.4h18v18h-18V230.4z M22.5,230.4h18v18h-18V230.4z M40.9,230.4h18v18h-18    V230.4z M59.3,230.4h18v18h-18V230.4z M77.7,230.4h18v18h-18V230.4z M96.1,230.4h18v18h-18V230.4z M114.5,230.4h18v18h-18V230.4z     M132.9,230.4h18v18h-18V230.4z M151.3,230.4h18v18h-18V230.4z M169.7,230.4h18v18h-18V230.4z M188.1,230.4h18v18h-18V230.4z     M206.5,230.4h18v18h-18V230.4z M224.9,230.4h18v18h-18V230.4z M243.3,230.4h18v18h-18V230.4z M261.7,230.4h18v18h-18V230.4z     M280.1,230.4h18v18h-18V230.4z M298.5,230.4h18v18h-18V230.4z M316.9,230.4h18v18h-18V230.4z M335.3,230.4h18v18h-18V230.4z     M353.7,230.4h18v18h-18V230.4z M353.7,230v-18h18v18H353.7z M353.3,230h-18v-18h18V230z M334.9,230h-18v-18h18V230z M316.5,230    h-18v-18h18V230z M298.1,230h-18v-18h18V230z M279.7,230h-18v-18h18V230z M261.3,230h-18v-18h18V230z M242.9,230h-18v-18h18V230z     M224.5,230h-18v-18h18V230z M206.1,230h-18v-18h18V230z M187.7,230h-18v-18h18V230z M169.3,230h-18v-18h18V230z M150.9,230h-18    v-18h18V230z M132.5,230h-18v-18h18V230z M114.1,230h-18v-18h18V230z M95.7,230h-18v-18h18V230z M77.3,230h-18v-18h18V230z     M58.9,230h-18v-18h18V230z M40.5,230h-18v-18h18V230z M22.1,230h-18v-18h18V230z M3.7,230h-18v-18h18V230z M-14.7,230h-18v-18h18    V230z M-33.1,230h-18v-18h18V230z M-33.1,230.4v18h-18v-18H-33.1z M-33.1,248.8v18h-18v-18H-33.1z M-32.8,248.8h18v18h-18V248.8z     M-14.3,248.8h18v18h-18V248.8z M4.1,248.8h18v18h-18V248.8z M22.5,248.8h18v18h-18V248.8z M40.9,248.8h18v18h-18V248.8z     M59.3,248.8h18v18h-18V248.8z M77.7,248.8h18v18h-18V248.8z M96.1,248.8h18v18h-18V248.8z M114.5,248.8h18v18h-18V248.8z     M132.9,248.8h18v18h-18V248.8z M151.3,248.8h18v18h-18V248.8z M169.7,248.8h18v18h-18V248.8z M188.1,248.8h18v18h-18V248.8z     M206.5,248.8h18v18h-18V248.8z M224.9,248.8h18v18h-18V248.8z M243.3,248.8h18v18h-18V248.8z M261.7,248.8h18v18h-18V248.8z     M280.1,248.8h18v18h-18V248.8z M298.5,248.8h18v18h-18V248.8z M316.9,248.8h18v18h-18V248.8z M335.3,248.8h18v18h-18V248.8z     M353.7,248.8h18v18h-18V248.8z M372.1,248.8h18v18h-18V248.8z M372.1,248.4v-18h18v18H372.1z M372.1,230v-18h18v18H372.1z     M372.1,211.6v-18h18v18H372.1z M371.8,211.6h-18v-18h18V211.6z M353.3,211.6h-18v-18h18V211.6z M334.9,211.6h-18v-18h18V211.6z     M316.5,211.6h-18v-18h18V211.6z M298.1,211.6h-18v-18h18V211.6z M279.7,211.6h-18v-18h18V211.6z M261.3,211.6h-18v-18h18V211.6z     M242.9,211.6h-18v-18h18V211.6z M224.5,211.6h-18v-18h18V211.6z M206.1,211.6h-18v-18h18V211.6z M187.7,211.6h-18v-18h18V211.6z     M169.3,211.6h-18v-18h18V211.6z M150.9,211.6h-18v-18h18V211.6z M132.5,211.6h-18v-18h18V211.6z M114.1,211.6h-18v-18h18V211.6z     M95.7,211.6h-18v-18h18V211.6z M77.3,211.6h-18v-18h18V211.6z M58.9,211.6h-18v-18h18V211.6z M40.5,211.6h-18v-18h18V211.6z     M22.1,211.6h-18v-18h18V211.6z M3.7,211.6h-18v-18h18V211.6z M-14.7,211.6h-18v-18h18V211.6z M-33.1,211.6h-18v-18h18V211.6z     M-51.5,211.6h-18v-18h18V211.6z M-51.5,212v18h-18v-18H-51.5z M-51.5,230.4v18h-18v-18H-51.5z M-51.5,248.8v18h-18v-18H-51.5z     M-51.5,267.2v18h-18v-18H-51.5z M-51.2,267.2h18v18h-18V267.2z M-32.8,267.2h18v18h-18V267.2z M-14.3,267.2h18v18h-18V267.2z     M4.1,267.2h18v18h-18V267.2z M22.5,267.2h18v18h-18V267.2z M40.9,267.2h18v18h-18V267.2z M59.3,267.2h18v18h-18V267.2z     M77.7,267.2h18v18h-18V267.2z M96.1,267.2h18v18h-18V267.2z M114.5,267.2h18v18h-18V267.2z M132.9,267.2h18v18h-18V267.2z     M151.3,267.2h18v18h-18V267.2z M169.7,267.2h18v18h-18V267.2z M188.1,267.2h18v18h-18V267.2z M206.5,267.2h18v18h-18V267.2z     M224.9,267.2h18v18h-18V267.2z M243.3,267.2h18v18h-18V267.2z M261.7,267.2h18v18h-18V267.2z M280.1,267.2h18v18h-18V267.2z     M298.5,267.2h18v18h-18V267.2z M316.9,267.2h18v18h-18V267.2z M335.3,267.2h18v18h-18V267.2z M353.7,267.2h18v18h-18V267.2z     M372.1,267.2h18v18h-18V267.2z M390.5,267.2h18v18h-18V267.2z M390.5,266.8v-18h18v18H390.5z M390.5,248.4v-18h18v18H390.5z     M390.5,230v-18h18v18H390.5z M390.5,211.6v-18h18v18H390.5z M390.5,193.2v-18h18v18H390.5z M390.2,193.2h-18v-18h18V193.2z     M371.8,193.2h-18v-18h18V193.2z M353.3,193.2h-18v-18h18V193.2z M334.9,193.2h-18v-18h18V193.2z M316.5,193.2h-18v-18h18V193.2z     M298.1,193.2h-18v-18h18V193.2z M279.7,193.2h-18v-18h18V193.2z M261.3,193.2h-18v-18h18V193.2z M242.9,193.2h-18v-18h18V193.2z     M224.5,193.2h-18v-18h18V193.2z M206.1,193.2h-18v-18h18V193.2z M187.7,193.2h-18v-18h18V193.2z M169.3,193.2h-18v-18h18V193.2z     M150.9,193.2h-18v-18h18V193.2z M132.5,193.2h-18v-18h18V193.2z M114.1,193.2h-18v-18h18V193.2z M95.7,193.2h-18v-18h18V193.2z     M77.3,193.2h-18v-18h18V193.2z M58.9,193.2h-18v-18h18V193.2z M40.5,193.2h-18v-18h18V193.2z M22.1,193.2h-18v-18h18V193.2z     M3.7,193.2h-18v-18h18V193.2z M-14.7,193.2h-18v-18h18V193.2z M-33.1,193.2h-18v-18h18V193.2z M-51.5,193.2h-18v-18h18V193.2z     M-69.9,193.2h-18v-18h18V193.2z M-69.9,193.6v18h-18v-18H-69.9z M-69.9,212v18h-18v-18H-69.9z M-69.9,230.4v18h-18v-18H-69.9z     M-69.9,248.8v18h-18v-18H-69.9z M-69.9,267.2v18h-18v-18H-69.9z M-69.9,285.6v18h-18v-18H-69.9z M-69.6,285.6h18v18h-18V285.6z     M-51.2,285.6h18v18h-18V285.6z M-32.8,285.6h18v18h-18V285.6z M-14.3,285.6h18v18h-18V285.6z M4.1,285.6h18v18h-18V285.6z     M22.5,285.6h18v18h-18V285.6z M40.9,285.6h18v18h-18V285.6z M59.3,285.6h18v18h-18V285.6z M77.7,285.6h18v18h-18V285.6z     M96.1,285.6h18v18h-18V285.6z M114.5,285.6h18v18h-18V285.6z M132.9,285.6h18v18h-18V285.6z M151.3,285.6h18v18h-18V285.6z     M169.7,285.6h18v18h-18V285.6z M188.1,285.6h18v18h-18V285.6z M206.5,285.6h18v18h-18V285.6z M224.9,285.6h18v18h-18V285.6z     M243.3,285.6h18v18h-18V285.6z M261.7,285.6h18v18h-18V285.6z M280.1,285.6h18v18h-18V285.6z M298.5,285.6h18v18h-18V285.6z     M316.9,285.6h18v18h-18V285.6z M335.3,285.6h18v18h-18V285.6z M353.7,285.6h18v18h-18V285.6z M372.1,285.6h18v18h-18V285.6z     M390.5,285.6h18v18h-18V285.6z M408.9,285.6h18v18h-18V285.6z M408.9,285.2v-18h18v18H408.9z M408.9,266.8v-18h18v18H408.9z     M408.9,248.4v-18h18v18H408.9z M408.9,230v-18h18v18H408.9z M408.9,211.6v-18h18v18H408.9z M408.9,193.2v-18h18v18H408.9z     M408.9,174.8v-18h18v18H408.9z M408.6,174.8h-18v-18h18V174.8z M390.2,174.8h-18v-18h18V174.8z M371.8,174.8h-18v-18h18V174.8z     M353.3,174.8h-18v-18h18V174.8z M334.9,174.8h-18v-18h18V174.8z M316.5,174.8h-18v-18h18V174.8z M298.1,174.8h-18v-18h18V174.8z     M279.7,174.8h-18v-18h18V174.8z M261.3,174.8h-18v-18h18V174.8z M242.9,174.8h-18v-18h18V174.8z M224.5,174.8h-18v-18h18V174.8z     M206.1,174.8h-18v-18h18V174.8z M187.7,174.8h-18v-18h18V174.8z M169.3,174.8h-18v-18h18V174.8z M150.9,174.8h-18v-18h18V174.8z     M132.5,174.8h-18v-18h18V174.8z M114.1,174.8h-18v-18h18V174.8z M95.7,174.8h-18v-18h18V174.8z M77.3,174.8h-18v-18h18V174.8z     M58.9,174.8h-18v-18h18V174.8z M40.5,174.8h-18v-18h18V174.8z M22.1,174.8h-18v-18h18V174.8z M3.7,174.8h-18v-18h18V174.8z     M-14.7,174.8h-18v-18h18V174.8z M-33.1,174.8h-18v-18h18V174.8z M-51.5,174.8h-18v-18h18V174.8z M-69.9,174.8h-18v-18h18V174.8z     M-88.3,174.8h-18v-18h18V174.8z M-88.3,175.2v18h-18v-18H-88.3z M-88.3,193.6v18h-18v-18H-88.3z M-88.3,212v18h-18v-18H-88.3z     M-88.3,230.4v18h-18v-18H-88.3z M-88.3,248.8v18h-18v-18H-88.3z M-88.3,267.2v18h-18v-18H-88.3z M-88.3,285.6v18h-18v-18H-88.3z     M-88.3,304v18h-18v-18H-88.3z M-88,304h18v18h-18V304z M-69.6,304h18v18h-18V304z M-51.2,304h18v18h-18V304z M-32.8,304h18v18    h-18V304z M-14.3,304h18v18h-18V304z M4.1,304h18v18h-18V304z M22.5,304h18v18h-18V304z M40.9,304h18v18h-18V304z M59.3,304h18v18    h-18V304z M77.7,304h18v18h-18V304z M96.1,304h18v18h-18V304z M114.5,304h18v18h-18V304z M132.9,304h18v18h-18V304z M151.3,304h18    v18h-18V304z M169.7,304h18v18h-18V304z M188.1,304h18v18h-18V304z M206.5,304h18v18h-18V304z M224.9,304h18v18h-18V304z     M243.3,304h18v18h-18V304z M261.7,304h18v18h-18V304z M280.1,304h18v18h-18V304z M298.5,304h18v18h-18V304z M316.9,304h18v18h-18    V304z M335.3,304h18v18h-18V304z M353.7,304h18v18h-18V304z M372.1,304h18v18h-18V304z M390.5,304h18v18h-18V304z M408.9,304h18    v18h-18V304z M427.3,304h18v18h-18V304z M427.3,303.6v-18h18v18H427.3z M427.3,285.2v-18h18v18H427.3z M427.3,266.8v-18h18v18    H427.3z M427.3,248.4v-18h18v18H427.3z M427.3,230v-18h18v18H427.3z M427.3,211.6v-18h18v18H427.3z M427.3,193.2v-18h18v18H427.3z     M427.3,174.8v-18h18v18H427.3z M427.3,156.4v-18h18v18H427.3z M427,156.4h-18v-18h18V156.4z M408.6,156.4h-18v-18h18V156.4z     M390.2,156.4h-18v-18h18V156.4z M371.8,156.4h-18v-18h18V156.4z M353.3,156.4h-18v-18h18V156.4z M334.9,156.4h-18v-18h18V156.4z     M316.5,156.4h-18v-18h18V156.4z M298.1,156.4h-18v-18h18V156.4z M279.7,156.4h-18v-18h18V156.4z M261.3,156.4h-18v-18h18V156.4z     M242.9,156.4h-18v-18h18V156.4z M224.5,156.4h-18v-18h18V156.4z M206.1,156.4h-18v-18h18V156.4z M187.7,156.4h-18v-18h18V156.4z     M169.3,156.4h-18v-18h18V156.4z M150.9,156.4h-18v-18h18V156.4z M132.5,156.4h-18v-18h18V156.4z M114.1,156.4h-18v-18h18V156.4z     M95.7,156.4h-18v-18h18V156.4z M77.3,156.4h-18v-18h18V156.4z M58.9,156.4h-18v-18h18V156.4z M40.5,156.4h-18v-18h18V156.4z     M22.1,156.4h-18v-18h18V156.4z M3.7,156.4h-18v-18h18V156.4z M-14.7,156.4h-18v-18h18V156.4z M-33.1,156.4h-18v-18h18V156.4z     M-51.5,156.4h-18v-18h18V156.4z M-69.9,156.4h-18v-18h18V156.4z M-88.3,156.4h-18v-18h18V156.4z M-106.7,156.4h-18v-18h18V156.4z     M-106.7,156.8v18h-18v-18H-106.7z M-106.7,175.2v18h-18v-18H-106.7z M-106.7,193.6v18h-18v-18H-106.7z M-106.7,212v18h-18v-18    H-106.7z M-106.7,230.4v18h-18v-18H-106.7z M-106.7,248.8v18h-18v-18H-106.7z M-106.7,267.2v18h-18v-18H-106.7z M-106.7,285.6v18    h-18v-18H-106.7z M-106.7,304v18h-18v-18H-106.7z M-106.7,322.4v18h-18v-18H-106.7z M-106.4,322.4h18v18h-18V322.4z M-88,322.4h18    v18h-18V322.4z M-69.6,322.4h18v18h-18V322.4z M-51.2,322.4h18v18h-18V322.4z M-32.8,322.4h18v18h-18V322.4z M-14.3,322.4h18v18    h-18V322.4z M4.1,322.4h18v18h-18V322.4z M22.5,322.4h18v18h-18V322.4z M40.9,322.4h18v18h-18V322.4z M59.3,322.4h18v18h-18V322.4    z M77.7,322.4h18v18h-18V322.4z M96.1,322.4h18v18h-18V322.4z M114.5,322.4h18v18h-18V322.4z M132.9,322.4h18v18h-18V322.4z     M151.3,322.4h18v18h-18V322.4z M169.7,322.4h18v18h-18V322.4z M188.1,322.4h18v18h-18V322.4z M206.5,322.4h18v18h-18V322.4z     M224.9,322.4h18v18h-18V322.4z M243.3,322.4h18v18h-18V322.4z M261.7,322.4h18v18h-18V322.4z M280.1,322.4h18v18h-18V322.4z     M298.5,322.4h18v18h-18V322.4z M316.9,322.4h18v18h-18V322.4z M335.3,322.4h18v18h-18V322.4z M353.7,322.4h18v18h-18V322.4z     M372.1,322.4h18v18h-18V322.4z M390.5,322.4h18v18h-18V322.4z M408.9,322.4h18v18h-18V322.4z M427.3,322.4h18v18h-18V322.4z     M445.7,322.4h18v18h-18V322.4z M445.7,322v-18h18v18H445.7z M445.7,303.6v-18h18v18H445.7z M445.7,285.2v-18h18v18H445.7z     M445.7,266.8v-18h18v18H445.7z M445.7,248.4v-18h18v18H445.7z M445.7,230v-18h18v18H445.7z M445.7,211.6v-18h18v18H445.7z     M445.7,193.2v-18h18v18H445.7z M445.7,174.8v-18h18v18H445.7z M445.7,156.4v-18h18v18H445.7z M445.7,138v-18h18v18H445.7z     M445.4,138h-18v-18h18V138z M427,138h-18v-18h18V138z M408.6,138h-18v-18h18V138z M390.2,138h-18v-18h18V138z M371.8,138h-18v-18    h18V138z M353.3,138h-18v-18h18V138z M334.9,138h-18v-18h18V138z M316.5,138h-18v-18h18V138z M298.1,138h-18v-18h18V138z     M279.7,138h-18v-18h18V138z M261.3,138h-18v-18h18V138z M242.9,138h-18v-18h18V138z M224.5,138h-18v-18h18V138z M206.1,138h-18    v-18h18V138z M187.7,138h-18v-18h18V138z M169.3,138h-18v-18h18V138z M150.9,138h-18v-18h18V138z M132.5,138h-18v-18h18V138z     M114.1,138h-18v-18h18V138z M95.7,138h-18v-18h18V138z M77.3,138h-18v-18h18V138z M58.9,138h-18v-18h18V138z M40.5,138h-18v-18    h18V138z M22.1,138h-18v-18h18V138z M3.7,138h-18v-18h18V138z M-14.7,138h-18v-18h18V138z M-33.1,138h-18v-18h18V138z M-51.5,138    h-18v-18h18V138z M-69.9,138h-18v-18h18V138z M-88.3,138h-18v-18h18V138z M-106.7,138h-18v-18h18V138z M-125.1,138h-18v-18h18V138    z M-125.1,138.4v18h-18v-18H-125.1z M-125.1,156.8v18h-18v-18H-125.1z M-125.1,175.2v18h-18v-18H-125.1z M-125.1,193.6v18h-18v-18    H-125.1z M-125.1,212v18h-18v-18H-125.1z M-125.1,230.4v18h-18v-18H-125.1z M-125.1,248.8v18h-18v-18H-125.1z M-125.1,267.2v18    h-18v-18H-125.1z M-125.1,285.6v18h-18v-18H-125.1z M-125.1,304v18h-18v-18H-125.1z M-125.1,322.4v18h-18v-18H-125.1z     M-125.1,340.8v18h-18v-18H-125.1z M-124.8,340.8h18v18h-18V340.8z M-106.4,340.8h18v18h-18V340.8z M-88,340.8h18v18h-18V340.8z     M-69.6,340.8h18v18h-18V340.8z M-51.2,340.8h18v18h-18V340.8z M-32.8,340.8h18v18h-18V340.8z M-14.3,340.8h18v18h-18V340.8z     M4.1,340.8h18v18h-18V340.8z M22.5,340.8h18v18h-18V340.8z M40.9,340.8h18v18h-18V340.8z M59.3,340.8h18v18h-18V340.8z     M77.7,340.8h18v18h-18V340.8z M96.1,340.8h18v18h-18V340.8z M114.5,340.8h18v18h-18V340.8z M132.9,340.8h18v18h-18V340.8z     M151.3,340.8h18v18h-18V340.8z M169.7,340.8h18v18h-18V340.8z M188.1,340.8h18v18h-18V340.8z M206.5,340.8h18v18h-18V340.8z     M224.9,340.8h18v18h-18V340.8z M243.3,340.8h18v18h-18V340.8z M261.7,340.8h18v18h-18V340.8z M280.1,340.8h18v18h-18V340.8z     M298.5,340.8h18v18h-18V340.8z M316.9,340.8h18v18h-18V340.8z M335.3,340.8h18v18h-18V340.8z M353.7,340.8h18v18h-18V340.8z     M372.1,340.8h18v18h-18V340.8z M390.5,340.8h18v18h-18V340.8z M408.9,340.8h18v18h-18V340.8z M427.3,340.8h18v18h-18V340.8z     M445.7,340.8h18v18h-18V340.8z M464.1,340.8h18v18h-18V340.8z M464.1,340.4v-18h18v18H464.1z M464.1,322v-18h18v18H464.1z     M464.1,303.6v-18h18v18H464.1z M464.1,285.2v-18h18v18H464.1z M464.1,266.8v-18h18v18H464.1z M464.1,248.4v-18h18v18H464.1z     M464.1,230v-18h18v18H464.1z M464.1,211.6v-18h18v18H464.1z M464.1,193.2v-18h18v18H464.1z M464.1,174.8v-18h18v18H464.1z     M464.1,156.4v-18h18v18H464.1z M464.1,138v-18h18v18H464.1z M464.1,119.6v-18h18v18H464.1z M463.8,119.6h-18v-18h18V119.6z     M445.4,119.6h-18v-18h18V119.6z M427,119.6h-18v-18h18V119.6z M408.6,119.6h-18v-18h18V119.6z M390.2,119.6h-18v-18h18V119.6z     M371.8,119.6h-18v-18h18V119.6z M353.3,119.6h-18v-18h18V119.6z M334.9,119.6h-18v-18h18V119.6z M316.5,119.6h-18v-18h18V119.6z     M298.1,119.6h-18v-18h18V119.6z M279.7,119.6h-18v-18h18V119.6z M261.3,119.6h-18v-18h18V119.6z M242.9,119.6h-18v-18h18V119.6z     M224.5,119.6h-18v-18h18V119.6z M206.1,119.6h-18v-18h18V119.6z M187.7,119.6h-18v-18h18V119.6z M169.3,119.6h-18v-18h18V119.6z     M150.9,119.6h-18v-18h18V119.6z M132.5,119.6h-18v-18h18V119.6z M114.1,119.6h-18v-18h18V119.6z M95.7,119.6h-18v-18h18V119.6z     M77.3,119.6h-18v-18h18V119.6z M58.9,119.6h-18v-18h18V119.6z M40.5,119.6h-18v-18h18V119.6z M22.1,119.6h-18v-18h18V119.6z     M3.7,119.6h-18v-18h18V119.6z M-14.7,119.6h-18v-18h18V119.6z M-33.1,119.6h-18v-18h18V119.6z M-51.5,119.6h-18v-18h18V119.6z     M-69.9,119.6h-18v-18h18V119.6z M-88.3,119.6h-18v-18h18V119.6z M-106.7,119.6h-18v-18h18V119.6z M-125.1,119.6h-18v-18h18V119.6    z M-143.5,119.6h-18v-18h18V119.6z M-143.5,120v18h-18v-18H-143.5z M-143.5,138.4v18h-18v-18H-143.5z M-143.5,156.8v18h-18v-18    H-143.5z M-143.5,175.2v18h-18v-18H-143.5z M-143.5,193.6v18h-18v-18H-143.5z M-143.5,212v18h-18v-18H-143.5z M-143.5,230.4v18    h-18v-18H-143.5z M-143.5,248.8v18h-18v-18H-143.5z M-143.5,267.2v18h-18v-18H-143.5z M-143.5,285.6v18h-18v-18H-143.5z     M-143.5,304v18h-18v-18H-143.5z M-143.5,322.4v18h-18v-18H-143.5z M-143.5,340.8v18h-18v-18H-143.5z M-143.5,359.2v18h-18v-18    H-143.5z M-143.2,359.2h18v18h-18V359.2z M-124.8,359.2h18v18h-18V359.2z M-106.4,359.2h18v18h-18V359.2z M-88,359.2h18v18h-18    V359.2z M-69.6,359.2h18v18h-18V359.2z M-51.2,359.2h18v18h-18V359.2z M-32.8,359.2h18v18h-18V359.2z M-14.3,359.2h18v18h-18    V359.2z M4.1,359.2h18v18h-18V359.2z M22.5,359.2h18v18h-18V359.2z M40.9,359.2h18v18h-18V359.2z M59.3,359.2h18v18h-18V359.2z     M77.7,359.2h18v18h-18V359.2z M96.1,359.2h18v18h-18V359.2z M114.5,359.2h18v18h-18V359.2z M132.9,359.2h18v18h-18V359.2z     M151.3,359.2h18v18h-18V359.2z M169.7,359.2h18v18h-18V359.2z M188.1,359.2h18v18h-18V359.2z M206.5,359.2h18v18h-18V359.2z     M224.9,359.2h18v18h-18V359.2z M243.3,359.2h18v18h-18V359.2z M261.7,359.2h18v18h-18V359.2z M280.1,359.2h18v18h-18V359.2z     M298.5,359.2h18v18h-18V359.2z M316.9,359.2h18v18h-18V359.2z M335.3,359.2h18v18h-18V359.2z M353.7,359.2h18v18h-18V359.2z     M372.1,359.2h18v18h-18V359.2z M390.5,359.2h18v18h-18V359.2z M408.9,359.2h18v18h-18V359.2z M427.3,359.2h18v18h-18V359.2z     M445.7,359.2h18v18h-18V359.2z M464.1,359.2h18v18h-18V359.2z M482.5,359.2h18v18h-18V359.2z M482.5,358.8v-18h18v18H482.5z     M482.5,340.4v-18h18v18H482.5z M482.5,322v-18h18v18H482.5z M482.5,303.6v-18h18v18H482.5z M482.5,285.2v-18h18v18H482.5z     M482.5,266.8v-18h18v18H482.5z M482.5,248.4v-18h18v18H482.5z M482.5,230v-18h18v18H482.5z M482.5,211.6v-18h18v18H482.5z     M482.5,193.2v-18h18v18H482.5z M482.5,174.8v-18h18v18H482.5z M482.5,156.4v-18h18v18H482.5z M482.5,138v-18h18v18H482.5z     M482.5,119.6v-18h18v18H482.5z M482.5,101.2v-18h18v18H482.5z M482.2,101.2h-18v-18h18V101.2z M463.8,101.2h-18v-18h18V101.2z     M445.4,101.2h-18v-18h18V101.2z M427,101.2h-18v-18h18V101.2z M408.6,101.2h-18v-18h18V101.2z M390.2,101.2h-18v-18h18V101.2z     M371.8,101.2h-18v-18h18V101.2z M353.3,101.2h-18v-18h18V101.2z M334.9,101.2h-18v-18h18V101.2z M316.5,101.2h-18v-18h18V101.2z     M298.1,101.2h-18v-18h18V101.2z M279.7,101.2h-18v-18h18V101.2z M261.3,101.2h-18v-18h18V101.2z M242.9,101.2h-18v-18h18V101.2z     M224.5,101.2h-18v-18h18V101.2z M206.1,101.2h-18v-18h18V101.2z M187.7,101.2h-18v-18h18V101.2z M169.3,101.2h-18v-18h18V101.2z     M150.9,101.2h-18v-18h18V101.2z M132.5,101.2h-18v-18h18V101.2z M114.1,101.2h-18v-18h18V101.2z M95.7,101.2h-18v-18h18V101.2z     M77.3,101.2h-18v-18h18V101.2z M58.9,101.2h-18v-18h18V101.2z M40.5,101.2h-18v-18h18V101.2z M22.1,101.2h-18v-18h18V101.2z     M3.7,101.2h-18v-18h18V101.2z M-14.7,101.2h-18v-18h18V101.2z M-33.1,101.2h-18v-18h18V101.2z M-51.5,101.2h-18v-18h18V101.2z     M-69.9,101.2h-18v-18h18V101.2z M-88.3,101.2h-18v-18h18V101.2z M-106.7,101.2h-18v-18h18V101.2z M-125.1,101.2h-18v-18h18V101.2    z M-143.5,101.2h-18v-18h18V101.2z M-161.9,101.2h-18v-18h18V101.2z M-161.9,101.6v18h-18v-18H-161.9z M-161.9,120v18h-18v-18    H-161.9z M-161.9,138.4v18h-18v-18H-161.9z M-161.9,156.8v18h-18v-18H-161.9z M-161.9,175.2v18h-18v-18H-161.9z M-161.9,193.6v18    h-18v-18H-161.9z M-161.9,212v18h-18v-18H-161.9z M-161.9,230.4v18h-18v-18H-161.9z M-161.9,248.8v18h-18v-18H-161.9z     M-161.9,267.2v18h-18v-18H-161.9z M-161.9,285.6v18h-18v-18H-161.9z M-161.9,304v18h-18v-18H-161.9z M-161.9,322.4v18h-18v-18    H-161.9z M-161.9,340.8v18h-18v-18H-161.9z M-161.9,359.2v18h-18v-18H-161.9z M-161.9,377.6v18h-18v-18H-161.9z M-161.6,377.6h18    v18h-18V377.6z M-143.2,377.6h18v18h-18V377.6z M-124.8,377.6h18v18h-18V377.6z M-106.4,377.6h18v18h-18V377.6z M-88,377.6h18v18    h-18V377.6z M-69.6,377.6h18v18h-18V377.6z M-51.2,377.6h18v18h-18V377.6z M-32.8,377.6h18v18h-18V377.6z M-14.3,377.6h18v18h-18    V377.6z M4.1,377.6h18v18h-18V377.6z M22.5,377.6h18v18h-18V377.6z M40.9,377.6h18v18h-18V377.6z M59.3,377.6h18v18h-18V377.6z     M77.7,377.6h18v18h-18V377.6z M96.1,377.6h18v18h-18V377.6z M114.5,377.6h18v18h-18V377.6z M132.9,377.6h18v18h-18V377.6z     M151.3,377.6h18v18h-18V377.6z M169.7,377.6h18v18h-18V377.6z M188.1,377.6h18v18h-18V377.6z M206.5,377.6h18v18h-18V377.6z     M224.9,377.6h18v18h-18V377.6z M243.3,377.6h18v18h-18V377.6z M261.7,377.6h18v18h-18V377.6z M280.1,377.6h18v18h-18V377.6z     M298.5,377.6h18v18h-18V377.6z M316.9,377.6h18v18h-18V377.6z M335.3,377.6h18v18h-18V377.6z M353.7,377.6h18v18h-18V377.6z     M372.1,377.6h18v18h-18V377.6z M390.5,377.6h18v18h-18V377.6z M408.9,377.6h18v18h-18V377.6z M427.3,377.6h18v18h-18V377.6z     M445.7,377.6h18v18h-18V377.6z M464.1,377.6h18v18h-18V377.6z M482.5,377.6h18v18h-18V377.6z M500.9,377.6h18v18h-18V377.6z     M500.9,377.2v-18h18v18H500.9z M500.9,358.8v-18h18v18H500.9z M500.9,340.4v-18h18v18H500.9z M500.9,322v-18h18v18H500.9z     M500.9,303.6v-18h18v18H500.9z M500.9,285.2v-18h18v18H500.9z M500.9,266.8v-18h18v18H500.9z M500.9,248.4v-18h18v18H500.9z     M500.9,230v-18h18v18H500.9z M500.9,211.6v-18h18v18H500.9z M500.9,193.2v-18h18v18H500.9z M500.9,174.8v-18h18v18H500.9z     M500.9,156.4v-18h18v18H500.9z M500.9,138v-18h18v18H500.9z M500.9,119.6v-18h18v18H500.9z M500.9,101.2v-18h18v18H500.9z     M500.9,82.8v-18h18v18H500.9z M500.6,82.8h-18v-18h18V82.8z M482.2,82.8h-18v-18h18V82.8z M463.8,82.8h-18v-18h18V82.8z     M445.4,82.8h-18v-18h18V82.8z M427,82.8h-18v-18h18V82.8z M408.6,82.8h-18v-18h18V82.8z M390.2,82.8h-18v-18h18V82.8z     M371.8,82.8h-18v-18h18V82.8z M353.3,82.8h-18v-18h18V82.8z M334.9,82.8h-18v-18h18V82.8z M316.5,82.8h-18v-18h18V82.8z     M298.1,82.8h-18v-18h18V82.8z M279.7,82.8h-18v-18h18V82.8z M261.3,82.8h-18v-18h18V82.8z M242.9,82.8h-18v-18h18V82.8z     M224.5,82.8h-18v-18h18V82.8z M206.1,82.8h-18v-18h18V82.8z M187.7,82.8h-18v-18h18V82.8z M169.3,82.8h-18v-18h18V82.8z     M150.9,82.8h-18v-18h18V82.8z M132.5,82.8h-18v-18h18V82.8z M114.1,82.8h-18v-18h18V82.8z M95.7,82.8h-18v-18h18V82.8z     M77.3,82.8h-18v-18h18V82.8z M58.9,82.8h-18v-18h18V82.8z M40.5,82.8h-18v-18h18V82.8z M22.1,82.8h-18v-18h18V82.8z M3.7,82.8    h-18v-18h18V82.8z M-14.7,82.8h-18v-18h18V82.8z M-33.1,82.8h-18v-18h18V82.8z M-51.5,82.8h-18v-18h18V82.8z M-69.9,82.8h-18v-18    h18V82.8z M-88.3,82.8h-18v-18h18V82.8z M-106.7,82.8h-18v-18h18V82.8z M-125.1,82.8h-18v-18h18V82.8z M-143.5,82.8h-18v-18h18    V82.8z M-161.9,82.8h-18v-18h18V82.8z M-180.3,82.8h-18v-18h18V82.8z M-180.3,83.2v18h-18v-18H-180.3z M-180.3,101.6v18h-18v-18    H-180.3z M-180.3,120v18h-18v-18H-180.3z M-180.3,138.4v18h-18v-18H-180.3z M-180.3,156.8v18h-18v-18H-180.3z M-180.3,175.2v18    h-18v-18H-180.3z M-180.3,193.6v18h-18v-18H-180.3z M-180.3,212v18h-18v-18H-180.3z M-180.3,230.4v18h-18v-18H-180.3z     M-180.3,248.8v18h-18v-18H-180.3z M-180.3,267.2v18h-18v-18H-180.3z M-180.3,285.6v18h-18v-18H-180.3z M-180.3,304v18h-18v-18    H-180.3z M-180.3,322.4v18h-18v-18H-180.3z M-180.3,340.8v18h-18v-18H-180.3z M-180.3,359.2v18h-18v-18H-180.3z M-180.3,377.6v18    h-18v-18H-180.3z M-180.3,396v18h-18v-18H-180.3z M-180,396h18v18h-18V396z M-161.6,396h18v18h-18V396z M-143.2,396h18v18h-18V396    z M-124.8,396h18v18h-18V396z M-106.4,396h18v18h-18V396z M-88,396h18v18h-18V396z M-69.6,396h18v18h-18V396z M-51.2,396h18v18    h-18V396z M-32.8,396h18v18h-18V396z M-14.3,396h18v18h-18V396z M4.1,396h18v18h-18V396z M22.5,396h18v18h-18V396z M40.9,396h18    v18h-18V396z M59.3,396h18v18h-18V396z M77.7,396h18v18h-18V396z M96.1,396h18v18h-18V396z M114.5,396h18v18h-18V396z M132.9,396    h18v18h-18V396z M151.3,396h18v18h-18V396z M169.7,396h18v18h-18V396z M188.1,396h18v18h-18V396z M206.5,396h18v18h-18V396z     M224.9,396h18v18h-18V396z M243.3,396h18v18h-18V396z M261.7,396h18v18h-18V396z M280.1,396h18v18h-18V396z M298.5,396h18v18h-18    V396z M316.9,396h18v18h-18V396z M335.3,396h18v18h-18V396z M353.7,396h18v18h-18V396z M372.1,396h18v18h-18V396z M390.5,396h18    v18h-18V396z M408.9,396h18v18h-18V396z M427.3,396h18v18h-18V396z M445.7,396h18v18h-18V396z M464.1,396h18v18h-18V396z     M482.5,396h18v18h-18V396z M500.9,396h18v18h-18V396z M519.3,396h18v18h-18V396z M519.3,395.6v-18h18v18H519.3z M519.3,377.2v-18    h18v18H519.3z M519.3,358.8v-18h18v18H519.3z M519.3,340.4v-18h18v18H519.3z M519.3,322v-18h18v18H519.3z M519.3,303.6v-18h18v18    H519.3z M519.3,285.2v-18h18v18H519.3z M519.3,266.8v-18h18v18H519.3z M519.3,248.4v-18h18v18H519.3z M519.3,230v-18h18v18H519.3z     M519.3,211.6v-18h18v18H519.3z M519.3,193.2v-18h18v18H519.3z M519.3,174.8v-18h18v18H519.3z M519.3,156.4v-18h18v18H519.3z     M519.3,138v-18h18v18H519.3z M519.3,119.6v-18h18v18H519.3z M519.3,101.2v-18h18v18H519.3z M519.3,82.8v-18h18v18H519.3z     M519.3,64.4v-18h18v18H519.3z M519,64.4h-18v-18h18V64.4z M500.6,64.4h-18v-18h18V64.4z M482.2,64.4h-18v-18h18V64.4z     M463.8,64.4h-18v-18h18V64.4z M445.4,64.4h-18v-18h18V64.4z M427,64.4h-18v-18h18V64.4z M408.6,64.4h-18v-18h18V64.4z     M390.2,64.4h-18v-18h18V64.4z M371.8,64.4h-18v-18h18V64.4z M353.3,64.4h-18v-18h18V64.4z M334.9,64.4h-18v-18h18V64.4z     M316.5,64.4h-18v-18h18V64.4z M298.1,64.4h-18v-18h18V64.4z M279.7,64.4h-18v-18h18V64.4z M261.3,64.4h-18v-18h18V64.4z     M242.9,64.4h-18v-18h18V64.4z M224.5,64.4h-18v-18h18V64.4z M206.1,64.4h-18v-18h18V64.4z M187.7,64.4h-18v-18h18V64.4z     M169.3,64.4h-18v-18h18V64.4z M150.9,64.4h-18v-18h18V64.4z M132.5,64.4h-18v-18h18V64.4z M114.1,64.4h-18v-18h18V64.4z     M95.7,64.4h-18v-18h18V64.4z M77.3,64.4h-18v-18h18V64.4z M58.9,64.4h-18v-18h18V64.4z M40.5,64.4h-18v-18h18V64.4z M22.1,64.4    h-18v-18h18V64.4z M3.7,64.4h-18v-18h18V64.4z M-14.7,64.4h-18v-18h18V64.4z M-33.1,64.4h-18v-18h18V64.4z M-51.5,64.4h-18v-18h18    V64.4z M-69.9,64.4h-18v-18h18V64.4z M-88.3,64.4h-18v-18h18V64.4z M-106.7,64.4h-18v-18h18V64.4z M-125.1,64.4h-18v-18h18V64.4z     M-143.5,64.4h-18v-18h18V64.4z M-161.9,64.4h-18v-18h18V64.4z M-180.3,64.4h-18v-18h18V64.4z M-198.8,64.4h-18v-18h18V64.4z     M-198.8,64.8v18h-18v-18H-198.8z M-198.8,83.2v18h-18v-18H-198.8z M-198.8,101.6v18h-18v-18H-198.8z M-198.8,120v18h-18v-18    H-198.8z M-198.8,138.4v18h-18v-18H-198.8z M-198.8,156.8v18h-18v-18H-198.8z M-198.8,175.2v18h-18v-18H-198.8z M-198.8,193.6v18    h-18v-18H-198.8z M-198.8,212v18h-18v-18H-198.8z M-198.8,230.4v18h-18v-18H-198.8z M-198.8,248.8v18h-18v-18H-198.8z     M-198.8,267.2v18h-18v-18H-198.8z M-198.8,285.6v18h-18v-18H-198.8z M-198.8,304v18h-18v-18H-198.8z M-198.8,322.4v18h-18v-18    H-198.8z M-198.8,340.8v18h-18v-18H-198.8z M-198.8,359.2v18h-18v-18H-198.8z M-198.8,377.6v18h-18v-18H-198.8z M-198.8,396v18    h-18v-18H-198.8z M-198.8,414.4v18h-18v-18H-198.8z M-198.4,414.4h18v18h-18V414.4z M-180,414.4h18v18h-18V414.4z M-161.6,414.4    h18v18h-18V414.4z M-143.2,414.4h18v18h-18V414.4z M-124.8,414.4h18v18h-18V414.4z M-106.4,414.4h18v18h-18V414.4z M-88,414.4h18    v18h-18V414.4z M-69.6,414.4h18v18h-18V414.4z M-51.2,414.4h18v18h-18V414.4z M-32.8,414.4h18v18h-18V414.4z M-14.3,414.4h18v18    h-18V414.4z M4.1,414.4h18v18h-18V414.4z M22.5,414.4h18v18h-18V414.4z M40.9,414.4h18v18h-18V414.4z M59.3,414.4h18v18h-18V414.4    z M77.7,414.4h18v18h-18V414.4z M96.1,414.4h18v18h-18V414.4z M114.5,414.4h18v18h-18V414.4z M132.9,414.4h18v18h-18V414.4z     M151.3,414.4h18v18h-18V414.4z M169.7,414.4h18v18h-18V414.4z M188.1,414.4h18v18h-18V414.4z M206.5,414.4h18v18h-18V414.4z     M224.9,414.4h18v18h-18V414.4z M243.3,414.4h18v18h-18V414.4z M261.7,414.4h18v18h-18V414.4z M280.1,414.4h18v18h-18V414.4z     M298.5,414.4h18v18h-18V414.4z M316.9,414.4h18v18h-18V414.4z M335.3,414.4h18v18h-18V414.4z M353.7,414.4h18v18h-18V414.4z     M372.1,414.4h18v18h-18V414.4z M390.5,414.4h18v18h-18V414.4z M408.9,414.4h18v18h-18V414.4z M427.3,414.4h18v18h-18V414.4z     M445.7,414.4h18v18h-18V414.4z M464.1,414.4h18v18h-18V414.4z M482.5,414.4h18v18h-18V414.4z M500.9,414.4h18v18h-18V414.4z     M519.3,414.4h18v18h-18V414.4z M537.8,414.4h18v18h-18V414.4z M537.8,414.1v-18h18v18H537.8z M537.8,395.6v-18h18v18H537.8z     M537.8,377.2v-18h18v18H537.8z M537.8,358.8v-18h18v18H537.8z M537.8,340.4v-18h18v18H537.8z M537.8,322v-18h18v18H537.8z     M537.8,303.6v-18h18v18H537.8z M537.8,285.2v-18h18v18H537.8z M537.8,266.8v-18h18v18H537.8z M537.8,248.4v-18h18v18H537.8z     M537.8,230v-18h18v18H537.8z M537.8,211.6v-18h18v18H537.8z M537.8,193.2v-18h18v18H537.8z M537.8,174.8v-18h18v18H537.8z     M537.8,156.4v-18h18v18H537.8z M537.8,138v-18h18v18H537.8z M537.8,119.6v-18h18v18H537.8z M537.8,101.2v-18h18v18H537.8z     M537.8,82.8v-18h18v18H537.8z M537.8,64.4v-18h18v18H537.8z M537.8,46v-18h18v18H537.8z M537.4,46h-18v-18h18V46z M519,46h-18    v-18h18V46z M500.6,46h-18v-18h18V46z M482.2,46h-18v-18h18V46z M463.8,46h-18v-18h18V46z M445.4,46h-18v-18h18V46z M427,46h-18    v-18h18V46z M408.6,46h-18v-18h18V46z M390.2,46h-18v-18h18V46z M371.8,46h-18v-18h18V46z M353.3,46h-18v-18h18V46z M334.9,46h-18    v-18h18V46z M316.5,46h-18v-18h18V46z M298.1,46h-18v-18h18V46z M279.7,46h-18v-18h18V46z M261.3,46h-18v-18h18V46z M242.9,46h-18    v-18h18V46z M224.5,46h-18v-18h18V46z M206.1,46h-18v-18h18V46z M187.7,46h-18v-18h18V46z M169.3,46h-18v-18h18V46z M150.9,46h-18    v-18h18V46z M132.5,46h-18v-18h18V46z M114.1,46h-18v-18h18V46z M95.7,46h-18v-18h18V46z M77.3,46h-18v-18h18V46z M58.9,46h-18    v-18h18V46z M40.5,46h-18v-18h18V46z M22.1,46h-18v-18h18V46z M3.7,46h-18v-18h18V46z M-14.7,46h-18v-18h18V46z M-33.1,46h-18v-18    h18V46z M-51.5,46h-18v-18h18V46z M-69.9,46h-18v-18h18V46z M-88.3,46h-18v-18h18V46z M-106.7,46h-18v-18h18V46z M-125.1,46h-18    v-18h18V46z M-143.5,46h-18v-18h18V46z M-161.9,46h-18v-18h18V46z M-180.3,46h-18v-18h18V46z M-198.8,46h-18v-18h18V46z     M-217.2,46h-18v-18h18V46z M-217.2,46.4v18h-18v-18H-217.2z M-217.2,64.8v18h-18v-18H-217.2z M-217.2,83.2v18h-18v-18H-217.2z     M-217.2,101.6v18h-18v-18H-217.2z M-217.2,120v18h-18v-18H-217.2z M-217.2,138.4v18h-18v-18H-217.2z M-217.2,156.8v18h-18v-18    H-217.2z M-217.2,175.2v18h-18v-18H-217.2z M-217.2,193.6v18h-18v-18H-217.2z M-217.2,212v18h-18v-18H-217.2z M-217.2,230.4v18    h-18v-18H-217.2z M-217.2,248.8v18h-18v-18H-217.2z M-217.2,267.2v18h-18v-18H-217.2z M-217.2,285.6v18h-18v-18H-217.2z     M-217.2,304v18h-18v-18H-217.2z M-217.2,322.4v18h-18v-18H-217.2z M-217.2,340.8v18h-18v-18H-217.2z M-217.2,359.2v18h-18v-18    H-217.2z M-217.2,377.6v18h-18v-18H-217.2z M-217.2,396v18h-18v-18H-217.2z M-217.2,414.4v18h-18v-18H-217.2z M-217.2,432.8v18    h-18v-18H-217.2z M-216.8,432.8h18v18h-18V432.8z M-198.4,432.8h18v18h-18V432.8z M-180,432.8h18v18h-18V432.8z M-161.6,432.8h18    v18h-18V432.8z M-143.2,432.8h18v18h-18V432.8z M-124.8,432.8h18v18h-18V432.8z M-106.4,432.8h18v18h-18V432.8z M-88,432.8h18v18    h-18V432.8z M-69.6,432.8h18v18h-18V432.8z M-51.2,432.8h18v18h-18V432.8z M-32.8,432.8h18v18h-18V432.8z M-14.3,432.8h18v18h-18    V432.8z M4.1,432.8h18v18h-18V432.8z M22.5,432.8h18v18h-18V432.8z M40.9,432.8h18v18h-18V432.8z M59.3,432.8h18v18h-18V432.8z     M77.7,432.8h18v18h-18V432.8z M96.1,432.8h18v18h-18V432.8z M114.5,432.8h18v18h-18V432.8z M132.9,432.8h18v18h-18V432.8z     M151.3,432.8h18v18h-18V432.8z M169.7,432.8h18v18h-18V432.8z M188.1,432.8h18v18h-18V432.8z M206.5,432.8h18v18h-18V432.8z     M224.9,432.8h18v18h-18V432.8z M243.3,432.8h18v18h-18V432.8z M261.7,432.8h18v18h-18V432.8z M280.1,432.8h18v18h-18V432.8z     M298.5,432.8h18v18h-18V432.8z M316.9,432.8h18v18h-18V432.8z M335.3,432.8h18v18h-18V432.8z M353.7,432.8h18v18h-18V432.8z     M372.1,432.8h18v18h-18V432.8z M390.5,432.8h18v18h-18V432.8z M408.9,432.8h18v18h-18V432.8z M427.3,432.8h18v18h-18V432.8z     M445.7,432.8h18v18h-18V432.8z M464.1,432.8h18v18h-18V432.8z M482.5,432.8h18v18h-18V432.8z M500.9,432.8h18v18h-18V432.8z     M519.3,432.8h18v18h-18V432.8z M537.8,432.8h18v18h-18V432.8z M556.2,432.8h18v18h-18V432.8z M556.2,432.5v-18h18v18H556.2z     M556.2,414.1v-18h18v18H556.2z M556.2,395.6v-18h18v18H556.2z M556.2,377.2v-18h18v18H556.2z M556.2,358.8v-18h18v18H556.2z     M556.2,340.4v-18h18v18H556.2z M556.2,322v-18h18v18H556.2z M556.2,303.6v-18h18v18H556.2z M556.2,285.2v-18h18v18H556.2z     M556.2,266.8v-18h18v18H556.2z M556.2,248.4v-18h18v18H556.2z M556.2,230v-18h18v18H556.2z M556.2,211.6v-18h18v18H556.2z     M556.2,193.2v-18h18v18H556.2z M556.2,174.8v-18h18v18H556.2z M556.2,156.4v-18h18v18H556.2z M556.2,138v-18h18v18H556.2z     M556.2,119.6v-18h18v18H556.2z M556.2,101.2v-18h18v18H556.2z M556.2,82.8v-18h18v18H556.2z M556.2,64.4v-18h18v18H556.2z     M556.2,46v-18h18v18H556.2z M556.2,27.6v-18h18v18H556.2z M555.8,27.6h-18v-18h18V27.6z M537.4,27.6h-18v-18h18V27.6z M519,27.6    h-18v-18h18V27.6z M500.6,27.6h-18v-18h18V27.6z M482.2,27.6h-18v-18h18V27.6z M463.8,27.6h-18v-18h18V27.6z M445.4,27.6h-18v-18    h18V27.6z M427,27.6h-18v-18h18V27.6z M408.6,27.6h-18v-18h18V27.6z M390.2,27.6h-18v-18h18V27.6z M371.8,27.6h-18v-18h18V27.6z     M353.3,27.6h-18v-18h18V27.6z M334.9,27.6h-18v-18h18V27.6z M316.5,27.6h-18v-18h18V27.6z M298.1,27.6h-18v-18h18V27.6z     M279.7,27.6h-18v-18h18V27.6z M261.3,27.6h-18v-18h18V27.6z M242.9,27.6h-18v-18h18V27.6z M224.5,27.6h-18v-18h18V27.6z     M206.1,27.6h-18v-18h18V27.6z M187.7,27.6h-18v-18h18V27.6z M169.3,27.6h-18v-18h18V27.6z M150.9,27.6h-18v-18h18V27.6z     M132.5,27.6h-18v-18h18V27.6z M114.1,27.6h-18v-18h18V27.6z M95.7,27.6h-18v-18h18V27.6z M77.3,27.6h-18v-18h18V27.6z M58.9,27.6    h-18v-18h18V27.6z M40.5,27.6h-18v-18h18V27.6z M22.1,27.6h-18v-18h18V27.6z M3.7,27.6h-18v-18h18V27.6z M-14.7,27.6h-18v-18h18    V27.6z M-33.1,27.6h-18v-18h18V27.6z M-51.5,27.6h-18v-18h18V27.6z M-69.9,27.6h-18v-18h18V27.6z M-88.3,27.6h-18v-18h18V27.6z     M-106.7,27.6h-18v-18h18V27.6z M-125.1,27.6h-18v-18h18V27.6z M-143.5,27.6h-18v-18h18V27.6z M-161.9,27.6h-18v-18h18V27.6z     M-180.3,27.6h-18v-18h18V27.6z M-198.8,27.6h-18v-18h18V27.6z M-217.2,27.6h-18v-18h18V27.6z M-235.6,27.6h-18v-18h18V27.6z     M-235.6,27.9v18h-18v-18H-235.6z M-235.6,46.4v18h-18v-18H-235.6z M-235.6,64.8v18h-18v-18H-235.6z M-235.6,83.2v18h-18v-18    H-235.6z M-235.6,101.6v18h-18v-18H-235.6z M-235.6,120v18h-18v-18H-235.6z M-235.6,138.4v18h-18v-18H-235.6z M-235.6,156.8v18    h-18v-18H-235.6z M-235.6,175.2v18h-18v-18H-235.6z M-235.6,193.6v18h-18v-18H-235.6z M-235.6,212v18h-18v-18H-235.6z     M-235.6,230.4v18h-18v-18H-235.6z M-235.6,248.8v18h-18v-18H-235.6z M-235.6,267.2v18h-18v-18H-235.6z M-235.6,285.6v18h-18v-18    H-235.6z M-235.6,304v18h-18v-18H-235.6z M-235.6,322.4v18h-18v-18H-235.6z M-235.6,340.8v18h-18v-18H-235.6z M-235.6,359.2v18    h-18v-18H-235.6z M-235.6,377.6v18h-18v-18H-235.6z M-235.6,396v18h-18v-18H-235.6z M-235.6,414.4v18h-18v-18H-235.6z     M-235.6,432.8v18h-18v-18H-235.6z M-235.2,451.2h18v18h-18V451.2z M-216.8,451.2h18v18h-18V451.2z M-198.4,451.2h18v18h-18V451.2    z M-180,451.2h18v18h-18V451.2z M-161.6,451.2h18v18h-18V451.2z M-143.2,451.2h18v18h-18V451.2z M-124.8,451.2h18v18h-18V451.2z     M-106.4,451.2h18v18h-18V451.2z M-88,451.2h18v18h-18V451.2z M-69.6,451.2h18v18h-18V451.2z M-51.2,451.2h18v18h-18V451.2z     M-32.8,451.2h18v18h-18V451.2z M-14.3,451.2h18v18h-18V451.2z M4.1,451.2h18v18h-18V451.2z M22.5,451.2h18v18h-18V451.2z     M40.9,451.2h18v18h-18V451.2z M59.3,451.2h18v18h-18V451.2z M77.7,451.2h18v18h-18V451.2z M96.1,451.2h18v18h-18V451.2z     M114.5,451.2h18v18h-18V451.2z M132.9,451.2h18v18h-18V451.2z M151.3,451.2h18v18h-18V451.2z M169.7,451.2h18v18h-18V451.2z     M188.1,451.2h18v18h-18V451.2z M206.5,451.2h18v18h-18V451.2z M224.9,451.2h18v18h-18V451.2z M243.3,451.2h18v18h-18V451.2z     M261.7,451.2h18v18h-18V451.2z M280.1,451.2h18v18h-18V451.2z M298.5,451.2h18v18h-18V451.2z M316.9,451.2h18v18h-18V451.2z     M335.3,451.2h18v18h-18V451.2z M353.7,451.2h18v18h-18V451.2z M372.1,451.2h18v18h-18V451.2z M390.5,451.2h18v18h-18V451.2z     M408.9,451.2h18v18h-18V451.2z M427.3,451.2h18v18h-18V451.2z M445.7,451.2h18v18h-18V451.2z M464.1,451.2h18v18h-18V451.2z     M482.5,451.2h18v18h-18V451.2z M500.9,451.2h18v18h-18V451.2z M519.3,451.2h18v18h-18V451.2z M537.8,451.2h18v18h-18V451.2z     M556.2,451.2h18v18h-18V451.2z M574.6,451.2h18v18h-18V451.2z M574.6,450.9v-18h18v18H574.6z M574.6,432.5v-18h18v18H574.6z     M574.6,414.1v-18h18v18H574.6z M574.6,395.6v-18h18v18H574.6z M574.6,377.2v-18h18v18H574.6z M574.6,358.8v-18h18v18H574.6z     M574.6,340.4v-18h18v18H574.6z M574.6,322v-18h18v18H574.6z M574.6,303.6v-18h18v18H574.6z M574.6,285.2v-18h18v18H574.6z     M574.6,266.8v-18h18v18H574.6z M574.6,248.4v-18h18v18H574.6z M574.6,230v-18h18v18H574.6z M574.6,211.6v-18h18v18H574.6z     M574.6,193.2v-18h18v18H574.6z M574.6,174.8v-18h18v18H574.6z M574.6,156.4v-18h18v18H574.6z M574.6,138v-18h18v18H574.6z     M574.6,119.6v-18h18v18H574.6z M574.6,101.2v-18h18v18H574.6z M574.6,82.8v-18h18v18H574.6z M574.6,64.4v-18h18v18H574.6z     M574.6,46v-18h18v18H574.6z M574.6,27.6v-18h18v18H574.6z M574.6,9.2v-18h18v18H574.6z M574.2,9.2h-18v-18h18V9.2z M555.8,9.2    h-18v-18h18V9.2z M537.4,9.2h-18v-18h18V9.2z M519,9.2h-18v-18h18V9.2z M500.6,9.2h-18v-18h18V9.2z M482.2,9.2h-18v-18h18V9.2z     M463.8,9.2h-18v-18h18V9.2z M445.4,9.2h-18v-18h18V9.2z M427,9.2h-18v-18h18V9.2z M408.6,9.2h-18v-18h18V9.2z M390.2,9.2h-18v-18    h18V9.2z M371.8,9.2h-18v-18h18V9.2z M353.3,9.2h-18v-18h18V9.2z M334.9,9.2h-18v-18h18V9.2z M316.5,9.2h-18v-18h18V9.2z     M298.1,9.2h-18v-18h18V9.2z M279.7,9.2h-18v-18h18V9.2z M261.3,9.2h-18v-18h18V9.2z M242.9,9.2h-18v-18h18V9.2z M224.5,9.2h-18    v-18h18V9.2z M206.1,9.2h-18v-18h18V9.2z M187.7,9.2h-18v-18h18V9.2z M169.3,9.2h-18v-18h18V9.2z M150.9,9.2h-18v-18h18V9.2z     M132.5,9.2h-18v-18h18V9.2z M114.1,9.2h-18v-18h18V9.2z M95.7,9.2h-18v-18h18V9.2z M77.3,9.2h-18v-18h18V9.2z M58.9,9.2h-18v-18    h18V9.2z M40.5,9.2h-18v-18h18V9.2z M22.1,9.2h-18v-18h18V9.2z M3.7,9.2h-18v-18h18V9.2z M-14.7,9.2h-18v-18h18V9.2z M-33.1,9.2    h-18v-18h18V9.2z M-51.5,9.2h-18v-18h18V9.2z M-69.9,9.2h-18v-18h18V9.2z M-88.3,9.2h-18v-18h18V9.2z M-106.7,9.2h-18v-18h18V9.2z     M-125.1,9.2h-18v-18h18V9.2z M-143.5,9.2h-18v-18h18V9.2z M-161.9,9.2h-18v-18h18V9.2z M-180.3,9.2h-18v-18h18V9.2z M-198.8,9.2    h-18v-18h18V9.2z M-217.2,9.2h-18v-18h18V9.2z M-235.6,9.2h-18v-18h18V9.2z M-254,9.2h-18v-18h18V9.2z M-254,9.5v18h-18v-18H-254z     M-254,27.9v18h-18v-18H-254z M-254,46.4v18h-18v-18H-254z M-254,64.8v18h-18v-18H-254z M-254,83.2v18h-18v-18H-254z M-254,101.6    v18h-18v-18H-254z M-254,120v18h-18v-18H-254z M-254,138.4v18h-18v-18H-254z M-254,156.8v18h-18v-18H-254z M-254,175.2v18h-18v-18    H-254z M-254,193.6v18h-18v-18H-254z M-254,212v18h-18v-18H-254z M-254,230.4v18h-18v-18H-254z M-254,248.8v18h-18v-18H-254z     M-254,267.2v18h-18v-18H-254z M-254,285.6v18h-18v-18H-254z M-254,304v18h-18v-18H-254z M-254,322.4v18h-18v-18H-254z     M-254,340.8v18h-18v-18H-254z M-254,359.2v18h-18v-18H-254z M-254,377.6v18h-18v-18H-254z M-254,396v18h-18v-18H-254z     M-254,414.4v18h-18v-18H-254z M-254,432.8v18h-18v-18H-254z M593,469.3v-18h18v18H593z M593,450.9v-18h18v18H593z M593,432.5v-18    h18v18H593z M593,414.1v-18h18v18H593z M593,395.6v-18h18v18H593z M593,377.2v-18h18v18H593z M593,358.8v-18h18v18H593z     M593,340.4v-18h18v18H593z M593,322v-18h18v18H593z M593,303.6v-18h18v18H593z M593,285.2v-18h18v18H593z M593,266.8v-18h18v18    H593z M593,248.4v-18h18v18H593z M593,230v-18h18v18H593z M593,211.6v-18h18v18H593z M593,193.2v-18h18v18H593z M593,174.8v-18h18    v18H593z M593,156.4v-18h18v18H593z M593,138v-18h18v18H593z M593,119.6v-18h18v18H593z M593,101.2v-18h18v18H593z M593,82.8v-18    h18v18H593z M593,64.4v-18h18v18H593z M593,46v-18h18v18H593z M593,27.6v-18h18v18H593z M593,9.2v-18h18v18H593z M592.6-27.3v18    h-18v-18H592.6z M574.2-27.3v18h-18v-18H574.2z M555.8-27.3v18h-18v-18H555.8z M537.4-27.3v18h-18v-18H537.4z M519-27.3v18h-18    v-18H519z M500.6-27.3v18h-18v-18H500.6z M482.2-27.3v18h-18v-18H482.2z M463.8-27.3v18h-18v-18H463.8z M445.4-27.3v18h-18v-18    H445.4z M427-27.3v18h-18v-18H427z M408.6-27.3v18h-18v-18H408.6z M390.2-27.3v18h-18v-18H390.2z M371.8-27.3v18h-18v-18H371.8z     M353.3-27.3v18h-18v-18H353.3z M334.9-27.3v18h-18v-18H334.9z M316.5-27.3v18h-18v-18H316.5z M298.1-27.3v18h-18v-18H298.1z     M279.7-27.3v18h-18v-18H279.7z M261.3-27.3v18h-18v-18H261.3z M242.9-27.3v18h-18v-18H242.9z M224.5-27.3v18h-18v-18H224.5z     M206.1-27.3v18h-18v-18H206.1z M187.7-27.3v18h-18v-18H187.7z M169.3-27.3v18h-18v-18H169.3z M150.9-27.3v18h-18v-18H150.9z     M132.5-27.3v18h-18v-18H132.5z M114.1-27.3v18h-18v-18H114.1z M95.7-27.3v18h-18v-18H95.7z M77.3-27.3v18h-18v-18H77.3z     M58.9-27.3v18h-18v-18H58.9z M40.5-27.3v18h-18v-18H40.5z M22.1-27.3v18h-18v-18H22.1z M3.7-27.3v18h-18v-18H3.7z M-14.7-27.3v18    h-18v-18H-14.7z M-33.1-27.3v18h-18v-18H-33.1z M-51.5-27.3v18h-18v-18H-51.5z M-69.9-27.3v18h-18v-18H-69.9z M-88.3-27.3v18h-18    v-18H-88.3z M-106.7-27.3v18h-18v-18H-106.7z M-125.1-27.3v18h-18v-18H-125.1z M-143.5-27.3v18h-18v-18H-143.5z M-161.9-27.3v18    h-18v-18H-161.9z M-180.3-27.3v18h-18v-18H-180.3z M-198.8-27.3v18h-18v-18H-198.8z M-217.2-27.3v18h-18v-18H-217.2z M-235.6-27.3    v18h-18v-18H-235.6z M-254-27.3v18h-18v-18H-254z M-273.1-27.3h0.8v18h-0.8V-27.3z M-273.1-8.9h0.8v18h-0.8V-8.9z M-273.1,9.5h0.8    v18h-0.8V9.5z M-273.1,27.9h0.8v18h-0.8V27.9z M-273.1,46.4h0.8v18h-0.8V46.4z M-273.1,64.8h0.8v18h-0.8V64.8z M-273.1,83.2h0.8    v18h-0.8V83.2z M-273.1,101.6h0.8v18h-0.8V101.6z M-273.1,120h0.8v18h-0.8V120z M-273.1,138.4h0.8v18h-0.8V138.4z M-273.1,156.8    h0.8v18h-0.8V156.8z M-273.1,175.2h0.8v18h-0.8V175.2z M-273.1,193.6h0.8v18h-0.8V193.6z M-273.1,212h0.8v18h-0.8V212z     M-273.1,230.4h0.8v18h-0.8V230.4z M-273.1,248.8h0.8v18h-0.8V248.8z M-273.1,267.2h0.8v18h-0.8V267.2z M-273.1,285.6h0.8v18h-0.8    V285.6z M-273.1,304h0.8v18h-0.8V304z M-273.1,322.4h0.8v18h-0.8V322.4z M-273.1,340.8h0.8v18h-0.8V340.8z M-273.1,359.2h0.8v18    h-0.8V359.2z M-273.1,377.6h0.8v18h-0.8V377.6z M-273.1,396h0.8v18h-0.8V396z M-273.1,414.4h0.8v18h-0.8V414.4z M-273.1,432.8h0.8    v18h-0.8V432.8z M-273.1,451.2h0.8v18h-0.8V451.2z M612.1,469.3h-0.8v-18h0.8V469.3z M612.1,450.9h-0.8v-18h0.8V450.9z     M612.1,432.5h-0.8v-18h0.8V432.5z M612.1,414.1h-0.8v-18h0.8V414.1z M612.1,395.6h-0.8v-18h0.8V395.6z M612.1,377.2h-0.8v-18h0.8    V377.2z M612.1,358.8h-0.8v-18h0.8V358.8z M612.1,340.4h-0.8v-18h0.8V340.4z M612.1,322h-0.8v-18h0.8V322z M612.1,303.6h-0.8v-18    h0.8V303.6z M612.1,285.2h-0.8v-18h0.8V285.2z M612.1,266.8h-0.8v-18h0.8V266.8z M612.1,248.4h-0.8v-18h0.8V248.4z M612.1,230    h-0.8v-18h0.8V230z M612.1,211.6h-0.8v-18h0.8V211.6z M612.1,193.2h-0.8v-18h0.8V193.2z M612.1,174.8h-0.8v-18h0.8V174.8z     M612.1,156.4h-0.8v-18h0.8V156.4z M612.1,138h-0.8v-18h0.8V138z M612.1,119.6h-0.8v-18h0.8V119.6z M612.1,101.2h-0.8v-18h0.8    V101.2z M612.1,82.8h-0.8v-18h0.8V82.8z M612.1,64.4h-0.8v-18h0.8V64.4z M612.1,46h-0.8v-18h0.8V46z M612.1,27.6h-0.8v-18h0.8    V27.6z M612.1,9.2h-0.8v-18h0.8V9.2z M611.4-9.2v-18h0.8v18H611.4z"/>
	</g>
</g>
</svg>