<svg width="212" height="212" viewBox="0 0 212 212" fill="none" xmlns="http://www.w3.org/2000/svg">
    <path d="M18.8146 147.835C52.884 196.364 97.0034 149.484 112.973 125.747C146.244 86.185 155.56 136.296 192.491 90.4709C229.421 44.6452 176.188 12.6663 141.254 12.0069C106.319 11.3476 119.295 57.8326 77.0406 56.5138C34.7866 55.1951 -23.7721 87.174 18.8146 147.835Z" fill="#F1EADA"/>
    <g clip-path="url(#clip0_6_2658)">
        <path d="M156.202 130.592C156.202 130.592 165.572 133.772 166.717 132.5C167.862 131.228 170.151 101.294 167.692 99.004C165.233 96.7144 68.1368 87.3016 61.5224 92.7712C57.5368 94.0856 58.9784 117.109 59.6568 117.957C60.2928 118.72 156.202 130.592 156.202 130.592Z" fill="#3D3532"/>
        <path d="M172.314 137.546C172.314 137.758 167.395 252.153 156.202 258.301C145.008 264.449 40.7463 250.627 37.4391 234.684C34.1319 218.742 50.4559 126.267 54.9503 120.967C59.4871 115.625 172.822 125.589 172.314 137.546Z" fill="#2E2826"/>
        <path d="M158.661 124.317C157.516 122.833 134.832 117.914 134.832 117.914L86.4959 111.639C86.4959 111.639 56.9007 115.243 55.4167 117.194C53.9327 119.144 24.8039 198.941 24.3375 206.361C23.8287 213.781 45.2407 257.198 45.2407 257.198L51.8975 243.588C53.6359 243.63 109.392 257.368 133.051 245.496C132.542 240.578 135.934 194.531 135.934 194.531L138.987 190.249L156.753 203.859L133.221 247.446L146.068 261.735C146.068 261.735 181.938 235.235 187.196 220.777C192.369 206.361 159.806 125.801 158.661 124.317ZM54.4415 218.911L50.4983 204.707L55.7135 195.379L57.5367 190.546L54.4415 218.911Z" fill="#27C278"/>
        <path d="M86.4535 111.682C86.4535 111.682 83.1887 138.902 98.7495 139.454C114.268 140.005 126.691 116.854 126.691 116.854L86.4535 111.682Z" fill="url(#paint0_linear_6_2658)"/>
        <path d="M114.65 132.33C121.942 125.716 126.649 116.897 126.649 116.897L106.631 110.732L86.4112 111.682C86.4112 111.682 85.224 121.688 87.768 129.702C93.704 128.811 105.194 127.963 114.65 132.33Z" fill="url(#paint1_radial_6_2658)"/>
        <path d="M50.4984 204.707L55.7136 195.379L57.3248 191.055C57.452 189.783 57.4944 188.977 57.4944 188.807C57.4944 187.154 54.6536 163.325 54.6536 163.325C54.6536 163.325 41.3824 184.398 40.8736 186.306C40.3648 188.214 42.5272 190.334 42.5272 191.139C42.5272 191.945 26.2456 196.651 28.8744 198.305C31.5032 199.959 36.2944 197.627 35.9552 198.135C35.616 198.644 30.1888 206.403 30.1888 207.039C30.1888 207.675 34.8104 207.039 34.8104 207.039L51.8128 243.588C51.8128 243.588 53.0848 231.631 54.4416 218.911L50.4984 204.707Z" fill="#2B8F5F"/>
        <path d="M58.7662 142.337L47.6574 137.122L42.2302 151.241L53.3814 157.389L58.7662 142.337Z" fill="white"/>
        <path d="M137.291 150.011L165.572 141.192C165.572 141.192 170.024 152.428 170.193 152.979C170.363 153.531 140.937 162.307 140.937 162.307L137.291 150.011Z" fill="white"/>
        <path d="M133.687 149.418C133.687 149.418 63.1335 142.507 61.8191 142.931C60.4623 143.355 59.6143 154.591 59.6143 154.591L133.051 161.163L133.687 149.418Z" fill="white"/>
        <path d="M139.411 195.719C139.411 196.227 153.021 201.443 152.809 203.605C152.597 205.725 135.892 242.528 135.892 242.528L166.081 206.403L161.12 201.782L167.692 198.983L141.022 165.106L139.411 195.719Z" fill="#2B8F5F"/>
        <path d="M142.633 204.75C142.633 204.75 141.743 186.348 142.633 164.766C143.524 143.227 153.7 121.179 152.725 120.204C151.749 119.229 134.917 116.43 133.136 117.406C131.355 118.381 127.2 172.356 130.507 187.79C133.814 203.266 141.913 208.354 142.633 204.75Z" fill="#2E2826"/>
        <path d="M74.6238 112.657C74.6238 112.657 59.9958 196.524 56.8582 197.033C53.7206 197.542 47.3182 148.527 56.8582 115.286C58.5118 113.971 74.6238 112.657 74.6238 112.657Z" fill="#2E2826"/>
        <path d="M123.087 95.6544L99.5552 91.8384L88.5312 111.936L123.087 116.388V95.6544Z" fill="url(#paint2_radial_6_2658)"/>
        <path d="M77.3375 55.1202C76.3623 57.6642 75.6839 60.293 75.3871 63.0066C75.3871 63.1762 75.3447 63.3882 75.3447 63.5578C75.0479 66.8226 74.2847 70.045 73.2247 73.1402C71.7831 72.4618 70.3415 71.1898 69.0695 69.1546C65.7199 63.8122 67.8399 56.053 72.8431 54.6962C74.7511 54.1874 76.2351 54.4842 77.3375 55.1202C77.3799 55.1202 77.3799 55.0778 77.3375 55.1202Z" fill="#A16552"/>
        <path d="M77.3375 55.1202C76.3623 57.6642 75.6839 60.293 75.3871 63.0066C75.3871 63.1762 75.3447 63.3882 75.3447 63.5578C75.0479 66.8226 74.2847 70.045 73.2247 73.1402C71.7831 72.4618 70.3415 71.1898 69.0695 69.1546C65.7199 63.8122 67.8399 56.053 72.8431 54.6962C74.7511 54.1874 76.2351 54.4842 77.3375 55.1202C77.3799 55.1202 77.3799 55.0778 77.3375 55.1202Z" fill="#F5DCB4"/>
        <path d="M147.51 77.6344C145.814 79.3304 144.16 80.2632 142.591 80.6448C142.21 77.38 142.167 74.0728 142.549 70.8504C142.549 70.6808 142.591 70.4688 142.591 70.2992C142.888 67.5856 142.803 64.8296 142.337 62.1584C143.566 61.8192 145.093 61.8616 146.831 62.752C151.453 65.0416 151.919 73.0976 147.51 77.6344Z" fill="#A16552"/>
        <path d="M147.51 77.6344C145.814 79.3304 144.16 80.2632 142.591 80.6448C142.21 77.38 142.167 74.0728 142.549 70.8504C142.549 70.6808 142.591 70.4688 142.591 70.2992C142.888 67.5856 142.803 64.8296 142.337 62.1584C143.566 61.8192 145.093 61.8616 146.831 62.752C151.453 65.0416 151.919 73.0976 147.51 77.6344Z" fill="#F5DCB4"/>
        <path d="M132.161 79.585C130.507 81.6626 129.829 84.3338 130.38 86.9202C130.804 88.8706 131.143 91.0754 130.974 92.6442C129.744 104.219 117.745 112.445 104.177 110.961C90.6512 109.519 80.6872 98.9194 81.9168 87.3442C82.0864 85.7754 82.892 83.6978 83.74 81.8746C84.8424 79.4578 84.7576 76.7018 83.5704 74.3274C83.2736 73.7762 83.0616 73.1826 82.8496 72.5466C82.256 70.7234 82.044 68.773 82.256 66.865C83.104 59.1906 90.312 53.6362 98.368 54.5266C100.997 54.781 103.456 55.7562 105.618 57.2826C108.12 59.1058 111.385 59.445 114.226 58.2154C116.642 57.1978 119.271 56.7738 121.9 57.0706C129.998 57.961 135.85 64.8722 135.044 72.589C134.832 74.497 134.238 76.3626 133.221 78.0162C132.924 78.5674 132.542 79.1186 132.161 79.585Z" fill="#A16552"/>
        <path d="M132.161 79.585C130.507 81.6626 129.829 84.3338 130.38 86.9202C130.804 88.8706 131.143 91.0754 130.974 92.6442C129.744 104.219 117.745 112.445 104.177 110.961C90.6512 109.519 80.6872 98.9194 81.9168 87.3442C82.0864 85.7754 82.892 83.6978 83.74 81.8746C84.8424 79.4578 84.7576 76.7018 83.5704 74.3274C83.2736 73.7762 83.0616 73.1826 82.8496 72.5466C82.256 70.7234 82.044 68.773 82.256 66.865C83.104 59.1906 90.312 53.6362 98.368 54.5266C100.997 54.781 103.456 55.7562 105.618 57.2826C108.12 59.1058 111.385 59.445 114.226 58.2154C116.642 57.1978 119.271 56.7738 121.9 57.0706C129.998 57.961 135.85 64.8722 135.044 72.589C134.832 74.497 134.238 76.3626 133.221 78.0162C132.924 78.5674 132.542 79.1186 132.161 79.585Z" fill="url(#paint3_linear_6_2658)"/>
        <path d="M148.824 60.2506C146.068 58.809 143.694 59.1482 141.955 59.9114C141.701 58.7242 141.362 57.4946 140.98 56.3498C140.683 55.5018 140.386 54.6538 140.005 53.8058C136.443 45.1986 129.702 37.6514 121.434 33.8778L121.773 29.2562L115.879 31.9698C115.667 31.9274 115.455 31.885 115.201 31.8426C114.777 31.7578 114.395 31.673 113.971 31.6306L113.547 28.069L113.42 27.009C113.123 26.9666 112.869 26.9666 112.614 26.9666C107.399 26.8394 104.346 31.249 103.838 32.0122C94.976 33.9202 86.7504 39.8562 81.4504 47.4882C80.9416 48.2514 80.4328 49.0146 79.9664 49.7778C79.3304 50.8378 78.7368 51.9402 78.228 53.0426C78.1856 53.0002 78.1008 52.9578 78.016 52.9154C76.4896 51.8978 74.3272 51.1346 71.444 51.8978C65.084 53.5938 62.3704 63.473 66.6104 70.257C68.3488 73.013 70.3416 74.6666 72.292 75.4722C72.2496 75.5994 72.2072 75.6842 72.1648 75.8114C71.6136 77.465 71.232 79.161 71.0624 80.8994C69.7904 92.8562 77.4648 104.092 89.6336 109.986C92.4744 111.385 95.4848 112.403 98.58 113.123C100.191 113.505 101.802 113.759 103.456 113.971C103.583 113.971 103.71 114.014 103.838 114.014C123.681 116.134 141.192 104.813 142.93 88.6586C143.1 86.9202 143.1 85.1818 142.93 83.4858C142.93 83.3586 142.888 83.2314 142.888 83.1466C145.008 82.765 147.255 81.5778 149.545 79.2458C155.226 73.5218 154.633 63.3034 148.824 60.2506ZM77.3376 55.1202C76.3624 57.6642 75.684 60.293 75.3872 63.0066C75.3872 63.1762 75.3448 63.3882 75.3448 63.5578C75.048 66.8226 74.2848 70.045 73.2248 73.1402C71.7832 72.4618 70.3416 71.1898 69.0696 69.1546C65.72 63.8122 67.84 56.053 72.8432 54.6962C74.7512 54.1874 76.2352 54.4842 77.3376 55.1202C77.38 55.1202 77.38 55.0778 77.3376 55.1202ZM133.221 78.0162C132.882 78.5674 132.542 79.0762 132.118 79.585C130.465 81.6626 129.786 84.3338 130.338 86.9202C130.762 88.8706 131.101 91.0754 130.931 92.6442C129.702 104.219 117.702 112.445 104.134 110.961C90.6088 109.519 80.6024 98.9194 81.8744 87.3442C82.044 85.7754 82.8496 83.6978 83.6976 81.8746C84.8 79.4578 84.7152 76.7018 83.528 74.3274C83.2312 73.7762 83.0192 73.1826 82.8072 72.5466C82.2136 70.7234 82.0016 68.773 82.2136 66.865C83.0616 59.1906 90.2696 53.6362 98.3256 54.5266C100.954 54.781 103.414 55.7562 105.576 57.2826C108.078 59.1058 111.342 59.445 114.183 58.2154C116.6 57.1978 119.229 56.7738 121.858 57.0706C129.956 57.961 135.807 64.8722 135.002 72.589C134.832 74.497 134.238 76.3626 133.221 78.0162ZM147.51 77.6346C145.814 79.3306 144.16 80.2634 142.591 80.645C142.21 77.3802 142.167 74.073 142.549 70.8506C142.549 70.681 142.591 70.469 142.591 70.2994C142.888 67.5858 142.803 64.8298 142.337 62.1586C143.566 61.8194 145.093 61.8618 146.831 62.7522C151.453 65.0418 151.919 73.0978 147.51 77.6346Z" fill="url(#paint4_linear_6_2658)"/>
        <path d="M101.209 81.4929C101.548 80.9417 102.269 80.7297 102.82 81.0689L105.406 82.5953C105.958 82.9345 106.17 83.6553 105.83 84.2065C105.491 84.7577 104.77 84.9697 104.219 84.6305L101.633 83.1041C101.082 82.8073 100.87 82.0865 101.209 81.4929Z" fill="#4E3F3F"/>
        <path d="M108.332 84.5456C108.12 83.9096 108.459 83.2736 109.095 83.0616L111.936 82.1288C112.572 81.9168 113.208 82.256 113.42 82.892C113.632 83.528 113.293 84.164 112.657 84.376L109.816 85.3088C109.18 85.4784 108.544 85.1392 108.332 84.5456Z" fill="#4E3F3F"/>
        <path d="M95.4424 73.9457C93.1104 73.6913 91.4144 71.6985 91.6688 69.4937L91.796 68.1793C92.0504 65.9745 94.128 64.4057 96.4176 64.6601C98.7496 64.9145 100.446 66.9073 100.191 69.1121L100.064 70.4265C99.852 72.6313 97.7744 74.2001 95.4424 73.9457Z" fill="#4E3F3F"/>
        <path d="M96.4599 64.6602L95.9511 69.3242C95.8239 70.4266 96.6719 71.4018 97.8167 71.529C98.9615 71.6562 100.022 70.8506 100.149 69.7482L100.234 69.0698C100.488 66.9074 98.7919 64.9146 96.4599 64.6602Z" fill="#5D5360"/>
        <path d="M97.573 67.4842C97.6508 66.7625 97.0911 66.1102 96.3228 66.0274C95.5545 65.9446 94.8686 66.4625 94.7908 67.1842C94.713 67.9059 95.2727 68.5581 96.041 68.641C96.8093 68.7238 97.4952 68.2059 97.573 67.4842Z" fill="white"/>
        <path d="M120.331 76.9984C117.999 76.744 116.303 74.7512 116.557 72.5464L116.685 71.232C116.939 69.0272 119.017 67.4584 121.306 67.7128C123.638 67.9672 125.334 69.96 125.08 72.1648L124.953 73.4792C124.698 75.684 122.663 77.2528 120.331 76.9984Z" fill="#4E3F3F"/>
        <path d="M121.306 67.7129L120.798 72.3769C120.67 73.4793 121.518 74.4545 122.663 74.5817C123.808 74.7089 124.868 73.9033 124.995 72.8009L125.08 72.1225C125.334 69.9601 123.638 67.9673 121.306 67.7129Z" fill="#5D5360"/>
        <path d="M122.43 70.5181C122.508 69.7964 121.948 69.1442 121.18 69.0613C120.412 68.9785 119.726 69.4964 119.648 70.2181C119.57 70.9398 120.13 71.5921 120.898 71.6749C121.667 71.7577 122.353 71.2398 122.43 70.5181Z" fill="white"/>
        <path opacity="0.35" d="M113.547 28.0265C112.614 27.8145 110.41 29.0865 107.654 31.3761C106.975 31.9273 106.254 32.6057 105.534 33.2841C100.106 38.4145 93.5344 46.7673 90.6512 55.7137C85.7752 70.7657 82.5528 88.4465 87.132 98.9617C91.0328 107.866 98.6648 113.123 98.6648 113.123C95.5696 112.402 92.5592 111.342 89.7184 109.986C77.5496 104.092 69.8328 92.8561 71.1472 80.8993C71.3168 79.1609 71.6984 77.4649 72.2496 75.8113C72.292 75.6841 72.3344 75.5993 72.3768 75.4721C70.384 74.6241 68.4336 73.0129 66.6952 70.2569C62.4128 63.4729 65.1688 53.5937 71.5288 51.8977C74.412 51.1345 76.6168 51.8553 78.1008 52.9153C78.1856 52.9577 78.228 53.0001 78.3128 53.0425C78.8216 51.9401 79.4152 50.8377 80.0512 49.7777C80.5176 49.0145 81.0264 48.2513 81.5352 47.4881C86.8352 39.8561 95.0608 33.9201 103.922 31.9697C104.431 31.2065 107.484 26.7969 112.699 26.9241C112.954 26.9241 113.25 26.9665 113.505 26.9665L113.547 28.0265Z" fill="#4E3F3F"/>
        <path d="M122.281 98.5801C121.942 97.6897 121.433 96.8417 120.755 96.2057C119.229 94.6793 116.43 94.8065 118.338 96.0785C118.55 96.2057 118.762 96.3753 118.974 96.5449C118.932 96.5873 118.889 96.6721 118.847 96.7145C118.253 97.4353 117.448 97.9017 116.6 98.2409C112.402 99.7673 107.229 98.8769 102.947 97.9865C99.4279 97.1385 95.8239 96.0361 92.6863 94.1705C90.7783 93.7041 92.4319 95.0609 92.5167 95.1033C92.8983 95.3153 93.2799 95.5273 93.7039 95.6969C99.2583 98.3681 115.201 102.778 119.78 97.4777C119.822 97.3929 119.907 97.3081 119.949 97.2657C120.034 97.3505 120.204 97.4353 120.289 97.5201C120.755 97.9017 121.264 98.3257 121.688 98.7497C121.815 98.8769 121.985 99.0889 122.112 99.2161C122.578 99.5977 122.409 98.8345 122.281 98.5801Z" fill="#4E3F3F"/>
        <path d="M115.285 65.9322L115.328 66.7378C115.37 67.077 115.625 67.3314 115.964 67.289L128.048 66.5682C128.387 66.5682 128.641 66.2714 128.599 65.9322C128.557 64.9146 128.387 63.1338 128.26 63.1338C128.133 63.1338 118.169 64.8298 115.752 65.2538C115.455 65.3386 115.243 65.6354 115.285 65.9322Z" fill="url(#paint5_linear_6_2658)"/>
        <path d="M102.905 64.4481L102.608 65.2113C102.481 65.5081 102.142 65.6777 101.845 65.5505L90.4816 61.3953C90.1848 61.2681 90.0152 60.9289 90.1 60.6321C90.4392 59.6993 91.1176 58.0033 91.2024 58.0457C91.3296 58.0881 100.361 62.5825 102.566 63.6849C102.905 63.8121 103.032 64.1513 102.905 64.4481Z" fill="url(#paint6_linear_6_2658)"/>
        <path d="M78.0583 52.9152C78.0583 52.9152 77.8463 53.2968 80.0935 54.272C82.3407 55.2472 137.418 60.9712 141.955 59.9112C142.379 59.8688 142.506 59.784 142.506 59.5296C142.464 59.2328 139.75 48.5056 138.818 47.1064C137.588 46.5552 136.443 46.5552 135.086 46.7248C133.687 46.852 85.7751 42.824 84.7151 42.4424C83.6551 42.0608 81.3655 46.5976 80.7719 47.8272C80.1359 49.0568 78.0583 52.9152 78.0583 52.9152Z" fill="#27C278"/>
        <path opacity="0.35" d="M95.8663 43.5447C89.5911 42.9935 84.9695 42.5271 84.6727 42.3999C83.6127 42.0183 81.3231 46.5551 80.7295 47.7847C80.1359 49.0143 78.0583 52.9151 78.0583 52.9151C78.0583 52.9151 77.8463 53.2967 80.0935 54.2719C80.6447 54.5263 84.2487 55.0351 89.5063 55.6711C89.5063 55.6711 94.9335 44.8591 95.8663 43.5447Z" fill="#4E3F3F"/>
    </g>
    <defs>
        <linearGradient id="paint0_linear_6_2658" x1="86.1703" y1="125.563" x2="126.677" y2="125.563" gradientUnits="userSpaceOnUse">
            <stop stop-color="#E7BC91"/>
            <stop offset="0.3993" stop-color="#F3D5B5"/>
            <stop offset="0.6602" stop-color="#F5DCB4"/>
            <stop offset="0.7034" stop-color="#F4DAB2"/>
            <stop offset="1" stop-color="#EFD3AB"/>
        </linearGradient>
        <radialGradient id="paint1_radial_6_2658" cx="0" cy="0" r="1" gradientUnits="userSpaceOnUse" gradientTransform="translate(108.596 83.9126) scale(117.473 117.473)">
            <stop offset="0.1429" stop-color="#92594B"/>
            <stop offset="0.2417" stop-color="#91584A"/>
            <stop offset="0.2571" stop-color="#905749"/>
            <stop offset="0.5513" stop-color="#814C3F"/>
            <stop offset="0.7934" stop-color="#7C483C"/>
        </radialGradient>
        <radialGradient id="paint2_radial_6_2658" cx="0" cy="0" r="1" gradientUnits="userSpaceOnUse" gradientTransform="translate(108.591 74.2979) scale(153.764 153.764)">
            <stop offset="0.1429" stop-color="#92594B"/>
            <stop offset="0.2417" stop-color="#91584A"/>
            <stop offset="0.2571" stop-color="#905749"/>
            <stop offset="0.5513" stop-color="#814C3F"/>
            <stop offset="0.7934" stop-color="#7C483C"/>
        </radialGradient>
        <linearGradient id="paint3_linear_6_2658" x1="81.7915" y1="82.2337" x2="134.767" y2="83.7677" gradientUnits="userSpaceOnUse">
            <stop stop-color="#E7BC91"/>
            <stop offset="0.3993" stop-color="#F3D5B5"/>
            <stop offset="0.6602" stop-color="#F5DCB4"/>
            <stop offset="0.7034" stop-color="#F4DAB2"/>
            <stop offset="1" stop-color="#EFD3AB"/>
        </linearGradient>
        <linearGradient id="paint4_linear_6_2658" x1="64.2263" y1="67.3286" x2="153.237" y2="73.7645" gradientUnits="userSpaceOnUse">
            <stop stop-color="#A16552"/>
            <stop offset="0.201" stop-color="#935848"/>
            <stop offset="0.504" stop-color="#935848"/>
            <stop offset="0.6028" stop-color="#9C604E"/>
            <stop offset="0.7268" stop-color="#A16552"/>
            <stop offset="1" stop-color="#966444"/>
        </linearGradient>
        <linearGradient id="paint5_linear_6_2658" x1="116.028" y1="66.3347" x2="154.907" y2="61.7445" gradientUnits="userSpaceOnUse">
            <stop stop-color="#A16552"/>
            <stop offset="0.201" stop-color="#935848"/>
            <stop offset="0.504" stop-color="#935848"/>
            <stop offset="0.6028" stop-color="#9C604E"/>
            <stop offset="0.7268" stop-color="#A16552"/>
            <stop offset="1" stop-color="#966444"/>
        </linearGradient>
        <linearGradient id="paint6_linear_6_2658" x1="102.434" y1="63.8842" x2="79.815" y2="55.8651" gradientUnits="userSpaceOnUse">
            <stop stop-color="#A16552"/>
            <stop offset="0.201" stop-color="#935848"/>
            <stop offset="0.504" stop-color="#935848"/>
            <stop offset="0.6028" stop-color="#9C604E"/>
            <stop offset="0.7268" stop-color="#A16552"/>
            <stop offset="1" stop-color="#966444"/>
        </linearGradient>
        <clipPath id="clip0_6_2658">
            <rect width="212" height="212" rx="106" fill="white"/>
        </clipPath>
    </defs>
</svg>
