<?xml version="1.0" encoding="utf-8"?>
<!-- Generator: Adobe Illustrator 27.0.0, SVG Export Plug-In . SVG Version: 6.00 Build 0)  -->
<svg version="1.1" id="Laag_1" xmlns="http://www.w3.org/2000/svg" xmlns:xlink="http://www.w3.org/1999/xlink" x="0px" y="0px"
	 viewBox="0 0 500 500" style="enable-background:new 0 0 500 500;" xml:space="preserve">
<style type="text/css">
	.st0{fill:#938982;}
	.st1{fill:#C2A981;}
	.st2{opacity:0.1;}
	.st3{fill:#AFAFAF;}
	.st4{opacity:0.3;}
	.st5{fill:#8C9DA5;}
	.st6{fill:#B2956B;}
	.st7{fill:#9F6552;}
	.st8{opacity:0.35;fill:#4E3F3F;enable-background:new    ;}
	.st9{fill:url(#SVGID_1_);}
	.st10{fill:#777548;}
	.st11{fill:url(#SVGID_00000119094433107795389050000010191494017703726997_);}
	.st12{fill:#A39872;}
	.st13{fill:#9B8F6D;}
	.st14{fill:url(#SVGID_00000178883826643549259640000009464198450906413991_);}
	.st15{fill:#413B2B;}
	.st16{fill:#332E23;}
	.st17{fill:#686540;}
	.st18{fill:#848157;}
	.st19{fill:url(#SVGID_00000130617788158187370370000011141375662063650238_);}
	.st20{fill:#7F7455;}
	.st21{fill:#8E8364;}
	.st22{fill:#3D3532;}
	.st23{fill:#776F5A;}
	.st24{fill:#828282;}
	.st25{fill:url(#SVGID_00000062184685978335892780000012020784252994822842_);}
	.st26{fill:#FCDD96;}
	.st27{fill:#FAF4E6;}
	.st28{fill:#FFCA28;}
	.st29{fill:#AC752C;}
	.st30{fill:#7D551F;}
	.st31{fill:#FFB300;}
	.st32{fill:#FFD54F;}
	.st33{fill:#FFD770;}
	.st34{fill:#FFEA8C;}
	.st35{fill:url(#SVGID_00000152969941934105502120000014597690562767503014_);}
	.st36{fill:url(#SVGID_00000132773659428753487170000016105886505565459114_);}
	
		.st37{fill:none;stroke:url(#SVGID_00000021821439711782302880000006186205232792889525_);stroke-width:1.1875;stroke-opacity:0.12;}
	.st38{fill:#FFFFFF;}
	.st39{fill:url(#SVGID_00000083771640043965003560000010215515257825976472_);}
	.st40{fill:url(#SVGID_00000094592604690662658420000006957005471029981609_);}
	.st41{fill:url(#SVGID_00000158000154964770468400000006180241497247009440_);}
	.st42{fill:#7C5535;}
	.st43{fill-rule:evenodd;clip-rule:evenodd;fill:#603E26;}
	.st44{fill:#8C6239;}
	.st45{fill:#603E26;}
	.st46{fill:#A16552;}
	.st47{fill:url(#SVGID_00000082350538116713211910000010140660582877295256_);}
	.st48{fill:url(#SVGID_00000071519291481521703530000006522001349144211869_);}
	.st49{fill:url(#SVGID_00000000224345842376434660000004035617878137115305_);}
	.st50{fill:url(#SVGID_00000100364872682571177210000017552931190599188903_);}
	.st51{fill:url(#SVGID_00000134242545022018759510000004899482584073704588_);}
	.st52{fill:url(#SVGID_00000034057810439826647840000012918941784491057838_);}
	.st53{fill:url(#SVGID_00000003818969245292134650000013606442111076258741_);}
	.st54{fill:url(#SVGID_00000026855454540946735450000009402359844873163682_);}
	.st55{fill:url(#SVGID_00000126312819711461730250000016220413195220526989_);}
	.st56{fill:url(#SVGID_00000114769016995316008390000006692666654069500810_);}
	.st57{fill:url(#SVGID_00000117668893356754307760000004699927934110005439_);}
	.st58{fill:url(#SVGID_00000098908068044800764960000011789611976106846115_);}
	.st59{fill:url(#SVGID_00000000932731400290078460000017434886093664868786_);}
	.st60{fill:#A57955;}
	.st61{fill:url(#SVGID_00000040543069403604309350000011587810760181228695_);}
	.st62{fill:#DBC483;}
	.st63{fill:#C9B177;}
	.st64{fill:#8C7D5D;}
	.st65{fill:#27C278;}
	.st66{opacity:0.1;fill:#6B5C5C;}
</style>
<path class="st0" d="M187.1,472.6c-64.3-0.9-96.1-5.1-116.2-24.7s-10.3-25.4,14.8-36.4c25-11,66.4-30.6,120.5-31.7
	s107.2,6,114.7,7.1c7.5,1.1,50.9,12.9,58.3,43C386.6,460.1,269,473.8,187.1,472.6z"/>
<path class="st1" d="M325.4,417c3-16.1,4.2-25.6-4.6-30l0,0c-5.6-0.8-37.1-5.1-75.5-6.7c-9.3-0.3-18.5-0.5-26.8-0.6
	c-4.1,0-8.3,0-12.4,0.1c-7.9,0.4-31.4,2-46.3,10.1c-18.6,10-28.8,30.2-42.7,36.9c-10.6,5.2-39.1,10.2-45.1,22.2
	c20.1,18.6,52,22.7,115.1,23.6c52.2,0.7,118.9-4.5,158.4-16.3C349.9,445.2,322.2,434.3,325.4,417z"/>
<path class="st2" d="M182.9,387.6c0,0-24.1-0.2-34.5,12.3c-10.3,12.4-19,16.8-14.8,31.2c4.1,14.4,48.1,24.7,94.2,17.1
	s60.3-3.8,78.2-20c17.9-16.2,11.3-27.6,4.3-31.4c-7-3.8-26.6-8-49.1-6.8C238.8,391.3,182.9,387.6,182.9,387.6z"/>
<path class="st3" d="M336,415c-2.1-2.2-4.3-4.8-3.3-6.4c1-1.6,3.9-8.7,4.7-9.8c0.8-1,3.1-2.9,5.2-2.9s7.4,0.1,13.3,1.4
	s10.2,8.1,11.6,11.2c1.4,3.2,2.3,9.9-2.9,10.8c-5.2,0.9-7-0.4-16.7,0.7C338.3,421.1,338.6,417.7,336,415z"/>
<path class="st4" d="M332.5,409.4c0,0,3.2,1.7,4.1,3.8c0.9,2.1,1.3,4.3,6.5,3.6s6.3,0,8.5-2.5c2.2-2.5,6.2-2.7,7.5-0.6
	c1.3,2.1,5.7,1.8,6.4,1.5s2.7,0.3,2.9,1.3s-1.4,2.2-1.2,3.6s0.2,1.8-1.6,2.1c-1.9,0.3-10.3-0.4-15.1,0.5s-7,0-9.5-0.7
	c-2.5-0.6-3.9-3.3-4.9-4.9c-1-1.6-3-5.7-3.2-6.3C332.5,410,331.9,409.4,332.5,409.4z"/>
<path class="st5" d="M336.2,434.9c-1.4-1.8,0.7-3.1,2-3.2c1.3-0.1,2.8,1.5,2.5,2.3c-0.2,0.8-1.7,1.4-2.4,1.3
	C337.6,435.2,336.7,435.5,336.2,434.9z"/>
<path class="st4" d="M335.9,434.5c-0.1-0.2,0.7,0.4,0.9,0.5c0.2,0,0.6,0,1.1-0.1c0.5,0,0.5,0.2,0.9,0.1c0.4-0.2,1.4-0.4,1.4-0.4
	s-0.2,0.3-0.6,0.6c-0.4,0.2-0.9,0.5-1.3,0.5c-0.4,0-1.1,0-1.4,0c-0.3,0-0.7-0.3-0.8-0.5C336,435,335.9,434.5,335.9,434.5z"/>
<path class="st4" d="M85.2,412.6c0,0,2.5-0.6,4.4,0.6s0.4,1.6,2.4,1.7s3.7-0.5,5.9,0s4.4,0.8,6,0.5c1.6-0.3,3.1,0.6,4.4-1
	c1.3-1.6,2.3-4.2,3.3-5.1c0.9-0.8,2.9-2,4.1-2.3s5.3-3,6-3.3c0.8-0.2,3.4-1.8,3.5-2c0.2-0.2-0.3,1.2-1.6,2.1
	c-1.3,0.9-3.6,1.5-3.9,1.8c-0.3,0.3-4.2,2.4-4.8,3.2c-0.6,0.7-2.9,2.8-3.6,3.7c-0.7,0.9-3.3,3.7-4.1,4c-0.8,0.3-2.6,0.1-4,0.4
	s-3.5,1.2-4.5,1.7c-1,0.5-4.8,0.1-6.2,0.5c-1.4,0.4-5.4,0.3-5.9-1.1C86.1,416.6,84.7,413,85.2,412.6z"/>
<path class="st6" d="M117.3,442.4c3.7-0.3,4.5-1.8,12.7-0.3c8.1,1.5,12,1.7,4.5,6.7c-7.5,4.9-12.9,7.5-15.9,5.2
	S107.4,443.1,117.3,442.4z"/>
<path class="st2" d="M114.4,449.7c0,0,2.5,2.3,3.3,3c0.8,0.6,1.4,1.3,3.3,1.4c1.9,0.1,5.3-0.9,6.4-1.5c1-0.6,10.2-6,10.2-6
	s-2.3,2.7-3.7,3.8s-6.9,4.3-8.5,4.8c-1.6,0.5-3.3,0.7-5.2,0.4s-2.6-1.3-2.9-2C117,452.9,114.4,449.7,114.4,449.7z"/>
<path class="st6" d="M301.6,402.6c0.6-0.8,0.5-1.9,2.9-1.5c2.3,0.4,3.3,0.5,3.5,1.5c0.1,0.9,0.5,2.5-0.9,2.7s-4.2-0.1-4.8-0.6
	C301.7,404.2,301.3,403.1,301.6,402.6z"/>
<path class="st6" d="M290.3,394.5c0.8-0.7,2.3-3.3,5.8-2.6c3.5,0.7,4.3,1,4.2,2.3s0.5,3.7-1.2,4.1c-1.6,0.5-6.1,2.4-7.2,2
	C290.8,399.8,287.7,396.8,290.3,394.5z"/>
<path class="st2" d="M301.5,403.3c0-0.2,0.5,1,1.1,1.1c0.6,0.2,1.7,0.5,2.7,0.4s1.6-0.4,2-0.4s0.6,0,0.6,0c0.1,0,0.1,0.4-0.1,0.7
	c-0.2,0.3-0.5,0.4-1.1,0.6c-0.6,0.2-1.7-0.1-2.2-0.1s-1.7-0.3-2.4-0.6C301.7,404.8,301.5,403.7,301.5,403.3z"/>
<path class="st2" d="M289.4,397.3c0,0,0.9,0.9,1.5,1.1c0.6,0.2,0.5-0.3,1.6,0c1.1,0.3,0.4,0.8,1.8,0.7c1.5-0.1,3.9-0.7,4.4-0.9
	c0.5-0.2,1.4-0.8,1.6-1.5c0.1-0.7,0.1,0.9-0.1,1.4s-1.9,0.9-2.3,1.1c-0.5,0.3-3.2,1-3.8,1.3c-0.6,0.3-2.2,0.2-2.8,0
	c-0.5-0.2-1.7-2.1-1.8-2.5C289.4,397.5,289.4,397.3,289.4,397.3z"/>
<g>
	<path class="st7" d="M429.9,364.9c3.2-1.5,6.2-3.5,9.2-6.2c2.7-2.4,3-6.5,0.6-9.2c-2.4-2.7-6.5-3-9.2-0.6c-7,6.1-13.4,7.3-21.2,3.9
		c-7.9-3.4-15.9-11-23.7-18.3c-11.5-10.8-22.4-21.1-34.8-20.7c-6.1,0.2-11.8,3-16.8,8.4c-7.6,8.2-16.4,14.4-25.5,17.9
		c-8.7,3.4-16.8,4-23.5,1.8c-13-4.3-17.3-18.4-18.6-29.4c-0.4-3.6-3.6-6.1-7.2-5.7c-3.6,0.4-6.1,3.6-5.7,7.2
		c1.2,10.7,4.3,19.6,9.1,26.5c4.7,6.7,10.9,11.4,18.3,13.8c9.6,3.2,20.8,2.4,32.3-2.1c10.9-4.2,21.4-11.6,30.3-21.2
		c2.6-2.8,5.1-4.2,7.7-4.3c7-0.2,16.4,8.6,25.5,17.1c8.6,8.1,17.5,16.4,27.4,20.8C413.1,368.6,421.7,368.7,429.9,364.9z"/>
	<path class="st7" d="M315.2,337c0.9-0.5,1.8-1,2.7-1.5C316.9,336,316,336.5,315.2,337z"/>
	<path class="st7" d="M261.6,307c0.4,0.1,0.8,0.3,1.2,0.5C262.4,307.3,262.1,307.1,261.6,307z"/>
	<path class="st7" d="M259.1,306.8c0.7-0.1,1.3-0.1,2,0.1C260.4,306.8,259.7,306.7,259.1,306.8c-0.4,0-0.7,0.1-1.1,0.2
		C258.3,306.9,258.7,306.9,259.1,306.8z"/>
	<path class="st7" d="M333.9,322.2c0.6-0.7,1.3-1.3,1.9-1.9C335.2,320.9,334.6,321.5,333.9,322.2c-3.8,4.1-7.9,7.7-12.2,10.7
		C326,329.9,330.1,326.3,333.9,322.2z"/>
	<path class="st7" d="M255.8,308.1c-0.3,0.2-0.5,0.4-0.7,0.7C255.3,308.6,255.6,308.4,255.8,308.1z"/>
	<path class="st7" d="M253.3,312.9c0-0.3,0.1-0.6,0.1-0.9c0,0,0-0.1,0-0.1C253.4,312.2,253.3,312.5,253.3,312.9z"/>
	<path class="st7" d="M255.9,308.1c0.3-0.2,0.5-0.4,0.8-0.5C256.5,307.7,256.2,307.9,255.9,308.1z"/>
	<path class="st7" d="M256.9,307.5c0.3-0.1,0.6-0.3,0.9-0.4C257.5,307.2,257.2,307.3,256.9,307.5z"/>
	<path class="st7" d="M418.9,354.6c-0.4,0-0.9,0.1-1.3,0.1C418.1,354.7,418.5,354.7,418.9,354.6z"/>
	<path class="st7" d="M253.8,310.7c-0.1,0.3-0.2,0.6-0.3,1c0,0,0-0.1,0-0.1c0.1-0.2,0.1-0.5,0.2-0.7
		C253.8,310.9,253.8,310.8,253.8,310.7z"/>
	<path class="st7" d="M418.9,354.6c1.3-0.1,2.6-0.4,3.9-0.9C421.5,354.2,420.2,354.5,418.9,354.6z"/>
	<path class="st7" d="M385.7,334.5C385.6,334.5,385.6,334.5,385.7,334.5c-1.5-1.4-3-2.8-4.4-4.1
		C382.7,331.7,384.1,333.1,385.7,334.5C385.6,334.5,385.6,334.5,385.7,334.5z"/>
	<path class="st7" d="M435.2,347.3C435.3,347.3,435.3,347.3,435.2,347.3C435.3,347.3,435.3,347.3,435.2,347.3z"/>
	<path class="st7" d="M388.4,337.1c0.5,0.5,1,1,1.6,1.5C389.5,338.1,388.9,337.6,388.4,337.1z"/>
	<path class="st7" d="M367.4,319.2c1.1,0.7,2.1,1.4,3.2,2.2C369.6,320.6,368.5,319.9,367.4,319.2z"/>
	<path class="st7" d="M360.9,315.7c-2.9-1.2-5.9-1.9-9-2C355,313.8,358,314.5,360.9,315.7z"/>
	<path class="st7" d="M360.9,315.7c1.8,0.7,3.6,1.7,5.4,2.8C364.5,317.4,362.7,316.5,360.9,315.7z"/>
	<path class="st7" d="M372.8,323c1.1,0.8,2.1,1.7,3.2,2.6C374.9,324.8,373.8,323.9,372.8,323z"/>
	<path class="st7" d="M441.3,353.7c0,0,0,0.1,0,0.1c0,0,0,0,0,0.1C441.3,353.8,441.3,353.8,441.3,353.7z"/>
	<path class="st7" d="M441.3,354.8c0,0.1-0.1,0.3-0.1,0.4c0,0.1,0,0.2-0.1,0.3C441.2,355.2,441.2,355,441.3,354.8z"/>
	<path class="st7" d="M441.1,355.4C441.1,355.5,441.1,355.5,441.1,355.4C441.1,355.5,441.1,355.5,441.1,355.4
		C441.1,355.5,441.1,355.5,441.1,355.4z"/>
	<path class="st7" d="M441.3,354.6C441.3,354.7,441.3,354.7,441.3,354.6C441.3,354.7,441.3,354.7,441.3,354.6
		C441.3,354.7,441.3,354.7,441.3,354.6z"/>
	<path class="st7" d="M441.3,354c0,0.1,0,0.2,0,0.2c0,0.1,0,0.1,0,0.2C441.3,354.3,441.3,354.2,441.3,354z"/>
	<path class="st7" d="M254.4,309.7c0.2-0.3,0.4-0.6,0.6-0.8C254.8,309.1,254.6,309.4,254.4,309.7z"/>
	<path class="st8" d="M440.9,356.2c0.1-0.2,0.2-0.5,0.2-0.7c0-0.1,0-0.2,0.1-0.3c0-0.2,0.1-0.3,0.1-0.5c0-0.1,0-0.3,0-0.4
		c0-0.1,0-0.3,0-0.4c0-0.1,0-0.3,0-0.4c0-0.1,0-0.3,0-0.4c0-0.2,0-0.3-0.1-0.5c0-0.1,0-0.2-0.1-0.3c0-0.2-0.1-0.3-0.1-0.5
		c0-0.1-0.1-0.2-0.1-0.3c-0.1-0.2-0.1-0.3-0.2-0.5c0-0.1-0.1-0.2-0.1-0.3c-0.1-0.2-0.2-0.3-0.3-0.5c0,0,0,0,0,0
		c-0.2,0.3-0.5,0.5-0.7,0.8c-3,2.6-6.1,4.7-9.2,6.2c-8.2,3.8-16.8,3.8-25.8-0.1c-9.9-4.3-18.8-12.7-27.4-20.8
		c-9.1-8.5-18.5-15.8-25.5-15.5c-2.6,0.1-5.1,1.5-7.7,4.3c-8.9,9.6-19.4,16.9-30.3,21.2c-11.5,4.5-22.7,5.2-32.3,2.1
		c-7.5-2.5-13.7-7.1-18.3-13.8c-4.2-6.1-7.1-15.3-8.5-24.4c-0.1,0.2-0.3,0.4-0.4,0.7c0,0,0,0,0,0c0,0.1-0.1,0.2-0.1,0.3
		c-0.1,0.2-0.2,0.5-0.2,0.7c0,0.1-0.1,0.2-0.1,0.3c-0.1,0.3-0.1,0.6-0.1,0.9c0,0.4,0,0.8,0,1.2c1.2,10.7,4.3,19.6,9.1,26.5
		c4.7,6.7,10.9,11.4,18.3,13.8c9.6,3.2,20.8,2.4,32.3-2.1c10.9-4.2,21.4-11.6,30.3-21.2c2.6-2.8,5.1-4.2,7.7-4.3
		c7-0.2,16.4,8.6,25.5,17.1c8.6,8.1,17.5,16.4,27.4,20.8c9,3.9,17.6,4,25.8,0.1c3.2-1.5,6.2-3.5,9.2-6.2
		C439.9,358,440.5,357.1,440.9,356.2z"/>
	<path class="st7" d="M440.9,356.2c0.1-0.2,0.2-0.4,0.2-0.7C441,355.8,440.9,356,440.9,356.2z"/>
	<path class="st7" d="M441.3,352.9c0,0.1,0,0.1,0,0.2c0,0,0,0.1,0,0.1C441.3,353.1,441.3,353,441.3,352.9z"/>
	<path class="st7" d="M441.3,353.2c0,0.1,0,0.1,0,0.2c0,0.1,0,0.2,0,0.3C441.3,353.5,441.3,353.4,441.3,353.2z"/>
	<path class="st7" d="M440.3,350.4c0.1,0.1,0.1,0.2,0.2,0.3c0,0.1,0.1,0.1,0.1,0.2C440.5,350.7,440.4,350.5,440.3,350.4z"/>
	<path class="st7" d="M440.2,350.2C440.2,350.2,440.2,350.2,440.2,350.2c-0.1-0.2-0.3-0.5-0.5-0.7c-0.6-0.7-1.3-1.2-2.1-1.6
		c0.8,0.4,1.5,0.9,2.1,1.6C439.9,349.7,440.1,349.9,440.2,350.2C440.2,350.2,440.2,350.2,440.2,350.2
		C440.2,350.2,440.2,350.2,440.2,350.2z"/>
	<path class="st7" d="M440.7,351.1c0,0.1,0.1,0.2,0.1,0.3c0,0.1,0.1,0.1,0.1,0.2C440.9,351.4,440.8,351.3,440.7,351.1z"/>
	<path class="st7" d="M253.9,310.6c0.1-0.2,0.2-0.5,0.3-0.7c0,0,0,0,0,0c0-0.1,0.1-0.2,0.1-0.3C254.2,310,254,310.3,253.9,310.6z"/>
	<path class="st7" d="M440.6,350.9C440.6,350.9,440.6,350.9,440.6,350.9C440.7,350.9,440.7,351,440.6,350.9
		C440.7,351,440.7,350.9,440.6,350.9z"/>
	<path class="st7" d="M440.9,351.6c0,0,0,0.1,0,0.1c0,0,0,0.1,0.1,0.1C441,351.8,441,351.7,440.9,351.6z"/>
	<path class="st7" d="M441.2,352.7c0-0.2-0.1-0.4-0.1-0.6c0,0.1,0,0.1,0,0.2c0,0.1,0.1,0.2,0.1,0.3
		C441.2,352.6,441.2,352.6,441.2,352.7z"/>
	<g>
		<linearGradient id="SVGID_1_" gradientUnits="userSpaceOnUse" x1="165.7668" y1="349.73" x2="106.5071" y2="321.3387">
			<stop  offset="0.1204" style="stop-color:#935848"/>
			<stop  offset="0.504" style="stop-color:#935848"/>
			<stop  offset="0.6028" style="stop-color:#9C604E"/>
			<stop  offset="0.7268" style="stop-color:#A16552"/>
			<stop  offset="1" style="stop-color:#966444"/>
		</linearGradient>
		<path class="st9" d="M110.1,361.8c0,0,19.5-50.5,29.2-61.5c12.3-6.9,34.4,6.5,34.4,6.5s-21.2,38.9-37.8,60.4
			S110.1,361.8,110.1,361.8z"/>
		<path class="st10" d="M140.2,202.1c0,0-4.7,8.6-5.6,12.5s1.5,46.1,1.8,55.6c0.3,9.5,0.8,4.4-1.2,8c-2,3.6-2.9,7.2-2.1,10.6
			c0.8,3.4,0.2,6.6-0.3,9.2c-0.5,2.6,8.1,6,17,6.6c8.9,0.5,25.5,2.5,26.3,3.3c0.9,0.8,1.7-12.3,1.7-12.3l-14.1-52.8l-14.7-38.9
			L140.2,202.1z"/>
		
			<radialGradient id="SVGID_00000010287735817901549240000004814737589558271420_" cx="188.0655" cy="112.1125" r="287.0084" gradientUnits="userSpaceOnUse">
			<stop  offset="0.1429" style="stop-color:#92594B"/>
			<stop  offset="0.2417" style="stop-color:#91584A"/>
			<stop  offset="0.2571" style="stop-color:#905749"/>
			<stop  offset="0.5513" style="stop-color:#814C3F"/>
			<stop  offset="0.7934" style="stop-color:#7C483C"/>
		</radialGradient>
		<path style="fill:url(#SVGID_00000010287735817901549240000004814737589558271420_);" d="M211,183.2l-53,22.9l0.8,22.9l21.4,7
			l26.3-25.1c0,0,5.7-21.5,5.8-21.9C212.4,188.5,211,183.2,211,183.2z"/>
		<g>
			<path class="st12" d="M211,183.2c0,0-7,28.6-29.5,44.2c-24.8,13.6-22.7-23.4-22.7-23.4l-13.4-3.5l10.7,56.5l5.5,5l22.2,57.6
				l49.4-5.1l5.8-72l16.5-51L211,183.2z"/>
		</g>
		<path class="st13" d="M208.3,290.9l-3.1-13.1l33.2-7.6l2.9,12.3c0,0,0.4,2.1-1.6,2.5s-28.9,6.9-28.9,6.9S208.7,292.6,208.3,290.9z
			"/>
		
			<linearGradient id="SVGID_00000181777445014176590240000018290123116994521996_" gradientUnits="userSpaceOnUse" x1="224.1766" y1="274.9567" x2="224.1766" y2="265.7475" gradientTransform="matrix(0.9725 -0.2327 0.2327 0.9725 -59.88 59.9034)">
			<stop  offset="0" style="stop-color:#968969"/>
			<stop  offset="0.5219" style="stop-color:#9A8E6C"/>
			<stop  offset="1" style="stop-color:#A39872"/>
		</linearGradient>
		<path style="fill:url(#SVGID_00000181777445014176590240000018290123116994521996_);" d="M206.5,269.1l-2.3,7c0,0-0.2,2.1,3,2
			s29.6-6.8,29.6-6.8s1.6-0.3,1.9-2.2c0.3-1.9-2.2-7.2-2.2-7.2L206.5,269.1z"/>
		<g>
			<path class="st15" d="M206.1,257l25.6-6.1c0,0,1.1-0.1,1.4,0.9c0.3,1,0.1,1.2-0.6,1.6c-0.7,0.4-25.8,6.2-25.8,6.2
				s-1.3,0.1-1.5-0.9C204.9,257.6,205.3,257.2,206.1,257z"/>
			
				<rect x="207.9" y="257.6" transform="matrix(0.9725 -0.2327 0.2327 0.9725 -55.0403 55.8108)" class="st16" width="2.2" height="7"/>
		</g>
		<path class="st10" d="M158,224.7c0,0,6,28.1,20.5,30.8s28.8-18.3,31.1-22.6c2.3-4.3-12.8-13.6-12.8-13.6l-12.1,5.8l-11,4.7
			l-3.9,0.3l-9.6-7.7l-2.3,0.9V224.7z"/>
		<path class="st17" d="M178.5,255.5c1.7,0.3,3.4,0.3,5.1,0l-7.8-25.8l-6,0.6l-2.1,0.3l6.9,23.4
			C175.8,254.8,177.1,255.3,178.5,255.5z"/>
		<path class="st18" d="M169.9,230.1c0,0,2.6-0.8,6.4-2.2s8.3-3.7,15.3-11.7c7-8,13.6-19.6,13.6-19.6l11.1-15.2c0,0,2.2,1.8,3.5,2.4
			c1.3,0.6-0.3,16.6,0,25.8c0.3,9.2-1,33.3-9.4,24.1c-8.4-9.2-11.5-11.4-13.7-11.2c-2.2,0.1-19.5,8-23.3,8.5
			C169.5,231.4,169.1,230.4,169.9,230.1z"/>
		<path class="st18" d="M160,209.6c0,0-0.4,2.2,1.3,6.6c1.7,4.4,3.7,9.2,6.5,11.2s2.2,3.1,1.5,3.4c-0.7,0.3-4.6-0.7-7-3.6
			c-2.5-2.8-3.6-4-4.2-2.6c-0.6,1.4-0.6,4.6-0.7,6.2c-0.1,1.5-3.5-3.4-3.4-10.6c0.1-7.3,1.7-12.9,1.7-12.9L160,209.6z"/>
		
			<linearGradient id="SVGID_00000125570683882147649220000013372568880369834412_" gradientUnits="userSpaceOnUse" x1="277.0487" y1="373.9094" x2="298.592" y2="402.2379">
			<stop  offset="0.1204" style="stop-color:#935848"/>
			<stop  offset="0.504" style="stop-color:#935848"/>
			<stop  offset="0.6028" style="stop-color:#9C604E"/>
			<stop  offset="0.7268" style="stop-color:#A16552"/>
			<stop  offset="1" style="stop-color:#966444"/>
		</linearGradient>
		<path style="fill:url(#SVGID_00000125570683882147649220000013372568880369834412_);" d="M275.2,413.4c0,0,29.4-19.2,31-21.7
			c1.6-2.5,3.5-8.6,2.1-14.7c-1.4-6.1-6.6-13.6-9.7-14.9c-3.2-1.4-11.5,0-11.5,0l-17,32L275.2,413.4z"/>
		<path class="st20" d="M262.1,424.6l2.7-2.1c0,0,1,0.9,2,1.1c1,0.2,3.4-2.2,3.3-3.2c-0.1-1,0.2-2.9,0.9-1.8s4.2-1.1,4.2-3.1
			s-0.9-30.1-0.9-30.1L262.1,424.6z"/>
		<path class="st21" d="M183,322.6l-14.8,42.6l-10.9,31.4l-4.2,11.4l12.4,15.9l20,1.5l26.6-6.4l7.5,8.8l26.3,3.4l16.1-6.6
			c0,0,3.7-8.9,4.5-14.2c0.8-5.3,18.9-38.8,18.9-38.8s8.6-23.7,9.4-33.9c0.8-10.2,1.5-19.7,1.2-24.7C295.9,308,183,322.6,183,322.6z
			"/>
		<polygon class="st22" points="180.4,329.6 183.8,319.5 297.6,307.9 295.9,323 		"/>
		<path class="st12" d="M179.3,307.8c0,0,2.6,7.6,0.6,10.2c-2,2.5-5.2,3.9-3.9,6.3c1.4,2.4,1.2,6.6,0.3,11
			c1.4,2.4,61.4,3.5,61.4,3.5l15-4l3.3-23.6L179.3,307.8z"/>
		<path class="st22" d="M302.7,394.6c0,0,3.6-14.2,0.9-20.6c-2.7-6.4-10.3-11.5-10.7-12.6c-0.5-1.1-0.5-1.2,2.4-1.8
			c2.8-0.6,5.5,1,12.9,2.4s9.4,7.4,9.6,10.2c0.2,2.8-1.6,18.7-5.5,30.8c-4,12.1-3.4,16.6-5.1,19c-1.7,2.4-8.6,6.6-13.9,6.6
			s-13.1-2.6-14.6-9.5s-1.5-6.9-1.5-6.9L302.7,394.6z"/>
		<polygon class="st23" points="274.5,203.9 297.6,307.9 258.5,311.9 263.6,303.6 260.9,299.2 265.3,298.4 273.4,209.4 		"/>
		<path class="st23" d="M254.7,335.8c0,0,16.6,0.7,26,0.4c9.5-0.3,12.2-2.8,15.4-3.3c3.2-0.5,4.1-2.8,3.2-7.2s0.5-10.2,0.4-13.3
			c-0.2-3.2-5.8-21-5.8-21l-20.5,5.1l-17.1,29.2L254.7,335.8z"/>
		<polygon class="st24" points="271.5,230.8 269,231.3 267.1,241.2 270.6,240.4 		"/>
		<polygon class="st20" points="212.2,419 209.8,406.9 231.6,350.8 221.2,346.5 212.2,355.1 213.7,374.7 200.3,406.9 198.1,422.4 		
			"/>
		<polygon class="st20" points="161.9,419.2 165.5,423.9 185.6,425.4 198.1,422.4 199.7,411.3 180.8,413 168.5,405.9 		"/>
		
			<linearGradient id="SVGID_00000122698626808086324270000013592448078860419228_" gradientUnits="userSpaceOnUse" x1="166.6092" y1="369.8733" x2="82.4719" y2="373.2659" gradientTransform="matrix(0.9599 -0.2805 0.2805 0.9599 -73.6045 55.702)">
			<stop  offset="0.1204" style="stop-color:#935848"/>
			<stop  offset="0.504" style="stop-color:#935848"/>
			<stop  offset="0.6028" style="stop-color:#9C604E"/>
			<stop  offset="0.7268" style="stop-color:#A16552"/>
			<stop  offset="1" style="stop-color:#966444"/>
		</linearGradient>
		<path style="fill:url(#SVGID_00000122698626808086324270000013592448078860419228_);" d="M179.6,364.4c0,0-3.4,2.8-7.2,3.8
			s-6.4,0.5-7.6,1.4c-1.1,0.9,4.4,4.6,4.4,4.6s9.5-5.8,10.1-7.4C179.9,365.2,179.6,364.4,179.6,364.4z"/>
		<g>
			<circle class="st26" cx="118" cy="382.7" r="29.5"/>
			<g>
				<circle class="st27" cx="118" cy="382.8" r="27.4"/>
				<g>
					<path class="st28" d="M117.2,386.8c0,0-0.7-3-5.4-5.2c-6.8-3.1-7.8-3.9-3-4.5s9.1,2.2,9.1,2.2"/>
					<path class="st29" d="M110.1,397.8l-0.7-1.9l-3.7,1.4c-0.4,0.1-0.6,0.6-0.4,0.9l0.2,0.5c0.1,0.4,0.6,0.6,0.9,0.4l0,0
						L110.1,397.8z"/>
					<path class="st30" d="M110.1,397.8l-0.3-0.9l-4.4,1.6l0.1,0.2c0.1,0.4,0.6,0.6,0.9,0.4l0,0L110.1,397.8z"/>
					<path class="st31" d="M124.8,386.5c-0.9-0.5-1.8-0.9-2.8-1.1c-0.9-0.3-1.9-0.4-2.9-0.6c-0.8-0.1-1.6-0.4-2.5-0.3
						c0,0.1,0,0.1-0.1,0.2c0,0.1,0,0.1-0.1,0.2c0,0.1-0.1,0.3-0.2,0.4c0,0,0,0,0,0.1c0,0.1,0,0.1-0.1,0.2c0,0.1-0.1,0.1-0.1,0.2
						c-0.1,0.1-0.1,0.3-0.2,0.4c-0.2,0.4-0.4,0.8-0.6,1.2c0,0.1-0.1,0.1-0.1,0.2c-0.1,0.1-0.1,0.2-0.2,0.3c0,0.1-0.1,0.2-0.1,0.2
						c0,0.1-0.1,0.2-0.1,0.2c0,0,0,0,0,0c-0.1,0.1-0.1,0.2-0.2,0.3c0,0,0,0.1-0.1,0.1c0,0-0.1,0.1-0.1,0.1l-0.1,0.1
						c-0.1,0.1-0.1,0.2-0.2,0.3c-0.1,0.2-0.2,0.3-0.3,0.5c-0.1,0.1-0.2,0.2-0.3,0.4c0,0,0,0-0.1,0.1c-0.1,0.1-0.2,0.2-0.2,0.3
						c0,0,0,0,0,0c-0.1,0.2-0.3,0.3-0.4,0.5c-0.3,0.3-0.6,0.6-0.9,0.9c-0.5,0.5-1.1,1.1-1.7,1.5c-0.3,0.2-0.5,0.4-0.8,0.6
						c0,0,0,0,0,0c-0.1,0.1-0.3,0.2-0.4,0.3c-0.1,0.1-0.2,0.2-0.4,0.2c-0.2,0.1-0.3,0.2-0.5,0.3l0,0c0,0,0,0-0.1,0.1
						c0,0,0,0-0.1,0.1c0,0,0,0,0,0c0,0,0,0,0,0c-0.3,0.4-0.6,0.9-0.6,1.4c0,0,0,0,0,0c0,0.3,0,0.7,0.2,1c0.1,0.2,0.2,0.4,0.3,0.5
						l0,0c0,0,0,0,0,0c0.1,0.1,0.2,0.2,0.3,0.3c0.3,0.3,0.8,0.5,1.3,0.6c1,0.2,2.2-0.1,2.9-0.3c6-1.8,10.7-6.4,12.9-12.2
						C125.1,386.6,125,386.5,124.8,386.5z"/>
					<path class="st32" d="M119.2,384.8c-0.8-0.1-1.6-0.4-2.5-0.3c0,0.1,0,0.1-0.1,0.2s0,0.1-0.1,0.2s0,0.1-0.1,0.2
						c0,0.1-0.1,0.2-0.1,0.2c0,0,0,0,0,0.1c0,0.1,0,0.1-0.1,0.2c0,0.1-0.1,0.1-0.1,0.2c0,0.1-0.1,0.1-0.1,0.2c0,0.1-0.1,0.2-0.1,0.2
						c-0.1,0.1-0.1,0.3-0.2,0.4c0,0,0,0,0,0.1c0,0.1-0.1,0.1-0.1,0.2c-0.1,0.1-0.1,0.3-0.2,0.4c0,0.1-0.1,0.1-0.1,0.2
						c0,0.1-0.1,0.1-0.1,0.2c-0.1,0.1-0.1,0.2-0.2,0.3c0,0.1-0.1,0.2-0.1,0.2s-0.1,0.2-0.1,0.2c0,0,0,0,0,0
						c-0.1,0.1-0.1,0.2-0.2,0.3c0,0,0,0.1-0.1,0.1l-0.1,0.1l-0.1,0.1c-0.1,0.1-0.1,0.2-0.2,0.3c-0.1,0.1-0.1,0.2-0.2,0.3
						c0,0.1-0.1,0.1-0.1,0.2c-0.1,0.1-0.2,0.2-0.3,0.4c0,0,0,0-0.1,0.1c-0.1,0.1-0.2,0.2-0.2,0.3c0,0,0,0,0,0
						c-0.1,0.1-0.1,0.1-0.2,0.2c-0.1,0.1-0.1,0.2-0.2,0.2c-0.1,0.1-0.2,0.2-0.3,0.3l-0.2,0.2c-0.1,0.1-0.3,0.3-0.4,0.4
						c-0.1,0.1-0.2,0.2-0.3,0.3c-0.1,0.1-0.3,0.3-0.4,0.4c-0.1,0.1-0.2,0.2-0.3,0.3c-0.1,0.1-0.3,0.3-0.4,0.4
						c-0.1,0.1-0.2,0.2-0.3,0.2c-0.2,0.1-0.3,0.3-0.5,0.4l-0.2,0.1c0,0-0.1,0-0.1,0.1c0,0,0,0,0,0c-0.1,0.1-0.3,0.2-0.4,0.3
						c-0.1,0.1-0.2,0.2-0.4,0.2c-0.2,0.1-0.3,0.2-0.5,0.3l0,0c0,0,0,0-0.1,0.1c0,0,0,0-0.1,0.1c0,0,0,0,0,0c0,0,0,0,0,0
						c-0.3,0.4-0.6,0.9-0.6,1.4c0,0,0,0,0,0c0,0.3,0,0.7,0.2,1c0.1,0.2,0.2,0.4,0.3,0.5l0,0c1.8-0.5,3.4-1.2,5-2.2
						c0.2-0.1,0.4-0.3,0.6-0.4c3.6-2.4,6.4-5.9,7.8-10c0-0.1,0.1-0.3,0.1-0.4C120.7,385,120,384.9,119.2,384.8z"/>
					<path class="st33" d="M125.5,385.8l-4.1-0.2l-4.9-0.3c0,0,0,0,0-0.1c0-0.1,0.1-0.2,0.1-0.2c0-0.1,0-0.1,0.1-0.2s0-0.1,0.1-0.2
						c0.1-0.2,0.1-0.3,0.2-0.5c0-0.1,0.1-0.2,0.1-0.3c0.1-0.2,0.1-0.4,0.2-0.6c0-0.1,0-0.1,0.1-0.2c0,0,0,0,0-0.1
						c0-0.1,0.1-0.3,0.1-0.4c0-0.1,0.1-0.3,0.1-0.4c0-0.2,0.1-0.3,0.1-0.5c0-0.1,0-0.3,0.1-0.4c0-0.1,0-0.3,0.1-0.4c0,0,0-0.1,0-0.1
						c0-0.1,0-0.2,0-0.3c0,0,0,0,0,0c0-0.1,0-0.3,0-0.4c0,0,0-0.1,0-0.1l0-0.1c0-0.1,0-0.2,0-0.3c0-0.1,0-0.2,0-0.2
						c0-0.1,0-0.2,0-0.2l0-0.1c0,0,0-0.1,0-0.1c0,0,0-0.1,0-0.2c0-0.3,0-0.7,0-1c0-0.2,0-0.3,0-0.5c0-0.2,0-0.5,0-0.7l0-0.1
						c0,0,0,0,0-0.1c0-0.3-0.1-0.6-0.1-0.8c0-0.1,0-0.2,0-0.3s0-0.2,0-0.3c0-0.1,0-0.2-0.1-0.3c0-0.1,0-0.1,0-0.2
						c0-0.1,0-0.2-0.1-0.4c0-0.1,0-0.2-0.1-0.3c0-0.2-0.1-0.4-0.1-0.6c0-0.1,0-0.2-0.1-0.3c0,0,0-0.1,0-0.1c0,0,0-0.1,0-0.1
						c0-0.1,0-0.1-0.1-0.2c0-0.1,0-0.2-0.1-0.2c-0.1-0.3-0.2-0.5-0.3-0.8c0,0,0,0,0,0c-0.1-0.2-0.2-0.5-0.3-0.7l0,0
						c-0.4-1-1.4-3.3-1.7-5c-0.1-0.8-0.1-1.5,0.2-1.9c0-0.1,0.1-0.1,0.1-0.1l0,0c0.1,0,0.1-0.1,0.2-0.1l0,0c0,0,0,0,0,0
						c0.5-0.3,1.2-0.3,1.7-0.1c1.2,0.2,2.2,1,2.3,1.1C125.5,369.6,128,378.1,125.5,385.8L125.5,385.8z"/>
					<path class="st34" d="M121.3,385.6c2-5.7,1.4-12.3-2.2-17.8c-0.9-1.3-1.9-2.6-3.1-3.7c-0.2-0.2-0.3-0.3-0.5-0.5
						c-0.1-0.1-0.2-0.2-0.3-0.3c-0.1,0-0.1,0.1-0.2,0.1c0,0,0,0,0,0c-0.1,0-0.1,0.1-0.1,0.1c-0.3,0.4-0.4,1.1-0.2,1.9
						c0.3,1.7,1.4,4,1.7,5l0,0c0.1,0.2,0.2,0.5,0.3,0.7c0,0,0,0,0,0c0.1,0.3,0.2,0.5,0.3,0.8c0,0,0,0.1,0,0.1l0,0.2
						c0,0.1,0,0.1,0.1,0.2c0,0,0,0.1,0,0.1c0,0,0,0.1,0,0.1c0,0.1,0.1,0.2,0.1,0.3c0,0.2,0.1,0.4,0.1,0.6c0,0.1,0,0.2,0.1,0.3
						c0,0.1,0,0.2,0.1,0.4c0,0.1,0,0.1,0,0.2c0,0.1,0,0.2,0.1,0.3c0,0.1,0,0.2,0,0.3c0,0.1,0,0.2,0,0.3c0,0.3,0.1,0.6,0.1,0.8
						c0,0,0,0,0,0.1l0,0.1c0,0.2,0,0.5,0,0.7c0,0.2,0,0.3,0,0.5c0,0.3,0,0.7,0,1c0,0.1,0,0.1,0,0.2c0,0.1,0,0.1,0,0.1l0,0.1
						c0,0.1,0,0.2,0,0.2c0,0.1,0,0.2,0,0.2c0,0.1,0,0.2,0,0.3l0,0.1c0,0,0,0.1,0,0.1c0,0.1,0,0.3,0,0.4c0,0,0,0,0,0
						c0,0.1,0,0.2,0,0.3c0,0,0,0.1,0,0.1c0,0.1,0,0.3-0.1,0.4c0,0.1,0,0.3-0.1,0.4c0,0.2-0.1,0.3-0.1,0.5c0,0.1-0.1,0.3-0.1,0.4
						c0,0.1-0.1,0.3-0.1,0.4c0,0,0,0,0,0.1c0,0.1,0,0.1-0.1,0.2c-0.1,0.2-0.1,0.4-0.2,0.6c0,0.1-0.1,0.2-0.1,0.3
						c-0.1,0.2-0.1,0.3-0.2,0.5c0,0.1,0,0.1-0.1,0.2c0,0.1,0,0.1-0.1,0.2c0,0.1-0.1,0.2-0.1,0.2c0,0,0,0,0,0.1L121.3,385.6z"/>
					<path class="st28" d="M116.4,385.4c0,0,4.5,0.3,6.6,1.5c3.3,1.8,4.5,2.3,5.2,10.3c0,0.3,0.1,0.6,0.1,0.9c0.2,1.3,1,4.6,3.8-4.3
						c3.4-10.7-5.8-10.7-5.8-10.7C122.9,383,119.5,383.9,116.4,385.4z"/>
				</g>
			</g>
		</g>
		<g>
			<g>
				<circle class="st26" cx="148.4" cy="392.6" r="30.9"/>
			</g>
			<g>
				
					<linearGradient id="SVGID_00000100383739765442300880000014684034148709768833_" gradientUnits="userSpaceOnUse" x1="148.4037" y1="137.757" x2="148.4037" y2="80.9772" gradientTransform="matrix(1 0 0 -1 0 502)">
					<stop  offset="0" style="stop-color:#130C3F"/>
					<stop  offset="1" style="stop-color:#15197B"/>
				</linearGradient>
				<circle style="fill:url(#SVGID_00000100383739765442300880000014684034148709768833_);" cx="148.4" cy="392.6" r="28.4"/>
				<g>
					
						<linearGradient id="SVGID_00000078046895054709808160000005237029869763385262_" gradientUnits="userSpaceOnUse" x1="120.0137" y1="109.3671" x2="176.7936" y2="109.3671" gradientTransform="matrix(1 0 0 -1 0 502)">
						<stop  offset="0" style="stop-color:#AE73FA"/>
						<stop  offset="1" style="stop-color:#AE73FA;stop-opacity:0"/>
					</linearGradient>
					<circle style="fill:url(#SVGID_00000078046895054709808160000005237029869763385262_);" cx="148.4" cy="392.6" r="28.4"/>
				</g>
				
					<linearGradient id="SVGID_00000114793659176050590670000005999654605682753180_" gradientUnits="userSpaceOnUse" x1="177.0916" y1="109.3671" x2="119.7157" y2="109.3671" gradientTransform="matrix(1 0 0 -1 0 502)">
					<stop  offset="0" style="stop-color:#AE73FA"/>
					<stop  offset="1" style="stop-color:#AE73FA;stop-opacity:0"/>
				</linearGradient>
				
					<circle style="fill:none;stroke:url(#SVGID_00000114793659176050590670000005999654605682753180_);stroke-width:1.1875;stroke-opacity:0.12;" cx="148.4" cy="392.6" r="28.1"/>
				<g>
					<g>
						<path class="st38" d="M138.8,409.3l-3.5-12l0.4-6.8l1.3-1.7l-1.9-5.4l4.7-4.1l11.9,0.1l2-2.8l7.2,0.5l-2.4,6.2l6,10.3
							l-1.2,6.2l-5.7,1l-0.8,1.9l-5.7,3.7L138.8,409.3z M138.2,397l2.6,8.7l8.9-2.1l4.5-2.9l1.1-2.6l5.2-1l0.6-3.1l-6.2-10.5
							l1.5-3.8l-1.4-0.1l-1.9,2.7l-12.3-0.1l-2.3,2.1l1.8,5l-1.7,2.2L138.2,397z"/>
					</g>
				</g>
			</g>
		</g>
		
			<linearGradient id="SVGID_00000127046216963434334090000001720186397791185556_" gradientUnits="userSpaceOnUse" x1="368.6715" y1="259.5157" x2="147.0115" y2="388.2643">
			<stop  offset="0.1204" style="stop-color:#935848"/>
			<stop  offset="0.504" style="stop-color:#935848"/>
			<stop  offset="0.6028" style="stop-color:#9C604E"/>
			<stop  offset="0.7268" style="stop-color:#A16552"/>
			<stop  offset="1" style="stop-color:#966444"/>
		</linearGradient>
		<path style="fill:url(#SVGID_00000127046216963434334090000001720186397791185556_);" d="M265.6,307.5c0,0-27.1-6.3-38.1-0.6
			c-11,5.6-46.7,55.8-46.7,55.8s-1.8,3-4.1,4.4c-2.3,1.4-8.9,7.1-11.3,10.2s-2.2,8.4-3.8,11c-1.6,2.6-7.7,9.7-8.7,11.6
			c-1.1,2-1.4,4-0.5,4.8c1,0.9-0.2,2.4,0.8,3.5c1,1.1,2.3,1.3,3.8,0.5c1.5-0.8-0.2,1.4,2.8,1.4s5.1-1.8,5.7-0.6
			c0.6,1.2,0.3,3.2,6.6-1.9c6.3-5.1,11.3-7.1,14.2-15.8c3-8.8,8.1-11.2,8.1-11.2s49.7-33.7,60.3-40.2c10.5-6.6,18.1-30.8,18.1-30.8
			L265.6,307.5z"/>
		
			<linearGradient id="SVGID_00000137106023209440372150000015396523717648391842_" gradientUnits="userSpaceOnUse" x1="74.5809" y1="393.6378" x2="48.6838" y2="316.3989" gradientTransform="matrix(0.9599 -0.2805 0.2805 0.9599 -73.6045 55.702)">
			<stop  offset="0.1204" style="stop-color:#935848"/>
			<stop  offset="0.504" style="stop-color:#935848"/>
			<stop  offset="0.6028" style="stop-color:#9C604E"/>
			<stop  offset="0.7268" style="stop-color:#A16552"/>
			<stop  offset="1" style="stop-color:#966444"/>
		</linearGradient>
		<path style="fill:url(#SVGID_00000137106023209440372150000015396523717648391842_);" d="M93.1,375.7c0,0-3.8-0.8-5.8-0.2
			c-2,0.6-5.1,1.1-6.2,6.7c-1.1,5.6,3.3,14.4,4.2,16.5c0.9,2.1,4.9,5.1,7.3,4.6c2.4-0.5,8.7-2.4,10.4-4.4c1.7-2,0-5-0.9-5.1
			s0.7-1,0.7-2.7c0-1.7-1.5-4-2.1-4c-0.5,0-1.5-0.6-1.1-0.6s0.8-3.1-0.2-4.4c-1-1.3-2.2-1.3-2.2-1.3c-0.1-0.1-0.1-0.1-0.1-0.1
			s1.1-0.5,1-1C98.1,379,99,377.3,93.1,375.7z"/>
		<g>
			<g>
				
					<linearGradient id="SVGID_00000109020871952408360350000009518524170967277477_" gradientUnits="userSpaceOnUse" x1="258.869" y1="-17.3827" x2="251.896" y2="-36.39" gradientTransform="matrix(0.983 -0.1835 0.1835 0.983 -73.2794 186.5794)">
					<stop  offset="2.471052e-03" style="stop-color:#161F2D"/>
					<stop  offset="0.8054" style="stop-color:#1E293A"/>
				</linearGradient>
				<path style="fill:url(#SVGID_00000109020871952408360350000009518524170967277477_);" d="M203.6,113.8l-2.6-14
					c0,0,0.2-1.2-3.1-3c-3.3-1.8-15.9-8.8-25.4-9.8c-9.5-1-18,0.7-25.5,4.8c-7.5,4-8.2,7.8-8.6,10.9c-0.5,3.1-2.6,9.4-2.6,9.4
					L203.6,113.8z"/>
				<path class="st42" d="M212.9,113.1l-3.3-17.9c0,0,0.3-1.5-3.9-3.8S185.3,80.2,173.2,79s-22.9,0.9-32.5,6.1
					c-9.5,5.1-10.4,10-11,13.9c-0.6,3.9-3.3,12-3.3,12L212.9,113.1z"/>
				<path class="st43" d="M199.5,110.4c0,0-3.5,2.1-8.2-2.3c-4.6-4.5-10.6-14.7-10.9-18.2c-0.3-3.5-0.7-4.5,3-3.1s9,4.1,11.6,4.3
					c2.6,0.2,5.9,4,6.5,6.1c0.7,2.1,0,0.3-3.3-1.1c-3.2-1.4-7.5-0.4-5.5,5.1C194.7,106.7,201.5,109.9,199.5,110.4z"/>
				<path class="st43" d="M139,115.2c0,0,4.3,2.5,9.7-3.1c5.4-5.6,12.3-18.1,12.5-22.3s0.7-5.4-3.7-3.7s-10.7,5.2-13.9,5.6
					c-3.1,0.3-7,5.1-7.7,7.6s0,0.3,3.9-1.5s9-0.8,6.9,6C144.7,110.6,136.6,114.6,139,115.2z"/>
				<path class="st44" d="M235.2,119.6c-12.8-5.4-22.4-8.4-42.9-9.4c-13.5-0.7-34.9-0.9-51.9-0.5l0,0c0,0-9.9-1.8-20.1-8
					c-10.2-6.1-23.3-3.7-30.3-1.1c-4.4,1.7-2.6,12.8-0.8,20.7c1.3,5.6,4.4,10.7,8.6,14.6c3.7,3.4,8.9,7.4,14.9,10.5
					c16.2,8.3,29.8,10.6,29.8,10.6s20.5,0.4,53.7-1.3c33.2-1.7,48.4-14.5,52.2-18.7C252.2,133,248,125,235.2,119.6z"/>
				<path class="st45" d="M218.7,124.7c0,0-69.4-8.3-91.7,2.2c-7.7,5.2-7,14.7,1.7,16.5S218.7,124.7,218.7,124.7z"/>
			</g>
			<g>
				<g>
					<path class="st46" d="M221.1,151c-1.5,2.7-3.3,4.4-5.2,5.4c-1.6-3.9-2.7-8.1-3.2-12.3c0-0.2-0.1-0.5-0.1-0.7
						c-0.5-3.5-1.5-6.9-2.9-10.1c1.4-0.8,3.4-1.3,5.8-0.7C222,134,225.2,144,221.1,151z"/>
					
						<linearGradient id="SVGID_00000010291922413420815910000002540437611364116373_" gradientUnits="userSpaceOnUse" x1="268.2866" y1="-101.2837" x2="287.2717" y2="-101.2837" gradientTransform="matrix(0.9893 -0.1461 0.1461 0.9893 -39.2353 284.1921)">
						<stop  offset="0" style="stop-color:#E7BC91"/>
						<stop  offset="0.3993" style="stop-color:#F3D5B5"/>
						<stop  offset="0.6602" style="stop-color:#F5DCB4"/>
						<stop  offset="1" style="stop-color:#F5DCB4"/>
					</linearGradient>
					<path style="fill:url(#SVGID_00000010291922413420815910000002540437611364116373_);" d="M221.1,151c-1.5,2.7-3.3,4.4-5.2,5.4
						c-1.6-3.9-2.7-8.1-3.2-12.3c0-0.2-0.1-0.5-0.1-0.7c-0.5-3.5-1.5-6.9-2.9-10.1c1.4-0.8,3.4-1.3,5.8-0.7
						C222,134,225.2,144,221.1,151z"/>
					<path class="st46" d="M126,145.7c-0.4,3.5-0.4,7,0.1,10.5c0,0.2,0.1,0.5,0.1,0.7c0.6,4.2,0.8,8.5,0.4,12.7
						c-2-0.4-4.2-1.5-6.5-3.6c-5.9-5.6-5.8-16,0-19.4C122.4,145.4,124.4,145.3,126,145.7C126,145.6,126,145.7,126,145.7z"/>
					
						<linearGradient id="SVGID_00000066508560895549905880000017854607878157793689_" gradientUnits="userSpaceOnUse" x1="182.4122" y1="-101.2756" x2="158.8946" y2="-101.495" gradientTransform="matrix(0.9893 -0.1461 0.1461 0.9893 -39.2353 284.1921)">
						<stop  offset="0" style="stop-color:#E7BC91"/>
						<stop  offset="0.3993" style="stop-color:#F3D5B5"/>
						<stop  offset="0.6602" style="stop-color:#F5DCB4"/>
						<stop  offset="1" style="stop-color:#F5DCB4"/>
					</linearGradient>
					<path style="fill:url(#SVGID_00000066508560895549905880000017854607878157793689_);" d="M126,145.7c-0.4,3.5-0.4,7,0.1,10.5
						c0,0.2,0.1,0.5,0.1,0.7c0.6,4.2,0.8,8.5,0.4,12.7c-2-0.4-4.2-1.5-6.5-3.6c-5.9-5.6-5.8-16,0-19.4
						C122.4,145.4,124.4,145.3,126,145.7C126,145.6,126,145.7,126,145.7z"/>
					<path class="st46" d="M202.6,158.5c-1.4,3.1-1.3,6.7,0.2,9.8c1.2,2.3,2.3,4.9,2.6,7c2.2,14.9-10.2,29.1-27.6,31.7
						c-17.4,2.6-33.4-7.4-35.6-22.3c-0.3-2,0-4.9,0.5-7.4c0.6-3.4-0.4-6.8-2.6-9.4c-2.2-2.5-3.6-5.6-4.1-8.9
						c-1.5-9.9,5.8-19.2,16.2-20.7c3.4-0.5,6.8-0.1,10,1.1c3.7,1.4,7.9,0.8,11.1-1.6c2.7-2.1,5.9-3.4,9.2-3.9
						c10.4-1.5,20,5.3,21.5,15.2c0.4,2.5,0.2,5-0.5,7.4C203.2,157,202.9,157.8,202.6,158.5z"/>
					
						<linearGradient id="SVGID_00000008134668584536788300000006672875072473647492_" gradientUnits="userSpaceOnUse" x1="226.1316" y1="-112.8959" x2="225.5079" y2="-45.1171" gradientTransform="matrix(0.9893 -0.1461 0.1461 0.9893 -39.2353 284.1921)">
						<stop  offset="0" style="stop-color:#E7BC91"/>
						<stop  offset="0.3993" style="stop-color:#F3D5B5"/>
						<stop  offset="0.6602" style="stop-color:#F5DCB4"/>
						<stop  offset="0.7034" style="stop-color:#F4DAB2"/>
						<stop  offset="1" style="stop-color:#EFD3AB"/>
					</linearGradient>
					<path style="fill:url(#SVGID_00000008134668584536788300000006672875072473647492_);" d="M202.6,158.5
						c-1.4,3.1-1.3,6.7,0.2,9.8c1.2,2.3,2.3,4.9,2.6,7c2.2,14.9-10.2,29.1-27.6,31.7c-17.4,2.6-33.4-7.4-35.6-22.3
						c-0.3-2,0-4.9,0.5-7.4c0.6-3.4-0.4-6.8-2.6-9.4c-2.2-2.5-3.6-5.6-4.1-8.9c-1.5-9.9,5.8-19.2,16.2-20.7c3.4-0.5,6.8-0.1,10,1.1
						c3.7,1.4,7.9,0.8,11.1-1.6c2.7-2.1,5.9-3.4,9.2-3.9c10.4-1.5,20,5.3,21.5,15.2c0.4,2.5,0.2,5-0.5,7.4
						C203.2,157,202.9,157.8,202.6,158.5z"/>
					
						<radialGradient id="SVGID_00000158709985250623073680000001797588551558268094_" cx="225.5048" cy="-56.7787" r="22.7667" gradientTransform="matrix(0.9893 -0.1461 0.1461 0.9893 -39.2353 284.1921)" gradientUnits="userSpaceOnUse">
						<stop  offset="0.4947" style="stop-color:#3A2E2E"/>
						<stop  offset="0.8105" style="stop-color:#4C3B3B"/>
						<stop  offset="1" style="stop-color:#4E3F3F"/>
					</radialGradient>
					<path style="fill:url(#SVGID_00000158709985250623073680000001797588551558268094_);" d="M158.2,185.6c-1,0.1-1.7,1.1-1.5,2.1
						c0,0.1,0,0.2,0.1,0.2c2.3,7.8,10.8,12.9,20,11.5c9.2-1.4,15.9-8.7,15.8-16.8c0-1-0.8-1.8-1.9-1.8c-0.1,0-0.2,0-0.2,0
						L158.2,185.6z"/>
					
						<radialGradient id="SVGID_00000087395956766019792270000013199841699040919979_" cx="226.2524" cy="-60.1798" r="14.2633" gradientTransform="matrix(-0.9913 0.1319 -7.040424e-02 -0.529 395.8353 129.9186)" gradientUnits="userSpaceOnUse">
						<stop  offset="0" style="stop-color:#E6646E"/>
						<stop  offset="0.4503" style="stop-color:#DD4E6D"/>
						<stop  offset="1" style="stop-color:#E6646E"/>
					</radialGradient>
					<path style="fill:url(#SVGID_00000087395956766019792270000013199841699040919979_);" d="M165.9,198.1c6.9,3,15,1.8,20.8-3.1
						c-2-4.3-6-2.7-10.9-1.9C170.8,193.8,166.5,193.3,165.9,198.1z"/>
					
						<linearGradient id="SVGID_00000125562305925338007400000000754597882969470640_" gradientUnits="userSpaceOnUse" x1="117.7619" y1="137.7574" x2="226.6966" y2="174.2758" gradientTransform="matrix(0.9925 -0.1224 0.1224 0.9925 -16.4908 22.3633)">
						<stop  offset="0" style="stop-color:#A16552"/>
						<stop  offset="0.201" style="stop-color:#935848"/>
						<stop  offset="0.504" style="stop-color:#935848"/>
						<stop  offset="0.6028" style="stop-color:#9C604E"/>
						<stop  offset="0.7268" style="stop-color:#A16552"/>
						<stop  offset="1" style="stop-color:#966444"/>
					</linearGradient>
					<path style="fill:url(#SVGID_00000125562305925338007400000000754597882969470640_);" d="M217.2,128.9c-4-0.9-6.8,0.3-8.7,1.8
						c-0.7-1.4-1.5-2.8-2.4-4.1c-0.6-1-1.3-1.9-2-2.9c-7.3-9.6-18.2-16.9-29.7-18.9l-1.1-5.9l-6.5,5.3l-0.9,0
						c-0.5,0-1.1,0.1-1.6,0.1l-1.7-4.3l-0.5-1.3c-0.4,0.1-0.7,0.1-1,0.2c-6.6,1.5-9,8-9.3,9.2c-10.5,5.3-18.8,15.4-23,26.7
						c-0.4,1.1-0.8,2.2-1.1,3.3c-0.4,1.5-0.8,3.1-1.1,4.7l-0.3-0.1c-2.2-0.8-5.2-1-8.6,0.9c-7.4,4.2-7.6,17.5-0.1,24.6
						c3.1,2.9,6.1,4.3,8.8,4.7c0,0.2,0,0.3,0,0.5c-0.2,2.2-0.1,4.5,0.3,6.7c2.3,15.4,15.6,27,32.7,30.4c4,0.8,8.1,1.1,12.2,1
						c2.1-0.1,4.3-0.2,6.4-0.5l0.5-0.1c25.5-3.8,43.8-23.7,40.7-44.5c-0.3-2.2-0.9-4.4-1.7-6.5c-0.1-0.1-0.1-0.3-0.2-0.4
						c2.5-1.2,5-3.4,7.1-7C229.5,143.4,225.5,130.8,217.2,128.9z M126,145.7c-0.4,3.5-0.4,7,0.1,10.5c0,0.2,0.1,0.5,0.1,0.7
						c0.6,4.2,0.8,8.5,0.4,12.7c-2-0.4-4.2-1.5-6.5-3.6c-5.9-5.6-5.8-16,0-19.4C122.4,145.4,124.4,145.3,126,145.7
						C126,145.6,126,145.7,126,145.7z M203.4,156.2c-0.2,0.8-0.5,1.6-0.9,2.3c-1.4,3.1-1.3,6.7,0.2,9.8c1.2,2.3,2.3,4.9,2.6,7
						c2.2,14.9-10.2,29.1-27.6,31.7c-17.4,2.6-33.4-7.4-35.6-22.3c-0.3-2,0-4.9,0.5-7.4c0.6-3.4-0.4-6.8-2.6-9.4
						c-2.2-2.5-3.6-5.6-4.1-8.9c-1.5-9.9,5.8-19.2,16.2-20.7c3.4-0.5,6.8-0.1,10,1.1c3.7,1.4,7.9,0.8,11.1-1.6
						c2.7-2.1,5.9-3.4,9.2-3.9c10.4-1.5,20,5.3,21.5,15.2C204.3,151.3,204.1,153.8,203.4,156.2z M221.1,151
						c-1.5,2.7-3.3,4.4-5.2,5.4c-1.6-3.9-2.7-8.1-3.2-12.3c0-0.2-0.1-0.5-0.1-0.7c-0.5-3.5-1.5-6.9-2.9-10.1
						c1.4-0.8,3.4-1.3,5.8-0.7C222,134,225.2,144,221.1,151L221.1,151z"/>
					
						<linearGradient id="SVGID_00000180344903918478256370000008862671873811327130_" gradientUnits="userSpaceOnUse" x1="224.1999" y1="-79.3132" x2="218.2354" y2="-82.2759" gradientTransform="matrix(0.9893 -0.1461 0.1461 0.9893 -39.2353 284.1921)">
						<stop  offset="0.4947" style="stop-color:#3A2E2E"/>
						<stop  offset="0.8105" style="stop-color:#4C3B3B"/>
						<stop  offset="1" style="stop-color:#4E3F3F"/>
					</linearGradient>
					<path style="fill:url(#SVGID_00000180344903918478256370000008862671873811327130_);" d="M164.4,171L164.4,171
						c0.3-0.9,1.1-1.3,1.9-1.1l3.8,1.1c0.8,0.2,1.2,1.1,1,1.8l0,0.1c-0.2,0.8-1.1,1.2-1.8,1l-3.8-1.1
						C164.7,172.6,164.2,171.8,164.4,171z"/>
					
						<linearGradient id="SVGID_00000131364489404459787740000008622283727095654070_" gradientUnits="userSpaceOnUse" x1="227.6339" y1="-79.2639" x2="233.7932" y2="-82.2656" gradientTransform="matrix(0.9893 -0.1461 0.1461 0.9893 -39.2353 284.1921)">
						<stop  offset="0.4947" style="stop-color:#3A2E2E"/>
						<stop  offset="0.8105" style="stop-color:#4C3B3B"/>
						<stop  offset="1" style="stop-color:#4E3F3F"/>
					</linearGradient>
					<path style="fill:url(#SVGID_00000131364489404459787740000008622283727095654070_);" d="M174.4,172.5L174.4,172.5
						c-0.5-0.8-0.3-1.7,0.4-2.1l3.3-2.2c0.7-0.4,1.6-0.3,2.1,0.4l0,0.1c0.4,0.7,0.3,1.6-0.4,2.1l-3.3,2.2
						C175.7,173.4,174.8,173.2,174.4,172.5z"/>
					
						<linearGradient id="SVGID_00000003086446172906141140000010107327010112360613_" gradientUnits="userSpaceOnUse" x1="208.1101" y1="-102.7909" x2="211.4615" y2="-90.1851" gradientTransform="matrix(0.9893 -0.1461 0.1461 0.9893 -39.2353 284.1921)">
						<stop  offset="0.4947" style="stop-color:#3A2E2E"/>
						<stop  offset="0.8105" style="stop-color:#4C3B3B"/>
						<stop  offset="1" style="stop-color:#4E3F3F"/>
					</linearGradient>
					<path style="fill:url(#SVGID_00000003086446172906141140000010107327010112360613_);" d="M154.8,163.4L154.8,163.4
						c-3,0.4-5.7-1.5-6.2-4.3l-0.3-1.7c-0.4-2.8,1.7-5.5,4.7-5.9l0,0c3-0.4,5.7,1.5,6.2,4.3l0.3,1.7
						C159.9,160.3,157.8,162.9,154.8,163.4z"/>
					
						<radialGradient id="SVGID_00000009550506334904122510000015993162354947276164_" cx="213.2099" cy="-101.9979" r="6.7102" gradientTransform="matrix(0.9893 -0.1461 0.1461 0.9893 -39.2353 284.1921)" gradientUnits="userSpaceOnUse">
						<stop  offset="0" style="stop-color:#5D5360"/>
						<stop  offset="1" style="stop-color:#5D5360;stop-opacity:0.4"/>
					</radialGradient>
					<path style="fill:url(#SVGID_00000009550506334904122510000015993162354947276164_);" d="M153,151.4l0.9,6
						c0.3,1.5,1.7,2.5,3.2,2.2c1.4-0.3,2.3-1.6,2.2-3l-0.1-0.8C158.8,152.9,156,151,153,151.4z"/>
					
						<ellipse transform="matrix(0.9893 -0.1461 0.1461 0.9893 -20.877 24.188)" class="st38" cx="154.2" cy="154.2" rx="1.8" ry="1.7"/>
					<g>
						
							<linearGradient id="SVGID_00000049193148456664784350000000713440455420899234_" gradientUnits="userSpaceOnUse" x1="221.4608" y1="-3.7419" x2="286.7861" y2="-10.5441" gradientTransform="matrix(0.9794 -0.2018 0.2018 0.9794 -100.0217 219.4309)">
							<stop  offset="0" style="stop-color:#4E3F3F"/>
							<stop  offset="0.1436" style="stop-color:#4E3F3F;stop-opacity:0.7"/>
							<stop  offset="0.7306" style="stop-color:#4E3F3F;stop-opacity:0.2"/>
							<stop  offset="1" style="stop-color:#4E3F3F;stop-opacity:0"/>
						</linearGradient>
						<path style="fill:url(#SVGID_00000049193148456664784350000000713440455420899234_);" d="M150.6,115.5
							c1.2-2.3,2.4-4.4,3.5-6.3c0.7-1.1,1.4-2.1,2.1-3.1c2.7-3.8,5-6.1,6.3-6.1l-0.5-1.3c-0.4,0-0.7,0.1-1,0.2c-6.6,1.5-9,8-9.3,9.2
							c-10.5,5.3-18.8,15.4-23,26.7c-0.4,1.1-0.8,2.2-1.1,3.3c-0.4,1.5-0.8,3.1-1.1,4.7l-0.3-0.1c-2.2-0.8-5.2-1-8.6,0.9
							c-7.4,4.2-7.6,17.5-0.1,24.6c3.1,2.9,6.1,4.3,8.8,4.7c0,0.2,0,0.3,0,0.5c-0.2,2.2-0.1,4.5,0.3,6.7c2.3,15.4,15.6,27,32.7,30.4
							c4,0.8,8.1,1.1,12.2,1c0,0-11.2-4.1-19-14c-7.1-9-9.7-24.9-10-41c0.1-6.6,0.2-11.2,0.2-11.2c0,0,0,0,0,0
							C142.7,138.7,146.5,123.1,150.6,115.5z"/>
					</g>
					
						<linearGradient id="SVGID_00000078005836018457669700000010042310052493351583_" gradientUnits="userSpaceOnUse" x1="240.5598" y1="-102.9681" x2="243.9112" y2="-90.3623" gradientTransform="matrix(0.9893 -0.1461 0.1461 0.9893 -39.2353 284.1921)">
						<stop  offset="0.4947" style="stop-color:#3A2E2E"/>
						<stop  offset="0.8105" style="stop-color:#4C3B3B"/>
						<stop  offset="1" style="stop-color:#4E3F3F"/>
					</linearGradient>
					<path style="fill:url(#SVGID_00000078005836018457669700000010042310052493351583_);" d="M186.9,158.5L186.9,158.5
						c-3,0.4-5.7-1.5-6.2-4.3l-0.3-1.7c-0.4-2.8,1.7-5.5,4.7-5.9l0,0c3-0.4,5.7,1.5,6.2,4.3l0.3,1.7
						C191.9,155.4,189.8,158,186.9,158.5z"/>
					
						<radialGradient id="SVGID_00000049196468705664882760000017957347022300661694_" cx="245.6595" cy="-102.175" r="6.7102" gradientTransform="matrix(0.9893 -0.1461 0.1461 0.9893 -39.2353 284.1921)" gradientUnits="userSpaceOnUse">
						<stop  offset="0" style="stop-color:#5D5360"/>
						<stop  offset="1" style="stop-color:#5D5360;stop-opacity:0.4"/>
					</radialGradient>
					<path style="fill:url(#SVGID_00000049196468705664882760000017957347022300661694_);" d="M185.1,146.5l0.9,6
						c0.3,1.5,1.7,2.5,3.2,2.2c1.4-0.3,2.3-1.6,2.2-3l-0.1-0.8C190.8,148,188.1,146.1,185.1,146.5z"/>
					
						<ellipse transform="matrix(0.9893 -0.1461 0.1461 0.9893 -19.8145 28.8215)" class="st38" cx="186.3" cy="149.3" rx="1.8" ry="1.7"/>
				</g>
			</g>
			<path class="st44" d="M132.8,124.6c0,0,63.4-2.2,86.9,0c-20.3-12.7-46.5-22.1-46.5-22.1l-25.2,7.1l-9.4,1.1L132.8,124.6z"/>
			<polygon class="st42" points="150.1,108.8 191,109.6 180.9,95.7 157.5,95.2 			"/>
			<path class="st43" d="M139,115.2c0,0,4.3,2.5,9.7-3.1c5.4-5.6,12.3-18.1,12.5-22.3s0.7-5.4-3.7-3.7s-10.7,5.2-13.9,5.6
				c-3.1,0.3-7,5.1-7.7,7.6s0,0.3,3.9-1.5s9-0.8,6.9,6C144.7,110.6,136.6,114.6,139,115.2z"/>
			<path class="st60" d="M140.4,109.7L140.4,109.7c17-0.4,38.4-0.2,51.9,0.5c19.7,1,29.3,3.8,41.5,8.8l0,0c0,0-8.1-4-16.5-6.6
				c-8.4-2.5-14.2-2.9-21.9-3.4c-7.8-0.6-38.1-0.8-46.4-0.4c-2.7,0.1-6.5,0.4-10.4,0.7C139.7,109.6,140.4,109.7,140.4,109.7z"/>
			<polygon class="st44" points="147.2,109.6 156.8,109.5 154.5,113.9 136,116.9 140.4,109.7 			"/>
		</g>
		<path class="st16" d="M178.4,255.4c0,0,0.8,2.1,1.7,3.5c1,1.4,1.3,6,3.1,11.1s10.3,24,12.7,30.7c2.4,6.7,0.1,6.8,0.5,10.5
			c0.4,3.8,2.7,4.2,2.9,6.7c1.9-0.2,1.9-0.2,1.9-0.2s-0.9-2.6-1.9-4.4c-1-1.8-1.3-3.8-0.8-6.3c0.5-2.5,0-4.4-0.8-7.3
			s-12.5-28.6-12.8-30.4c-0.3-1.7-2.6-9.3-2.3-10.5c0.3-1.3-0.3-3-0.3-3L178.4,255.4z"/>
		<path class="st16" d="M199.4,318c0,0,0.3,2.5-1.3,4.3s-2.6,2.9-1.7,5.4c0.9,2.5,0,9.8,0,9.8l1.6,0.1c0,0,0.7-5.1,0.5-7.6
			c-0.1-2.5-0.9-4,0-5.2c0.9-1.1,3.3-3.3,2.8-7.1C201.2,317.6,199.4,318,199.4,318z"/>
		<path class="st13" d="M169.8,285.5c0,0,1.2,2.7,2,5.8c0.8,3,1.4,5.7,2.2,6.5c0.9,0.7,1.9-0.1,1.9-0.1l5-1.9c0,0,1.1,0,0.9-2
			s-4.7-14.1-4.7-14.1L169.8,285.5z"/>
		
			<linearGradient id="SVGID_00000157268359986374010360000012605202839945179568_" gradientUnits="userSpaceOnUse" x1="188.7978" y1="283.4769" x2="190.3484" y2="273.6304" gradientTransform="matrix(0.4663 -0.1901 0.3775 0.926 -21.4836 57.9491)">
			<stop  offset="0" style="stop-color:#968969"/>
			<stop  offset="0.5219" style="stop-color:#9A8E6C"/>
			<stop  offset="1" style="stop-color:#A39872"/>
		</linearGradient>
		<path style="fill:url(#SVGID_00000157268359986374010360000012605202839945179568_);" d="M169,286l7.6-3.1c0,0,1.1-0.5,0.5-3.3
			c-0.6-2.8-1.6-6-1.6-6l-8.4,2.6l1,7.6C168.2,283.9,168.4,286.2,169,286z"/>
		<path class="st10" d="M225.3,305.5c0,0-4-4.1-2-6.8c1.9-2.7,1.6-4.3,2-6.7c0.5-2.4,2.8-12.7,2.6-18.4s-1.7-38.8-2.6-42.5
			c-0.9-3.6,4-25.7,7.9-28c3.8-2.3,19-11.7,22.3-11.6c3.2,0,16.6,8.1,19.1,12.4c2.5,4.3,5.3,29.6,5.4,41.6c0.1,12,0.8,40.8,2.4,46.5
			c1.5,5.7,1.2,6.5,0,10c-1.2,3.5,0.7,6.2-5.5,7.9S233,308.5,225.3,305.5z"/>
	</g>
	<g>
		<circle class="st62" cx="172.4" cy="234.8" r="2.1"/>
		<circle class="st63" cx="172.4" cy="234.8" r="1.7"/>
		<g>
			<circle class="st64" cx="171.6" cy="234.3" r="0.4"/>
			<circle class="st64" cx="173" cy="234" r="0.4"/>
			<circle class="st64" cx="171.9" cy="235.5" r="0.4"/>
			<circle class="st64" cx="173.3" cy="235.2" r="0.4"/>
		</g>
	</g>
	<g>
		<circle class="st62" cx="176.7" cy="249.8" r="2.1"/>
		<circle class="st63" cx="176.7" cy="249.8" r="1.7"/>
		<g>
			<circle class="st64" cx="175.9" cy="249.3" r="0.4"/>
			<circle class="st64" cx="177.2" cy="249" r="0.4"/>
			<circle class="st64" cx="176.2" cy="250.6" r="0.4"/>
			<circle class="st64" cx="177.5" cy="250.3" r="0.4"/>
		</g>
	</g>
</g>
<path class="st65" d="M429.3,27.3h-114c-14.3,0-25.9,11.6-25.9,25.9V102c0,14.3,11.6,25.9,25.9,25.9h114c14.3,0,25.9-11.6,25.9-25.9
	V53.1C455.2,38.9,443.6,27.3,429.3,27.3z M367.9,84h-17.2v17.7h-12V84h-17.2V72.9h17.2V55.2h12v17.7h17.2V84z M417.2,104.5
	c-4,4.3-9.6,6.4-17,6.4c-6.9,0-12.5-1.7-16.6-5.2c-4.1-3.5-6.5-8-7-13.6H389c0.5,2.4,1.8,4.4,3.7,5.8c1.9,1.5,4.4,2.2,7.3,2.2
	c3.6,0,6.3-1.1,8.1-3.4c1.8-2.2,2.7-5.2,2.7-8.9c0-3.8-0.9-6.6-2.8-8.6c-1.9-2-4.6-3-8.2-3c-2.6,0-4.7,0.6-6.4,1.9
	c-1.7,1.3-2.9,3-3.6,5.1h-12.2v-39h41.2v11.2h-29.5V71c1.3-1.6,3.1-2.9,5.5-3.9c2.4-1,4.9-1.5,7.6-1.5c4.9,0,8.8,1.1,11.9,3.2
	c3.1,2.1,5.3,4.8,6.7,8.2c1.4,3.3,2.1,6.8,2.1,10.6C423.1,94.6,421.2,100.2,417.2,104.5z"/>
<path class="st1" d="M250,449c0,0-32.1-20.3-48.7-20.4s-34.1-12.8-41.5-13.2c0,0-13.5-3.4-18.7-7.3s-31.8-7.6-40-5.8
	c-8.2,1.8-10.6,6.8-27.8,11.1s-20.9,19.8-1.2,35.7c19.6,15.9,83.8,22.4,108.9,20C206,466.8,271.9,469,250,449z"/>
<path class="st6" d="M67.3,414.9c3.7-0.3,4.5-1.8,12.7-0.3c8.1,1.5,12,1.7,4.5,6.7s-12.9,7.5-15.9,5.2S57.3,415.6,67.3,414.9z"/>
<path class="st2" d="M64.3,422.2c0,0,2.5,2.3,3.3,3c0.8,0.6,1.4,1.3,3.3,1.4c1.9,0.1,5.3-0.9,6.4-1.5c1-0.6,10.2-6,10.2-6
	s-2.3,2.7-3.7,3.8c-1.4,1.1-6.9,4.3-8.5,4.8c-1.6,0.5-3.3,0.7-5.2,0.4c-1.9-0.3-2.6-1.3-2.9-2C66.9,425.4,64.3,422.2,64.3,422.2z"/>
<path class="st6" d="M218.2,440.9c0.6-0.8,0.5-1.9,2.9-1.5s3.3,0.5,3.5,1.5c0.1,0.9,0.5,2.5-0.9,2.7s-4.2-0.1-4.8-0.6
	C218.2,442.5,217.9,441.3,218.2,440.9z"/>
<path class="st6" d="M204,444.9c0.8-0.7,2.3-3.3,5.8-2.6c3.5,0.7,4.3,1,4.2,2.3s0.5,3.7-1.2,4.1c-1.6,0.5-6.1,2.4-7.2,2
	C204.5,450.1,201.4,447.1,204,444.9z"/>
<path class="st2" d="M218.1,441.6c0-0.2,0.5,1,1.1,1.1c0.6,0.2,1.7,0.5,2.7,0.4c1,0,1.6-0.4,2-0.4c0.4,0,0.6,0,0.6,0
	c0.1,0,0.1,0.4-0.1,0.7c-0.2,0.3-0.5,0.4-1.1,0.6c-0.6,0.2-1.7-0.1-2.2-0.1c-0.5,0-1.7-0.3-2.4-0.6
	C218.2,443.1,218,441.9,218.1,441.6z"/>
<path class="st2" d="M203.1,447.6c0,0,0.9,0.9,1.5,1.1s0.5-0.3,1.6,0s0.4,0.8,1.8,0.7c1.5-0.1,3.9-0.7,4.4-0.9s1.4-0.8,1.6-1.5
	c0.1-0.7,0.1,0.9-0.1,1.4c-0.2,0.5-1.9,0.9-2.3,1.1c-0.5,0.3-3.2,1-3.8,1.3c-0.6,0.3-2.2,0.2-2.8,0c-0.5-0.2-1.7-2.1-1.8-2.5
	C203.2,447.8,203.1,447.6,203.1,447.6z"/>
<path class="st66" d="M174.7,445.2c-13.7-8.8-7.8-14.7-23.7-19s-19.3,13.9-40.9,14.3c-20.2,0.4-44.3-1-47.3-1.2
	c2.2,3.2,5.2,6.4,9.3,9.7c20.1,18.6,52,22.7,115.1,23.6c7.5,0.1,15.3,0.1,23.2-0.1C208.5,471,187.7,453.6,174.7,445.2z"/>
</svg>
