<?xml version="1.0" encoding="utf-8"?>
<!-- Generator: Adobe Illustrator 27.0.0, SVG Export Plug-In . SVG Version: 6.00 Build 0)  -->
<svg version="1.1" id="Laag_1" xmlns="http://www.w3.org/2000/svg" xmlns:xlink="http://www.w3.org/1999/xlink" x="0px" y="0px"
	 viewBox="0 0 500 500" style="enable-background:new 0 0 500 500;" xml:space="preserve">
<style type="text/css">
	.st0{clip-path:url(#SVGID_00000084500279313274955950000014990849839795535242_);fill:#777548;}
	
		.st1{clip-path:url(#SVGID_00000084500279313274955950000014990849839795535242_);fill:url(#SVGID_00000181788482843033242080000008691323152360051876_);}
	.st2{clip-path:url(#SVGID_00000084500279313274955950000014990849839795535242_);fill:#332E23;}
	.st3{clip-path:url(#SVGID_00000084500279313274955950000014990849839795535242_);fill:#A39872;}
	
		.st4{clip-path:url(#SVGID_00000084500279313274955950000014990849839795535242_);fill:none;stroke:url(#SVGID_00000182521824296536129220000009816051391765087673_);stroke-miterlimit:10;}
	.st5{clip-path:url(#SVGID_00000084500279313274955950000014990849839795535242_);fill:#686540;}
	.st6{clip-path:url(#SVGID_00000084500279313274955950000014990849839795535242_);}
	.st7{fill:#DBC483;}
	.st8{fill:#C9B177;}
	.st9{fill:#8C7D5D;}
	.st10{clip-path:url(#SVGID_00000084500279313274955950000014990849839795535242_);fill:#848157;}
	.st11{clip-path:url(#SVGID_00000084500279313274955950000014990849839795535242_);fill:#545230;}
	.st12{fill:url(#SVGID_00000183936738656962764290000003709586164734011305_);}
	.st13{fill:#7C5535;}
	.st14{fill-rule:evenodd;clip-rule:evenodd;fill:#603E26;}
	.st15{fill:#8C6239;}
	.st16{fill:#603E26;}
	.st17{fill:#A16552;}
	.st18{fill:url(#SVGID_00000078012394695213024590000008958415456074548899_);}
	.st19{fill:#FFFFFF;}
	.st20{fill:url(#SVGID_00000137132413911077553010000013560331217162717625_);}
	.st21{fill:url(#SVGID_00000183247721501054196390000002871278488010286996_);}
	.st22{fill:url(#SVGID_00000181087392636044321320000012671050456622735773_);}
	.st23{fill:url(#SVGID_00000062881439070259415550000008131497050305058983_);}
	.st24{fill:url(#SVGID_00000024714067583279199990000002492155704367348372_);}
	.st25{fill:url(#SVGID_00000142145935523782887120000006884414469863510437_);}
	.st26{fill:url(#SVGID_00000174591710314246253160000016284209813339833486_);}
	.st27{fill:url(#SVGID_00000018235740676041576100000001875354527431350955_);}
	.st28{fill:url(#SVGID_00000059293612098719611980000009756259650115764356_);}
	.st29{fill:url(#SVGID_00000048461311117699218080000012262362007699232446_);}
	.st30{fill:#1C1C1C;}
	.st31{fill:url(#SVGID_00000141434912626294398080000003423471373196853390_);}
	.st32{fill:url(#SVGID_00000120541140168658792680000003448231896286519486_);}
	.st33{fill:url(#SVGID_00000136403283614993904300000015660942427577541818_);}
	.st34{fill:url(#SVGID_00000060017031417260989600000011885949559177800584_);}
	.st35{fill:#A57955;}
	
		.st36{clip-path:url(#SVGID_00000084500279313274955950000014990849839795535242_);fill:url(#SVGID_00000098901525092701698260000010523874139836922773_);}
	
		.st37{clip-path:url(#SVGID_00000084500279313274955950000014990849839795535242_);fill:url(#SVGID_00000107576764345018706570000006379499428194433703_);}
	.st38{clip-path:url(#SVGID_00000084500279313274955950000014990849839795535242_);fill:#413B2B;}
	.st39{fill:url(#SVGID_00000166644310583501883880000001587725982987516830_);}
	.st40{fill:url(#SVGID_00000063594267224059962810000003171927455650922388_);}
	.st41{opacity:0.2;fill:url(#SVGID_00000076582813317538862270000004574602190582352772_);}
	.st42{fill:url(#SVGID_00000047767808925744582310000007237182219863522751_);}
	.st43{fill:url(#SVGID_00000173148517364981302440000010845047026529803439_);}
	.st44{opacity:0.2;fill:url(#SVGID_00000082336771020375538820000012851008290600878485_);}
	.st45{fill:url(#SVGID_00000109715582198055728680000009689773558904218774_);}
	.st46{fill:url(#SVGID_00000124848521763333073650000003387006028136742535_);}
	.st47{opacity:0.2;fill:url(#SVGID_00000111910087934414888590000008912734652021391256_);}
	.st48{fill:url(#SVGID_00000018220175589862641260000000585990378113620405_);}
	.st49{fill:url(#SVGID_00000029741550082496710640000015573891471125980810_);}
	.st50{opacity:0.2;fill:url(#SVGID_00000149368685573380694900000017432034478931470762_);}
</style>
<g>
	<defs>
		<circle id="SVGID_1_" cx="249.2" cy="247.7" r="223.4"/>
	</defs>
	<clipPath id="SVGID_00000029039001853408951180000009944391079665986232_">
		<use xlink:href="#SVGID_1_"  style="overflow:visible;"/>
	</clipPath>
	<path style="clip-path:url(#SVGID_00000029039001853408951180000009944391079665986232_);fill:#777548;" d="M141.1,359
		c0,0-3.3-1.8-8.6,0.5s-13.5,7.5-21,10c-7.5,2.5-50,20.2-50,20.2s41.4,30,48.6,36.7s15.3,25.9,15.3,25.9l17.5-2l-1.4-70.3L141.1,359
		z"/>
	<path style="clip-path:url(#SVGID_00000029039001853408951180000009944391079665986232_);fill:#777548;" d="M422.9,417.1
		c0,0-8.5-22.5-7-36.3c1.5-13.8,21.5-2.5,21.5-2.5l8.2,15.2L422.9,417.1z"/>
	
		<linearGradient id="SVGID_00000145748695143847004000000001573854659359283620_" gradientUnits="userSpaceOnUse" x1="245.881" y1="398.5774" x2="245.881" y2="300.0499">
		<stop  offset="0" style="stop-color:#935848"/>
		<stop  offset="7.155611e-02" style="stop-color:#9C604E"/>
		<stop  offset="0.1613" style="stop-color:#A16552"/>
		<stop  offset="0.2671" style="stop-color:#8C4E40"/>
		<stop  offset="0.5146" style="stop-color:#8C4E40"/>
		<stop  offset="1" style="stop-color:#7C3C2F"/>
	</linearGradient>
	
		<polygon style="clip-path:url(#SVGID_00000029039001853408951180000009944391079665986232_);fill:url(#SVGID_00000145748695143847004000000001573854659359283620_);" points="
		209.3,319.4 207.8,335.3 223,372.5 234.4,377 263.1,355.4 284,331 284,318.4 	"/>
	<path style="clip-path:url(#SVGID_00000029039001853408951180000009944391079665986232_);fill:#332E23;" d="M218.8,861.8
		c0,0,0.8,2,8.9,2.4c8.1,0.4,2.1-55.8,2.1-55.8l12.5-127.1l-3.4-195.7l-29.2,6.7l-18,206.2l1.7,121.3L218.8,861.8z"/>
	<path style="clip-path:url(#SVGID_00000029039001853408951180000009944391079665986232_);fill:#A39872;" d="M234.3,498.7v13.6
		c0,0-0.5,0.8-2.2,5.3c-1.7,4.5-2.2,54.4-2.2,54.4l-2.5,150c0,0,0.3,30.4,0,44.8c-0.3,14.4-4.3,17.4-5.8,36s0,30.5,2.1,37.2
		c2.1,6.7,4,24.3,4,24.3s17.4,0.6,42.3,3.3c24.9,2.7,78.6-4.6,97.2-8.8c18.6-4.2,27.4-9.6,35.8-10.9s14.6-0.2,16.3-7.3
		s-5-89.5-5-89.5s-11.7-99.1-12-126.4c-0.3-27.3,2.8-54.6,8.1-71.4c5.3-16.7,10.3-34.8,10.3-34.8s5.3-158.9,0-163.1
		c-5.3-4.2-29-10.6-41-14.8c-12-4.2-40.7-12.3-47.4-16.2c-6.7-3.9-23.4-13.7-23.4-13.7l-27.6,42.4l-43.8,111.5L234.3,498.7z"/>
	<path style="clip-path:url(#SVGID_00000029039001853408951180000009944391079665986232_);fill:#A39872;" d="M218.8,861.8
		c0,0-58-0.5-73.7-4.7c-8.8-3.1-10,1-7.3-15.7s4-21.5,0.8-24.3c-3.1-2.7-0.7-18.8-2.1-40.8c-1.4-22,0.9-17.6-1.6-34.3
		s-2.5-60.5,0-72.2c2.5-11.7,5.3-5,0.3-19.8s-7.5-41.5-4.5-57.7s-0.8-55.5-3.3-65.8c-2.5-10.3-1.7-59.7-1.7-79.5
		c0-19.8,2.2-78.1,17.3-89.8c12.5-6.1,46.3-16.6,58.4-24.2c6.5,1.9,17.4,29.8,17.4,29.8l-0.5,135c0,0,1.9,14.3,1.9,23.5
		c0,9.2-3.9,65.2-3.8,78.2s0.2,142.5,0.3,153.2c0.1,10.7,0.6,23.8-2.6,33.3s-5.1,37.9-3,45.8C213.2,839.8,219.6,840.3,218.8,861.8z"
		/>
	
		<linearGradient id="SVGID_00000124152997414181651570000012673797443594107530_" gradientUnits="userSpaceOnUse" x1="233.7196" y1="385.8727" x2="262.5707" y2="296.1909">
		<stop  offset="0" style="stop-color:#935848"/>
		<stop  offset="7.155611e-02" style="stop-color:#9C604E"/>
		<stop  offset="0.1613" style="stop-color:#A16552"/>
		<stop  offset="0.2671" style="stop-color:#8C4E40"/>
		<stop  offset="0.5146" style="stop-color:#8C4E40"/>
		<stop  offset="1" style="stop-color:#7C3C2F"/>
	</linearGradient>
	
		<polygon style="clip-path:url(#SVGID_00000029039001853408951180000009944391079665986232_);fill:none;stroke:url(#SVGID_00000124152997414181651570000012673797443594107530_);stroke-miterlimit:10;" points="
		208.8,315.8 206.8,343.4 224.4,382.3 252.2,382.3 292.1,349 305.5,310.8 	"/>
	<path style="clip-path:url(#SVGID_00000029039001853408951180000009944391079665986232_);fill:#777548;" d="M204.8,368.5
		c0,0-4.4,32.6-2.4,51.9c2,19.2,8.1,58,12.3,69.4c4.2,11.4,9.2,17.3,14.8,14.2c5.6-3.1,27.9-40.4,36.2-53.5
		c8.4-13.1,24-32.9,28.7-44c4.7-11.2,9.5-45.7,9.5-45.7l-42.9-10.1l-17.7,10.6l-12.4,10.5l-13.5-5.2l-13.1-3.8L204.8,368.5z"/>
	<path style="clip-path:url(#SVGID_00000029039001853408951180000009944391079665986232_);fill:#686540;" d="M242.3,363.5l-9.6,6.5
		l-2,1.7l-0.7-0.3l-0.5,0l-8.5,2.2v128.3c2.6,2.9,5.4,3.8,8.3,2.1c2.3-1.2,7.3-8.1,13-16.7V363.5z"/>
	<g style="clip-path:url(#SVGID_00000029039001853408951180000009944391079665986232_);">
		<circle class="st7" cx="230.8" cy="380.7" r="5.2"/>
		<circle class="st8" cx="230.8" cy="380.7" r="4.4"/>
		<g>
			<circle class="st9" cx="229" cy="379.1" r="0.9"/>
			<circle class="st9" cx="232.5" cy="379.1" r="0.9"/>
			<circle class="st9" cx="229" cy="382.4" r="0.9"/>
			<circle class="st9" cx="232.6" cy="382.4" r="0.9"/>
		</g>
	</g>
	<g style="clip-path:url(#SVGID_00000029039001853408951180000009944391079665986232_);">
		<circle class="st7" cx="230.8" cy="434.1" r="5.2"/>
		<circle class="st8" cx="230.8" cy="434.1" r="4.4"/>
		<g>
			<circle class="st9" cx="229" cy="432.5" r="0.9"/>
			<circle class="st9" cx="232.5" cy="432.5" r="0.9"/>
			<circle class="st9" cx="229" cy="435.7" r="0.9"/>
			<circle class="st9" cx="232.6" cy="435.7" r="0.9"/>
		</g>
	</g>
	<g style="clip-path:url(#SVGID_00000029039001853408951180000009944391079665986232_);">
		<circle class="st7" cx="229.9" cy="488.7" r="5.2"/>
		<circle class="st8" cx="229.9" cy="488.7" r="4.4"/>
		<g>
			<circle class="st9" cx="228.1" cy="487.1" r="0.9"/>
			<circle class="st9" cx="231.6" cy="487.1" r="0.9"/>
			<circle class="st9" cx="228.1" cy="490.3" r="0.9"/>
			<circle class="st9" cx="231.7" cy="490.3" r="0.9"/>
		</g>
	</g>
	<path style="clip-path:url(#SVGID_00000029039001853408951180000009944391079665986232_);fill:#848157;" d="M178.8,392.3
		c0,0,11-29.7,15.6-41s6.8-16.1,7.8-21.7c1-5.6,2.7-12.3,2.7-12.3l6.7,1.9c0,0-1.5,13.4,3.3,23.4s10.2,23.6,12.8,25.9
		c2.5,2.3,4.8,2.5,1.3,4.8c-3.6,2.3-8.6,1-13-3.1c-4.4-4.2-9.5-4-11.2-1.7c-1.7,2.3-3.2,4-3.8,8.6s-14,15.3-16.1,18.6
		S174.4,404.2,178.8,392.3z"/>
	<path style="clip-path:url(#SVGID_00000029039001853408951180000009944391079665986232_);fill:#545230;" d="M238.9,366.4
		c2.4-1,8.2-4.3,17.2-4.8c9-0.5,12.5-0.7,12.5-0.7s-8.8-10.6-10.9-10.2c-2.1,0.3-9.2,5.7-12.3,7.9
		C242.3,360.6,238.9,366.4,238.9,366.4z"/>
	<path style="clip-path:url(#SVGID_00000029039001853408951180000009944391079665986232_);fill:#848157;" d="M230.7,371.1
		c0,0,14.7-17.4,19.8-20.8c5-3.3,20.9-20.3,27.6-25.4s16.8-11.2,16.8-11.2l13.9-3c0,0-1.1,24.5-1.8,36.8
		c-0.6,12.3-3.3,24.1-7.2,30.1s-8,13.8-12.4,9.2c-4.4-4.6-16.6-19-19.8-22.5c-3.1-3.4-7.5-12.6-11.5-11.6c-4,1-15.5,13.7-18.7,16.2
		S231.3,375.6,230.7,371.1z"/>
	<g style="clip-path:url(#SVGID_00000029039001853408951180000009944391079665986232_);">
		<g>
			
				<linearGradient id="SVGID_00000114791302133786329800000001937832541924968101_" gradientUnits="userSpaceOnUse" x1="349.043" y1="25.7326" x2="335.6593" y2="-10.7487" gradientTransform="matrix(0.9981 -6.184626e-02 6.184626e-02 0.9981 -76.4575 156.0326)">
				<stop  offset="2.471052e-03" style="stop-color:#161F2D"/>
				<stop  offset="0.8054" style="stop-color:#1E293A"/>
			</linearGradient>
			<path style="fill:url(#SVGID_00000114791302133786329800000001937832541924968101_);" d="M324.1,150.5l-1.7-27.4
				c0,0,0.7-2.2-5.2-6.4c-5.9-4.2-28.3-20.5-46.2-24.6s-34.5-2.8-49.7,3.1s-17.4,13-19,18.7c-1.6,5.7-7.1,17.3-7.1,17.3L324.1,150.5
				z"/>
			<path class="st13" d="M342,151.5l-2.2-34.9c0,0,0.9-2.8-6.6-8.2c-7.5-5.3-36-26.1-58.8-31.3s-43.9-3.6-63.3,3.9
				c-19.4,7.5-22.1,16.5-24.2,23.8s-9.1,22.1-9.1,22.1L342,151.5z"/>
			<path class="st14" d="M317.2,143.1c0,0-7.2,3.3-15-6.4s-16.8-30.5-16.6-37.2c0.2-6.7-0.4-8.7,6.4-5.3c6.7,3.4,16.2,9.8,21.2,10.8
				c4.9,1,10.3,9,11,13.2c0.7,4.2-0.1,0.5-6-2.9s-14.2-2.6-11.8,8.5S321.1,142.6,317.2,143.1z"/>
			<path class="st14" d="M200.9,138c0,0,7.7,5.7,19.3-3.7s27.6-31.7,29.1-39.6s2.6-10.1-6.2-7.8c-8.8,2.3-21.7,7.4-27.7,7.4
				c-6.1-0.1-14.4,8-16.4,12.8c-2,4.7,0,0.6,7.8-1.9c7.7-2.5,17.4,0.6,11.7,13C212.8,130.6,196.4,136.4,200.9,138z"/>
			<path class="st15" d="M383,169.1c-23.2-13.2-40.8-21.3-79.5-28c-25.5-4.4-66.3-10-98.7-13.2l0,0c0,0-18.5-5.8-36.5-19.9
				c-17.9-14.1-43.5-12.5-57.4-9.2c-8.8,2.1-8,23.8-6.3,39.3c1.2,11,5.8,21.4,13,29.7c6.3,7.3,15.2,16.2,25.9,23.5
				c28.9,19.7,54.3,27.3,54.3,27.3s39,5.6,102.7,10.2c63.6,4.6,95.7-16.3,103.8-23.3C412.3,198.5,406.2,182.3,383,169.1z"/>
			<path class="st16" d="M350.4,174.9c0,0-130.2-32.1-175.2-17.4c-15.9,8.1-16.7,26.3-0.7,31.9C190.4,195,350.4,174.9,350.4,174.9z"
				/>
		</g>
		<g>
			<g>
				<path class="st17" d="M348.9,225.6c-3.6,4.8-7.4,7.6-11.1,9c-2.1-7.9-3.2-16-3.3-24.2c0-0.5,0-0.9,0-1.4
					c-0.2-6.8-1.3-13.5-3.2-20c2.9-1.2,6.7-1.7,11.3,0C354.6,193.4,358.3,213.1,348.9,225.6z"/>
				
					<linearGradient id="SVGID_00000003823145788831568660000012734966014312435098_" gradientUnits="userSpaceOnUse" x1="387.3174" y1="-36.3888" x2="423.7563" y2="-36.3888" gradientTransform="matrix(0.9997 -2.394285e-02 2.394285e-02 0.9997 -54.6144 257.0777)">
					<stop  offset="0" style="stop-color:#E7BC91"/>
					<stop  offset="0.3993" style="stop-color:#F3D5B5"/>
					<stop  offset="0.6602" style="stop-color:#F5DCB4"/>
					<stop  offset="1" style="stop-color:#F5DCB4"/>
				</linearGradient>
				<path style="fill:url(#SVGID_00000003823145788831568660000012734966014312435098_);" d="M348.9,225.6c-3.6,4.8-7.4,7.6-11.1,9
					c-2.1-7.9-3.2-16-3.3-24.2c0-0.5,0-0.9,0-1.4c-0.2-6.8-1.3-13.5-3.2-20c2.9-1.2,6.7-1.7,11.3,0
					C354.6,193.4,358.3,213.1,348.9,225.6z"/>
				<polygon class="st19" points="230.5,215.2 208.4,208.5 208.4,199.5 231.1,211 				"/>
				<polygon class="st19" points="270.3,215.2 292.4,208.5 292.4,199.5 269.7,211 				"/>
				<path class="st17" d="M168.9,193c-1.6,6.5-2.4,13.3-2.2,20c0,0.5,0,0.9,0,1.4c0.3,8.2-0.5,16.3-2.1,24.3
					c-3.8-1.2-7.7-3.9-11.5-8.4c-10-12.1-7.2-31.9,4.6-36.9C162.1,191.6,165.9,191.9,168.9,193C168.9,193,168.9,193,168.9,193z"/>
				
					<linearGradient id="SVGID_00000107555967110928433080000000515531238444171186_" gradientUnits="userSpaceOnUse" x1="222.496" y1="-36.3733" x2="177.3579" y2="-36.7944" gradientTransform="matrix(0.9997 -2.394285e-02 2.394285e-02 0.9997 -54.6144 257.0777)">
					<stop  offset="0" style="stop-color:#E7BC91"/>
					<stop  offset="0.3993" style="stop-color:#F3D5B5"/>
					<stop  offset="0.6602" style="stop-color:#F5DCB4"/>
					<stop  offset="1" style="stop-color:#F5DCB4"/>
				</linearGradient>
				<path style="fill:url(#SVGID_00000107555967110928433080000000515531238444171186_);" d="M168.9,193c-1.6,6.5-2.4,13.3-2.2,20
					c0,0.5,0,0.9,0,1.4c0.3,8.2-0.5,16.3-2.1,24.3c-3.8-1.2-7.7-3.9-11.5-8.4c-10-12.1-7.2-31.9,4.6-36.9
					C162.1,191.6,165.9,191.9,168.9,193C168.9,193,168.9,193,168.9,193z"/>
				<path class="st17" d="M311.7,235.5c-3.4,5.6-4.1,12.5-1.9,18.7c1.7,4.7,3.3,9.9,3.4,13.9c0.7,28.9-26.2,53-60,53.8
					c-33.8,0.8-61.8-22-62.5-50.9c-0.1-4,1.2-9.3,2.7-14c1.9-6.3,0.9-13.1-2.8-18.6c-3.6-5.3-5.6-11.5-5.7-17.9
					c-0.5-19.2,15.5-35.2,35.7-35.7c6.5-0.2,13,1.3,18.7,4.4c6.8,3.6,14.9,3.4,21.5-0.5c5.6-3.3,12-5.2,18.5-5.3
					c20.2-0.5,36.9,14.7,37.4,33.9c0.1,4.8-0.8,9.6-2.7,14C313.3,232.7,312.5,234.1,311.7,235.5z"/>
				
					<linearGradient id="SVGID_00000137852667970801222180000009769343119593545393_" gradientUnits="userSpaceOnUse" x1="250.7111" y1="190.7419" x2="250.7111" y2="322.8327">
					<stop  offset="0" style="stop-color:#E7BC91"/>
					<stop  offset="0.3993" style="stop-color:#F3D5B5"/>
					<stop  offset="0.6602" style="stop-color:#F5DCB4"/>
					<stop  offset="0.7034" style="stop-color:#F4DAB2"/>
					<stop  offset="1" style="stop-color:#EFD3AB"/>
				</linearGradient>
				<path style="fill:url(#SVGID_00000137852667970801222180000009769343119593545393_);" d="M311.7,235.5
					c-3.4,5.6-4.1,12.5-1.9,18.7c1.7,4.7,3.3,9.9,3.4,13.9c0.7,28.9-26.2,53-60,53.8c-33.8,0.8-61.8-22-62.5-50.9
					c-0.1-4,1.2-9.3,2.7-14c1.9-6.3,0.9-13.1-2.8-18.6c-3.6-5.3-5.6-11.5-5.7-17.9c-0.5-19.2,15.5-35.2,35.7-35.7
					c6.5-0.2,13,1.3,18.7,4.4c6.8,3.6,14.9,3.4,21.5-0.5c5.6-3.3,12-5.2,18.5-5.3c20.2-0.5,36.9,14.7,37.4,33.9
					c0.1,4.8-0.8,9.6-2.7,14C313.3,232.7,312.5,234.1,311.7,235.5z"/>
				
					<radialGradient id="SVGID_00000152948821453288359340000005895600550218178690_" cx="305.2051" cy="49.031" r="43.6969" gradientTransform="matrix(0.9997 -2.394285e-02 2.394285e-02 0.9997 -54.6144 257.0777)" gradientUnits="userSpaceOnUse">
					<stop  offset="0.4947" style="stop-color:#3A2E2E"/>
					<stop  offset="0.8105" style="stop-color:#4C3B3B"/>
					<stop  offset="1" style="stop-color:#4E3F3F"/>
				</radialGradient>
				<path style="fill:url(#SVGID_00000152948821453288359340000005895600550218178690_);" d="M220.9,276.8c-1.9,0-3.5,1.6-3.4,3.6
					c0,0.2,0,0.3,0,0.5c2.6,15.5,17.6,27.1,35.3,26.7c17.8-0.4,32.2-12.8,34-28.3c0.2-1.9-1.2-3.7-3.1-3.9c-0.2,0-0.3,0-0.5,0
					L220.9,276.8z"/>
				
					<radialGradient id="SVGID_00000107568607649414735070000015026809537441620389_" cx="306.64" cy="42.5032" r="27.376" gradientTransform="matrix(-1 9.621704e-03 -5.135116e-03 -0.5337 559.7995 311.9595)" gradientUnits="userSpaceOnUse">
					<stop  offset="0" style="stop-color:#E6646E"/>
					<stop  offset="0.4503" style="stop-color:#DD4E6D"/>
					<stop  offset="1" style="stop-color:#E6646E"/>
				</radialGradient>
				<path style="fill:url(#SVGID_00000107568607649414735070000015026809537441620389_);" d="M232.5,302.2c12.5,7.4,28.1,7,40.3-1
					c-2.7-8.7-10.8-6.5-20.3-6.3S234.9,293.4,232.5,302.2z"/>
				
					<linearGradient id="SVGID_00000044872129656065163280000010219791296657411475_" gradientUnits="userSpaceOnUse" x1="254.7241" y1="31.6643" x2="467.4248" y2="102.9683" gradientTransform="matrix(0.9968 -8.041712e-02 8.041712e-02 0.9968 -107.0189 185.3646)">
					<stop  offset="0" style="stop-color:#A16552"/>
					<stop  offset="0.201" style="stop-color:#935848"/>
					<stop  offset="0.504" style="stop-color:#935848"/>
					<stop  offset="0.6028" style="stop-color:#9C604E"/>
					<stop  offset="0.7268" style="stop-color:#A16552"/>
					<stop  offset="1" style="stop-color:#966444"/>
				</linearGradient>
				<path style="fill:url(#SVGID_00000044872129656065163280000010219791296657411475_);" d="M346.5,182.5c-7.3-2.6-13-1-17,1.4
					c-1.1-2.9-2.3-5.7-3.6-8.5c-1-2-2-4-3.2-6c-11.6-20-30.6-36.4-52.2-43l-0.7-11.5l-13.7,8.6l-1.7-0.1c-1-0.1-2-0.1-3.1-0.1
					l-2.2-8.7l-0.7-2.5c-0.7,0-1.4,0-2,0.1c-12.9,1.4-19,13.2-20,15.2c-21.2,7.6-39.5,24.9-50.1,45.5c-1,2-2,4-2.9,6.1
					c-1.2,2.8-2.3,5.7-3.2,8.6l-0.5-0.3c-4.1-2.1-9.7-3.2-16.5-0.3c-15.1,6.3-18.6,31.5-5.9,46.8c5.2,6.2,10.6,9.6,15.7,11
					c-0.1,0.3-0.1,0.6-0.2,0.9c-0.8,4.2-1.2,8.5-1.1,12.9c0.7,29.9,23.4,55.1,55.2,65.6c7.5,2.5,15.2,4.1,23,4.8
					c4.1,0.4,8.2,0.5,12.3,0.5l1,0c49.6-1.2,88.9-34.8,88-75.2c-0.1-4.3-0.7-8.6-1.7-12.8c-0.1-0.3-0.1-0.6-0.2-0.9
					c5.1-1.7,10.3-5.3,15.2-11.8C366.6,213,361.8,188,346.5,182.5z M168.9,193c-1.6,6.5-2.4,13.3-2.2,20c0,0.5,0,0.9,0,1.4
					c0.3,8.2-0.5,16.3-2.1,24.3c-3.8-1.2-7.7-3.9-11.5-8.4c-10-12.1-7.2-31.9,4.6-36.9C162.1,191.6,165.9,191.9,168.9,193
					C168.9,193,168.9,193,168.9,193z M313.9,231.3c-0.6,1.4-1.3,2.9-2.2,4.2c-3.4,5.6-4.1,12.5-1.9,18.7c1.7,4.7,3.3,9.9,3.4,13.9
					c0.7,28.9-26.2,53-60,53.8c-33.8,0.8-61.8-22-62.5-50.9c-0.1-4,1.2-9.3,2.7-14c1.9-6.3,0.9-13.1-2.8-18.6
					c-3.6-5.3-5.6-11.5-5.7-17.9c-0.5-19.2,15.5-35.2,35.7-35.7c6.5-0.2,13,1.3,18.7,4.4c6.8,3.6,14.9,3.4,21.5-0.5
					c5.6-3.3,12-5.2,18.5-5.3c20.2-0.5,36.9,14.7,37.4,33.9C316.7,222.1,315.8,226.9,313.9,231.3z M348.9,225.6
					c-3.6,4.8-7.4,7.6-11.1,9c-2.1-7.9-3.2-16-3.3-24.2c0-0.5,0-0.9,0-1.4c-0.2-6.8-1.3-13.5-3.2-20c2.9-1.2,6.7-1.7,11.3,0
					C354.6,193.4,358.3,213.1,348.9,225.6L348.9,225.6z"/>
				
					<linearGradient id="SVGID_00000073679678672550867010000006884287251118592162_" gradientUnits="userSpaceOnUse" x1="302.7004" y1="5.7799" x2="291.2527" y2="9.341425e-02" gradientTransform="matrix(0.9997 -2.394285e-02 2.394285e-02 0.9997 -54.6144 257.0777)">
					<stop  offset="0.4947" style="stop-color:#3A2E2E"/>
					<stop  offset="0.8105" style="stop-color:#4C3B3B"/>
					<stop  offset="1" style="stop-color:#4E3F3F"/>
				</linearGradient>
				<path style="fill:url(#SVGID_00000073679678672550867010000006884287251118592162_);" d="M236.2,250.3l0.1-0.2
					c0.6-1.5,2.3-2.1,3.7-1.5l7,3c1.5,0.6,2.1,2.3,1.5,3.7l-0.1,0.2c-0.6,1.5-2.3,2.1-3.7,1.5l-7-3
					C236.2,253.5,235.5,251.8,236.2,250.3z"/>
				
					<linearGradient id="SVGID_00000095296418476440173560000013711889668017494670_" gradientUnits="userSpaceOnUse" x1="309.2914" y1="5.8744" x2="321.1133" y2="0.1131" gradientTransform="matrix(0.9997 -2.394285e-02 2.394285e-02 0.9997 -54.6144 257.0777)">
					<stop  offset="0.4947" style="stop-color:#3A2E2E"/>
					<stop  offset="0.8105" style="stop-color:#4C3B3B"/>
					<stop  offset="1" style="stop-color:#4E3F3F"/>
				</linearGradient>
				<path style="fill:url(#SVGID_00000095296418476440173560000013711889668017494670_);" d="M254.7,255.5l-0.1-0.2
					c-0.7-1.4-0.1-3.1,1.3-3.8l6.9-3.3c1.4-0.7,3.1-0.1,3.8,1.3l0.1,0.2c0.7,1.4,0.1,3.1-1.3,3.8l-6.9,3.3
					C257.1,257.5,255.4,256.9,254.7,255.5z"/>
				<g>
					
						<linearGradient id="SVGID_00000150085799551576784540000006551685632553341344_" gradientUnits="userSpaceOnUse" x1="271.8189" y1="-39.2818" x2="278.2513" y2="-15.087" gradientTransform="matrix(0.9997 -2.394285e-02 2.394285e-02 0.9997 -54.6144 257.0777)">
						<stop  offset="0.4947" style="stop-color:#3A2E2E"/>
						<stop  offset="0.8105" style="stop-color:#4C3B3B"/>
						<stop  offset="1" style="stop-color:#4E3F3F"/>
					</linearGradient>
					<path style="fill:url(#SVGID_00000150085799551576784540000006551685632553341344_);" d="M219.6,233.5L219.6,233.5
						c-5.8,0.1-10.6-4.2-10.7-9.7l-0.1-3.3c-0.1-5.5,4.5-10.1,10.3-10.2l0,0c5.8-0.1,10.6,4.2,10.7,9.7l0.1,3.3
						C229.9,228.8,225.3,233.4,219.6,233.5z"/>
					
						<radialGradient id="SVGID_00000091727322176988255340000007342528208353546172_" cx="281.607" cy="-37.7597" r="12.8792" gradientTransform="matrix(0.9997 -2.394285e-02 2.394285e-02 0.9997 -54.6144 257.0777)" gradientUnits="userSpaceOnUse">
						<stop  offset="0" style="stop-color:#5D5360"/>
						<stop  offset="1" style="stop-color:#5D5360;stop-opacity:0.4"/>
					</radialGradient>
					<path style="fill:url(#SVGID_00000091727322176988255340000007342528208353546172_);" d="M219,210.3l0.3,11.6
						c0.2,2.9,2.7,5.1,5.6,4.9c2.7-0.2,4.8-2.4,4.9-5.1l0-1.6C229.6,214.5,224.8,210.2,219,210.3z"/>
					
						<ellipse transform="matrix(0.9997 -2.394283e-02 2.394283e-02 0.9997 -5.1073 5.3449)" class="st19" cx="220.7" cy="216" rx="3.5" ry="3.3"/>
				</g>
				<g>
					
						<linearGradient id="SVGID_00000169526519448343314650000002864818023322540473_" gradientUnits="userSpaceOnUse" x1="245.996" y1="73.7707" x2="371.3768" y2="60.7151" gradientTransform="matrix(0.9968 -8.041712e-02 8.041712e-02 0.9968 -107.0189 185.3646)">
						<stop  offset="0" style="stop-color:#4E3F3F"/>
						<stop  offset="0.1436" style="stop-color:#4E3F3F;stop-opacity:0.7"/>
						<stop  offset="0.7306" style="stop-color:#4E3F3F;stop-opacity:0.2"/>
						<stop  offset="1" style="stop-color:#4E3F3F;stop-opacity:0"/>
					</linearGradient>
					<path style="fill:url(#SVGID_00000169526519448343314650000002864818023322540473_);" d="M222.9,141.4
						c2.7-4.1,5.5-7.9,8.2-11.2c1.6-2,3.1-3.8,4.6-5.4c6-6.6,11-10.4,13.4-10.2l-0.7-2.5c-0.7,0-1.4,0.1-2,0.1
						c-12.9,1.4-19,13.2-20,15.2c-21.2,7.6-39.5,24.9-50.1,45.5c-1,2-2,4.1-2.9,6.1c-1.2,2.8-2.3,5.7-3.2,8.6l-0.5-0.3
						c-4.1-2.1-9.7-3.2-16.5-0.3c-15.1,6.3-18.6,31.5-5.9,46.8c5.2,6.2,10.6,9.6,15.7,11c-0.1,0.3-0.1,0.6-0.2,0.9
						c-0.8,4.2-1.2,8.5-1.1,12.9c0.7,29.9,23.4,55.1,55.2,65.6c7.5,2.5,15.2,4.1,23,4.8c0,0-20.5-10.5-33-31.2
						c-11.4-18.8-12.7-49.7-9.4-80.5c1.7-12.6,2.9-21.3,2.9-21.3c0,0,0,0,0,0C202.4,183.7,213.3,154.9,222.9,141.4z"/>
				</g>
				<g>
					<path class="st30" d="M209,261.5c-0.5,0.3-1.1,0.6-1.6,0.9c-1.5,0.8-2.9,1.7-4.4,2.5c-1,0.5-1.9,1.2-2.8,1.8
						c-0.6,0.4-1.3,0.8-1.9,1.3c-1.2,0.8-2.4,1.6-3.5,2.4c-0.5,0.4-1,0.8-1.5,1.2c-0.1,0.1-0.3,0.2-0.4,0.3
						c-0.9,0.5-1.6,1.2-2.4,1.8c-0.7,0.5-1.4,1-2,1.5c-0.8,0.6-1.6,1.3-2.4,2c-0.4,0.3-0.7,0.8-1.1,1.1c-0.2,0.2-0.3,0.3-0.6,0.2
						c-0.2,0-0.5,0.1-0.7,0c-0.2-0.1-0.3-0.2-0.5-0.1c-0.3,0.2-0.5,0-0.7-0.3c-0.1-0.2-0.3-0.4-0.4-0.6c-0.1-0.4-0.3-0.7-0.6-1
						c-0.1-0.1-0.2-0.3-0.3-0.4c-0.2-0.2-0.2-0.3-0.2-0.5c0-0.2,0-0.4,0-0.6c0-0.3-0.1-0.5-0.1-0.8c0-0.1-0.1-0.3-0.2-0.3
						c-0.4-0.3-0.6-0.6-0.6-1.1c0,0-0.1-0.1-0.2-0.2c-0.2,0-0.3-0.2-0.3-0.3c0-0.1,0-0.3,0-0.4c-0.1-0.7,0-1.3,0.6-1.5
						c0.2-0.1,0.3-0.3,0.3-0.6c0.1-0.7,0.4-1.1,1.1-1.3c0.2-0.1,0.4-0.2,0.5-0.3c0.2-0.1,0.3-0.1,0.4,0c0,0.2,0,0.3-0.1,0.3
						c-0.2,0.1-0.6,0.2-0.7,0.5c0,0.1,0,0.2,0.1,0.3c0.1,0.1,0.2,0.1,0.3,0.1c0.1,0,0.2-0.1,0.2-0.1c0.2-0.1,0.4-0.3,0.6-0.4
						c0.4-0.2,0.7-0.5,0.9-0.9c0.1-0.2,0.2-0.3,0.3-0.5c0.3-0.5,0.7-0.8,1.3-0.8c0.3,0,0.5-0.2,0.6-0.4c0.1-0.2,0.3-0.3,0.4-0.5
						c0.1-0.1,0.2-0.2,0.3-0.2c0.5,0.1,0.7-0.3,1-0.5c0.3-0.2,0.7-0.4,1-0.6c0.4-0.2,0.8-0.5,1.2-0.8c0.3-0.2,0.6-0.4,0.9-0.6
						c0.3-0.1,0.6-0.3,0.7-0.6c0.1-0.3,0.3-0.4,0.6-0.6c0.3-0.1,0.5-0.3,0.7-0.4c0.6-0.2,1.1-0.7,1.6-1.1c0.1-0.1,0.2-0.3,0.2-0.4
						c0.1-0.1,0.2-0.1,0.3-0.1c0.5,0.1,0.6,0,0.6-0.5c0-0.2,0-0.4,0.2-0.5c0.2-0.1,0.4-0.3,0.6-0.4c0.2-0.2,0.5-0.3,0.8-0.2
						c0.2,0,0.4-0.1,0.6-0.2c0.2,0,0.5,0,0.7,0c0.1,0,0.2-0.1,0.2-0.1c0.7-0.4,1.3-0.9,2-1.3c0.1-0.1,0.3-0.2,0.4-0.4
						c0.4-0.8,1.2-1.2,2-1.5c0.4-0.1,0.8-0.3,1.1-0.5c0.6-0.3,1.3-0.1,2.1,0.6c0.6,0.5,1,1.1,1.2,1.8c0,0.1,0.1,0.2,0.2,0.3
						c0.6,0.7,0.9,1.5,1.2,2.2c0.1,0.2,0.3,0.4,0.4,0.6c0.4,0.5,0.4,0.5,0.2,0.9C209.5,261.1,209.2,261.3,209,261.5z M189.1,265.4
						L189.1,265.4L189.1,265.4L189.1,265.4z"/>
					<path class="st30" d="M186.1,265c0.2-0.1,0.3-0.2,0.4-0.3c0,0,0.1,0,0.2,0.1c0,0,0.1,0.2,0.1,0.2c-0.1,0.3-0.4,0.5-0.7,0.6
						c0,0-0.1,0-0.2-0.1c0,0-0.1-0.2,0-0.2C185.9,265.2,186,265.1,186.1,265z"/>
					<polygon class="st30" points="194,260.4 193.9,260.3 194,260.3 					"/>
				</g>
				<g>
					<path class="st30" d="M183.8,252c0.3,0.1,0.6,0.1,0.8-0.2c0.3-0.3,0.6-0.5,0.8-0.7c0.1-0.2,0.3-0.3,0.5-0.4
						c0.5-0.3,1.1-0.7,1.6-1.1c0.4-0.3,0.7-0.7,0.9-1.1c0.2-0.3,0.4-0.6,0.8-0.7c0.3-0.1,0.4-0.3,0.6-0.5c0.5-0.7,1.1-1.4,2.1-1.6
						c0.5-0.1,0.8-0.4,1.1-0.8c0.1-0.3,0.4-0.5,0.6-0.7c0.2-0.3,0.4-0.6,0.3-1c0-0.2,0-0.4,0.1-0.5c0.2-0.1,0.3-0.3,0.5-0.4
						c0.5-0.1,0.9-0.5,1.2-0.8c0.1-0.1,0.2-0.2,0.3-0.2c0.1-0.1,0.3-0.1,0.4-0.1c0.2,0,0.3,0.2,0.5,0.4c0.3,0.4,0.6,0.2,0.8,0.3
						c0.1,0,0.2,0.1,0.3,0.2c0,0,0,0.1,0,0.1c-0.1,0.4,0.1,0.8,0.4,1.2c0.2,0.2,0.2,0.4,0.2,0.7c0,0.4,0.4,1.6,0.6,2
						c0.3,0.4,0.6,0.8,0.9,1.2c0.2,0.3,0.3,0.5,0.2,0.8c-0.1,0.2-0.1,0.4,0.1,0.7c0.3,0.6,0.2,0.9-0.1,1.2c-0.3,0.3-0.6,0.6-0.9,0.9
						c-0.4,0.3-0.8,0.7-1.1,1.1c-0.2,0.4-0.6,0.6-0.9,0.9c-0.2,0.2-0.5,0.3-0.7,0.5c-0.6,0.6-1.2,1-2,1.3c-0.7,0.3-1.2,0.7-1.6,1.3
						c-0.1,0.1-0.2,0.3-0.4,0.4c-0.4,0.1-0.7,0.4-0.9,0.7c-0.1,0.2-0.3,0.4-0.5,0.5c-0.2,0.1-0.3,0.3-0.4,0.6c0,0.2-0.2,0.3-0.4,0.3
						c-0.3-0.1-0.5,0-0.5,0.3c0,0.3-0.1,0.5-0.2,0.6c-0.6,0.6-1.2,1.2-2.1,1.4c-0.3,0-0.5,0.2-0.5,0.5c0,0.3-0.1,0.4-0.3,0.6
						c-0.4,0.3-0.7,0.6-1.1,0.8c-0.2,0.1-0.4,0.2-0.7,0.1c-0.1,0-0.2,0-0.3,0c-0.2,0.2-0.5,0.4-0.6,0.7c-0.1,0.3-0.3,0.5-0.7,0.5
						c-0.5-0.1-0.7,0.1-0.7,0.6c0,0.3-0.2,0.5-0.4,0.7c-0.3,0.2-0.6,0.5-0.9,0.7c-0.1,0.1-0.2,0.2-0.4,0.2c-0.7,0-1,0.4-1.5,0.7
						c-0.1,0.1-0.3,0.2-0.3,0.3c-0.2,0.5-0.7,0.7-1.1,0.9c-0.6,0.3-1.2,0.6-1.7,1.1c0,0-0.1,0.1-0.1,0.1c-0.9,0.3-1.5,0.9-2.2,1.5
						c-0.3,0.2-0.6,0.3-1,0.2c-0.3-0.1-0.5-0.2-0.8-0.2c-0.4,0-0.7-0.3-1-0.7c-0.2-0.4-0.4-0.8-0.7-1.1c-0.3-0.4-0.6-0.8-0.8-1.2
						c-0.2-0.4-0.1-0.8-0.2-1.2c0-0.2-0.1-0.3-0.4-0.4c-0.4-0.1-0.4-0.2-0.4-0.5c0-0.2,0-0.3-0.1-0.4c-0.3-0.5-0.2-1-0.6-1.4
						c-0.2-0.2-0.2-0.4-0.1-0.5c0.1-0.2,0.2-0.3,0.3-0.5c0.2-0.3,0.3-0.5,0.3-1c0-0.2,0.3-0.4,0.6-0.4c0.1,0,0.1,0.1,0.2,0.1
						c0.1,0.1,0.3,0.3,0.4,0.3c0.1,0,0.2-0.2,0.3-0.2c0.6-0.2,1-0.7,1.7-0.8c0.1,0,0.2-0.1,0.2-0.1c0.5-0.6,1.3-0.7,1.9-1.1
						c0.3-0.2,0.6-0.3,0.8-0.5c1-0.9,2.2-1.6,3.3-2.4c0.2-0.2,0.4-0.2,0.8-0.1l0,0l-0.1-0.1c0.4-0.3,0.9-0.6,1.3-1
						c0.2-0.3,0.5-0.4,0.8-0.5c0.4-0.1,0.7-0.4,0.9-0.8c0-0.1,0.1-0.3,0.2-0.3c0.3,0,0.5-0.2,0.5-0.5c0-0.2,0.2-0.3,0.3-0.3
						c0.6,0,0.8-0.3,0.9-0.8c0-0.1,0-0.1,0-0.2l0,0c0,0,0.1,0,0.1,0C183.7,252.1,183.8,252.1,183.8,252L183.8,252z M175.4,259.2
						L175.4,259.2L175.4,259.2L175.4,259.2z M174.7,259.5L174.7,259.5L174.7,259.5L174.7,259.5z"/>
					<path class="st30" d="M183.6,252.2c-0.1-0.2-0.1-0.2,0.2-0.1l0,0C183.7,252,183.7,252.1,183.6,252.2L183.6,252.2z"/>
					<polygon class="st30" points="182.1,252.8 182.2,252.9 182.1,252.9 					"/>
				</g>
				<g>
					
						<linearGradient id="SVGID_00000056425763900484478840000017961254704986716093_" gradientUnits="userSpaceOnUse" x1="334.1006" y1="-39.6218" x2="340.533" y2="-15.4271" gradientTransform="matrix(0.9997 -2.394285e-02 2.394285e-02 0.9997 -54.6144 257.0777)">
						<stop  offset="0.4947" style="stop-color:#3A2E2E"/>
						<stop  offset="0.8105" style="stop-color:#4C3B3B"/>
						<stop  offset="1" style="stop-color:#4E3F3F"/>
					</linearGradient>
					<path style="fill:url(#SVGID_00000056425763900484478840000017961254704986716093_);" d="M281.8,231.7L281.8,231.7
						c-5.8,0.1-10.6-4.2-10.7-9.7l-0.1-3.3c-0.1-5.5,4.5-10.1,10.3-10.2l0,0c5.8-0.1,10.6,4.2,10.7,9.7l0.1,3.3
						C292.2,227,287.6,231.6,281.8,231.7z"/>
					
						<radialGradient id="SVGID_00000025439922302296931580000009153017359802263938_" cx="343.8886" cy="-38.0997" r="12.8792" gradientTransform="matrix(0.9997 -2.394285e-02 2.394285e-02 0.9997 -54.6144 257.0777)" gradientUnits="userSpaceOnUse">
						<stop  offset="0" style="stop-color:#5D5360"/>
						<stop  offset="1" style="stop-color:#5D5360;stop-opacity:0.4"/>
					</radialGradient>
					<path style="fill:url(#SVGID_00000025439922302296931580000009153017359802263938_);" d="M281.3,208.5l0.3,11.6
						c0.2,2.9,2.7,5.1,5.6,4.9c2.7-0.2,4.8-2.4,4.9-5.1l0-1.6C291.9,212.7,287,208.4,281.3,208.5z"/>
					
						<ellipse transform="matrix(0.9997 -2.394283e-02 2.394283e-02 0.9997 -5.0456 6.835)" class="st19" cx="282.9" cy="214.1" rx="3.5" ry="3.3"/>
				</g>
				<g>
					<path class="st30" d="M291.6,265.8c-0.2-0.3-0.2-0.4,0.2-0.9c0.1-0.2,0.3-0.4,0.4-0.6c0.4-0.8,0.7-1.6,1.2-2.2
						c0.1-0.1,0.1-0.2,0.2-0.3c0.2-0.7,0.7-1.3,1.2-1.8c0.7-0.7,1.4-0.9,2.1-0.6c0.3,0.2,0.7,0.3,1.1,0.5c0.8,0.3,1.6,0.7,2,1.5
						c0.1,0.2,0.3,0.3,0.4,0.4c0.6,0.5,1.3,0.9,2,1.3c0.1,0.1,0.1,0.1,0.2,0.1c0.2,0,0.5,0,0.7,0c0.2,0,0.4,0.2,0.6,0.2
						c0.3,0,0.6,0,0.8,0.2c0.2,0.1,0.4,0.3,0.6,0.4c0.2,0.1,0.2,0.3,0.2,0.5c0,0.4,0.1,0.6,0.6,0.5c0.2,0,0.3,0,0.3,0.1
						c0.1,0.1,0.1,0.3,0.2,0.4c0.5,0.4,1,0.8,1.6,1.1c0.3,0.1,0.5,0.3,0.7,0.4c0.3,0.1,0.5,0.3,0.6,0.6c0.1,0.3,0.4,0.5,0.7,0.6
						c0.4,0.1,0.7,0.3,0.9,0.6c0.4,0.3,0.8,0.6,1.2,0.8c0.4,0.2,0.7,0.4,1,0.6c0.3,0.2,0.5,0.6,1,0.5c0.1,0,0.2,0.1,0.3,0.2
						c0.1,0.2,0.3,0.3,0.4,0.5c0.2,0.2,0.4,0.3,0.6,0.4c0.6,0,1,0.3,1.3,0.8c0.1,0.2,0.2,0.3,0.3,0.5c0.2,0.4,0.5,0.7,0.9,0.9
						c0.2,0.1,0.4,0.3,0.6,0.4c0.1,0,0.2,0.1,0.2,0.1c0.1,0,0.2,0,0.3-0.1c0.1-0.1,0.1-0.2,0.1-0.3c-0.1-0.3-0.4-0.3-0.7-0.5
						c-0.1-0.1-0.2-0.2-0.1-0.3c0-0.1,0.2-0.1,0.4,0c0.2,0.1,0.3,0.3,0.5,0.3c0.6,0.2,1,0.6,1.1,1.3c0,0.3,0.1,0.5,0.3,0.6
						c0.6,0.3,0.7,0.8,0.6,1.5c0,0.1,0,0.3,0,0.4c0,0.2-0.1,0.3-0.3,0.3c0,0-0.2,0.1-0.2,0.2c0,0.4-0.1,0.8-0.6,1.1
						c-0.1,0-0.1,0.2-0.2,0.3c0,0.3-0.1,0.5-0.1,0.8c0,0.2,0,0.4,0,0.6c0,0.2-0.1,0.4-0.2,0.5c-0.1,0.1-0.2,0.3-0.3,0.4
						c-0.3,0.3-0.5,0.6-0.6,1c-0.1,0.2-0.2,0.4-0.4,0.6c-0.2,0.2-0.3,0.4-0.7,0.3c-0.2-0.1-0.3,0-0.5,0.1c-0.2,0.1-0.4,0-0.7,0
						c-0.3,0-0.4-0.1-0.6-0.2c-0.4-0.4-0.7-0.8-1.1-1.1c-0.8-0.7-1.6-1.3-2.4-2c-0.7-0.5-1.4-1-2-1.5c-0.8-0.6-1.5-1.3-2.4-1.8
						c-0.2-0.1-0.3-0.2-0.4-0.3c-0.5-0.4-1-0.8-1.5-1.2c-1.2-0.8-2.4-1.6-3.5-2.4c-0.6-0.4-1.3-0.8-1.9-1.3
						c-0.9-0.6-1.8-1.2-2.8-1.8c-1.5-0.8-2.9-1.7-4.4-2.5c-0.5-0.3-1.1-0.6-1.6-0.9C292.1,266.2,291.8,266.1,291.6,265.8z
						 M312.2,270.2L312.2,270.2L312.2,270.2L312.2,270.2z"/>
					<path class="st30" d="M315.2,269.9c-0.2-0.1-0.3-0.2-0.4-0.3c0,0-0.1,0-0.2,0.1c0,0-0.1,0.2-0.1,0.2c0.1,0.3,0.4,0.5,0.7,0.6
						c0,0,0.1,0,0.2-0.1c0,0,0.1-0.2,0-0.2C315.4,270.1,315.3,270,315.2,269.9z"/>
					<polygon class="st30" points="307.3,265.3 307.4,265.3 307.3,265.2 					"/>
				</g>
				<g>
					<path class="st30" d="M317.5,256.9c0,0.1,0,0.1,0.1,0.1c0,0,0.1,0,0.1,0l0,0c0,0.1,0,0.1,0,0.2c0,0.5,0.3,0.9,0.9,0.8
						c0.2,0,0.3,0.1,0.3,0.3c0,0.3,0.2,0.5,0.5,0.5c0.1,0,0.2,0.2,0.2,0.3c0.2,0.4,0.5,0.6,0.9,0.8c0.3,0.1,0.6,0.3,0.8,0.5
						c0.4,0.4,0.9,0.7,1.3,1l-0.1,0.1l0,0c0.3-0.2,0.6-0.1,0.8,0.1c1.1,0.8,2.3,1.4,3.3,2.4c0.2,0.2,0.5,0.3,0.8,0.5
						c0.6,0.4,1.4,0.5,1.9,1.1c0.1,0.1,0.2,0.1,0.2,0.1c0.7,0.1,1.1,0.6,1.7,0.8c0.1,0,0.2,0.2,0.3,0.2c0.1,0,0.3-0.2,0.4-0.3
						c0.1-0.1,0.1-0.1,0.2-0.1c0.2-0.1,0.6,0.2,0.6,0.4c-0.1,0.4,0.1,0.7,0.3,1c0.1,0.2,0.2,0.3,0.3,0.5c0.1,0.1,0.1,0.3-0.1,0.5
						c-0.4,0.5-0.3,0.9-0.6,1.4c-0.1,0.1,0,0.3-0.1,0.4c0,0.3-0.1,0.4-0.4,0.5c-0.3,0.1-0.4,0.1-0.4,0.4c0,0.4,0,0.8-0.2,1.2
						c-0.2,0.4-0.6,0.8-0.8,1.2c-0.2,0.4-0.5,0.8-0.7,1.1c-0.2,0.4-0.5,0.7-1,0.7c-0.2,0-0.5,0.1-0.8,0.2c-0.4,0.1-0.8,0-1-0.2
						c-0.7-0.5-1.3-1.2-2.2-1.5c-0.1,0-0.1-0.1-0.1-0.1c-0.5-0.5-1.1-0.8-1.7-1.1c-0.5-0.2-0.9-0.4-1.1-0.9
						c-0.1-0.1-0.2-0.2-0.3-0.3c-0.5-0.3-0.8-0.7-1.5-0.7c-0.2,0-0.3-0.1-0.4-0.2c-0.3-0.2-0.6-0.5-0.9-0.7
						c-0.2-0.2-0.4-0.4-0.4-0.7c0-0.4-0.3-0.6-0.7-0.6c-0.4,0.1-0.6-0.1-0.7-0.5c-0.1-0.3-0.4-0.5-0.6-0.7c-0.1-0.1-0.2-0.1-0.3,0
						c-0.3,0.1-0.5,0-0.7-0.1c-0.4-0.3-0.7-0.6-1.1-0.8c-0.2-0.1-0.3-0.3-0.3-0.6c0-0.4-0.2-0.5-0.5-0.5c-0.9-0.2-1.5-0.8-2.1-1.4
						c-0.2-0.1-0.2-0.4-0.2-0.6c0-0.3-0.2-0.4-0.5-0.3c-0.2,0.1-0.4,0-0.4-0.3c0-0.3-0.1-0.5-0.4-0.6c-0.2-0.1-0.4-0.3-0.5-0.5
						c-0.2-0.3-0.5-0.6-0.9-0.7c-0.2-0.1-0.3-0.2-0.4-0.4c-0.4-0.6-1-1-1.6-1.3c-0.8-0.3-1.4-0.7-2-1.3c-0.2-0.2-0.5-0.3-0.7-0.5
						c-0.3-0.3-0.7-0.5-0.9-0.9c-0.3-0.4-0.7-0.8-1.1-1.1c-0.3-0.3-0.6-0.6-0.9-0.9c-0.3-0.3-0.4-0.6-0.1-1.2
						c0.1-0.3,0.1-0.5,0.1-0.7c-0.1-0.3,0-0.5,0.2-0.8c0.3-0.4,0.6-0.8,0.9-1.2c0.3-0.4,0.6-1.6,0.6-2c0-0.2,0-0.4,0.2-0.7
						c0.3-0.4,0.5-0.8,0.4-1.2c0,0,0-0.1,0-0.1c0-0.1,0.2-0.2,0.3-0.2c0.3,0,0.5,0.1,0.8-0.3c0.1-0.2,0.3-0.4,0.5-0.4
						c0.2,0,0.3,0.1,0.4,0.1c0.1,0.1,0.2,0.1,0.3,0.2c0.4,0.3,0.7,0.6,1.2,0.8c0.2,0.1,0.3,0.2,0.5,0.4c0.1,0.1,0.2,0.2,0.1,0.5
						c-0.1,0.5,0.1,0.8,0.3,1c0.2,0.2,0.4,0.4,0.6,0.7c0.2,0.5,0.6,0.7,1.1,0.8c0.9,0.3,1.5,0.9,2.1,1.6c0.2,0.2,0.3,0.4,0.6,0.5
						c0.4,0.1,0.6,0.4,0.8,0.7c0.3,0.4,0.6,0.8,0.9,1.1c0.5,0.4,1,0.8,1.6,1.1c0.2,0.1,0.3,0.2,0.5,0.4c0.3,0.3,0.6,0.5,0.8,0.7
						C316.9,257,317.2,257,317.5,256.9L317.5,256.9z M325.9,264.2L325.9,264.2L325.9,264.2L325.9,264.2z M326.6,264.4L326.6,264.4
						L326.6,264.4L326.6,264.4z"/>
					<path class="st30" d="M317.6,257.1c0.1-0.2,0.1-0.2-0.2-0.1l0,0C317.6,257,317.6,257,317.6,257.1L317.6,257.1z"/>
					<polygon class="st30" points="319.2,257.7 319.1,257.8 319.2,257.8 					"/>
				</g>
				
					<linearGradient id="SVGID_00000134221654178989285330000014098972429325189294_" gradientUnits="userSpaceOnUse" x1="219.7258" y1="190.7419" x2="219.7258" y2="322.8327">
					<stop  offset="0" style="stop-color:#E7BC91"/>
					<stop  offset="0.3993" style="stop-color:#F3D5B5"/>
					<stop  offset="0.6602" style="stop-color:#F5DCB4"/>
					<stop  offset="0.7034" style="stop-color:#F4DAB2"/>
					<stop  offset="1" style="stop-color:#EFD3AB"/>
				</linearGradient>
				<polygon style="fill:url(#SVGID_00000134221654178989285330000014098972429325189294_);" points="230.5,215.2 208.4,208.5 
					208.4,199.5 231.1,211 				"/>
				
					<linearGradient id="SVGID_00000020395768772808490340000018276818245551093405_" gradientUnits="userSpaceOnUse" x1="281.0484" y1="190.7419" x2="281.0484" y2="322.8327">
					<stop  offset="0" style="stop-color:#E7BC91"/>
					<stop  offset="0.3993" style="stop-color:#F3D5B5"/>
					<stop  offset="0.6602" style="stop-color:#F5DCB4"/>
					<stop  offset="0.7034" style="stop-color:#F4DAB2"/>
					<stop  offset="1" style="stop-color:#EFD3AB"/>
				</linearGradient>
				<polygon style="fill:url(#SVGID_00000020395768772808490340000018276818245551093405_);" points="270.3,214.1 292.4,207.3 
					292.4,198.4 269.7,209.9 				"/>
			</g>
		</g>
		<path class="st15" d="M186.8,154.4c0,0,121.3,10.7,165.6,20.5c-35.6-28.9-83.4-53-83.4-53l-49.7,7.6l-18.2-0.2L186.8,154.4z"/>
		<polygon class="st13" points="223.4,128.4 301.2,139.5 285.2,110.7 240.7,104.3 		"/>
		<path class="st14" d="M200.9,138c0,0,7.7,5.7,19.3-3.7s27.6-31.7,29.1-39.6s2.6-10.1-6.2-7.8c-8.8,2.3-21.7,7.4-27.7,7.4
			c-6.1-0.1-14.4,8-16.4,12.8c-2,4.7,0,0.6,7.8-1.9c7.7-2.5,17.4,0.6,11.7,13C212.8,130.6,196.4,136.4,200.9,138z"/>
		<path class="st35" d="M204.8,128L204.8,128c32.4,3.2,73.3,8.7,98.7,13.2c37.3,6.5,55,14.2,77,26.6l0,0c0,0-14.5-9.6-29.9-16.4
			c-15.4-6.8-26.3-8.8-41-11.7c-14.7-3-72.4-10.5-88.2-11.7c-5.1-0.4-12.4-0.8-20-1.1C203.5,127.6,204.8,128,204.8,128z"/>
		<polygon class="st15" points="217.7,129.3 236.1,131.4 230.6,139.1 194.6,140.7 204.8,128 		"/>
	</g>
	
		<linearGradient id="SVGID_00000052822366671251259320000012019921996187057318_" gradientUnits="userSpaceOnUse" x1="333.3118" y1="571.283" x2="333.3118" y2="544.6887">
		<stop  offset="0" style="stop-color:#968969"/>
		<stop  offset="0.5219" style="stop-color:#9A8E6C"/>
		<stop  offset="1" style="stop-color:#A39872"/>
	</linearGradient>
	
		<path style="clip-path:url(#SVGID_00000029039001853408951180000009944391079665986232_);fill:url(#SVGID_00000052822366671251259320000012019921996187057318_);" d="
		M293.3,543.9l-11.1,18.2c0,0-2.1,5.6,7.1,7.7s87.6,0.8,87.6,0.8s4.8,0.2,6.9-5c2.1-5.2-1.3-21.7-1.3-21.7H293.3z"/>
	
		<linearGradient id="SVGID_00000101812703251276738410000013414520386214507403_" gradientUnits="userSpaceOnUse" x1="144.582" y1="566.2687" x2="148.7637" y2="539.7147">
		<stop  offset="0" style="stop-color:#968969"/>
		<stop  offset="0.5219" style="stop-color:#9A8E6C"/>
		<stop  offset="1" style="stop-color:#A39872"/>
	</linearGradient>
	
		<path style="clip-path:url(#SVGID_00000029039001853408951180000009944391079665986232_);fill:url(#SVGID_00000101812703251276738410000013414520386214507403_);" d="
		M119.1,565.1h43.8c0,0,6.6-0.2,9.2-7.7c2.6-7.5,4-16.6,4-16.6l-46.8-2L119.1,559C119.1,559,115.6,565.1,119.1,565.1z"/>
	<path style="clip-path:url(#SVGID_00000029039001853408951180000009944391079665986232_);fill:#413B2B;" d="M298.7,519.5h68.7
		c0,0,2.8,0.3,3,3c0.2,2.7-0.5,3.1-2.5,3.7s-69.2,0-69.2,0s-3.3-0.6-3.3-3.2C295.3,520.4,296.6,519.5,298.7,519.5z"/>
	
		<rect x="300.8" y="522.7" style="clip-path:url(#SVGID_00000029039001853408951180000009944391079665986232_);fill:#332E23;" width="5.7" height="18.4"/>
	<g style="clip-path:url(#SVGID_00000029039001853408951180000009944391079665986232_);">
		
			<linearGradient id="SVGID_00000154411162583447832300000009707660414300990606_" gradientUnits="userSpaceOnUse" x1="412.5826" y1="384.718" x2="336.5938" y2="135.124">
			<stop  offset="0" style="stop-color:#935848"/>
			<stop  offset="7.155611e-02" style="stop-color:#9C604E"/>
			<stop  offset="0.1613" style="stop-color:#A16552"/>
			<stop  offset="0.2671" style="stop-color:#8C4E40"/>
			<stop  offset="0.5146" style="stop-color:#8C4E40"/>
			<stop  offset="1" style="stop-color:#7C3C2F"/>
		</linearGradient>
		<path style="fill:url(#SVGID_00000154411162583447832300000009707660414300990606_);" d="M407.4,385.2c0,0-31.7-16.8-36-18.5
			c-4.3-1.8-21.2-9.7-25.7-14.6c-4.5-4.9-14-26.3-16.6-31.4c-2.5-5.1-4.1-7,1.2-12.7c5.3-5.7,10.5-15,13.6-18.1s7.6-1.6,8,3.9
			c0.4,5.5-4.9,16.4-3.3,20.3c1.6,3.9,4.5,10.5,7.8,10.3c3.3-0.2,11.9-8.6,12.9-16.8c1-8.2,15.4-30.8,15.4-30.8l14-1.9
			c0,0,2.6-1.2,8.7,1.8c6.1,2.9,28.7,13.4,42.7,43.3c14,29.8,14.8,29.4,17.7,34.3C470.8,359.1,446.3,403.7,407.4,385.2z"/>
		
			<linearGradient id="SVGID_00000143604433401043980340000008121620744984628623_" gradientUnits="userSpaceOnUse" x1="292.4544" y1="250.255" x2="434.7873" y2="340.2726">
			<stop  offset="0" style="stop-color:#935848"/>
			<stop  offset="7.155611e-02" style="stop-color:#9C604E"/>
			<stop  offset="0.1613" style="stop-color:#A16552"/>
			<stop  offset="0.5099" style="stop-color:#8C4E40"/>
			<stop  offset="1" style="stop-color:#7C3C2F"/>
		</linearGradient>
		<path style="fill:url(#SVGID_00000143604433401043980340000008121620744984628623_);" d="M367.5,276.9c0,0-6.1-2.5-10.2-5
			s-10.5-4.1-17.2-8c-6.7-3.9-20.8-13.2-25-15.8c-4.2-2.6-8.6,0.9-7.5,6.7s5.7,8.3,5.7,8.3s-3.9,1.8-3.5,8.2
			c0.4,6.4,11.8,14.6,13.6,16.4c1.8,1.8,13.7,11.6,13.7,11.6l18.3-5.2L367.5,276.9z"/>
		
			<linearGradient id="SVGID_00000117654568479246953530000012653870228777258143_" gradientUnits="userSpaceOnUse" x1="376.5647" y1="305.3653" x2="379.4873" y2="331.8883">
			<stop  offset="0" style="stop-color:#4E3F3F"/>
			<stop  offset="0.1436" style="stop-color:#4E3F3F;stop-opacity:0.7"/>
			<stop  offset="0.7306" style="stop-color:#4E3F3F;stop-opacity:0.2"/>
			<stop  offset="1" style="stop-color:#4E3F3F;stop-opacity:0"/>
		</linearGradient>
		<path style="opacity:0.2;fill:url(#SVGID_00000117654568479246953530000012653870228777258143_);" d="M373.8,331.1
			c0,0,6.6-1.9,9.4-7c1.4-3.1-0.4-8.3,0-10.6c0.4-2.3,0.5-3.6-0.2-5.1c-0.7-1.5-1.4-1.5-2.6-2.3c-1.2-0.8-2.3-1.2-3.7-1
			c-1.4,0.3-0.7,3,0.3,4.7s3.1,4.9,1.2,5.8c-1.8,0.9-4.5,1.2-5.8,2.5C371.1,319.3,372.5,328.6,373.8,331.1z"/>
		
			<linearGradient id="SVGID_00000176025302719706569160000001382865363650532993_" gradientUnits="userSpaceOnUse" x1="339.9132" y1="247.8692" x2="364.4634" y2="306.9066">
			<stop  offset="0" style="stop-color:#935848"/>
			<stop  offset="7.155611e-02" style="stop-color:#9C604E"/>
			<stop  offset="0.1613" style="stop-color:#A16552"/>
			<stop  offset="0.2671" style="stop-color:#8C4E40"/>
			<stop  offset="0.3608" style="stop-color:#8C4E40"/>
			<stop  offset="1" style="stop-color:#7C3C2F"/>
		</linearGradient>
		<path style="fill:url(#SVGID_00000176025302719706569160000001382865363650532993_);" d="M365.6,277.2c0,0-7.8-2.7-11.4,0
			c-3.7,2.7-5.7,9.1-5,14.1c0.7,5,8.6,30.1,10,33.9c1.5,3.8,2.4,10.4,6.4,10.8c4.1,0.4,10.1-5.1,9.9-9.6c-0.1-4.5-2.6-11.5-3.2-14.8
			s0.3-9.6-0.7-14.8C370.6,291.8,365.6,277.2,365.6,277.2z"/>
		
			<linearGradient id="SVGID_00000082370725744468985330000014502263650929153938_" gradientUnits="userSpaceOnUse" x1="437.8034" y1="282.1911" x2="298.1008" y2="313.9505">
			<stop  offset="0" style="stop-color:#935848"/>
			<stop  offset="7.155611e-02" style="stop-color:#9C604E"/>
			<stop  offset="0.1613" style="stop-color:#A16552"/>
			<stop  offset="0.2671" style="stop-color:#8C4E40"/>
			<stop  offset="0.5146" style="stop-color:#8C4E40"/>
			<stop  offset="1" style="stop-color:#7C3C2F"/>
		</linearGradient>
		<path style="fill:url(#SVGID_00000082370725744468985330000014502263650929153938_);" d="M372.8,297.9c0,0-4,0.1-5.9,0
			s-4.5,5-7.5,7.4c-2.9,2.3-3.9,5.3-5.3,9.2c-1.3,3.9-2.2,10.2-8.2,9.6s-7.7-1.5-6.9-5.8c0.9-4.4,5.1-20,7-23.1s8.3-9.6,12.1-13.4
			c3.8-3.8,6.6-5,12.3-5c5.7,0,14.1,0.1,14.1,0.1S377.4,293.9,372.8,297.9z"/>
		
			<linearGradient id="SVGID_00000178171784348780008080000002284208153780753331_" gradientUnits="userSpaceOnUse" x1="328.8636" y1="261.7463" x2="332.2126" y2="292.1379">
			<stop  offset="0" style="stop-color:#4E3F3F"/>
			<stop  offset="0.1436" style="stop-color:#4E3F3F;stop-opacity:0.7"/>
			<stop  offset="0.7306" style="stop-color:#4E3F3F;stop-opacity:0.2"/>
			<stop  offset="1" style="stop-color:#4E3F3F;stop-opacity:0"/>
		</linearGradient>
		<path style="opacity:0.2;fill:url(#SVGID_00000178171784348780008080000002284208153780753331_);" d="M313.3,263.2
			c0,0,14.2,13.3,19.7,16.7c5.5,3.4,15.5,8.5,15.5,8.5l-1.5,0.6c0,0-11.6-6.2-18-10.9c-6.4-4.7-16.6-14.3-16.6-14.3L313.3,263.2z"/>
	</g>
	<g style="clip-path:url(#SVGID_00000029039001853408951180000009944391079665986232_);">
		
			<linearGradient id="SVGID_00000131326832214257062330000010214659521288678828_" gradientUnits="userSpaceOnUse" x1="1447.5068" y1="384.5408" x2="1371.5181" y2="134.9467" gradientTransform="matrix(-1 0 0 1 1528.4456 0)">
			<stop  offset="0" style="stop-color:#935848"/>
			<stop  offset="7.155611e-02" style="stop-color:#9C604E"/>
			<stop  offset="0.1613" style="stop-color:#A16552"/>
			<stop  offset="0.2671" style="stop-color:#8C4E40"/>
			<stop  offset="0.5146" style="stop-color:#8C4E40"/>
			<stop  offset="1" style="stop-color:#7C3C2F"/>
		</linearGradient>
		<path style="fill:url(#SVGID_00000131326832214257062330000010214659521288678828_);" d="M86.1,385c0,0,31.7-16.8,36-18.5
			c4.3-1.8,21.2-9.7,25.7-14.6c4.5-4.9,14-26.3,16.6-31.4s4.1-7-1.2-12.7c-5.3-5.7-10.5-15-13.6-18.1s-7.6-1.6-8,3.9
			c-0.4,5.5,4.9,16.4,3.3,20.3c-1.6,3.9-4.5,10.5-7.8,10.3s-11.9-8.6-12.9-16.8c-1-8.2-15.4-30.8-15.4-30.8l-14-1.9
			c0,0-2.6-1.2-8.7,1.8s-28.7,13.4-42.7,43.3S28.6,349.1,25.6,354C22.7,358.9,47.2,403.5,86.1,385z"/>
		
			<linearGradient id="SVGID_00000152248457743992292120000017947394237952139407_" gradientUnits="userSpaceOnUse" x1="1327.3787" y1="250.0778" x2="1469.7115" y2="340.0954" gradientTransform="matrix(-1 0 0 1 1528.4456 0)">
			<stop  offset="0" style="stop-color:#935848"/>
			<stop  offset="7.155611e-02" style="stop-color:#9C604E"/>
			<stop  offset="0.1613" style="stop-color:#A16552"/>
			<stop  offset="0.5099" style="stop-color:#8C4E40"/>
			<stop  offset="1" style="stop-color:#7C3C2F"/>
		</linearGradient>
		<path style="fill:url(#SVGID_00000152248457743992292120000017947394237952139407_);" d="M126,276.7c0,0,6.1-2.5,10.2-5
			s10.5-4.1,17.2-8c6.7-3.9,20.8-13.2,25-15.8s8.6,0.9,7.5,6.7c-1.2,5.8-5.7,8.3-5.7,8.3s3.9,1.8,3.5,8.2
			c-0.4,6.4-11.8,14.6-13.6,16.4c-1.8,1.8-13.7,11.6-13.7,11.6l-18.3-5.2L126,276.7z"/>
		
			<linearGradient id="SVGID_00000032612853896089216650000013532900872393219738_" gradientUnits="userSpaceOnUse" x1="1411.4889" y1="305.188" x2="1414.4116" y2="331.7111" gradientTransform="matrix(-1 0 0 1 1528.4456 0)">
			<stop  offset="0" style="stop-color:#4E3F3F"/>
			<stop  offset="0.1436" style="stop-color:#4E3F3F;stop-opacity:0.7"/>
			<stop  offset="0.7306" style="stop-color:#4E3F3F;stop-opacity:0.2"/>
			<stop  offset="1" style="stop-color:#4E3F3F;stop-opacity:0"/>
		</linearGradient>
		<path style="opacity:0.2;fill:url(#SVGID_00000032612853896089216650000013532900872393219738_);" d="M119.7,331
			c0,0-6.6-1.9-9.4-7c-1.4-3.1,0.4-8.3,0-10.6c-0.4-2.3-0.5-3.6,0.2-5.1c0.7-1.5,1.4-1.5,2.6-2.3c1.2-0.8,2.3-1.2,3.7-1
			c1.4,0.3,0.7,3-0.3,4.7c-0.9,1.8-3.1,4.9-1.2,5.8s4.5,1.2,5.8,2.5C122.4,319.2,121,328.4,119.7,331z"/>
		
			<linearGradient id="SVGID_00000124136869346414124230000001546885420098034099_" gradientUnits="userSpaceOnUse" x1="1374.8374" y1="247.6919" x2="1399.3877" y2="306.7294" gradientTransform="matrix(-1 0 0 1 1528.4456 0)">
			<stop  offset="0" style="stop-color:#935848"/>
			<stop  offset="7.155611e-02" style="stop-color:#9C604E"/>
			<stop  offset="0.1613" style="stop-color:#A16552"/>
			<stop  offset="0.2671" style="stop-color:#8C4E40"/>
			<stop  offset="0.3608" style="stop-color:#8C4E40"/>
			<stop  offset="1" style="stop-color:#7C3C2F"/>
		</linearGradient>
		<path style="fill:url(#SVGID_00000124136869346414124230000001546885420098034099_);" d="M127.9,277c0,0,7.8-2.7,11.4,0
			c3.7,2.7,5.7,9.1,5,14.1c-0.7,5-8.6,30.1-10,33.9s-2.4,10.4-6.4,10.8c-4.1,0.4-10.1-5.1-9.9-9.6c0.1-4.5,2.6-11.5,3.2-14.8
			c0.6-3.2-0.3-9.6,0.7-14.8C123,291.6,127.9,277,127.9,277z"/>
		
			<linearGradient id="SVGID_00000065035973327622715810000001967286477293933191_" gradientUnits="userSpaceOnUse" x1="1472.7277" y1="282.0138" x2="1333.025" y2="313.7733" gradientTransform="matrix(-1 0 0 1 1528.4456 0)">
			<stop  offset="0" style="stop-color:#935848"/>
			<stop  offset="7.155611e-02" style="stop-color:#9C604E"/>
			<stop  offset="0.1613" style="stop-color:#A16552"/>
			<stop  offset="0.2671" style="stop-color:#8C4E40"/>
			<stop  offset="0.5146" style="stop-color:#8C4E40"/>
			<stop  offset="1" style="stop-color:#7C3C2F"/>
		</linearGradient>
		<path style="fill:url(#SVGID_00000065035973327622715810000001967286477293933191_);" d="M120.7,297.7c0,0,4,0.1,5.9,0
			c1.9-0.1,4.5,5,7.5,7.4c2.9,2.3,3.9,5.3,5.3,9.2c1.3,3.9,2.2,10.2,8.2,9.6s7.7-1.5,6.9-5.8c-0.9-4.4-5.1-20-7-23.1
			s-8.3-9.6-12.1-13.4c-3.8-3.8-6.6-5-12.3-5s-14.1,0.1-14.1,0.1S116.2,293.7,120.7,297.7z"/>
		
			<linearGradient id="SVGID_00000060739512467036955000000015723121562312769974_" gradientUnits="userSpaceOnUse" x1="1363.7878" y1="261.5691" x2="1367.1368" y2="291.9607" gradientTransform="matrix(-1 0 0 1 1528.4456 0)">
			<stop  offset="0" style="stop-color:#4E3F3F"/>
			<stop  offset="0.1436" style="stop-color:#4E3F3F;stop-opacity:0.7"/>
			<stop  offset="0.7306" style="stop-color:#4E3F3F;stop-opacity:0.2"/>
			<stop  offset="1" style="stop-color:#4E3F3F;stop-opacity:0"/>
		</linearGradient>
		<path style="opacity:0.2;fill:url(#SVGID_00000060739512467036955000000015723121562312769974_);" d="M180.3,263
			c0,0-14.2,13.3-19.7,16.7s-15.5,8.5-15.5,8.5l1.5,0.6c0,0,11.6-6.2,18-10.9c6.4-4.7,16.6-14.3,16.6-14.3L180.3,263z"/>
	</g>
</g>
</svg>
