<svg width="206" height="202" viewBox="0 0 206 202" fill="none" xmlns="http://www.w3.org/2000/svg">
    <path d="M14.0139 82.5968C14.7962 130.338 64.9774 147.679 89.9702 150.382C215.477 161.733 226.235 13.1904 145.063 2.16324C63.8908 -8.86394 13.0359 22.9203 14.0139 82.5968Z" fill="#F1EADA"/>
    <path d="M77.0851 197.766C50.5935 197.397 37.4919 195.675 29.2107 187.639C20.9295 179.603 24.9671 177.225 35.3083 172.715C45.6083 168.205 62.6651 160.169 84.9543 159.718C107.243 159.267 129.121 162.178 132.211 162.629C135.301 163.08 153.181 167.918 156.23 180.259C159.279 192.641 110.828 198.258 77.0851 197.766Z" fill="#938982"/>
    <path d="M134.065 174.97C135.301 168.369 135.795 164.474 132.17 162.67C129.862 162.342 116.884 160.579 101.064 159.923C97.2321 159.8 93.4417 159.718 90.0221 159.677C88.3329 159.677 86.6025 159.677 84.9133 159.718C81.6585 159.882 71.9765 160.538 65.8377 163.859C58.1745 167.959 53.9721 176.241 48.2453 178.988C43.8781 181.12 32.1361 183.17 29.6641 188.09C37.9453 195.716 51.0881 197.397 77.0853 197.766C98.5917 198.053 126.072 195.921 142.346 191.083C144.159 186.532 132.746 182.063 134.065 174.97Z" fill="#C2A981"/>
    <path opacity="0.1" d="M75.3549 162.916C75.3549 162.916 65.4257 162.834 61.1409 167.959C56.8973 173.043 53.3129 174.847 55.0433 180.751C56.7325 186.655 74.8605 190.878 93.8537 187.762C112.847 184.646 118.697 186.204 126.072 179.562C133.447 172.92 130.728 168.246 127.844 166.688C124.96 165.13 116.884 163.408 107.614 163.9C98.3857 164.433 75.3549 162.916 75.3549 162.916Z" fill="black"/>
    <path d="M138.432 174.15C137.567 173.248 136.66 172.182 137.072 171.526C137.484 170.87 138.679 167.959 139.009 167.508C139.338 167.098 140.286 166.319 141.151 166.319C142.016 166.319 144.2 166.36 146.631 166.893C149.062 167.426 150.833 170.214 151.41 171.485C151.987 172.797 152.358 175.544 150.215 175.913C148.073 176.282 147.331 175.749 143.335 176.2C139.38 176.651 139.503 175.257 138.432 174.15Z" fill="#AFAFAF"/>
    <path opacity="0.3" d="M136.99 171.854C136.99 171.854 138.308 172.551 138.679 173.412C139.05 174.273 139.215 175.175 141.357 174.888C143.5 174.601 143.953 174.888 144.859 173.863C145.766 172.838 147.414 172.756 147.949 173.617C148.485 174.478 150.298 174.355 150.586 174.232C150.874 174.109 151.698 174.355 151.781 174.765C151.863 175.175 151.204 175.667 151.286 176.241C151.369 176.815 151.369 176.979 150.627 177.102C149.844 177.225 146.384 176.938 144.406 177.307C142.428 177.676 141.522 177.307 140.492 177.02C139.462 176.774 138.885 175.667 138.473 175.011C138.061 174.355 137.237 172.674 137.155 172.428C136.99 172.1 136.743 171.854 136.99 171.854Z" fill="black"/>
    <path d="M138.514 182.309C137.938 181.571 138.803 181.038 139.338 180.997C139.874 180.956 140.492 181.612 140.368 181.94C140.286 182.268 139.668 182.514 139.38 182.473C139.091 182.432 138.72 182.555 138.514 182.309Z" fill="#8C9DA5"/>
    <path opacity="0.3" d="M138.391 182.145C138.35 182.063 138.679 182.309 138.762 182.35C138.844 182.35 139.009 182.35 139.215 182.309C139.421 182.309 139.421 182.391 139.586 182.35C139.75 182.268 140.162 182.186 140.162 182.186C140.162 182.186 140.08 182.309 139.915 182.432C139.75 182.514 139.544 182.637 139.38 182.637C139.215 182.637 138.926 182.637 138.803 182.637C138.679 182.637 138.514 182.514 138.473 182.432C138.432 182.35 138.391 182.145 138.391 182.145Z" fill="black"/>
    <path opacity="0.3" d="M35.1024 173.166C35.1024 173.166 36.1324 172.92 36.9152 173.412C37.698 173.904 37.08 174.068 37.904 174.109C38.728 174.15 39.4284 173.904 40.3348 174.109C41.2412 174.314 42.1476 174.437 42.8068 174.314C43.466 174.191 44.084 174.56 44.6196 173.904C45.1552 173.248 45.5672 172.182 45.9792 171.813C46.35 171.485 47.174 170.993 47.6684 170.87C48.1628 170.747 49.852 169.64 50.1404 169.517C50.47 169.435 51.5412 168.779 51.5824 168.697C51.6648 168.615 51.4588 169.189 50.9232 169.558C50.3876 169.927 49.44 170.173 49.3164 170.296C49.1928 170.419 47.586 171.28 47.3388 171.608C47.0916 171.895 46.144 172.756 45.8556 173.125C45.5672 173.494 44.496 174.642 44.1664 174.765C43.8368 174.888 43.0952 174.806 42.5184 174.929C41.9416 175.052 41.0764 175.421 40.6644 175.626C40.2524 175.831 38.6868 175.667 38.11 175.831C37.5332 175.995 35.8852 175.954 35.6792 175.38C35.4732 174.806 34.8964 173.33 35.1024 173.166Z" fill="black"/>
    <path d="M48.3276 185.384C49.852 185.261 50.1816 184.646 53.56 185.261C56.8972 185.876 58.504 185.958 55.414 188.008C52.324 190.017 50.0992 191.083 48.8632 190.14C47.6272 189.197 44.2488 185.671 48.3276 185.384Z" fill="#B2956B"/>
    <path opacity="0.1" d="M47.1328 188.377C47.1328 188.377 48.1628 189.32 48.4924 189.607C48.822 189.853 49.0692 190.14 49.852 190.181C50.6348 190.222 52.0356 189.812 52.4888 189.566C52.9008 189.32 56.6912 187.106 56.6912 187.106C56.6912 187.106 55.7436 188.213 55.1668 188.664C54.59 189.115 52.324 190.427 51.6648 190.632C51.0056 190.837 50.3052 190.919 49.5224 190.796C48.7396 190.673 48.4512 190.263 48.3276 189.976C48.204 189.689 47.1328 188.377 47.1328 188.377Z" fill="black"/>
    <path d="M124.259 169.066C124.507 168.738 124.465 168.287 125.454 168.451C126.402 168.615 126.814 168.656 126.896 169.066C126.937 169.435 127.102 170.091 126.525 170.173C125.949 170.255 124.795 170.132 124.548 169.927C124.301 169.722 124.136 169.271 124.259 169.066Z" fill="#B2956B"/>
    <path d="M119.604 165.745C119.933 165.458 120.551 164.392 121.993 164.679C123.435 164.966 123.765 165.089 123.724 165.622C123.682 166.155 123.93 167.139 123.229 167.303C122.57 167.508 120.716 168.287 120.263 168.123C119.81 167.918 118.532 166.688 119.604 165.745Z" fill="#B2956B"/>
    <path opacity="0.1" d="M124.218 169.353C124.218 169.271 124.424 169.763 124.671 169.804C124.918 169.886 125.372 170.009 125.784 169.968C126.196 169.927 126.443 169.804 126.608 169.804C126.772 169.804 126.855 169.804 126.855 169.804C126.896 169.804 126.896 169.968 126.814 170.091C126.731 170.214 126.608 170.255 126.36 170.337C126.113 170.419 125.66 170.296 125.454 170.296C125.248 170.296 124.754 170.173 124.465 170.05C124.3 169.968 124.218 169.517 124.218 169.353Z" fill="black"/>
    <path opacity="0.1" d="M119.233 166.893C119.233 166.893 119.604 167.262 119.851 167.344C120.098 167.426 120.057 167.221 120.51 167.344C120.963 167.467 120.675 167.672 121.252 167.631C121.87 167.59 122.859 167.344 123.065 167.262C123.271 167.18 123.641 166.934 123.724 166.647C123.765 166.36 123.765 167.016 123.683 167.221C123.6 167.426 122.9 167.59 122.735 167.672C122.529 167.795 121.417 168.082 121.169 168.205C120.922 168.328 120.263 168.287 120.016 168.205C119.81 168.123 119.315 167.344 119.274 167.18C119.233 166.975 119.233 166.893 119.233 166.893Z" fill="black"/>
    <path d="M85.4489 76.3652L104.772 71.2812C104.772 71.2812 117.338 69.3542 119.233 74.0692C121.128 78.7842 133.365 142.498 132.953 147.336C132.541 152.174 124.795 153.65 121.993 154.47C119.192 155.331 109.18 154.47 109.18 154.47L76.8381 104.942L85.4489 76.3652Z" fill="#2E2826"/>
    <path d="M84.1306 61.3591L106.502 56.4391C106.502 56.4391 111.57 56.2341 112.641 60.1701C113.712 64.1471 114.248 68.0831 112.641 72.2651C111.034 76.4471 103.412 77.1851 103.412 77.1851L87.4678 81.0391L84.1718 79.6861L84.1306 61.3591Z" fill="#3D3532"/>
    <path d="M177.119 153.609C178.437 152.994 179.673 152.174 180.909 151.067C182.022 150.083 182.145 148.402 181.157 147.295C180.168 146.188 178.479 146.065 177.366 147.049C174.482 149.55 171.845 150.042 168.632 148.648C165.377 147.254 162.081 144.138 158.867 141.145C154.129 136.717 149.638 132.494 144.53 132.658C142.016 132.74 139.668 133.888 137.608 136.102C134.477 139.464 130.851 142.006 127.102 143.441C123.518 144.835 120.181 145.081 117.42 144.179C112.064 142.416 110.293 136.635 109.757 132.125C109.592 130.649 108.274 129.624 106.791 129.788C105.307 129.952 104.277 131.264 104.442 132.74C104.937 137.127 106.214 140.776 108.191 143.605C110.128 146.352 112.682 148.279 115.731 149.263C119.686 150.575 124.301 150.247 129.039 148.402C133.529 146.68 137.855 143.646 141.522 139.71C142.593 138.562 143.623 137.988 144.695 137.947C147.579 137.865 151.451 141.473 155.201 144.958C158.744 148.279 162.411 151.682 166.489 153.486C170.197 155.126 173.74 155.167 177.119 153.609Z" fill="#9F6552"/>
    <path d="M129.863 142.17C130.233 141.965 130.604 141.76 130.975 141.555C130.563 141.76 130.192 141.965 129.863 142.17Z" fill="#9F6552"/>
    <path d="M107.779 129.87C107.944 129.911 108.109 129.994 108.274 130.076C108.109 129.994 107.985 129.911 107.779 129.87Z" fill="#9F6552"/>
    <path d="M106.749 129.788C107.038 129.747 107.285 129.747 107.573 129.829C107.285 129.788 106.997 129.747 106.749 129.788C106.585 129.788 106.461 129.829 106.296 129.871C106.42 129.829 106.585 129.829 106.749 129.788Z" fill="#9F6552"/>
    <path d="M137.567 136.102C137.814 135.815 138.103 135.569 138.35 135.323C138.103 135.569 137.855 135.815 137.567 136.102C136.001 137.783 134.312 139.259 132.541 140.489C134.312 139.259 136.001 137.783 137.567 136.102Z" fill="#9F6552"/>
    <path d="M105.39 130.321C105.266 130.403 105.184 130.485 105.101 130.608C105.184 130.526 105.307 130.444 105.39 130.321Z" fill="#9F6552"/>
    <path d="M104.36 132.289C104.36 132.166 104.401 132.043 104.401 131.92V131.879C104.401 132.002 104.36 132.125 104.36 132.289Z" fill="#9F6552"/>
    <path d="M105.431 130.322C105.555 130.24 105.637 130.157 105.761 130.116C105.678 130.157 105.555 130.24 105.431 130.322Z" fill="#9F6552"/>
    <path d="M105.843 130.076C105.966 130.035 106.09 129.952 106.214 129.911C106.09 129.952 105.966 129.994 105.843 130.076Z" fill="#9F6552"/>
    <path d="M172.587 149.386C172.422 149.386 172.216 149.427 172.051 149.427C172.257 149.427 172.422 149.427 172.587 149.386Z" fill="#9F6552"/>
    <path d="M104.566 131.387C104.525 131.51 104.483 131.633 104.442 131.797V131.756C104.483 131.674 104.483 131.551 104.525 131.469C104.566 131.469 104.566 131.428 104.566 131.387Z" fill="#9F6552"/>
    <path d="M172.587 149.386C173.123 149.345 173.658 149.222 174.194 149.017C173.658 149.222 173.123 149.345 172.587 149.386Z" fill="#9F6552"/>
    <path d="M158.909 141.145C158.867 141.145 158.867 141.145 158.909 141.145C158.291 140.571 157.673 139.997 157.096 139.464C157.673 139.997 158.249 140.571 158.909 141.145C158.867 141.145 158.867 141.145 158.909 141.145Z" fill="#9F6552"/>
    <path d="M160.021 142.211C160.227 142.416 160.433 142.621 160.68 142.826C160.474 142.621 160.227 142.416 160.021 142.211Z" fill="#9F6552"/>
    <path d="M151.369 134.872C151.822 135.159 152.234 135.446 152.687 135.774C152.275 135.446 151.822 135.159 151.369 134.872Z" fill="#9F6552"/>
    <path d="M148.691 133.437C147.496 132.945 146.26 132.658 144.983 132.617C146.26 132.658 147.496 132.945 148.691 133.437Z" fill="#9F6552"/>
    <path d="M148.691 133.437C149.433 133.724 150.174 134.134 150.916 134.585C150.174 134.134 149.433 133.765 148.691 133.437Z" fill="#9F6552"/>
    <path d="M153.594 136.43C154.047 136.758 154.459 137.127 154.912 137.496C154.459 137.168 154.006 136.799 153.594 136.43Z" fill="#9F6552"/>
    <path d="M181.816 149.468C181.816 149.509 181.775 149.591 181.775 149.632C181.775 149.673 181.775 149.714 181.733 149.755C181.775 149.632 181.775 149.55 181.816 149.468Z" fill="#9F6552"/>
    <path d="M104.813 130.977C104.895 130.854 104.978 130.731 105.06 130.649C104.978 130.731 104.895 130.854 104.813 130.977Z" fill="#9F6552"/>
    <path opacity="0.35" d="M181.651 150.042C181.692 149.96 181.733 149.837 181.733 149.755C181.733 149.714 181.733 149.673 181.774 149.632C181.774 149.55 181.816 149.509 181.816 149.427C181.816 149.386 181.816 149.304 181.816 149.263C181.816 149.222 181.816 149.14 181.816 149.099C181.816 149.058 181.816 148.976 181.816 148.935C181.816 148.894 181.816 148.812 181.816 148.771C181.816 148.689 181.816 148.648 181.774 148.566C181.774 148.525 181.774 148.484 181.733 148.443C181.733 148.361 181.692 148.32 181.692 148.238C181.692 148.197 181.651 148.156 181.651 148.115C181.61 148.033 181.61 147.992 181.568 147.91C181.568 147.869 181.527 147.828 181.527 147.787C181.486 147.705 181.445 147.664 181.404 147.582C181.321 147.705 181.198 147.787 181.115 147.91C179.879 148.976 178.602 149.837 177.325 150.452C173.946 152.01 170.403 152.01 166.695 150.411C162.616 148.648 158.95 145.204 155.406 141.883C151.657 138.398 147.784 135.405 144.9 135.528C143.829 135.569 142.799 136.143 141.728 137.291C138.061 141.227 133.735 144.22 129.244 145.983C124.506 147.828 119.892 148.115 115.937 146.844C112.847 145.819 110.292 143.933 108.397 141.186C106.667 138.685 105.472 134.913 104.895 131.182C104.854 131.264 104.772 131.346 104.73 131.469C104.73 131.51 104.689 131.551 104.689 131.592C104.648 131.674 104.607 131.797 104.607 131.879C104.607 131.92 104.566 131.961 104.566 132.002C104.524 132.125 104.524 132.248 104.524 132.371C104.524 132.535 104.524 132.699 104.524 132.863C105.019 137.25 106.296 140.899 108.274 143.728C110.21 146.475 112.764 148.402 115.813 149.386C119.768 150.698 124.383 150.37 129.121 148.525C133.612 146.803 137.938 143.769 141.604 139.833C142.676 138.685 143.706 138.111 144.777 138.07C147.661 137.988 151.534 141.596 155.283 145.081C158.826 148.402 162.493 151.805 166.572 153.609C170.28 155.208 173.823 155.249 177.201 153.65C178.52 153.035 179.756 152.215 180.992 151.108C181.239 150.78 181.486 150.411 181.651 150.042Z" fill="#4E3F3F"/>
    <path d="M181.651 150.042C181.692 149.96 181.733 149.878 181.733 149.755C181.692 149.878 181.651 149.96 181.651 150.042Z" fill="#9F6552"/>
    <path d="M181.404 147.664C181.445 147.705 181.445 147.746 181.486 147.788C181.486 147.829 181.527 147.829 181.527 147.87C181.486 147.788 181.445 147.705 181.404 147.664Z" fill="#9F6552"/>
    <path d="M181.362 147.582C181.321 147.5 181.239 147.377 181.156 147.295C180.909 147.008 180.621 146.803 180.291 146.639C180.621 146.803 180.909 147.008 181.156 147.295C181.239 147.377 181.321 147.459 181.362 147.582Z" fill="#9F6552"/>
    <path d="M181.569 147.951C181.569 147.992 181.61 148.033 181.61 148.074C181.61 148.115 181.651 148.115 181.651 148.156C181.651 148.074 181.61 148.033 181.569 147.951Z" fill="#9F6552"/>
    <path d="M104.607 131.346C104.648 131.264 104.689 131.141 104.731 131.059C104.731 131.018 104.772 130.977 104.772 130.936C104.731 131.1 104.648 131.223 104.607 131.346Z" fill="#9F6552"/>
    <path d="M181.527 147.869C181.569 147.869 181.569 147.911 181.527 147.869C181.569 147.911 181.569 147.869 181.527 147.869Z" fill="#9F6552"/>
    <path d="M181.651 148.156V148.197C181.651 148.197 181.651 148.237 181.692 148.237C181.692 148.237 181.692 148.197 181.651 148.156Z" fill="#9F6552"/>
    <path d="M181.775 148.607C181.775 148.525 181.733 148.443 181.733 148.361C181.733 148.402 181.733 148.402 181.733 148.443C181.733 148.484 181.775 148.525 181.775 148.566C181.775 148.566 181.775 148.566 181.775 148.607Z" fill="#9F6552"/>
    <path d="M60.4818 86L58.6278 86.082L55.785 91.904L55.6614 126.303L43.7134 150.042L52.2006 158.488L69.6694 139.997L73.9542 124.663L71.1938 123.31L60.4818 86Z" fill="#27C278"/>
    <path d="M73.954 124.663L70.3284 119.374L68.3508 115.192L69.1748 122.162L68.2684 135.241L68.3096 137.045L66.332 136.266L65.302 137.496L65.8376 139.382L51.1704 157.463L52.2004 158.488L69.6692 139.997L73.954 124.663Z" fill="#2B8F5F"/>
    <path d="M62.7064 100.227L55.7437 99.6531V105.803H66.2084L62.7064 100.227Z" fill="white"/>
    <path d="M86.9322 79.1121L65.0962 88.5011L65.4258 97.8901L74.2426 100.76L85.0782 90.4691C85.0782 90.4691 87.4266 81.6541 87.4678 81.4901C87.509 81.2851 86.9322 79.1121 86.9322 79.1121Z" fill="url(#paint0_radial_6_2658)"/>
    <path d="M67.3621 96.8651C67.6093 96.3321 67.9801 95.9221 68.4745 95.5941C69.9165 94.6511 73.2949 92.7651 76.5909 92.7651C80.9993 92.7651 86.3553 93.5441 88.5801 95.8401C90.3105 97.6441 84.3365 101.949 81.6173 103.753C80.8345 104.286 79.8457 104.409 78.9393 104.163L69.2985 101.334C67.4445 100.719 66.4969 98.6281 67.3621 96.8651Z" fill="url(#paint1_linear_6_2658)"/>
    <path d="M86.932 79.1121C86.932 79.1121 84.048 90.8381 74.778 97.2341C64.5604 102.81 65.4256 87.6401 65.4256 87.6401L59.9048 86.2051L64.3132 109.37L66.5792 111.42L75.7256 135.036L96.0784 132.945L98.468 103.425L105.266 82.5151L86.932 79.1121Z" fill="#27C278"/>
    <path d="M113.382 173.494C113.382 173.494 125.495 165.622 126.154 164.597C126.814 163.572 127.596 161.071 127.02 158.57C126.443 156.069 124.3 152.994 123.023 152.461C121.705 151.887 118.285 152.461 118.285 152.461L111.281 165.581L113.382 173.494Z" fill="url(#paint2_linear_6_2658)"/>
    <path d="M107.985 178.086L109.098 177.225C109.098 177.225 109.51 177.594 109.922 177.676C110.334 177.758 111.323 176.774 111.281 176.364C111.24 175.954 111.364 175.175 111.652 175.626C111.941 176.077 113.383 175.175 113.383 174.355C113.383 173.535 113.012 162.014 113.012 162.014L107.985 178.086Z" fill="#231E1C"/>
    <path d="M75.3962 136.266L69.2986 153.732L64.8078 166.606L63.0774 171.28L68.1862 177.799L76.4262 178.414L87.3854 175.79L90.4754 179.398L101.311 180.792L107.944 178.086C107.944 178.086 109.469 174.437 109.798 172.264C110.128 170.091 117.585 156.356 117.585 156.356C117.585 156.356 121.128 146.639 121.458 142.457C121.787 138.275 122.076 134.38 121.952 132.33C121.911 130.28 75.3962 136.266 75.3962 136.266Z" fill="#2E2826"/>
    <path d="M74.325 139.136L75.7258 134.995L122.611 130.239L121.911 136.43L74.325 139.136Z" fill="#3D3532"/>
    <path d="M124.713 165.786C124.713 165.786 126.196 159.964 125.083 157.34C123.971 154.716 120.84 152.625 120.675 152.174C120.469 151.723 120.469 151.682 121.664 151.436C122.817 151.19 123.93 151.846 126.979 152.42C130.027 152.994 130.851 155.454 130.934 156.602C131.016 157.75 130.275 164.269 128.668 169.23C127.02 174.191 127.267 176.036 126.567 177.02C125.866 178.004 123.023 179.726 120.84 179.726C118.656 179.726 115.443 178.66 114.825 175.831C114.207 173.002 114.207 173.002 114.207 173.002L124.713 165.786Z" fill="#3D3532"/>
    <path d="M96.0786 132.904L105.472 125.77L112.641 89.854L109.304 126.344L107.491 126.672L108.603 128.476L106.502 131.879L96.0786 132.904Z" fill="#2B8F5F"/>
    <path d="M113.094 87.5991L122.611 130.239L106.502 131.879L108.603 128.476L107.491 126.672L109.304 126.344L112.641 89.8541L113.094 87.5991Z" fill="#2B8F5F"/>
    <path d="M111.858 98.6281L115.401 97.8901L116.596 103.22L111.323 104.491L111.858 98.6281Z" fill="#BEBEBF"/>
    <path d="M111.858 98.6282L110.828 98.8332L110.045 102.892L111.487 102.564L111.858 98.6282Z" fill="#828282"/>
    <path d="M69.7106 119.538L64.5606 105.352L63.8602 100.76L63.201 84.0321C63.201 84.0321 59.7814 83.9911 58.6278 85.2211C57.4742 86.4511 57.7214 95.7171 59.6166 102.277C61.5118 108.796 67.8978 117.775 67.8978 117.775L69.7106 119.538Z" fill="#2E2826"/>
    <path d="M90.3928 99.9399L64.3132 103.712L64.5604 105.311L66.2496 109.944L91.1344 106.91L90.3928 99.9399Z" fill="white"/>
    <path d="M51.7885 63.4499C51.7061 64.8439 51.7885 66.2379 52.0357 67.5909C52.0357 67.6729 52.0769 67.7959 52.0769 67.8779C52.4477 69.5179 52.5713 71.1989 52.5301 72.9209C51.7061 72.7979 50.7997 72.4289 49.8521 71.6089C47.3801 69.5179 47.2153 65.3769 49.4813 63.9419C50.3465 63.4089 51.1293 63.3269 51.7885 63.4499Z" fill="#A16552"/>
    <path d="M51.7885 63.4499C51.7061 64.8439 51.7885 66.2379 52.0357 67.5909C52.0357 67.6729 52.0769 67.7959 52.0769 67.8779C52.4477 69.5179 52.5713 71.1989 52.5301 72.9209C51.7061 72.7979 50.7997 72.4289 49.8521 71.6089C47.3801 69.5179 47.2153 65.3769 49.4813 63.9419C50.3465 63.4089 51.1293 63.3269 51.7885 63.4499Z" fill="#F5DCB4"/>
    <path d="M89.8161 63.614C89.2393 64.721 88.5801 65.418 87.8797 65.828C87.1793 64.311 86.6437 62.671 86.3141 61.031C86.3141 60.949 86.2729 60.826 86.2729 60.744C85.9845 59.391 85.5313 58.038 84.8721 56.808C85.4489 56.439 86.1905 56.234 87.1793 56.398C89.8161 56.849 91.2993 60.744 89.8161 63.614Z" fill="#A16552"/>
    <path d="M89.8161 63.614C89.2393 64.721 88.5801 65.418 87.8797 65.828C87.1793 64.311 86.6437 62.671 86.3141 61.031C86.3141 60.949 86.2729 60.826 86.2729 60.744C85.9845 59.391 85.5313 58.038 84.8721 56.808C85.4489 56.439 86.1905 56.234 87.1793 56.398C89.8161 56.849 91.2993 60.744 89.8161 63.614Z" fill="#F5DCB4"/>
    <path d="M82.565 66.9761C82.0706 68.2471 82.153 69.6821 82.8534 70.8301C83.389 71.7321 83.8834 72.7571 84.0482 73.5361C85.243 79.3991 80.5874 85.2621 73.707 86.6561C66.8266 88.0501 60.2758 84.4011 59.081 78.5381C58.9162 77.7181 58.9986 76.6111 59.1222 75.5861C59.287 74.2331 58.8338 72.8801 57.8862 71.8961C57.639 71.6501 57.433 71.4041 57.2682 71.1581C56.6914 70.3381 56.2794 69.4361 56.0734 68.4521C55.2906 64.5571 57.9686 60.7441 62.0886 59.9241C63.407 59.6371 64.8078 59.7191 66.085 60.1291C67.6094 60.6211 69.2574 60.2931 70.4522 59.2681C71.4822 58.4071 72.7182 57.7921 74.0366 57.5461C78.1566 56.7261 82.1118 59.2271 82.8946 63.1221C83.1006 64.1061 83.0594 65.0901 82.8534 66.0741C82.771 66.3611 82.6886 66.6481 82.565 66.9761Z" fill="#A16552"/>
    <path d="M82.565 66.9761C82.0706 68.2471 82.153 69.6821 82.8534 70.8301C83.389 71.7321 83.8834 72.7571 84.0482 73.5361C85.243 79.3991 80.5874 85.2621 73.707 86.6561C66.8266 88.0501 60.2758 84.4011 59.081 78.5381C58.9162 77.7181 58.9986 76.6111 59.1222 75.5861C59.287 74.2331 58.8338 72.8801 57.8862 71.8961C57.639 71.6501 57.433 71.4041 57.2682 71.1581C56.6914 70.3381 56.2794 69.4361 56.0734 68.4521C55.2906 64.5571 57.9686 60.7441 62.0886 59.9241C63.407 59.6371 64.8078 59.7191 66.085 60.1291C67.6094 60.6211 69.2574 60.2931 70.4522 59.2681C71.4822 58.4071 72.7182 57.7921 74.0366 57.5461C78.1566 56.7261 82.1118 59.2271 82.8946 63.1221C83.1006 64.1061 83.0594 65.0901 82.8534 66.0741C82.771 66.3611 82.6886 66.6481 82.565 66.9761Z" fill="url(#paint3_linear_6_2658)"/>
    <path d="M65.4669 78.6201C65.0549 78.7021 64.8077 79.0711 64.8901 79.4811C64.8901 79.5221 64.8901 79.5631 64.9313 79.5631C66.0025 82.6381 69.5045 84.4421 73.1301 83.7451C76.7557 83.0481 79.2689 79.9731 79.0629 76.7751C79.0217 76.3651 78.6921 76.0781 78.2801 76.1191C78.2389 76.1191 78.1977 76.1191 78.1977 76.1191L65.4669 78.6201Z" fill="#4E3F3F"/>
    <path d="M68.7629 83.3761C71.6057 84.4421 74.7781 83.7861 76.9617 81.7361C76.0965 80.0551 74.5309 80.7931 72.5945 81.2031C70.6581 81.5721 68.9277 81.4901 68.7629 83.3761Z" fill="#E6646E"/>
    <path d="M87.7563 54.9221C86.1495 54.6351 85.0371 55.1681 84.3367 55.8241C84.0071 55.2911 83.6775 54.7581 83.3067 54.2251C83.0183 53.8561 82.7299 53.4871 82.4415 53.1181C79.3515 49.4691 74.8607 46.8041 70.2051 46.2301L69.6283 43.8931L67.1563 46.1481C67.0327 46.1481 66.9091 46.1481 66.8267 46.1891C66.6207 46.2301 66.4147 46.2301 66.2087 46.2711L65.4259 44.5901L65.2199 44.0981C65.0963 44.1391 64.9315 44.1391 64.8079 44.1801C62.2123 44.9181 61.3883 47.5421 61.2647 47.9931C57.1859 50.2891 54.0959 54.4711 52.6539 59.0631C52.5303 59.5141 52.4067 59.9651 52.2831 60.4161C52.1183 61.0311 52.0359 61.6461 51.9535 62.3021C51.9123 62.3021 51.8711 62.2611 51.8299 62.2611C50.9235 61.9741 49.7287 61.9741 48.4515 62.7941C45.5675 64.5981 45.7735 69.8871 48.9459 72.5521C50.2231 73.6181 51.4591 74.1101 52.5715 74.2331C52.5715 74.2741 52.5715 74.3561 52.5715 74.3971C52.5715 75.2991 52.6539 76.1601 52.8187 77.0621C54.0547 83.1301 59.5755 87.4351 66.4971 88.4601C68.1039 88.7061 69.7519 88.7471 71.3999 88.6241C72.2651 88.5421 73.0891 88.4601 73.9131 88.2961C73.9955 88.2961 74.0367 88.2551 74.1191 88.2551C84.2131 86.2461 91.0523 77.9641 89.4043 69.8051C89.2395 68.9441 88.9511 68.0831 88.5803 67.2631C88.5391 67.2221 88.5391 67.1401 88.4979 67.0991C89.4867 66.5661 90.3931 65.6641 91.1759 64.1471C92.9887 60.4161 91.0935 55.4961 87.7563 54.9221ZM51.7887 63.4501C51.7063 64.8441 51.7887 66.2381 52.0359 67.5911C52.0359 67.6731 52.0771 67.7961 52.0771 67.8781C52.4479 69.5181 52.5715 71.1991 52.5303 72.9211C51.7063 72.7981 50.7999 72.4291 49.8523 71.6091C47.3803 69.5181 47.2155 65.3771 49.4815 63.9421C50.3467 63.4091 51.1295 63.3271 51.7887 63.4501ZM82.8535 66.0331C82.7711 66.3611 82.6887 66.6481 82.5651 66.9761C82.0707 68.2471 82.1531 69.6821 82.8535 70.8301C83.3891 71.7321 83.8835 72.7571 84.0483 73.5361C85.2431 79.3991 80.5875 85.2621 73.7071 86.6561C66.8267 88.0501 60.2759 84.4011 59.0811 78.5381C58.9163 77.7181 58.9987 76.6111 59.1223 75.5861C59.2871 74.2331 58.8339 72.8801 57.8863 71.8961C57.6391 71.6501 57.4331 71.4041 57.2683 71.1581C56.6915 70.3381 56.2795 69.4361 56.0735 68.4521C55.2907 64.5571 57.9687 60.7441 62.0887 59.9241C63.4071 59.6371 64.8079 59.7191 66.0851 60.1291C67.6095 60.6211 69.2575 60.2931 70.4523 59.2681C71.4823 58.4071 72.7183 57.7921 74.0367 57.5461C78.1567 56.7261 82.1119 59.2271 82.8947 63.1221C83.1007 64.0651 83.1007 65.0491 82.8535 66.0331ZM89.8163 63.6141C89.2395 64.7211 88.5803 65.4181 87.8799 65.8281C87.1795 64.3111 86.6439 62.6711 86.3143 61.0311C86.3143 60.9491 86.2731 60.8261 86.2731 60.7441C85.9847 59.3911 85.5315 58.0381 84.8723 56.8081C85.4491 56.4391 86.1907 56.2341 87.1795 56.3981C89.8163 56.8491 91.2995 60.7441 89.8163 63.6141Z" fill="url(#paint4_linear_6_2658)"/>
    <path d="M67.6505 72.6751C67.7329 72.3471 68.0625 72.1421 68.3921 72.2241L69.9165 72.5931C70.2461 72.6751 70.4521 73.0031 70.3697 73.3311C70.2873 73.6591 69.9577 73.8641 69.6281 73.7821L68.1037 73.4131C67.7741 73.3311 67.5681 73.0031 67.6505 72.6751Z" fill="#4E3F3F"/>
    <path d="M71.6058 73.044C71.3998 72.757 71.4822 72.388 71.7294 72.183L73.0066 71.281C73.295 71.076 73.6658 71.158 73.8718 71.404C74.0778 71.691 73.9954 72.06 73.7482 72.265L72.471 73.167C72.1826 73.413 71.8118 73.331 71.6058 73.044Z" fill="#4E3F3F"/>
    <path d="M63.6129 69.8872C62.4181 70.1332 61.3057 69.3952 61.0585 68.2882L60.9349 67.6322C60.7289 66.5252 61.4705 65.4182 62.6653 65.1722C63.8601 64.9262 64.9725 65.6642 65.2197 66.7712L65.3433 67.4272C65.5905 68.5342 64.8077 69.6412 63.6129 69.8872Z" fill="#4E3F3F"/>
    <path d="M62.6653 65.1719L63.1597 67.5089C63.2833 68.0829 63.8601 68.4109 64.4369 68.2879C65.0137 68.1649 65.4257 67.6319 65.3021 67.0579L65.2197 66.7299C65.0137 65.6229 63.8601 64.9259 62.6653 65.1719Z" fill="#5D5360"/>
    <path d="M63.0926 67.2101C63.4942 67.1298 63.7579 66.7587 63.6817 66.3813C63.6055 66.0039 63.2182 65.7631 62.8167 65.8434C62.4151 65.9237 62.1514 66.2947 62.2276 66.6721C62.3038 67.0495 62.6911 67.2904 63.0926 67.2101Z" fill="white"/>
    <path d="M76.3438 67.509C75.149 67.755 74.0366 67.017 73.7894 65.91L73.6658 65.254C73.4598 64.147 74.2014 63.04 75.3962 62.794C76.591 62.548 77.7034 63.286 77.9506 64.393L78.0742 65.049C78.2802 66.197 77.5386 67.304 76.3438 67.509Z" fill="#4E3F3F"/>
    <path d="M75.3962 62.835L75.8906 65.172C76.0142 65.746 76.591 66.074 77.1678 65.951C77.7446 65.828 78.1566 65.295 78.033 64.721L77.9506 64.393C77.7034 63.286 76.591 62.589 75.3962 62.835Z" fill="#5D5360"/>
    <path d="M75.7765 64.8377C76.178 64.7574 76.4417 64.3864 76.3655 64.009C76.2893 63.6316 75.9021 63.3908 75.5005 63.4711C75.099 63.5514 74.8352 63.9224 74.9114 64.2998C74.9876 64.6772 75.3749 64.918 75.7765 64.8377Z" fill="white"/>
    <path opacity="0.35" d="M65.3846 44.5901C64.8902 44.6311 63.9838 45.6151 62.995 47.1321C62.7478 47.5011 62.5006 47.9521 62.2534 48.4031C60.3582 51.7651 58.4218 56.8491 58.4218 61.6871C58.3394 69.8051 59.5342 78.9891 63.407 83.4171C66.703 87.1891 71.2762 88.5831 71.2762 88.5831C69.6282 88.7061 68.0214 88.6651 66.3734 88.4191C59.493 87.3941 53.931 83.0891 52.695 77.0621C52.5302 76.2011 52.4478 75.2991 52.4478 74.3971C52.4478 74.3561 52.4478 74.2741 52.4478 74.2331C51.3354 74.1101 50.1406 73.6181 48.8222 72.5521C45.6498 69.8871 45.485 64.6391 48.3278 62.7941C49.6462 61.9741 50.7998 61.9741 51.7062 62.2611C51.7474 62.2611 51.7886 62.3021 51.8298 62.3021C51.9122 61.6871 52.0358 61.0311 52.1594 60.4161C52.283 59.9651 52.4066 59.5141 52.5302 59.0631C53.9722 54.5121 57.0622 50.3301 61.141 47.9931C61.2646 47.5421 62.0886 44.9181 64.6842 44.1801C64.8078 44.1391 64.9726 44.0981 65.0962 44.0981L65.3846 44.5901Z" fill="#4E3F3F"/>
    <path d="M87.4264 175.79L86.4376 170.829L95.4192 147.828L91.1344 146.065L87.4264 149.591L88.0444 157.627L82.5236 170.829L81.6172 177.184L87.4264 175.79Z" fill="#231E1C"/>
    <path d="M66.7029 175.872L68.1861 177.799L76.4673 178.414L81.6173 177.184L82.2765 172.633L74.4897 173.33L69.4221 170.419L66.7029 175.872Z" fill="#231E1C"/>
    <path d="M73.9954 153.404C73.9954 153.404 72.5946 154.552 71.029 154.962C69.4634 155.372 68.3922 155.167 67.8978 155.536C67.4446 155.905 69.7106 157.422 69.7106 157.422C69.7106 157.422 73.6246 155.044 73.8718 154.388C74.119 153.732 73.9954 153.404 73.9954 153.404Z" fill="url(#paint5_linear_6_2658)"/>
    <path d="M48.6162 173.002C55.3286 173.002 60.7702 167.587 60.7702 160.907C60.7702 154.227 55.3286 148.812 48.6162 148.812C41.9037 148.812 36.4622 154.227 36.4622 160.907C36.4622 167.587 41.9037 173.002 48.6162 173.002Z" fill="#FCDD96"/>
    <path d="M48.6162 172.182C54.8508 172.182 59.905 167.152 59.905 160.948C59.905 154.744 54.8508 149.714 48.6162 149.714C42.3816 149.714 37.3274 154.744 37.3274 160.948C37.3274 167.152 42.3816 172.182 48.6162 172.182Z" fill="#FAF4E6"/>
    <path d="M48.2867 162.588C48.2867 162.588 47.9983 161.358 46.0619 160.456C43.2603 159.185 42.8483 158.857 44.8259 158.611C46.8035 158.365 48.5751 159.513 48.5751 159.513" fill="#FFCA28"/>
    <path d="M45.3615 167.098L45.0731 166.319L43.5487 166.893C43.3839 166.934 43.3015 167.139 43.3839 167.262L43.4663 167.467C43.5075 167.631 43.7135 167.713 43.8371 167.631L45.3615 167.098Z" fill="#AC752C"/>
    <path d="M45.3614 167.098L45.2378 166.729L43.425 167.385L43.4662 167.467C43.5074 167.631 43.7134 167.713 43.837 167.631L45.3614 167.098Z" fill="#7D551F"/>
    <path d="M51.418 162.465C51.0472 162.26 50.6763 162.096 50.2643 162.014C49.8935 161.891 49.4815 161.85 49.0695 161.768C48.7399 161.727 48.4103 161.604 48.0395 161.645C48.0395 161.686 48.0395 161.686 47.9983 161.727C47.9983 161.768 47.9984 161.768 47.9572 161.809C47.9572 161.85 47.9159 161.932 47.8747 161.973C47.8747 161.973 47.8747 161.973 47.8747 162.014C47.8747 162.055 47.8747 162.055 47.8335 162.096C47.8335 162.137 47.7923 162.137 47.7923 162.178C47.7511 162.219 47.7512 162.301 47.71 162.342C47.6276 162.506 47.5451 162.67 47.4627 162.834C47.4627 162.875 47.4215 162.875 47.4215 162.916C47.3803 162.957 47.3804 162.998 47.3392 163.039C47.3392 163.08 47.298 163.121 47.298 163.121C47.298 163.162 47.2567 163.203 47.2567 163.203C47.2155 163.244 47.2155 163.285 47.1743 163.326C47.1743 163.326 47.1744 163.367 47.1332 163.367L47.092 163.408L47.0507 163.449C47.0095 163.49 47.0095 163.531 46.9683 163.572C46.9271 163.654 46.8859 163.695 46.8447 163.777C46.8035 163.818 46.7624 163.859 46.7212 163.941C46.7212 163.941 46.7212 163.941 46.68 163.982C46.6388 164.023 46.5975 164.064 46.5975 164.105C46.5563 164.187 46.4739 164.228 46.4327 164.31C46.3091 164.433 46.1856 164.556 46.062 164.679C45.856 164.884 45.6087 165.13 45.3615 165.294C45.2379 165.376 45.1556 165.458 45.032 165.54C44.9908 165.581 44.9083 165.622 44.8671 165.663C44.8259 165.704 44.7847 165.745 44.7023 165.745C44.6199 165.786 44.5787 165.827 44.4963 165.868C44.4963 165.868 44.4963 165.868 44.4551 165.909C44.4551 165.909 44.4552 165.909 44.414 165.95C44.2904 166.114 44.1667 166.319 44.1667 166.524C44.1667 166.647 44.1667 166.811 44.2491 166.934C44.2903 167.016 44.3315 167.098 44.3727 167.139C44.4139 167.18 44.4551 167.221 44.4963 167.262C44.6199 167.385 44.826 167.467 45.032 167.508C45.444 167.59 45.9383 167.467 46.2267 167.385C48.6987 166.647 50.6351 164.761 51.5415 162.383C51.5415 162.506 51.5004 162.465 51.418 162.465Z" fill="#FFB300"/>
    <path d="M49.1108 161.768C48.7812 161.727 48.4516 161.604 48.0808 161.645C48.0808 161.686 48.0808 161.686 48.0396 161.727C47.9984 161.768 48.0396 161.768 47.9984 161.809C47.9572 161.85 47.9984 161.85 47.9572 161.891C47.9572 161.932 47.916 161.973 47.916 161.973C47.916 161.973 47.916 161.973 47.916 162.014C47.916 162.055 47.916 162.055 47.8748 162.096C47.8748 162.137 47.8336 162.137 47.8336 162.178C47.8336 162.219 47.7924 162.219 47.7924 162.26C47.7924 162.301 47.7512 162.342 47.7512 162.342C47.71 162.383 47.71 162.465 47.6688 162.506C47.6688 162.506 47.6688 162.506 47.6688 162.547C47.6688 162.588 47.6276 162.588 47.6276 162.629C47.5864 162.67 47.5864 162.752 47.5452 162.793C47.5452 162.834 47.504 162.834 47.504 162.875C47.504 162.916 47.4628 162.916 47.4628 162.957C47.4216 162.998 47.4216 163.039 47.3804 163.08C47.3804 163.121 47.3392 163.162 47.3392 163.162L47.298 163.244C47.2568 163.285 47.2568 163.326 47.2156 163.367C47.2156 163.367 47.2156 163.408 47.1744 163.408L47.1332 163.449L47.092 163.49C47.0508 163.531 47.0508 163.572 47.0096 163.613C46.9684 163.654 46.9684 163.695 46.9272 163.736C46.9272 163.777 46.886 163.777 46.886 163.818C46.8448 163.859 46.8036 163.9 46.7624 163.982C46.7624 163.982 46.7624 163.982 46.7212 164.023C46.68 164.064 46.6388 164.105 46.6388 164.146C46.5976 164.187 46.5976 164.187 46.5564 164.228C46.5152 164.269 46.5152 164.31 46.474 164.31C46.4328 164.351 46.3916 164.392 46.3504 164.433L46.268 164.515C46.2268 164.556 46.1444 164.638 46.1032 164.679C46.062 164.72 46.0208 164.761 45.9796 164.802C45.9384 164.843 45.856 164.925 45.8148 164.966C45.7736 165.007 45.7324 165.048 45.6912 165.089C45.65 165.13 45.5676 165.212 45.5264 165.253C45.4852 165.294 45.444 165.335 45.4028 165.335C45.3204 165.376 45.2792 165.458 45.1968 165.499L45.1144 165.54C45.1144 165.54 45.0732 165.54 45.0732 165.581C45.032 165.622 44.9496 165.663 44.9084 165.704C44.8672 165.745 44.826 165.786 44.7436 165.786C44.6612 165.827 44.62 165.868 44.5376 165.909C44.5376 165.909 44.5376 165.909 44.4964 165.95C44.4964 165.95 44.4964 165.95 44.4552 165.991C44.3316 166.155 44.208 166.36 44.208 166.565C44.208 166.688 44.208 166.852 44.2904 166.975C44.3316 167.057 44.3728 167.139 44.414 167.18C45.1556 166.975 45.8148 166.688 46.474 166.278C46.5564 166.237 46.6388 166.155 46.7212 166.114C48.2044 165.13 49.358 163.695 49.9348 162.014C49.9348 161.973 49.976 161.891 49.976 161.85C49.7288 161.85 49.4404 161.809 49.1108 161.768Z" fill="#FFD54F"/>
    <path d="M51.7062 162.178L50.017 162.096L47.9982 161.973C47.9982 161.973 47.9982 161.973 47.9982 161.932C47.9982 161.891 48.0394 161.85 48.0394 161.85C48.0394 161.809 48.0394 161.809 48.0806 161.768C48.1218 161.727 48.0806 161.727 48.1218 161.686C48.163 161.604 48.163 161.563 48.2042 161.481C48.2042 161.44 48.2454 161.399 48.2454 161.358C48.2866 161.276 48.2866 161.194 48.3278 161.112C48.3278 161.071 48.3278 161.071 48.369 161.03C48.369 161.03 48.369 161.03 48.369 160.989C48.369 160.948 48.4102 160.866 48.4102 160.825C48.4102 160.784 48.4514 160.702 48.4514 160.661C48.4514 160.579 48.4926 160.538 48.4926 160.456C48.4926 160.415 48.4926 160.333 48.5338 160.292C48.5338 160.251 48.5338 160.169 48.575 160.128V160.087C48.575 160.046 48.575 160.005 48.575 159.964C48.575 159.923 48.575 159.841 48.575 159.8V159.759V159.718C48.575 159.677 48.575 159.636 48.575 159.595C48.575 159.554 48.575 159.513 48.575 159.513C48.575 159.472 48.575 159.431 48.575 159.431V159.39V159.349C48.575 159.349 48.575 159.308 48.575 159.267C48.575 159.144 48.575 158.98 48.575 158.857C48.575 158.775 48.575 158.734 48.575 158.652C48.575 158.57 48.575 158.447 48.575 158.365V158.324C48.575 158.324 48.575 158.324 48.575 158.283C48.575 158.16 48.5338 158.037 48.5338 157.955C48.5338 157.914 48.5338 157.873 48.5338 157.832C48.5338 157.791 48.5338 157.75 48.5338 157.709C48.5338 157.668 48.5338 157.627 48.4926 157.586C48.4926 157.545 48.4926 157.545 48.4926 157.504C48.4926 157.463 48.4926 157.422 48.4514 157.34C48.4514 157.299 48.4514 157.258 48.4102 157.217C48.4102 157.135 48.369 157.053 48.369 156.971C48.369 156.93 48.369 156.889 48.3278 156.848V156.807V156.766C48.3278 156.725 48.3278 156.725 48.2866 156.684C48.2866 156.643 48.2866 156.602 48.2454 156.602C48.2042 156.479 48.163 156.397 48.1218 156.274C48.0806 156.192 48.0394 156.069 47.9982 155.987C47.8334 155.577 47.4214 154.634 47.2978 153.937C47.2566 153.609 47.2566 153.322 47.3802 153.158C47.3802 153.117 47.4214 153.117 47.4214 153.117C47.4626 153.117 47.4626 153.076 47.5038 153.076C47.7098 152.953 47.9982 152.953 48.2042 153.035C48.6986 153.117 49.1106 153.445 49.1518 153.486C51.7062 155.536 52.7362 159.021 51.7062 162.178Z" fill="#FFD770"/>
    <path d="M49.9759 162.096C50.7999 159.759 50.5527 157.053 49.0695 154.798C48.6987 154.265 48.2867 153.732 47.7923 153.281C47.7099 153.199 47.6687 153.158 47.5863 153.076C47.5451 153.035 47.5039 152.994 47.4627 152.953C47.4215 152.953 47.4215 152.994 47.3803 152.994C47.3391 152.994 47.3391 153.035 47.3391 153.035C47.2155 153.199 47.1743 153.486 47.2567 153.814C47.3803 154.511 47.8335 155.454 47.9571 155.864C47.9983 155.946 48.0395 156.069 48.0807 156.151C48.1219 156.274 48.1631 156.356 48.2043 156.479V156.52V156.602C48.2043 156.643 48.2043 156.643 48.2455 156.684V156.725V156.766C48.2455 156.807 48.2867 156.848 48.2867 156.889C48.2867 156.971 48.3279 157.053 48.3279 157.135C48.3279 157.176 48.3279 157.217 48.3691 157.258C48.3691 157.299 48.3691 157.34 48.4103 157.422C48.4103 157.463 48.4103 157.463 48.4103 157.504C48.4103 157.545 48.4103 157.586 48.4515 157.627C48.4515 157.668 48.4515 157.709 48.4515 157.75C48.4515 157.791 48.4515 157.832 48.4515 157.873C48.4515 157.996 48.4927 158.119 48.4927 158.201C48.4927 158.201 48.4927 158.201 48.4927 158.242V158.283C48.4927 158.365 48.4927 158.488 48.4927 158.57C48.4927 158.652 48.4927 158.693 48.4927 158.775C48.4927 158.898 48.4927 159.062 48.4927 159.185C48.4927 159.226 48.4927 159.226 48.4927 159.267C48.4927 159.308 48.4927 159.308 48.4927 159.308V159.349C48.4927 159.39 48.4927 159.431 48.4927 159.431C48.4927 159.472 48.4927 159.513 48.4927 159.513C48.4927 159.554 48.4927 159.595 48.4927 159.636V159.677V159.718C48.4927 159.759 48.4927 159.841 48.4927 159.882C48.4927 159.923 48.4927 159.964 48.4927 160.005V160.046C48.4927 160.087 48.4927 160.169 48.4515 160.21C48.4515 160.251 48.4515 160.333 48.4103 160.374C48.4103 160.456 48.3691 160.497 48.3691 160.579C48.3691 160.62 48.3279 160.702 48.3279 160.743C48.3279 160.784 48.2867 160.866 48.2867 160.907C48.2867 160.907 48.2867 160.907 48.2867 160.948C48.2867 160.989 48.2867 160.989 48.2455 161.03C48.2043 161.112 48.2043 161.194 48.1631 161.276C48.1631 161.317 48.1219 161.358 48.1219 161.399C48.0807 161.481 48.0807 161.522 48.0395 161.604C48.0395 161.645 48.0395 161.645 47.9983 161.686C47.9983 161.727 47.9983 161.727 47.9571 161.768C47.9571 161.809 47.9159 161.85 47.9159 161.85C47.9159 161.85 47.9159 161.85 47.9159 161.891L49.9759 162.096Z" fill="#FFEA8C"/>
    <path d="M47.957 162.014C47.957 162.014 49.811 162.137 50.6762 162.629C52.0358 163.367 52.5302 163.572 52.8186 166.852C52.8186 166.975 52.8598 167.098 52.8598 167.221C52.9422 167.754 53.2718 169.107 54.4254 165.458C55.8262 161.071 52.0358 161.071 52.0358 161.071C50.635 161.03 49.2342 161.399 47.957 162.014Z" fill="#FFCA28"/>
    <path d="M61.141 177.635C68.172 177.635 73.8718 171.963 73.8718 164.966C73.8718 157.969 68.172 152.297 61.141 152.297C54.1099 152.297 48.4102 157.969 48.4102 164.966C48.4102 171.963 54.1099 177.635 61.141 177.635Z" fill="#FCDD96"/>
    <path fill-rule="evenodd" clip-rule="evenodd" d="M57.8448 153.814C64.0248 152.01 70.5344 155.536 72.3472 161.727C74.16 167.877 70.6168 174.355 64.3956 176.159C58.2156 177.963 51.706 174.437 49.8932 168.246C48.0804 162.055 51.6648 155.618 57.8448 153.814Z" fill="#F0B90B"/>
    <path d="M56.0731 166.442L56.9383 169.394L59.9047 170.132L60.3991 171.854L55.7023 170.665L54.3427 165.991L56.0731 166.442ZM55.2079 163.49L55.7023 165.212L53.9719 164.761L53.4775 163.039L54.6723 161.727L56.4027 162.178L55.2079 163.49ZM58.5451 161.604L59.7399 160.292L61.4703 160.743L60.2343 162.055L58.5451 161.604Z" fill="white"/>
    <path d="M57.8447 168.492L57.3503 166.77L59.0807 167.221L59.5751 168.943L57.8447 168.492ZM61.1407 170.46L62.8711 170.911L64.1071 169.599L64.6015 171.321L63.3655 172.633L61.6351 172.182L61.1407 170.46ZM63.5715 160.128L64.7663 158.816L66.4967 159.267L66.9911 160.989L65.7551 162.301L65.2607 160.579L63.5715 160.128ZM67.0323 166.483L66.1671 163.531L67.3619 162.219L68.7215 166.893L65.4255 170.378L64.9311 168.656L67.0323 166.483Z" fill="white"/>
    <path d="M65.7964 166.155L64.6016 167.426L64.1072 165.704L65.302 164.433L65.7964 166.155Z" fill="white"/>
    <path d="M64.4369 161.481L64.9725 163.203L62.8713 165.417L63.7365 168.369L62.5005 169.64L60.7701 169.23L59.9049 166.278L56.9385 165.54L56.4441 163.818L57.6801 162.506L60.6465 163.244L62.7477 161.03L64.4369 161.481ZM55.5789 160.866L58.8749 157.381L63.5717 158.57L62.3769 159.882L59.4105 159.144L57.3093 161.358L55.5789 160.866Z" fill="white"/>
    <path d="M74.4898 152.707C74.4898 152.707 73.7482 153.937 72.8006 154.511C71.853 155.085 69.1338 157.422 68.145 158.693C67.1562 160.005 67.2386 162.137 66.5794 163.203C65.9202 164.269 63.407 167.18 62.995 167.959C62.5418 168.779 62.4182 169.599 62.789 169.927C63.201 170.296 62.7066 170.911 63.1186 171.362C63.5306 171.813 64.0662 171.895 64.6842 171.567C65.3022 171.239 64.6018 172.141 65.8378 172.141C67.0738 172.141 67.939 171.403 68.1862 171.895C68.4334 172.387 68.3098 173.207 70.9054 171.116C73.501 169.025 75.561 168.205 76.7558 164.638C77.9918 161.03 80.5874 160.702 80.5874 160.702L74.4898 152.707Z" fill="url(#paint6_linear_6_2658)"/>
    <path d="M91.6701 133.396L94.1833 124.458L93.1945 96.0451L96.8201 87.8861L105.225 82.5151L113.094 87.5991L115.319 127.574L101.805 145.901L80.1341 161.686L73.7893 152.215L91.6701 133.396Z" fill="#27C278"/>
    <path d="M84.1716 141.309L91.67 133.396L94.1832 124.458L93.4004 102.154L98.6328 123.474L96.9436 124.335L98.262 126.18L94.5128 134.216L93.0708 134.257L84.1716 141.309Z" fill="#2B8F5F"/>
    <path d="M93.2769 98.259L113.671 95.02L113.877 101.498L93.4829 104.04L93.2769 98.259Z" fill="white"/>
    <path d="M38.3573 158.037C38.3573 158.037 36.7917 157.709 35.9677 157.955C35.1437 158.201 33.8665 158.406 33.4133 160.702C32.9601 162.998 34.7729 166.606 35.1437 167.467C35.5145 168.328 37.1625 169.558 38.1513 169.353C39.1401 169.148 41.7357 168.369 42.4361 167.549C43.1365 166.729 42.4361 165.499 42.0653 165.458C41.6945 165.417 42.3537 165.048 42.3537 164.351C42.3537 163.654 41.7357 162.711 41.4885 162.711C41.2825 162.711 40.8705 162.465 41.0353 162.465C41.2001 162.465 41.3649 161.194 40.9529 160.661C40.5409 160.128 40.0465 160.128 40.0465 160.128C40.0053 160.087 40.0053 160.087 40.0053 160.087C40.0053 160.087 40.4585 159.882 40.4173 159.677C40.4173 159.39 40.7881 158.693 38.3573 158.037Z" fill="url(#paint7_linear_6_2658)"/>
    <path d="M100.899 81.6951C100.899 81.6951 93.1121 92.9291 93.3181 99.6531C93.5241 106.377 93.9773 118.554 93.9773 118.554C93.9773 118.554 90.8873 109.821 90.3929 102.892C89.8985 95.9221 91.3817 81.9411 92.0821 80.0551C92.6177 79.4811 93.3593 79.6041 94.2245 79.7681C95.0897 79.9321 100.734 80.9981 100.734 80.9981C100.734 80.9981 101.105 81.3671 100.899 81.6951Z" fill="#2E2826"/>
    <path d="M176.872 15.1931H129.904C124.012 15.1931 119.233 19.9491 119.233 25.8121V45.8201C119.233 51.6831 124.012 56.4391 129.904 56.4391H176.872C182.763 56.4391 187.543 51.6831 187.543 45.8201V25.7711C187.543 19.9491 182.763 15.1931 176.872 15.1931ZM151.575 38.4401H144.489V45.6971H139.545V38.4401H132.458V33.8891H139.545V26.6321H144.489V33.8891H151.575V38.4401ZM171.887 46.8451C170.239 48.6081 167.931 49.4691 164.883 49.4691C162.04 49.4691 159.733 48.7721 158.043 47.3371C156.354 45.9021 155.365 44.0571 155.159 41.7611H160.268C160.474 42.7451 161.01 43.5651 161.793 44.1391C162.575 44.7541 163.605 45.0411 164.8 45.0411C166.283 45.0411 167.396 44.5901 168.137 43.6471C168.879 42.7451 169.25 41.5151 169.25 39.9981C169.25 38.4401 168.879 37.2921 168.096 36.4721C167.313 35.6521 166.201 35.2421 164.718 35.2421C163.647 35.2421 162.781 35.4881 162.081 36.0211C161.381 36.5541 160.886 37.2511 160.598 38.1121H155.571V22.1221H172.546V26.7141H160.392V33.1101C160.927 32.4541 161.669 31.9211 162.658 31.5111C163.647 31.1011 164.677 30.8961 165.789 30.8961C167.808 30.8961 169.415 31.3471 170.692 32.2081C171.969 33.0691 172.875 34.1761 173.452 35.5701C174.029 36.9231 174.317 38.3581 174.317 39.9161C174.317 42.7861 173.535 45.0821 171.887 46.8451Z" fill="#27C278"/>
    <path d="M103 188.09C103 188.09 89.7748 179.767 82.9356 179.726C76.0964 179.685 68.8864 174.478 65.8376 174.314C65.8376 174.314 60.2756 172.92 58.1332 171.321C55.9908 169.722 45.0316 168.205 41.6532 168.943C38.2748 169.681 37.286 171.731 30.1996 173.494C23.1132 175.257 21.5888 181.612 29.7052 188.131C37.7804 194.65 64.2308 197.315 74.5719 196.331C84.8719 195.388 112.023 196.29 103 188.09Z" fill="#C2A981"/>
    <path d="M27.7277 174.109C29.2521 173.986 29.5817 173.371 32.9601 173.986C36.2973 174.601 37.9041 174.683 34.8141 176.733C31.7241 178.783 29.4993 179.808 28.2633 178.865C27.0273 177.922 23.6077 174.396 27.7277 174.109Z" fill="#B2956B"/>
    <path opacity="0.1" d="M26.4917 177.102C26.4917 177.102 27.5217 178.045 27.8513 178.332C28.1809 178.578 28.4281 178.865 29.2109 178.906C29.9937 178.947 31.3945 178.537 31.8477 178.291C32.2597 178.045 36.0501 175.831 36.0501 175.831C36.0501 175.831 35.1025 176.938 34.5257 177.389C33.9489 177.84 31.6829 179.152 31.0237 179.357C30.3645 179.562 29.6641 179.644 28.8813 179.521C28.0985 179.398 27.8101 178.988 27.6865 178.701C27.5629 178.414 26.4917 177.102 26.4917 177.102Z" fill="black"/>
    <path d="M89.8983 184.769C90.1455 184.441 90.1043 183.99 91.0931 184.154C92.0819 184.318 92.4527 184.359 92.5351 184.769C92.5763 185.138 92.7411 185.794 92.1643 185.876C91.5875 185.958 90.4339 185.835 90.1867 185.63C89.8983 185.425 89.7747 184.933 89.8983 184.769Z" fill="#B2956B"/>
    <path d="M84.048 186.409C84.3776 186.122 84.9956 185.056 86.4376 185.343C87.8796 185.63 88.2092 185.753 88.168 186.286C88.1268 186.819 88.374 187.803 87.6736 187.967C87.0144 188.172 85.1604 188.951 84.7072 188.787C84.254 188.541 82.9768 187.311 84.048 186.409Z" fill="#B2956B"/>
    <path opacity="0.1" d="M89.8572 185.056C89.8572 184.974 90.0632 185.466 90.3104 185.507C90.5576 185.589 91.0108 185.712 91.4228 185.671C91.8348 185.671 92.082 185.507 92.2468 185.507C92.4116 185.507 92.494 185.507 92.494 185.507C92.5352 185.507 92.5352 185.671 92.4528 185.794C92.3704 185.917 92.2468 185.958 91.9996 186.04C91.7524 186.122 91.2992 185.999 91.0932 185.999C90.8872 185.999 90.3928 185.876 90.1044 185.753C89.8984 185.671 89.816 185.179 89.8572 185.056Z" fill="black"/>
    <path opacity="0.1" d="M83.6772 187.516C83.6772 187.516 84.048 187.885 84.2952 187.967C84.5424 188.049 84.5012 187.844 84.9544 187.967C85.4076 188.09 85.1192 188.295 85.696 188.254C86.314 188.213 87.3028 187.967 87.5088 187.885C87.7148 187.803 88.0856 187.557 88.168 187.27C88.2092 186.983 88.2092 187.639 88.1268 187.844C88.0444 188.049 87.344 188.213 87.1792 188.295C86.9732 188.418 85.8608 188.705 85.6136 188.828C85.3664 188.951 84.7072 188.91 84.46 188.828C84.254 188.746 83.7596 187.967 83.7184 187.803C83.7184 187.598 83.6772 187.516 83.6772 187.516Z" fill="black"/>
    <path opacity="0.1" d="M71.9763 186.532C66.3319 182.924 68.7627 180.505 62.2119 178.742C55.6611 176.979 54.2603 184.441 45.3611 184.605C37.0387 184.769 27.1095 184.195 25.8735 184.113C26.7799 185.425 28.0159 186.737 29.7051 188.09C37.9863 195.716 51.1291 197.397 77.1263 197.766C80.2163 197.807 83.4299 197.807 86.6847 197.725C85.9019 197.11 77.3323 189.976 71.9763 186.532Z" fill="#6B5C5C"/>
    <defs>
        <radialGradient id="paint0_radial_6_2658" cx="0" cy="0" r="1" gradientUnits="userSpaceOnUse" gradientTransform="translate(77.4832 49.9662) scale(118.247 117.673)">
            <stop offset="0.1429" stop-color="#92594B"/>
            <stop offset="0.2417" stop-color="#91584A"/>
            <stop offset="0.2571" stop-color="#905749"/>
            <stop offset="0.5513" stop-color="#814C3F"/>
            <stop offset="0.7934" stop-color="#7C483C"/>
        </radialGradient>
        <linearGradient id="paint1_linear_6_2658" x1="78.0017" y1="104.959" x2="77.9441" y2="88.2948" gradientUnits="userSpaceOnUse">
            <stop stop-color="#E7BC91"/>
            <stop offset="0.3993" stop-color="#F3D5B5"/>
            <stop offset="0.6602" stop-color="#F5DCB4"/>
            <stop offset="0.7034" stop-color="#F4DAB2"/>
            <stop offset="1" stop-color="#EFD3AB"/>
        </linearGradient>
        <linearGradient id="paint2_linear_6_2658" x1="114.144" y1="157.303" x2="122.965" y2="168.959" gradientUnits="userSpaceOnUse">
            <stop offset="0.1204" stop-color="#935848"/>
            <stop offset="0.504" stop-color="#935848"/>
            <stop offset="0.6028" stop-color="#9C604E"/>
            <stop offset="0.7268" stop-color="#A16552"/>
            <stop offset="1" stop-color="#966444"/>
        </linearGradient>
        <linearGradient id="paint3_linear_6_2658" x1="58.1848" y1="76.0368" x2="84.4762" y2="68.5303" gradientUnits="userSpaceOnUse">
            <stop stop-color="#E7BC91"/>
            <stop offset="0.3993" stop-color="#F3D5B5"/>
            <stop offset="0.6602" stop-color="#F5DCB4"/>
            <stop offset="0.7034" stop-color="#F4DAB2"/>
            <stop offset="1" stop-color="#EFD3AB"/>
        </linearGradient>
        <linearGradient id="paint4_linear_6_2658" x1="47.9117" y1="73.0154" x2="91.6433" y2="59.1443" gradientUnits="userSpaceOnUse">
            <stop stop-color="#A16552"/>
            <stop offset="0.201" stop-color="#935848"/>
            <stop offset="0.504" stop-color="#935848"/>
            <stop offset="0.6028" stop-color="#9C604E"/>
            <stop offset="0.7268" stop-color="#A16552"/>
            <stop offset="1" stop-color="#966444"/>
        </linearGradient>
        <linearGradient id="paint5_linear_6_2658" x1="78.3103" y1="153.244" x2="45.4606" y2="164.352" gradientUnits="userSpaceOnUse">
            <stop offset="0.1204" stop-color="#935848"/>
            <stop offset="0.504" stop-color="#935848"/>
            <stop offset="0.6028" stop-color="#9C604E"/>
            <stop offset="0.7268" stop-color="#A16552"/>
            <stop offset="1" stop-color="#966444"/>
        </linearGradient>
        <linearGradient id="paint6_linear_6_2658" x1="88.7091" y1="145.309" x2="64.0311" y2="171.385" gradientUnits="userSpaceOnUse">
            <stop offset="0.1204" stop-color="#935848"/>
            <stop offset="0.504" stop-color="#935848"/>
            <stop offset="0.6028" stop-color="#9C604E"/>
            <stop offset="0.7268" stop-color="#A16552"/>
            <stop offset="1" stop-color="#966444"/>
        </linearGradient>
        <linearGradient id="paint7_linear_6_2658" x1="44.6614" y1="173.18" x2="25.6189" y2="145.674" gradientUnits="userSpaceOnUse">
            <stop offset="0.1204" stop-color="#935848"/>
            <stop offset="0.504" stop-color="#935848"/>
            <stop offset="0.6028" stop-color="#9C604E"/>
            <stop offset="0.7268" stop-color="#A16552"/>
            <stop offset="1" stop-color="#966444"/>
        </linearGradient>
    </defs>
</svg>
