<svg width="6" height="8" viewBox="0 0 6 8" fill="none" xmlns="http://www.w3.org/2000/svg">
    <path d="M5.77847 4.65975C5.74457 4.69358 5.61656 4.83825 5.49732 4.95725C4.79825 5.70567 2.97457 6.93067 2.02007 7.30458C1.87511 7.36467 1.50862 7.49183 1.31281 7.5C1.12518 7.5 0.946323 7.458 0.775645 7.37283C0.562884 7.25383 0.392207 7.06658 0.298685 6.8455C0.23848 6.69208 0.144959 6.233 0.144959 6.22483C0.0514369 5.72258 0 4.9065 0 4.00467C0 3.14542 0.0514369 2.36258 0.128008 1.85275C0.136775 1.84458 0.230297 1.27408 0.332586 1.07867C0.520214 0.721667 0.886702 0.5 1.27891 0.5H1.31281C1.56824 0.50875 2.10541 0.730417 2.10541 0.738583C3.00848 1.11308 4.79006 2.278 5.50609 3.05208C5.50609 3.05208 5.70775 3.251 5.79542 3.37525C5.9322 3.55375 6 3.77483 6 3.99592C6 4.24267 5.92343 4.4725 5.77847 4.65975Z" fill="#4D4040"/>
</svg>