<svg xmlns="http://www.w3.org/2000/svg" width="213" height="213" viewBox="0 0 213 213" fill="none">
    <path d="M71.2767 99.0273L15.394 96.8425C13.4126 115.67 17.3204 135.447 25.6312 151.33L109.015 151.501C103.988 157.713 49.9033 162.539 28.4932 156.535C43.2253 179.124 54.4899 191.454 83.0917 185.318C131.893 171.259 116.445 98.4194 71.2767 99.0273Z" fill="#F24139"/>
    <path d="M197.994 104.042L186.051 106.094L165.723 120.875C165.28 115.362 164.341 109.905 162.916 104.574C156.752 114.814 142.185 109.552 127.6 97.7726C147.652 102.883 152.018 70.624 131.379 69.826C122.206 69.6551 115.326 79.5342 118.298 88.4824C68.8183 27.1937 170.86 35.705 166.035 90.5723L197.829 100.432C194.197 11.6911 75.8999 -20.2642 30.4746 53.8294C45.1149 43.2093 63.296 37.1109 82.2661 37.6238C83.9906 37.6618 84.7428 39.8276 83.5136 41.0815C73.9369 50.9227 84.9996 78.2803 108.079 102.199C131.783 127.125 157.522 136.339 167.466 128.094C167.466 155.053 156.073 179.257 138.002 195.823C173.795 182.353 199.333 145.743 197.994 104.042ZM135.067 81.795C138.791 81.795 138.791 87.6845 135.067 87.6845C131.342 87.6845 131.361 81.814 135.067 81.795ZM120.5 80.9591C120.536 73.3977 131.617 73.3977 131.654 80.9591C131.617 88.5204 120.536 88.5204 120.5 80.9591Z" fill="#F24139"/>
    <path d="M184.951 96.4812C184.951 96.4812 191.536 98.7605 186.051 106.094C178.455 116.258 197.994 104.042 197.994 104.042C199.333 93.289 188.858 95.3793 184.951 96.4812Z" fill="#F24139"/>
    <circle cx="106.5" cy="106.5" r="102.5" stroke="#F24139" stroke-width="8"/>
</svg>