<svg width="120" height="120" viewBox="0 0 120 120" fill="none" xmlns="http://www.w3.org/2000/svg">
<path d="M61.5531 90.2671C74.9462 90.2671 85.8032 79.2848 85.8032 65.7377C85.8032 52.1905 74.9462 41.2083 61.5531 41.2083C48.1603 41.2083 37.303 52.1905 37.303 65.7377C37.303 79.2848 48.1603 90.2671 61.5531 90.2671Z" fill="url(#paint0_radial_153_424930)"/>
<path style="mix-blend-mode:multiply" d="M61.5531 90.2671C74.9462 90.2671 85.8032 79.2848 85.8032 65.7377C85.8032 52.1905 74.9462 41.2083 61.5531 41.2083C48.1603 41.2083 37.303 52.1905 37.303 65.7377C37.303 79.2848 48.1603 90.2671 61.5531 90.2671Z" fill="url(#paint1_radial_153_424930)"/>
<path d="M61.3535 96.7214C44.4617 96.7214 30.713 82.8213 30.713 65.7282C30.713 48.6348 44.4547 34.7347 61.3535 34.7347C78.252 34.7347 91.9943 48.6348 91.9943 65.7282C91.9943 82.8213 78.2451 96.7214 61.3535 96.7214ZM61.3535 38.1839C55.9662 38.1853 50.7004 39.8025 46.2218 42.831C41.743 45.8594 38.2527 50.1632 36.1922 55.198C34.1316 60.2329 33.5931 65.7728 34.6449 71.1172C35.6966 76.4616 38.2915 81.3705 42.1014 85.2233C45.9114 89.076 50.7648 91.6995 56.0487 92.7621C61.3327 93.8246 66.8094 93.2787 71.7863 91.1931C76.7633 89.1072 81.0172 85.5757 84.0101 81.0448C87.0028 76.5136 88.5999 71.1868 88.5999 65.7375C88.5922 58.4314 85.7181 51.4269 80.61 46.2613C75.5018 41.0957 68.5765 38.1908 61.3535 38.1839Z" fill="url(#paint2_linear_153_424930)"/>
<path d="M61.5533 93.4651C56.1314 93.4651 50.8311 91.8386 46.3228 88.7915C41.8147 85.7444 38.3008 81.4135 36.2261 76.3465C34.1511 71.2794 33.6086 65.7036 34.6665 60.3247C35.7243 54.9455 38.3354 50.0046 42.1698 46.1266C46.0039 42.2486 50.8886 39.6078 56.2066 38.5382C61.5246 37.4685 67.0366 38.0179 72.0459 40.1171C77.055 42.2163 81.3364 45.7708 84.3483 50.3312C87.3599 54.8917 88.9673 60.253 88.9673 65.7377C88.9596 73.0892 86.0676 80.1369 80.9284 85.3351C75.7891 90.533 68.8212 93.4567 61.5533 93.4651ZM61.5533 41.4407C56.8031 41.4426 52.1599 42.8692 48.2111 45.5401C44.2622 48.211 41.1848 52.0063 39.3682 56.4462C37.5515 60.886 37.0773 65.7709 38.005 70.4834C38.9329 75.1959 41.2215 79.5245 44.5811 82.9214C47.9407 86.3184 52.2208 88.6315 56.8801 89.5684C61.5392 90.5052 66.3685 90.0234 70.757 88.184C75.1457 86.3449 78.8966 83.2308 81.5354 79.2354C84.1745 75.2398 85.5828 70.5426 85.5828 65.7377C85.5744 59.2954 83.0393 53.1197 78.5343 48.5659C74.0292 44.0121 67.9222 41.4521 61.5533 41.4478V41.4407Z" fill="url(#paint3_linear_153_424930)"/>
<path d="M61.5533 93.7819C56.0692 93.7819 50.7084 92.1368 46.1486 89.0548C41.5889 85.9729 38.035 81.5926 35.9364 76.4677C33.8378 71.3425 33.2888 65.7033 34.3591 60.2626C35.429 54.8221 38.0702 49.8247 41.9481 45.9024C45.8259 41.9801 50.7666 39.3091 56.1454 38.2272C61.5243 37.1452 67.0992 37.701 72.1658 39.8241C77.2321 41.9473 81.5625 45.5425 84.6089 50.155C87.6552 54.7675 89.2805 60.1904 89.2805 65.7376C89.2728 73.1733 86.3487 80.3021 81.1504 85.5597C75.9524 90.8174 68.9043 93.7743 61.5533 93.7819ZM61.5533 38.1534C56.1603 38.1553 50.8889 39.7747 46.4054 42.8068C41.9222 45.8389 38.4283 50.1476 36.3657 55.188C34.3031 60.2285 33.7644 65.7745 34.8176 71.1246C35.8709 76.475 38.4689 81.389 42.2832 85.2457C46.0973 89.1024 50.9564 91.7287 56.2458 92.7923C61.5355 93.8559 67.0181 93.3092 72.0004 91.221C76.9831 89.133 81.2413 85.5974 84.2376 81.0615C87.2341 76.5254 88.8337 71.1927 88.8337 65.7376C88.8235 58.424 85.9451 51.4128 80.8308 46.2428C75.7167 41.0728 68.7836 38.1661 61.5533 38.1605V38.1534Z" fill="url(#paint4_linear_153_424930)"/>
<path style="mix-blend-mode:screen" opacity="0.56" d="M85.021 65.8504C85.0246 68.8126 84.478 71.7491 83.4101 74.5074C81.6876 70.0629 78.6809 66.2468 74.7821 63.5568C70.8836 60.8668 66.2738 59.4279 61.5544 59.4279C56.8349 59.4279 52.2251 60.8668 48.3264 63.5568C44.4276 66.2468 41.4208 70.0629 39.6986 74.5074C38.4392 71.2566 37.9043 67.7651 38.1316 64.2814C38.3591 60.7977 39.3433 57.4075 41.0143 54.3526C42.6851 51.2978 45.0017 48.6532 47.7987 46.6075C50.5957 44.5618 53.8043 43.1653 57.1957 42.5174C60.5874 41.8696 64.0787 41.9864 67.4205 42.8596C70.7624 43.7327 73.8726 45.3407 76.5299 47.5689C79.187 49.7971 81.3256 52.5907 82.7933 55.7507C84.261 58.9105 85.0216 62.3592 85.021 65.8504Z" fill="url(#paint5_radial_153_424930)"/>
<path d="M72.8879 55.0516L70.9357 55.1357L70.7975 51.3798C70.7801 50.9924 71.091 50.6724 71.4885 50.6556L71.9894 50.6387C72.3867 50.6219 72.7151 50.9251 72.7323 51.3124L72.8879 55.0516Z" fill="url(#paint6_linear_153_424930)"/>
<path d="M72.8874 55.0524L71.9201 55.0859L71.7473 50.6226L72.0064 50.6058C72.4036 50.5889 72.7318 50.892 72.749 51.2795L72.8874 55.0524Z" fill="url(#paint7_linear_153_424930)"/>
<path d="M74.6678 56.5848C74.8403 58.3701 74.754 60.2059 74.3912 62.0585C72.3183 72.4673 61.9872 79.2719 51.3107 77.2507C49.4103 76.897 47.6309 76.2739 45.9897 75.4485C45.8687 75.3812 44.7977 74.7243 44.1412 73.7813C43.813 73.3096 43.5711 72.7704 43.6056 72.198C43.6056 72.198 43.6056 72.198 43.6056 72.1811C43.6056 72.1136 43.6228 72.0463 43.6402 71.9956C43.6574 71.9284 43.6746 71.878 43.7093 71.8273C43.9512 71.3894 44.5559 71.1198 45.3331 70.9515C47.0262 70.5809 49.4966 70.6988 50.5332 70.6484H50.5504C50.8097 70.6484 51.0516 70.6316 51.3107 70.6147C51.3279 70.6147 51.3451 70.6147 51.3451 70.6147C51.6217 70.5978 51.8979 70.5809 52.1745 70.5474C52.2607 70.5474 52.3473 70.5305 52.4164 70.5305C52.4854 70.5136 52.5545 70.5136 52.6408 70.4968C52.7098 70.4968 52.7792 70.4799 52.8482 70.463C52.9517 70.4464 53.0382 70.4464 53.142 70.4295C53.332 70.3957 53.522 70.3788 53.6948 70.3451C53.7983 70.3285 53.902 70.3116 54.023 70.2778C54.3167 70.2272 54.6104 70.1599 54.8867 70.0926C54.9733 70.0757 55.0595 70.0589 55.1633 70.0251C55.2495 70.0085 55.3361 69.9747 55.4396 69.9578C55.6986 69.8906 55.9752 69.8062 56.2343 69.722C56.2515 69.722 56.2689 69.7051 56.2861 69.7051L56.3552 69.6882C56.7352 69.5703 57.1152 69.4358 57.4955 69.2841C57.8409 69.1493 58.2037 68.9976 58.5493 68.8462C58.6012 68.8293 58.6356 68.8124 58.6874 68.7789L58.7393 68.762C58.964 68.661 59.1884 68.5431 59.4131 68.4252C59.4303 68.4083 59.4649 68.4083 59.4821 68.3914C59.5168 68.3745 59.534 68.3579 59.5687 68.3408C60.2078 68.0042 60.8125 67.6504 61.4172 67.2463C61.5378 67.1788 61.6416 67.0946 61.7625 67.0105C61.8662 66.9429 61.97 66.8588 62.0909 66.7746C62.1081 66.7577 62.1253 66.7409 62.1425 66.7409C62.1944 66.6902 62.2635 66.6567 62.3153 66.6061C62.4881 66.4715 62.6609 66.3367 62.8338 66.2019C62.92 66.1346 63.0066 66.0671 63.0928 65.9999C63.2138 65.8988 63.3519 65.7809 63.4729 65.663C63.5247 65.6123 63.5766 65.5786 63.6113 65.5282C63.7838 65.3765 63.9566 65.2251 64.1122 65.0565C64.8376 64.3493 65.5288 63.5914 66.1332 62.766C66.1507 62.7491 66.1507 62.7322 66.1679 62.7153C66.4098 62.4122 66.6345 62.0923 66.8417 61.7554C66.9454 61.6037 67.0491 61.4523 67.1354 61.3006C67.2045 61.1827 67.291 61.0482 67.3601 60.9302C67.3773 60.9134 67.3945 60.8796 67.3945 60.8627C67.5501 60.5934 67.7054 60.3069 67.8438 60.0207C68.6383 58.4878 69.2258 56.8206 69.5714 55.0687C69.6058 54.8835 69.6405 54.6984 69.6749 54.5129C69.6749 54.5129 69.6923 54.4625 69.7267 54.3781C69.7439 54.3446 69.7439 54.3277 69.7614 54.294C69.7614 54.2773 69.7786 54.2605 69.7786 54.2436C69.7786 54.2267 69.7958 54.2098 69.7958 54.1929C69.9514 53.8729 70.2624 53.435 70.8152 53.1488C71.2124 52.9466 71.7308 52.8287 72.4046 52.9298C73.0437 53.0309 73.5102 53.435 73.8558 53.9571C74.374 54.7656 74.5812 55.8941 74.6678 56.5848Z" fill="url(#paint8_linear_153_424930)"/>
<path d="M72.4043 52.9131C72.4043 52.9299 72.4043 52.9299 72.4043 52.9467C72.6118 54.6478 72.5946 56.3994 72.3008 58.1681C72.2662 58.4037 72.2143 58.6395 72.1799 58.8753C70.1067 69.2842 59.7759 76.0887 49.0991 74.0676C47.51 73.7645 46.0241 73.2928 44.6075 72.6697C44.4002 72.5684 44.1928 72.4843 43.9856 72.3832C43.8646 72.316 43.7265 72.2484 43.6055 72.198C43.6055 72.1308 43.6227 72.0632 43.6399 72.0129C43.6574 71.9453 43.6746 71.8949 43.709 71.8443C43.9509 71.4064 44.5556 71.1368 45.3331 70.9685C47.0262 70.5979 49.4966 70.7158 50.5332 70.6654H50.5504C50.8095 70.6654 51.0513 70.6485 51.3107 70.6316C51.3279 70.6316 51.3451 70.6316 51.3451 70.6316C51.6216 70.6147 51.8979 70.5979 52.1744 70.5644C52.1917 70.5644 52.2261 70.5644 52.2435 70.5644C52.2954 70.5644 52.3645 70.5475 52.4163 70.5475C52.4854 70.5306 52.5545 70.5306 52.6408 70.5137C52.7273 70.4968 52.7789 70.4968 52.8482 70.4799C52.9517 70.4633 53.0382 70.4633 53.1417 70.4464C53.3317 70.4127 53.5217 70.3789 53.6945 70.362C53.7983 70.3454 53.902 70.3285 54.0229 70.2948C54.213 70.261 54.3855 70.2275 54.5583 70.1768C54.662 70.16 54.7658 70.1265 54.8867 70.1096C54.973 70.0927 55.0595 70.0589 55.163 70.042C55.2495 70.0252 55.3358 69.9917 55.4395 69.9748C55.6986 69.9075 55.9752 69.8231 56.2342 69.7389C56.2514 69.7389 56.2686 69.7221 56.2861 69.7221L56.3552 69.7052C56.4243 69.6883 56.4933 69.6548 56.5624 69.6379C56.8733 69.5369 57.1843 69.419 57.4952 69.301C57.8062 69.1831 58.0999 69.0483 58.4109 68.9135C58.4627 68.8969 58.4974 68.88 58.549 68.8463C58.6009 68.8294 58.6355 68.8128 58.6874 68.779L58.7393 68.7621C58.8774 68.6948 59.0156 68.6273 59.1537 68.56C59.2402 68.5094 59.3265 68.4759 59.413 68.4421C59.4303 68.4252 59.4647 68.4252 59.4821 68.4084C59.5165 68.3915 59.534 68.3746 59.5684 68.358C59.6893 68.2904 59.8103 68.2232 59.9312 68.1556C60.0177 68.1053 60.104 68.0546 60.1903 68.0042C60.2249 67.9873 60.2768 67.9536 60.3112 67.9367C60.4322 67.8694 60.5531 67.7853 60.674 67.7177C60.795 67.6505 60.8987 67.5832 61.0025 67.4988C61.1406 67.4146 61.2615 67.3305 61.3997 67.2463C61.5206 67.1619 61.6243 67.0947 61.7453 67.0105C61.8488 66.9264 61.9525 66.8588 62.0734 66.7747C62.0906 66.7578 62.1081 66.7409 62.1253 66.7409C62.1772 66.6905 62.2462 66.6568 62.2981 66.6061C62.4707 66.4716 62.6435 66.3368 62.8163 66.202C62.9025 66.1347 62.9891 66.0672 63.0754 65.9999C63.1963 65.8989 63.3344 65.781 63.4554 65.663C63.5072 65.6124 63.5591 65.5789 63.5938 65.5283C63.6456 65.4779 63.6972 65.4441 63.7319 65.3935C63.8528 65.2755 63.9738 65.1745 64.0947 65.0566C64.1985 64.9556 64.2847 64.8714 64.3885 64.7704C64.5094 64.6525 64.6131 64.5514 64.7166 64.4335C64.7685 64.3829 64.8204 64.3156 64.8894 64.2483C64.9241 64.1977 64.9757 64.147 65.0104 64.1135C65.1141 64.0125 65.2004 63.8946 65.3041 63.7935C65.4076 63.6756 65.4941 63.5746 65.5979 63.4567C65.6669 63.3723 65.7532 63.2715 65.8223 63.1871C65.926 63.0523 66.0297 62.9177 66.1332 62.7829C66.1507 62.7661 66.1507 62.7492 66.1679 62.7323C66.2714 62.5975 66.3579 62.4798 66.4442 62.345C66.496 62.2606 66.5651 62.1765 66.617 62.0923C66.686 61.9913 66.7551 61.8734 66.8416 61.7723C66.9107 61.6713 66.9626 61.5872 67.0316 61.4859C67.0661 61.4355 67.1007 61.3682 67.1354 61.3176C67.2045 61.1996 67.2907 61.0648 67.3598 60.9469C67.377 60.9303 67.3945 60.8965 67.3945 60.8797C67.4463 60.7786 67.5154 60.6776 67.567 60.5597C67.6189 60.4755 67.6536 60.3914 67.7054 60.307C67.7573 60.2228 67.7917 60.1387 67.8436 60.0376C67.9126 59.9197 67.9645 59.7849 68.0336 59.6501C68.0682 59.5828 68.1026 59.5153 68.1373 59.448C68.2236 59.2797 68.2927 59.1112 68.362 58.9426C68.4136 58.825 68.4654 58.7237 68.5001 58.6058C68.5692 58.4374 68.6383 58.2691 68.7073 58.1006C68.742 57.9827 68.7939 57.8648 68.8283 57.7468C68.8973 57.5785 68.9492 57.3933 69.0011 57.2079C69.0357 57.09 69.0702 56.989 69.1048 56.871C69.1739 56.669 69.2257 56.4669 69.2776 56.2817C69.2948 56.1973 69.312 56.13 69.3467 56.0459C69.3467 56.0121 69.3639 55.9784 69.3639 55.9617C69.433 55.6753 69.502 55.3722 69.5711 55.0857C69.6058 54.9005 69.6404 54.7153 69.6748 54.5299C69.6748 54.5299 69.692 54.4795 69.7267 54.3953C69.7439 54.3616 69.7439 54.3447 69.7614 54.3109C69.7614 54.294 69.7786 54.2774 69.7786 54.2605C69.7786 54.2436 69.7958 54.2268 69.7958 54.2099C69.9514 53.8899 70.2623 53.452 70.8152 53.1657C71.2124 52.9299 71.7305 52.812 72.4043 52.9131Z" fill="url(#paint9_linear_153_424930)"/>
<path d="M45.3506 70.9181C44.4521 71.676 44.0028 72.6024 44.1412 73.7644C43.813 73.293 43.5711 72.7541 43.6056 72.1814C43.6056 72.1814 43.6056 72.1814 43.6056 72.1645C43.6056 72.097 43.6228 72.0297 43.6402 71.9791C43.6574 71.9118 43.6746 71.8612 43.7093 71.8108C43.9684 71.356 44.5903 71.0864 45.3506 70.9181Z" fill="url(#paint10_linear_153_424930)"/>
<path style="mix-blend-mode:color-dodge" d="M104.255 99.0551C105.914 96.8988 90.9597 82.3209 70.8539 66.4942C50.7478 50.6674 33.1039 39.5854 31.4449 41.7416C29.7862 43.8978 44.7404 58.4759 64.8465 74.3023C84.9526 90.129 102.597 101.211 104.255 99.0551Z" fill="url(#paint11_radial_153_424930)"/>
<path style="mix-blend-mode:color-dodge" d="M71.0002 72.8778C77.5617 64.3492 81.4702 56.3252 79.7303 54.9557C77.9905 53.5861 71.261 59.3897 64.6996 67.9184C58.1383 76.447 54.2295 84.471 55.9694 85.8406C57.7093 87.2101 64.4389 81.4065 71.0002 72.8778Z" fill="url(#paint12_radial_153_424930)"/>
<path style="mix-blend-mode:color-dodge" d="M67.8236 73.2552C85.3691 73.4319 99.6052 72.2935 99.6206 70.7128C99.636 69.1321 85.4254 67.7077 67.8798 67.5311C50.3342 67.3545 36.0981 68.4929 36.0825 70.0736C36.0668 71.6543 50.2777 73.0786 67.8236 73.2552Z" fill="url(#paint13_radial_153_424930)"/>
<path style="mix-blend-mode:color-dodge" d="M74.8343 94.5213C76.4625 94.0392 74.6553 82.846 70.7979 69.5205C66.9407 56.1952 62.4939 45.7838 60.866 46.266C59.2381 46.7481 61.0452 57.9413 64.9024 71.2666C68.7596 84.5922 73.2064 95.0036 74.8343 94.5213Z" fill="url(#paint14_radial_153_424930)"/>
<path style="mix-blend-mode:screen" d="M85.0897 84.9986C86.9687 82.5722 80.7942 74.5007 71.296 66.9707C61.7981 59.4404 52.5741 55.303 50.6941 57.7293C48.814 60.1557 54.9896 68.227 64.4875 75.7572C73.9856 83.2875 83.2096 87.425 85.0897 84.9986Z" fill="url(#paint15_radial_153_424930)"/>
<path style="mix-blend-mode:color-dodge" d="M60.0991 42.8058C84.9516 42.2836 105.054 39.6847 105 37.001C104.943 34.3173 84.7521 32.565 59.8996 33.0872C35.0471 33.6094 14.9449 36.2083 15.0001 38.892C15.0553 41.5757 35.2467 43.328 60.0991 42.8058Z" fill="url(#paint16_radial_153_424930)"/>
<path style="mix-blend-mode:color-dodge" d="M60.1722 46.7028C62.7792 46.6503 64.8225 43.049 64.7363 38.6591C64.65 34.2691 62.4664 30.7529 59.8594 30.8054C57.2525 30.8579 55.2091 34.4591 55.2954 38.8491C55.3816 43.239 57.5652 46.7552 60.1722 46.7028Z" fill="url(#paint17_radial_153_424930)"/>
<path style="mix-blend-mode:color-dodge" d="M61.2702 40.9906C68.7271 37.2693 74.1393 32.9554 73.359 31.3552C72.5784 29.755 65.9008 31.4745 58.444 35.1958C50.9871 38.9171 45.575 43.231 46.3553 44.8312C47.1359 46.4314 53.8134 44.7119 61.2702 40.9906Z" fill="url(#paint18_radial_153_424930)"/>
<path style="mix-blend-mode:color-dodge" d="M72.4534 44.4291C73.2086 42.9453 68.2223 38.827 61.316 35.2307C54.4099 31.6344 48.1992 29.9219 47.444 31.4057C46.6889 32.8896 51.6751 37.0078 58.5812 40.6042C65.4875 44.2005 71.6982 45.913 72.4534 44.4291Z" fill="url(#paint19_radial_153_424930)"/>
<path style="mix-blend-mode:screen" d="M60.1119 43.4372C71.8858 43.1898 81.3799 40.5331 81.3177 37.5032C81.2553 34.4733 71.6604 32.2177 59.8867 32.4651C48.1128 32.7125 38.6188 35.3692 38.6809 38.3991C38.7433 41.4289 48.3383 43.6846 60.1119 43.4372Z" fill="url(#paint20_radial_153_424930)"/>
<path style="mix-blend-mode:color-dodge" d="M59.2982 39.8687C82.0113 39.8687 100.424 37.8929 100.424 35.4556C100.424 33.0183 82.0113 31.0425 59.2982 31.0425C36.5852 31.0425 18.1725 33.0183 18.1725 35.4556C18.1725 37.8929 36.5852 39.8687 59.2982 39.8687Z" fill="url(#paint21_radial_153_424930)"/>
<path style="mix-blend-mode:color-dodge" d="M59.2982 52.9111C61.6805 52.9111 63.6119 45.096 63.6119 35.4555C63.6119 25.8151 61.6805 18 59.2982 18C56.9159 18 54.9845 25.8151 54.9845 35.4555C54.9845 45.096 56.9159 52.9111 59.2982 52.9111Z" fill="url(#paint22_radial_153_424930)"/>
<path style="mix-blend-mode:color-dodge" d="M61.0696 37.9491C73.8279 28.6735 83.3757 20.0343 82.3953 18.6529C81.4147 17.2714 70.2776 23.6708 57.5192 32.9464C44.7611 42.222 35.2134 50.8612 36.1937 52.2426C37.1743 53.6241 48.3115 47.2246 61.0696 37.9491Z" fill="url(#paint23_radial_153_424930)"/>
<path style="mix-blend-mode:color-dodge" d="M77.3183 48.5118C78.2165 47.2422 70.8734 40.3646 60.9172 33.1501C50.9612 25.9357 42.1622 21.1165 41.264 22.386C40.3661 23.6556 47.7089 30.5333 57.6652 37.7477C67.6214 44.9622 76.4204 49.7814 77.3183 48.5118Z" fill="url(#paint24_radial_153_424930)"/>
<path style="mix-blend-mode:screen" d="M59.298 40.4358C70.0584 40.4358 78.7814 38.206 78.7814 35.4555C78.7814 32.705 70.0584 30.4752 59.298 30.4752C48.5376 30.4752 39.8146 32.705 39.8146 35.4555C39.8146 38.206 48.5376 40.4358 59.298 40.4358Z" fill="url(#paint25_radial_153_424930)"/>
<defs>
<radialGradient id="paint0_radial_153_424930" cx="0" cy="0" r="1" gradientUnits="userSpaceOnUse" gradientTransform="translate(59.0486 46.5476) scale(47.574 48.1219)">
<stop stop-color="#58595B"/>
<stop offset="1"/>
</radialGradient>
<radialGradient id="paint1_radial_153_424930" cx="0" cy="0" r="1" gradientUnits="userSpaceOnUse" gradientTransform="translate(61.5531 65.7377) scale(24.2501 24.5294)">
<stop stop-color="white"/>
<stop offset="0.09" stop-color="#F9F9F9"/>
<stop offset="0.22" stop-color="#E8E8E8"/>
<stop offset="0.36" stop-color="#CDCDCD"/>
<stop offset="0.52" stop-color="#A7A7A7"/>
<stop offset="0.68" stop-color="#757575"/>
<stop offset="0.85" stop-color="#3A3A3A"/>
<stop offset="1"/>
</radialGradient>
<linearGradient id="paint2_linear_153_424930" x1="61.3535" y1="96.7214" x2="61.3535" y2="34.7512" gradientUnits="userSpaceOnUse">
<stop stop-color="#42210B"/>
<stop offset="0.11" stop-color="#44230C"/>
<stop offset="0.15" stop-color="#4B280E"/>
<stop offset="0.18" stop-color="#563212"/>
<stop offset="0.21" stop-color="#674018"/>
<stop offset="0.23" stop-color="#7D5220"/>
<stop offset="0.24" stop-color="#98682A"/>
<stop offset="0.25" stop-color="#A97630"/>
<stop offset="0.27" stop-color="#AE7C35"/>
<stop offset="0.29" stop-color="#BD8D44"/>
<stop offset="0.32" stop-color="#D6AA5B"/>
<stop offset="0.34" stop-color="#F8D17C"/>
<stop offset="0.35" stop-color="#FFD983"/>
<stop offset="0.38" stop-color="#FDD781"/>
<stop offset="0.4" stop-color="#F6CE7C"/>
<stop offset="0.42" stop-color="#EAC172"/>
<stop offset="0.44" stop-color="#D9AD64"/>
<stop offset="0.45" stop-color="#C39352"/>
<stop offset="0.46" stop-color="#A8743C"/>
<stop offset="0.47" stop-color="#7C4018"/>
<stop offset="0.54" stop-color="#874D1E"/>
<stop offset="0.64" stop-color="#A16D2E"/>
<stop offset="1" stop-color="#FCD681"/>
</linearGradient>
<linearGradient id="paint3_linear_153_424930" x1="61.3469" y1="34.169" x2="61.8053" y2="102.418" gradientUnits="userSpaceOnUse">
<stop offset="0.06" stop-color="#662A12"/>
<stop offset="0.11" stop-color="#6B3013"/>
<stop offset="0.17" stop-color="#7B4016"/>
<stop offset="0.25" stop-color="#945C1A"/>
<stop offset="0.33" stop-color="#B78221"/>
<stop offset="0.42" stop-color="#E4B329"/>
<stop offset="0.46" stop-color="#FACB2D"/>
<stop offset="0.65" stop-color="#793F15"/>
<stop offset="0.66" stop-color="#80481B"/>
<stop offset="0.69" stop-color="#925F2C"/>
<stop offset="0.73" stop-color="#AF8547"/>
<stop offset="0.77" stop-color="#D7B96D"/>
<stop offset="0.8" stop-color="#FBE78E"/>
<stop offset="0.99" stop-color="#FBEC9F"/>
</linearGradient>
<linearGradient id="paint4_linear_153_424930" x1="61.5533" y1="93.7819" x2="61.5533" y2="37.6909" gradientUnits="userSpaceOnUse">
<stop offset="0.01" stop-color="#FBEC9F"/>
<stop offset="0.27" stop-color="#FBE78E"/>
<stop offset="0.62" stop-color="#FACB2D"/>
<stop offset="0.65" stop-color="#E4B329"/>
<stop offset="0.72" stop-color="#B78221"/>
<stop offset="0.79" stop-color="#945C1A"/>
<stop offset="0.85" stop-color="#7B4016"/>
<stop offset="0.9" stop-color="#6B3013"/>
<stop offset="0.94" stop-color="#662A12"/>
</linearGradient>
<radialGradient id="paint5_radial_153_424930" cx="0" cy="0" r="1" gradientUnits="userSpaceOnUse" gradientTransform="translate(55085.4 -320.8) scale(9726.97 6714.38)">
<stop stop-color="#58595B"/>
<stop offset="1"/>
</radialGradient>
<linearGradient id="paint6_linear_153_424930" x1="68.2609" y1="49.0753" x2="72.3164" y2="53.8698" gradientUnits="userSpaceOnUse">
<stop stop-color="#FFE988"/>
<stop offset="0.25" stop-color="#BA801E"/>
<stop offset="0.5" stop-color="#FBEC83"/>
<stop offset="0.75" stop-color="#BA801F"/>
<stop offset="1" stop-color="#FFE97F"/>
</linearGradient>
<linearGradient id="paint7_linear_153_424930" x1="68.5487" y1="48.8331" x2="72.6043" y2="53.6265" gradientUnits="userSpaceOnUse">
<stop stop-color="#FFE988"/>
<stop offset="0.25" stop-color="#BA801E"/>
<stop offset="0.5" stop-color="#FBEC83"/>
<stop offset="0.75" stop-color="#BA801F"/>
<stop offset="1" stop-color="#FFE97F"/>
</linearGradient>
<linearGradient id="paint8_linear_153_424930" x1="43.1082" y1="63.7441" x2="96.4878" y2="67.9187" gradientUnits="userSpaceOnUse">
<stop stop-color="#FFE988"/>
<stop offset="0.25" stop-color="#BA801E"/>
<stop offset="0.5" stop-color="#FBEC83"/>
<stop offset="0.75" stop-color="#BA801F"/>
<stop offset="1" stop-color="#FFE97F"/>
</linearGradient>
<linearGradient id="paint9_linear_153_424930" x1="41.6346" y1="65.975" x2="77.7766" y2="61.804" gradientUnits="userSpaceOnUse">
<stop stop-color="#FFE988"/>
<stop offset="0.25" stop-color="#BA801E"/>
<stop offset="0.5" stop-color="#FBEC83"/>
<stop offset="0.75" stop-color="#BA801F"/>
<stop offset="1" stop-color="#FFE97F"/>
</linearGradient>
<linearGradient id="paint10_linear_153_424930" x1="42.4568" y1="70.0257" x2="44.8265" y2="72.5465" gradientUnits="userSpaceOnUse">
<stop stop-color="#FFE988"/>
<stop offset="0.25" stop-color="#BA801E"/>
<stop offset="0.5" stop-color="#FBEC83"/>
<stop offset="0.75" stop-color="#BA801F"/>
<stop offset="1" stop-color="#FFE97F"/>
</linearGradient>
<radialGradient id="paint11_radial_153_424930" cx="0" cy="0" r="1" gradientUnits="userSpaceOnUse" gradientTransform="translate(68.4156 72.3159) rotate(38.2083) scale(46.614 5.05324)">
<stop stop-color="#FCFBDF"/>
<stop offset="0.16" stop-color="#BCBCA7"/>
<stop offset="0.33" stop-color="#848375"/>
<stop offset="0.49" stop-color="#55544B"/>
<stop offset="0.64" stop-color="#30302A"/>
<stop offset="0.78" stop-color="#161513"/>
<stop offset="0.9" stop-color="#060605"/>
<stop offset="1"/>
</radialGradient>
<radialGradient id="paint12_radial_153_424930" cx="0" cy="0" r="1" gradientUnits="userSpaceOnUse" gradientTransform="translate(64.4215 68.4573) rotate(127.572) scale(19.5906 3.78086)">
<stop stop-color="#FCFBDF"/>
<stop offset="0.01" stop-color="#F6F5D9"/>
<stop offset="0.05" stop-color="#C8C7B1"/>
<stop offset="0.09" stop-color="#9D9C8B"/>
<stop offset="0.14" stop-color="#777769"/>
<stop offset="0.19" stop-color="#57564D"/>
<stop offset="0.25" stop-color="#3B3B35"/>
<stop offset="0.32" stop-color="#252521"/>
<stop offset="0.4" stop-color="#141412"/>
<stop offset="0.49" stop-color="#090908"/>
<stop offset="0.63" stop-color="#020202"/>
<stop offset="1"/>
</radialGradient>
<radialGradient id="paint13_radial_153_424930" cx="0" cy="0" r="1" gradientUnits="userSpaceOnUse" gradientTransform="translate(-26470.1 1591.77) rotate(-179.423) scale(8571.1 75.702)">
<stop stop-color="#FCFBDF"/>
<stop offset="0.01" stop-color="#F6F5D9"/>
<stop offset="0.05" stop-color="#C8C7B1"/>
<stop offset="0.09" stop-color="#9D9C8B"/>
<stop offset="0.14" stop-color="#777769"/>
<stop offset="0.19" stop-color="#57564D"/>
<stop offset="0.25" stop-color="#3B3B35"/>
<stop offset="0.32" stop-color="#252521"/>
<stop offset="0.4" stop-color="#141412"/>
<stop offset="0.49" stop-color="#090908"/>
<stop offset="0.63" stop-color="#020202"/>
<stop offset="1"/>
</radialGradient>
<radialGradient id="paint14_radial_153_424930" cx="0" cy="0" r="1" gradientUnits="userSpaceOnUse" gradientTransform="translate(3249.4 233.154) rotate(-106.144) scale(657.082 658.237)">
<stop stop-color="#FCFBDF"/>
<stop offset="0.01" stop-color="#F6F5D9"/>
<stop offset="0.05" stop-color="#C8C7B1"/>
<stop offset="0.09" stop-color="#9D9C8B"/>
<stop offset="0.14" stop-color="#777769"/>
<stop offset="0.19" stop-color="#57564D"/>
<stop offset="0.25" stop-color="#3B3B35"/>
<stop offset="0.32" stop-color="#252521"/>
<stop offset="0.4" stop-color="#141412"/>
<stop offset="0.49" stop-color="#090908"/>
<stop offset="0.63" stop-color="#020202"/>
<stop offset="1"/>
</radialGradient>
<radialGradient id="paint15_radial_153_424930" cx="0" cy="0" r="1" gradientUnits="userSpaceOnUse" gradientTransform="translate(875.015 10598.4) rotate(38.4078) scale(1033.21 957.143)">
<stop stop-color="#FCFBDF"/>
<stop offset="0.01" stop-color="#F6F5D9"/>
<stop offset="0.05" stop-color="#C8C7B1"/>
<stop offset="0.09" stop-color="#9D9C8B"/>
<stop offset="0.14" stop-color="#777769"/>
<stop offset="0.19" stop-color="#57564D"/>
<stop offset="0.25" stop-color="#3B3B35"/>
<stop offset="0.32" stop-color="#252521"/>
<stop offset="0.4" stop-color="#141412"/>
<stop offset="0.49" stop-color="#090908"/>
<stop offset="0.63" stop-color="#020202"/>
<stop offset="1"/>
</radialGradient>
<radialGradient id="paint16_radial_153_424930" cx="0" cy="0" r="1" gradientUnits="userSpaceOnUse" gradientTransform="translate(89647.3 -1162.62) rotate(-1.2037) scale(17376.6 205.633)">
<stop stop-color="#FCFBDF"/>
<stop offset="0.16" stop-color="#BCBCA7"/>
<stop offset="0.33" stop-color="#848375"/>
<stop offset="0.49" stop-color="#55544B"/>
<stop offset="0.64" stop-color="#30302A"/>
<stop offset="0.78" stop-color="#161513"/>
<stop offset="0.9" stop-color="#060605"/>
<stop offset="1"/>
</radialGradient>
<radialGradient id="paint17_radial_153_424930" cx="0" cy="0" r="1" gradientUnits="userSpaceOnUse" gradientTransform="translate(4713.22 1394.73) rotate(88.873) scale(328.48 332.675)">
<stop stop-color="#FCFBDF"/>
<stop offset="0.01" stop-color="#F6F5D9"/>
<stop offset="0.05" stop-color="#C8C7B1"/>
<stop offset="0.09" stop-color="#9D9C8B"/>
<stop offset="0.14" stop-color="#777769"/>
<stop offset="0.19" stop-color="#57564D"/>
<stop offset="0.25" stop-color="#3B3B35"/>
<stop offset="0.32" stop-color="#252521"/>
<stop offset="0.4" stop-color="#141412"/>
<stop offset="0.49" stop-color="#090908"/>
<stop offset="0.63" stop-color="#020202"/>
<stop offset="1"/>
</radialGradient>
<radialGradient id="paint18_radial_153_424930" cx="0" cy="0" r="1" gradientUnits="userSpaceOnUse" gradientTransform="translate(-3574.35 3261.41) rotate(153.479) scale(1915.72 85.2588)">
<stop stop-color="#FCFBDF"/>
<stop offset="0.01" stop-color="#F6F5D9"/>
<stop offset="0.05" stop-color="#C8C7B1"/>
<stop offset="0.09" stop-color="#9D9C8B"/>
<stop offset="0.14" stop-color="#777769"/>
<stop offset="0.19" stop-color="#57564D"/>
<stop offset="0.25" stop-color="#3B3B35"/>
<stop offset="0.32" stop-color="#252521"/>
<stop offset="0.4" stop-color="#141412"/>
<stop offset="0.49" stop-color="#090908"/>
<stop offset="0.63" stop-color="#020202"/>
<stop offset="1"/>
</radialGradient>
<radialGradient id="paint19_radial_153_424930" cx="0" cy="0" r="1" gradientUnits="userSpaceOnUse" gradientTransform="translate(2342.58 -2653.58) rotate(-152.492) scale(364.501 375.52)">
<stop stop-color="#FCFBDF"/>
<stop offset="0.01" stop-color="#F6F5D9"/>
<stop offset="0.05" stop-color="#C8C7B1"/>
<stop offset="0.09" stop-color="#9D9C8B"/>
<stop offset="0.14" stop-color="#777769"/>
<stop offset="0.19" stop-color="#57564D"/>
<stop offset="0.25" stop-color="#3B3B35"/>
<stop offset="0.32" stop-color="#252521"/>
<stop offset="0.4" stop-color="#141412"/>
<stop offset="0.49" stop-color="#090908"/>
<stop offset="0.63" stop-color="#020202"/>
<stop offset="1"/>
</radialGradient>
<radialGradient id="paint20_radial_153_424930" cx="0" cy="0" r="1" gradientUnits="userSpaceOnUse" gradientTransform="translate(24950 326.577) rotate(-1.2037) scale(3974.79 272.761)">
<stop stop-color="#FCFBDF"/>
<stop offset="0.01" stop-color="#F6F5D9"/>
<stop offset="0.05" stop-color="#C8C7B1"/>
<stop offset="0.09" stop-color="#9D9C8B"/>
<stop offset="0.14" stop-color="#777769"/>
<stop offset="0.19" stop-color="#57564D"/>
<stop offset="0.25" stop-color="#3B3B35"/>
<stop offset="0.32" stop-color="#252521"/>
<stop offset="0.4" stop-color="#141412"/>
<stop offset="0.49" stop-color="#090908"/>
<stop offset="0.63" stop-color="#020202"/>
<stop offset="1"/>
</radialGradient>
<radialGradient id="paint21_radial_153_424930" cx="0" cy="0" r="1" gradientUnits="userSpaceOnUse" gradientTransform="translate(60.6861 35.6876) scale(41.3769 4.52748)">
<stop stop-color="#FCFBDF"/>
<stop offset="0.16" stop-color="#BCBCA7"/>
<stop offset="0.33" stop-color="#848375"/>
<stop offset="0.49" stop-color="#55544B"/>
<stop offset="0.64" stop-color="#30302A"/>
<stop offset="0.78" stop-color="#161513"/>
<stop offset="0.9" stop-color="#060605"/>
<stop offset="1"/>
</radialGradient>
<radialGradient id="paint22_radial_153_424930" cx="0" cy="0" r="1" gradientUnits="userSpaceOnUse" gradientTransform="translate(61.776 35.8261) rotate(90) scale(17.5513 4.47503)">
<stop stop-color="#FCFBDF"/>
<stop offset="0.01" stop-color="#F6F5D9"/>
<stop offset="0.05" stop-color="#C8C7B1"/>
<stop offset="0.09" stop-color="#9D9C8B"/>
<stop offset="0.14" stop-color="#777769"/>
<stop offset="0.19" stop-color="#57564D"/>
<stop offset="0.25" stop-color="#3B3B35"/>
<stop offset="0.32" stop-color="#252521"/>
<stop offset="0.4" stop-color="#141412"/>
<stop offset="0.49" stop-color="#090908"/>
<stop offset="0.63" stop-color="#020202"/>
<stop offset="1"/>
</radialGradient>
<radialGradient id="paint23_radial_153_424930" cx="0" cy="0" r="1" gradientUnits="userSpaceOnUse" gradientTransform="translate(-13941 11640.5) rotate(143.981) scale(7705.07 81.12)">
<stop stop-color="#FCFBDF"/>
<stop offset="0.01" stop-color="#F6F5D9"/>
<stop offset="0.05" stop-color="#C8C7B1"/>
<stop offset="0.09" stop-color="#9D9C8B"/>
<stop offset="0.14" stop-color="#777769"/>
<stop offset="0.19" stop-color="#57564D"/>
<stop offset="0.25" stop-color="#3B3B35"/>
<stop offset="0.32" stop-color="#252521"/>
<stop offset="0.4" stop-color="#141412"/>
<stop offset="0.49" stop-color="#090908"/>
<stop offset="0.63" stop-color="#020202"/>
<stop offset="1"/>
</radialGradient>
<radialGradient id="paint24_radial_153_424930" cx="0" cy="0" r="1" gradientUnits="userSpaceOnUse" gradientTransform="translate(5645.29 -4626.44) rotate(-144.072) scale(593.728 591.321)">
<stop stop-color="#FCFBDF"/>
<stop offset="0.01" stop-color="#F6F5D9"/>
<stop offset="0.05" stop-color="#C8C7B1"/>
<stop offset="0.09" stop-color="#9D9C8B"/>
<stop offset="0.14" stop-color="#777769"/>
<stop offset="0.19" stop-color="#57564D"/>
<stop offset="0.25" stop-color="#3B3B35"/>
<stop offset="0.32" stop-color="#252521"/>
<stop offset="0.4" stop-color="#141412"/>
<stop offset="0.49" stop-color="#090908"/>
<stop offset="0.63" stop-color="#020202"/>
<stop offset="1"/>
</radialGradient>
<radialGradient id="paint25_radial_153_424930" cx="0" cy="0" r="1" gradientUnits="userSpaceOnUse" gradientTransform="translate(23722.2 425.128) scale(3631.85 216.618)">
<stop stop-color="#FCFBDF"/>
<stop offset="0.01" stop-color="#F6F5D9"/>
<stop offset="0.05" stop-color="#C8C7B1"/>
<stop offset="0.09" stop-color="#9D9C8B"/>
<stop offset="0.14" stop-color="#777769"/>
<stop offset="0.19" stop-color="#57564D"/>
<stop offset="0.25" stop-color="#3B3B35"/>
<stop offset="0.32" stop-color="#252521"/>
<stop offset="0.4" stop-color="#141412"/>
<stop offset="0.49" stop-color="#090908"/>
<stop offset="0.63" stop-color="#020202"/>
<stop offset="1"/>
</radialGradient>
</defs>
</svg>
