<svg width="120" height="120" viewBox="0 0 120 120" fill="none" xmlns="http://www.w3.org/2000/svg">
<g clip-path="url(#clip0_461_213841)">
<g clip-path="url(#clip1_461_213841)">
<path d="M468.571 0H-80V120H468.571V0Z" fill="url(#paint0_radial_461_213841)"/>
<path d="M61.5532 91.2455C74.9463 91.2455 85.8033 80.3883 85.8033 66.9954C85.8033 53.6024 74.9463 42.7453 61.5532 42.7453C48.1603 42.7453 37.3031 53.6024 37.3031 66.9954C37.3031 80.3883 48.1603 91.2455 61.5532 91.2455Z" fill="url(#paint1_radial_461_213841)"/>
<path style="mix-blend-mode:multiply" d="M61.5532 91.2455C74.9463 91.2455 85.8033 80.3883 85.8033 66.9954C85.8033 53.6024 74.9463 42.7453 61.5532 42.7453C48.1603 42.7453 37.3031 53.6024 37.3031 66.9954C37.3031 80.3883 48.1603 91.2455 61.5532 91.2455Z" fill="url(#paint2_radial_461_213841)"/>
<path d="M61.3537 97.6265C44.4619 97.6265 30.7131 83.8847 30.7131 66.9862C30.7131 50.0874 44.4549 36.3456 61.3537 36.3456C78.2522 36.3456 91.9945 50.0874 91.9945 66.9862C91.9945 83.8847 78.2453 97.6265 61.3537 97.6265ZM61.3537 39.7555C55.9664 39.7569 50.7006 41.3557 46.222 44.3497C41.7432 47.3437 38.2529 51.5984 36.1923 56.576C34.1318 61.5534 33.5933 67.0303 34.645 72.3139C35.6968 77.5974 38.2917 82.4504 42.1016 86.2593C45.9116 90.0682 50.765 92.6618 56.0488 93.7123C61.3329 94.7627 66.8095 94.223 71.7865 92.1611C76.7635 90.099 81.0174 86.6077 84.0103 82.1284C87.0029 77.6488 88.6 72.3827 88.6 66.9954C88.5923 59.7725 85.7183 52.8478 80.6101 47.7409C75.502 42.6342 68.5766 39.7623 61.3537 39.7555Z" fill="url(#paint3_linear_461_213841)"/>
<path d="M61.5532 94.4071C56.1312 94.4071 50.831 92.7993 46.3226 89.7868C41.8145 86.7744 38.3006 82.4928 36.2259 77.4835C34.151 72.4741 33.6084 66.9618 34.6663 61.6441C35.7242 56.3262 38.3353 51.4415 42.1697 47.6077C46.0037 43.7739 50.8885 41.1631 56.2065 40.1056C61.5244 39.0481 67.0365 39.5914 72.0458 41.6666C77.0549 43.7419 81.3363 47.2559 84.3482 51.7644C87.3598 56.273 88.9672 61.5732 88.9672 66.9955C88.9595 74.2633 86.0675 81.2308 80.9283 86.3697C75.789 91.5085 68.8211 94.3989 61.5532 94.4071ZM61.5532 42.9751C56.803 42.977 52.1598 44.3873 48.2109 47.0278C44.2621 49.6683 41.1847 53.4204 39.368 57.8098C37.5514 62.199 37.0771 67.0283 38.0049 71.6871C38.9328 76.346 41.2214 80.6253 44.581 83.9836C47.9405 87.3419 52.2206 89.6287 56.88 90.5548C61.5391 91.481 66.3684 91.0047 70.7568 89.1862C75.1455 87.3681 78.8964 84.2894 81.5353 80.3395C84.1743 76.3894 85.5827 71.7457 85.5827 66.9955C85.5742 60.6265 83.0392 54.5212 78.5341 50.0192C74.0291 45.5172 67.9221 42.9864 61.5532 42.9821V42.9751Z" fill="url(#paint4_linear_461_213841)"/>
<path d="M61.5532 94.7204C56.0691 94.7204 50.7083 93.094 46.1486 90.0472C41.5889 87.0004 38.0349 82.67 35.9363 77.6034C33.8378 72.5365 33.2888 66.9616 34.359 61.5827C35.429 56.2042 38.0701 51.2637 41.9481 47.3861C45.8258 43.5084 50.7666 40.8679 56.1454 39.7983C61.5242 38.7286 67.0992 39.2781 72.1657 41.377C77.2321 43.476 81.5625 47.0303 84.6088 51.5903C87.6551 56.1503 89.2805 61.5114 89.2805 66.9955C89.2728 74.3465 86.3487 81.3941 81.1504 86.5919C75.9523 91.7896 68.9043 94.713 61.5532 94.7204ZM61.5532 39.7254C56.1603 39.7272 50.8888 41.3281 46.4053 44.3257C41.9222 47.3233 38.4283 51.5829 36.3656 56.566C34.303 61.5491 33.7643 67.0319 34.8176 72.3211C35.8709 77.6106 38.4689 82.4686 42.2832 86.2814C46.0972 90.0942 50.9563 92.6906 56.2458 93.7421C61.5355 94.7936 67.018 94.2531 72.0004 92.1887C76.983 90.1245 81.2413 86.6291 84.2375 82.1449C87.234 77.6604 88.8337 72.3884 88.8337 66.9955C88.8234 59.7651 85.945 52.8338 80.8307 47.7226C75.7166 42.6115 68.7836 39.7379 61.5532 39.7323V39.7254Z" fill="url(#paint5_linear_461_213841)"/>
<path style="mix-blend-mode:screen" opacity="0.56" d="M85.0212 67.1069C85.0248 70.0353 84.4781 72.9383 83.4102 75.6652C81.6878 71.2714 78.681 67.4987 74.7822 64.8393C70.8837 62.18 66.2739 60.7575 61.5545 60.7575C56.835 60.7575 52.2253 62.18 48.3265 64.8393C44.4277 67.4987 41.4209 71.2714 39.6988 75.6652C38.4393 72.4515 37.9045 68.9998 38.1317 65.5557C38.3592 62.1117 39.3434 58.76 41.0144 55.7399C42.6852 52.7199 45.0018 50.1055 47.7988 48.0831C50.5958 46.0606 53.8044 44.68 57.1958 44.0395C60.5875 43.3991 64.0788 43.5146 67.4206 44.3778C70.7625 45.241 73.8727 46.8306 76.53 49.0335C79.1871 51.2363 81.3257 53.9981 82.7934 57.1221C84.2611 60.246 85.0217 63.6554 85.0212 67.1069Z" fill="url(#paint6_radial_461_213841)"/>
<path d="M72.8881 56.4312L70.9358 56.5144L70.7977 52.8012C70.7802 52.4183 71.0912 52.1018 71.4887 52.0852L71.9896 52.0686C72.3869 52.052 72.7153 52.3517 72.7325 52.7346L72.8881 56.4312Z" fill="url(#paint7_linear_461_213841)"/>
<path d="M72.8876 56.4316L71.9203 56.4648L71.7475 52.0523L72.0066 52.0357C72.4038 52.019 72.732 52.3187 72.7492 52.7017L72.8876 56.4316Z" fill="url(#paint8_linear_461_213841)"/>
<path d="M74.6677 57.9469C74.8402 59.7119 74.754 61.5268 74.3911 63.3583C72.3182 73.6486 61.9871 80.3757 51.3106 78.3775C49.4103 78.0278 47.6309 77.4118 45.9896 76.5958C45.8687 76.5293 44.7977 75.8799 44.1411 74.9476C43.813 74.4813 43.5711 73.9483 43.6055 73.3823C43.6055 73.3823 43.6055 73.3823 43.6055 73.3657C43.6055 73.2989 43.6227 73.2324 43.6402 73.1823C43.6574 73.1158 43.6746 73.066 43.7092 73.0159C43.9511 72.583 44.5558 72.3165 45.333 72.1501C47.0262 71.7837 49.4966 71.9003 50.5331 71.8505H50.5503C50.8097 71.8505 51.0516 71.8338 51.3106 71.8171C51.3278 71.8171 51.3451 71.8171 51.3451 71.8171C51.6216 71.8004 51.8979 71.7837 52.1744 71.7506C52.2607 71.7506 52.3472 71.7339 52.4163 71.7339C52.4854 71.7172 52.5544 71.7172 52.6407 71.7005C52.7098 71.7005 52.7791 71.6838 52.8482 71.6671C52.9517 71.6507 53.0382 71.6507 53.1419 71.634C53.3319 71.6006 53.5219 71.5839 53.6948 71.5506C53.7982 71.5341 53.902 71.5174 54.0229 71.484C54.3166 71.434 54.6104 71.3675 54.8867 71.301C54.9732 71.2843 55.0595 71.2676 55.1632 71.2342C55.2495 71.2178 55.336 71.1844 55.4395 71.1677C55.6986 71.1012 55.9751 71.0178 56.2342 70.9346C56.2514 70.9346 56.2689 70.9179 56.2861 70.9179L56.3551 70.9012C56.7352 70.7846 57.1152 70.6516 57.4955 70.5016C57.8408 70.3684 58.2036 70.2184 58.5492 70.0687C58.6011 70.052 58.6355 70.0354 58.6874 70.0022L58.7392 69.9855C58.9639 69.8857 59.1883 69.7691 59.413 69.6525C59.4302 69.6358 59.4649 69.6358 59.4821 69.6191C59.5167 69.6024 59.5339 69.586 59.5686 69.5691C60.2077 69.2363 60.8124 68.8866 61.4171 68.487C61.5378 68.4203 61.6415 68.3371 61.7624 68.2539C61.8662 68.1871 61.9699 68.1039 62.0909 68.0207C62.1081 68.004 62.1253 67.9874 62.1425 67.9874C62.1943 67.9373 62.2634 67.9042 62.3153 67.8541C62.4881 67.7211 62.6609 67.5878 62.8337 67.4546C62.92 67.3881 63.0065 67.3213 63.0928 67.2548C63.2137 67.1549 63.3519 67.0383 63.4728 66.9218C63.5247 66.8717 63.5765 66.8383 63.6112 66.7885C63.7837 66.6385 63.9565 66.4889 64.1121 66.3222C64.8375 65.623 65.5288 64.8738 66.1332 64.0578C66.1506 64.0411 66.1506 64.0244 66.1678 64.0077C66.4097 63.708 66.6344 63.3917 66.8416 63.0587C66.9453 62.9087 67.0491 62.759 67.1353 62.6091C67.2044 62.4925 67.291 62.3595 67.36 62.2429C67.3772 62.2262 67.3944 62.1928 67.3944 62.1761C67.55 61.9099 67.7054 61.6267 67.8438 61.3437C68.6382 59.8282 69.2257 58.18 69.5713 56.4481C69.6057 56.2651 69.6404 56.082 69.6748 55.8986C69.6748 55.8986 69.6923 55.8488 69.7267 55.7654C69.7439 55.7323 69.7439 55.7156 69.7613 55.6822C69.7613 55.6658 69.7785 55.6491 69.7785 55.6324C69.7785 55.6157 69.7957 55.599 69.7957 55.5823C69.9513 55.266 70.2623 54.8331 70.8151 54.55C71.2123 54.3502 71.7308 54.2336 72.4045 54.3336C73.0436 54.4335 73.5102 54.8331 73.8558 55.3492C74.3739 56.1485 74.5812 57.2641 74.6677 57.9469Z" fill="url(#paint9_linear_461_213841)"/>
<path d="M72.4043 54.3169C72.4043 54.3336 72.4043 54.3336 72.4043 54.3502C72.6118 56.0319 72.5946 57.7636 72.3008 59.5122C72.2662 59.7451 72.2143 59.9782 72.1799 60.2113C70.1067 70.5016 59.7759 77.2288 49.0991 75.2306C47.51 74.9309 46.0241 74.4646 44.6075 73.8486C44.4002 73.7485 44.1928 73.6653 43.9856 73.5654C43.8646 73.4989 43.7265 73.4322 43.6055 73.3823C43.6055 73.3158 43.6227 73.2491 43.6399 73.1993C43.6574 73.1325 43.6746 73.0827 43.709 73.0326C43.9509 72.5997 44.5556 72.3332 45.3331 72.1668C47.0262 71.8004 49.4966 71.917 50.5332 71.8671H50.5504C50.8095 71.8671 51.0513 71.8505 51.3107 71.8338C51.3279 71.8338 51.3451 71.8338 51.3451 71.8338C51.6216 71.8171 51.8979 71.8004 52.1744 71.7673C52.1917 71.7673 52.2261 71.7673 52.2435 71.7673C52.2954 71.7673 52.3645 71.7506 52.4163 71.7506C52.4854 71.7339 52.5545 71.7339 52.6408 71.7172C52.7273 71.7005 52.7789 71.7005 52.8482 71.6838C52.9517 71.6674 53.0382 71.6674 53.1417 71.6507C53.3317 71.6173 53.5217 71.5839 53.6945 71.5672C53.7983 71.5508 53.902 71.5341 54.0229 71.5007C54.213 71.4674 54.3855 71.4342 54.5583 71.3842C54.662 71.3675 54.7658 71.3343 54.8867 71.3177C54.973 71.301 55.0595 71.2676 55.163 71.2509C55.2495 71.2342 55.3358 71.2011 55.4395 71.1844C55.6986 71.1179 55.9752 71.0344 56.2342 70.9512C56.2514 70.9512 56.2686 70.9346 56.2861 70.9346L56.3552 70.9179C56.4243 70.9012 56.4933 70.8681 56.5624 70.8514C56.8733 70.7515 57.1843 70.6349 57.4952 70.5183C57.8062 70.4018 58.0999 70.2685 58.4109 70.1352C58.4627 70.1188 58.4974 70.1021 58.549 70.0687C58.6009 70.052 58.6355 70.0356 58.6874 70.0022L58.7393 69.9855C58.8774 69.919 59.0156 69.8523 59.1537 69.7858C59.2402 69.7357 59.3265 69.7026 59.413 69.6692C59.4303 69.6525 59.4647 69.6525 59.4821 69.6358C59.5165 69.6191 59.534 69.6024 59.5684 69.586C59.6893 69.5192 59.8103 69.4527 59.9312 69.386C60.0177 69.3362 60.104 69.2861 60.1903 69.2363C60.2249 69.2196 60.2768 69.1862 60.3112 69.1695C60.4322 69.103 60.5531 69.0198 60.674 68.9531C60.795 68.8866 60.8987 68.8201 61.0025 68.7366C61.1406 68.6534 61.2615 68.5702 61.3997 68.487C61.5206 68.4036 61.6243 68.3371 61.7453 68.2539C61.8488 68.1707 61.9525 68.1039 62.0734 68.0207C62.0906 68.004 62.1081 67.9874 62.1253 67.9874C62.1772 67.9375 62.2462 67.9042 62.2981 67.8541C62.4707 67.7211 62.6435 67.5878 62.8163 67.4546C62.9025 67.3881 62.9891 67.3213 63.0754 67.2548C63.1963 67.1549 63.3344 67.0383 63.4554 66.9218C63.5072 66.8717 63.5591 66.8386 63.5938 66.7885C63.6456 66.7387 63.6972 66.7053 63.7319 66.6552C63.8528 66.5387 63.9738 66.4388 64.0947 66.3222C64.1985 66.2223 64.2847 66.1391 64.3885 66.0392C64.5094 65.9227 64.6131 65.8228 64.7166 65.7062C64.7685 65.6561 64.8204 65.5896 64.8894 65.5231C64.9241 65.4731 64.9757 65.423 65.0104 65.3899C65.1141 65.29 65.2004 65.1734 65.3041 65.0735C65.4076 64.957 65.4941 64.8571 65.5979 64.7405C65.6669 64.6571 65.7532 64.5574 65.8223 64.474C65.926 64.3407 66.0297 64.2077 66.1332 64.0744C66.1507 64.0578 66.1507 64.0411 66.1679 64.0244C66.2714 63.8911 66.3579 63.7748 66.4442 63.6415C66.496 63.5581 66.5651 63.4749 66.617 63.3917C66.686 63.2918 66.7551 63.1752 66.8416 63.0754C66.9107 62.9755 66.9626 62.8923 67.0316 62.7921C67.0661 62.7423 67.1007 62.6758 67.1354 62.6257C67.2045 62.5092 67.2907 62.3759 67.3598 62.2593C67.377 62.2429 67.3945 62.2095 67.3945 62.1928C67.4463 62.093 67.5154 61.9931 67.567 61.8765C67.6189 61.7933 67.6536 61.7101 67.7054 61.6267C67.7573 61.5435 67.7917 61.4603 67.8436 61.3604C67.9126 61.2438 67.9645 61.1105 68.0336 60.9773C68.0682 60.9108 68.1026 60.844 68.1373 60.7775C68.2236 60.6111 68.2927 60.4445 68.362 60.2778C68.4136 60.1615 68.4654 60.0614 68.5001 59.9448C68.5692 59.7784 68.6383 59.612 68.7073 59.4454C68.742 59.3288 68.7939 59.2123 68.8283 59.0957C68.8973 58.9293 68.9492 58.7462 69.0011 58.5629C69.0357 58.4463 69.0702 58.3464 69.1048 58.2299C69.1739 58.0301 69.2257 57.8303 69.2776 57.6472C69.2948 57.5638 69.312 57.4973 69.3467 57.4141C69.3467 57.3807 69.3639 57.3473 69.3639 57.3309C69.433 57.0477 69.502 56.748 69.5711 56.4648C69.6058 56.2817 69.6404 56.0987 69.6748 55.9153C69.6748 55.9153 69.692 55.8655 69.7267 55.7823C69.7439 55.7489 69.7439 55.7323 69.7614 55.6989C69.7614 55.6822 69.7786 55.6658 69.7786 55.6491C69.7786 55.6324 69.7958 55.6157 69.7958 55.599C69.9514 55.2827 70.2623 54.8497 70.8152 54.5667C71.2124 54.3336 71.7305 54.217 72.4043 54.3169Z" fill="url(#paint10_linear_461_213841)"/>
<path d="M45.3505 72.1169C44.4521 72.8662 44.0027 73.7821 44.1411 74.9309C43.813 74.4648 43.5711 73.932 43.6055 73.3659C43.6055 73.3659 43.6055 73.3659 43.6055 73.3492C43.6055 73.2824 43.6227 73.2159 43.6402 73.1658C43.6574 73.0993 43.6746 73.0493 43.7092 72.9995C43.9683 72.5499 44.5902 72.2833 45.3505 72.1169Z" fill="url(#paint11_linear_461_213841)"/>
<path style="mix-blend-mode:color-dodge" d="M104.255 99.9336C105.914 97.8019 90.9597 83.3899 70.8539 67.7434C50.7478 52.0969 33.1039 41.141 31.4449 43.2726C29.7862 45.4043 44.7404 59.8164 64.8465 75.4627C84.9526 91.1092 102.597 102.065 104.255 99.9336Z" fill="url(#paint12_radial_461_213841)"/>
<path style="mix-blend-mode:color-dodge" d="M71.0005 74.0546C77.562 65.623 81.4706 57.6904 79.7307 56.3364C77.9908 54.9825 71.2614 60.72 64.6999 69.1515C58.1387 77.5831 54.2299 85.5157 55.9698 86.8697C57.7096 88.2236 64.4393 82.4861 71.0005 74.0546Z" fill="url(#paint13_radial_461_213841)"/>
<path style="mix-blend-mode:color-dodge" d="M67.8235 74.4274C85.3691 74.602 99.6051 73.4765 99.6206 71.9138C99.636 70.3511 85.4253 68.943 67.8797 68.7684C50.3342 68.5938 36.0981 69.7192 36.0824 71.2819C36.0667 72.8446 50.2777 74.2527 67.8235 74.4274Z" fill="url(#paint14_radial_461_213841)"/>
<path style="mix-blend-mode:color-dodge" d="M74.8343 95.4514C76.4625 94.9748 74.6554 83.9091 70.7979 70.7353C66.9407 57.5617 62.494 47.2688 60.8661 47.7455C59.2382 48.2222 61.0453 59.288 64.9025 72.4615C68.7597 85.6353 73.2064 95.9282 74.8343 95.4514Z" fill="url(#paint15_radial_461_213841)"/>
<path style="mix-blend-mode:screen" d="M85.753 85.8654C87.632 83.4667 81.4575 75.4871 71.9593 68.0428C62.4614 60.5983 53.2375 56.5079 51.3574 58.9067C49.4773 61.3054 55.6529 69.2848 65.1508 76.7293C74.649 84.1738 83.8729 88.2642 85.753 85.8654Z" fill="url(#paint16_radial_461_213841)"/>
<path style="mix-blend-mode:color-dodge" d="M60.0991 44.3248C84.9516 43.8085 105.054 41.2392 105 38.5861C104.943 35.9329 84.7521 34.2006 59.8996 34.7169C35.0471 35.2331 14.9449 37.8024 15.0001 40.4555C15.0553 43.1087 35.2467 44.841 60.0991 44.3248Z" fill="url(#paint17_radial_461_213841)"/>
<path style="mix-blend-mode:color-dodge" d="M60.1721 48.1773C62.7791 48.1254 64.8224 44.5652 64.7361 40.2252C64.6499 35.8852 62.4663 32.4091 59.8593 32.461C57.2523 32.5128 55.209 36.0731 55.2952 40.4131C55.3815 44.753 57.5651 48.2292 60.1721 48.1773Z" fill="url(#paint18_radial_461_213841)"/>
<path style="mix-blend-mode:color-dodge" d="M61.2702 42.5301C68.7271 38.8512 74.1393 34.5864 73.359 33.0044C72.5784 31.4225 65.9008 33.1224 58.444 36.8013C50.9871 40.4802 45.575 44.7451 46.3553 46.327C47.1359 47.909 53.8134 46.2091 61.2702 42.5301Z" fill="url(#paint19_radial_461_213841)"/>
<path style="mix-blend-mode:color-dodge" d="M72.4536 45.9296C73.2087 44.4627 68.2225 40.3913 61.3162 36.8359C54.4101 33.2806 48.1994 31.5876 47.4442 33.0545C46.6891 34.5214 51.6753 38.5928 58.5813 42.1482C65.4877 45.7035 71.6984 47.3966 72.4536 45.9296Z" fill="url(#paint20_radial_461_213841)"/>
<path style="mix-blend-mode:screen" d="M60.112 44.949C71.8859 44.7044 81.3799 42.078 81.3178 39.0826C81.2554 36.0872 71.6604 33.8573 59.8868 34.1018C48.1129 34.3464 38.6188 36.9729 38.681 39.9683C38.7434 42.9636 48.3383 45.1936 60.112 44.949Z" fill="url(#paint21_radial_461_213841)"/>
<path style="mix-blend-mode:color-dodge" d="M59.2982 41.421C82.0113 41.421 100.424 39.4677 100.424 37.0581C100.424 34.6486 82.0113 32.6953 59.2982 32.6953C36.5852 32.6953 18.1725 34.6486 18.1725 37.0581C18.1725 39.4677 36.5852 41.421 59.2982 41.421Z" fill="url(#paint22_radial_461_213841)"/>
<path style="mix-blend-mode:color-dodge" d="M59.2983 54.3149C61.6806 54.3149 63.612 46.5888 63.612 37.0581C63.612 27.5275 61.6806 19.8013 59.2983 19.8013C56.916 19.8013 54.9846 27.5275 54.9846 37.0581C54.9846 46.5888 56.916 54.3149 59.2983 54.3149Z" fill="url(#paint23_radial_461_213841)"/>
<path style="mix-blend-mode:color-dodge" d="M61.0697 39.5234C73.8281 30.3534 83.3758 21.8126 82.3954 20.4469C81.4148 19.0811 70.2777 25.4077 57.5194 34.5777C44.7612 43.7476 35.2135 52.2885 36.1939 53.6542C37.1745 55.0199 48.3116 48.6933 61.0697 39.5234Z" fill="url(#paint24_radial_461_213841)"/>
<path style="mix-blend-mode:color-dodge" d="M77.3186 49.9658C78.2168 48.7106 70.8737 41.9113 60.9175 34.779C50.9615 27.6467 42.1625 22.8823 41.2643 24.1375C40.3664 25.3926 47.7092 32.192 57.6655 39.3243C67.6217 46.4566 76.4207 51.2209 77.3186 49.9658Z" fill="url(#paint25_radial_461_213841)"/>
<path style="mix-blend-mode:screen" d="M59.2982 41.9817C70.0587 41.9817 78.7817 39.7774 78.7817 37.0581C78.7817 34.3389 70.0587 32.1346 59.2982 32.1346C48.5378 32.1346 39.8148 34.3389 39.8148 37.0581C39.8148 39.7774 48.5378 41.9817 59.2982 41.9817Z" fill="url(#paint26_radial_461_213841)"/>
</g>
</g>
<defs>
<radialGradient id="paint0_radial_461_213841" cx="0" cy="0" r="1" gradientUnits="userSpaceOnUse" gradientTransform="translate(224.074 15.5241) scale(461.321 151.847)">
<stop stop-color="#414042"/>
<stop offset="1"/>
</radialGradient>
<radialGradient id="paint1_radial_461_213841" cx="0" cy="0" r="1" gradientUnits="userSpaceOnUse" gradientTransform="translate(59.0487 48.0238) scale(47.574 47.574)">
<stop stop-color="#58595B"/>
<stop offset="1"/>
</radialGradient>
<radialGradient id="paint2_radial_461_213841" cx="0" cy="0" r="1" gradientUnits="userSpaceOnUse" gradientTransform="translate(61.5532 66.9954) scale(24.2501 24.2501)">
<stop stop-color="white"/>
<stop offset="0.09" stop-color="#F9F9F9"/>
<stop offset="0.22" stop-color="#E8E8E8"/>
<stop offset="0.36" stop-color="#CDCDCD"/>
<stop offset="0.52" stop-color="#A7A7A7"/>
<stop offset="0.68" stop-color="#757575"/>
<stop offset="0.85" stop-color="#3A3A3A"/>
<stop offset="1"/>
</radialGradient>
<linearGradient id="paint3_linear_461_213841" x1="61.3537" y1="97.6265" x2="61.3537" y2="36.3619" gradientUnits="userSpaceOnUse">
<stop stop-color="#42210B"/>
<stop offset="0.11" stop-color="#44230C"/>
<stop offset="0.15" stop-color="#4B280E"/>
<stop offset="0.18" stop-color="#563212"/>
<stop offset="0.21" stop-color="#674018"/>
<stop offset="0.23" stop-color="#7D5220"/>
<stop offset="0.24" stop-color="#98682A"/>
<stop offset="0.25" stop-color="#A97630"/>
<stop offset="0.27" stop-color="#AE7C35"/>
<stop offset="0.29" stop-color="#BD8D44"/>
<stop offset="0.32" stop-color="#D6AA5B"/>
<stop offset="0.34" stop-color="#F8D17C"/>
<stop offset="0.35" stop-color="#FFD983"/>
<stop offset="0.38" stop-color="#FDD781"/>
<stop offset="0.4" stop-color="#F6CE7C"/>
<stop offset="0.42" stop-color="#EAC172"/>
<stop offset="0.44" stop-color="#D9AD64"/>
<stop offset="0.45" stop-color="#C39352"/>
<stop offset="0.46" stop-color="#A8743C"/>
<stop offset="0.47" stop-color="#7C4018"/>
<stop offset="0.54" stop-color="#874D1E"/>
<stop offset="0.64" stop-color="#A16D2E"/>
<stop offset="1" stop-color="#FCD681"/>
</linearGradient>
<linearGradient id="paint4_linear_461_213841" x1="61.3467" y1="35.7863" x2="61.7948" y2="103.258" gradientUnits="userSpaceOnUse">
<stop offset="0.06" stop-color="#662A12"/>
<stop offset="0.11" stop-color="#6B3013"/>
<stop offset="0.17" stop-color="#7B4016"/>
<stop offset="0.25" stop-color="#945C1A"/>
<stop offset="0.33" stop-color="#B78221"/>
<stop offset="0.42" stop-color="#E4B329"/>
<stop offset="0.46" stop-color="#FACB2D"/>
<stop offset="0.65" stop-color="#793F15"/>
<stop offset="0.66" stop-color="#80481B"/>
<stop offset="0.69" stop-color="#925F2C"/>
<stop offset="0.73" stop-color="#AF8547"/>
<stop offset="0.77" stop-color="#D7B96D"/>
<stop offset="0.8" stop-color="#FBE78E"/>
<stop offset="0.99" stop-color="#FBEC9F"/>
</linearGradient>
<linearGradient id="paint5_linear_461_213841" x1="61.5532" y1="94.7204" x2="61.5532" y2="39.2681" gradientUnits="userSpaceOnUse">
<stop offset="0.01" stop-color="#FBEC9F"/>
<stop offset="0.27" stop-color="#FBE78E"/>
<stop offset="0.62" stop-color="#FACB2D"/>
<stop offset="0.65" stop-color="#E4B329"/>
<stop offset="0.72" stop-color="#B78221"/>
<stop offset="0.79" stop-color="#945C1A"/>
<stop offset="0.85" stop-color="#7B4016"/>
<stop offset="0.9" stop-color="#6B3013"/>
<stop offset="0.94" stop-color="#662A12"/>
</linearGradient>
<radialGradient id="paint6_radial_461_213841" cx="0" cy="0" r="1" gradientUnits="userSpaceOnUse" gradientTransform="translate(55085.4 -315.141) scale(9726.97 6637.93)">
<stop stop-color="#58595B"/>
<stop offset="1"/>
</radialGradient>
<linearGradient id="paint7_linear_461_213841" x1="68.2611" y1="50.523" x2="72.2625" y2="55.3081" gradientUnits="userSpaceOnUse">
<stop stop-color="#FFE988"/>
<stop offset="0.25" stop-color="#BA801E"/>
<stop offset="0.5" stop-color="#FBEC83"/>
<stop offset="0.75" stop-color="#BA801F"/>
<stop offset="1" stop-color="#FFE97F"/>
</linearGradient>
<linearGradient id="paint8_linear_461_213841" x1="68.5489" y1="50.2832" x2="72.5504" y2="55.0672" gradientUnits="userSpaceOnUse">
<stop stop-color="#FFE988"/>
<stop offset="0.25" stop-color="#BA801E"/>
<stop offset="0.5" stop-color="#FBEC83"/>
<stop offset="0.75" stop-color="#BA801F"/>
<stop offset="1" stop-color="#FFE97F"/>
</linearGradient>
<linearGradient id="paint9_linear_461_213841" x1="43.1081" y1="65.0247" x2="96.4803" y2="69.2468" gradientUnits="userSpaceOnUse">
<stop stop-color="#FFE988"/>
<stop offset="0.25" stop-color="#BA801E"/>
<stop offset="0.5" stop-color="#FBEC83"/>
<stop offset="0.75" stop-color="#BA801F"/>
<stop offset="1" stop-color="#FFE97F"/>
</linearGradient>
<linearGradient id="paint10_linear_461_213841" x1="41.6346" y1="67.2301" x2="77.7656" y2="63.0124" gradientUnits="userSpaceOnUse">
<stop stop-color="#FFE988"/>
<stop offset="0.25" stop-color="#BA801E"/>
<stop offset="0.5" stop-color="#FBEC83"/>
<stop offset="0.75" stop-color="#BA801F"/>
<stop offset="1" stop-color="#FFE97F"/>
</linearGradient>
<linearGradient id="paint11_linear_461_213841" x1="42.4567" y1="71.2347" x2="44.7977" y2="73.7536" gradientUnits="userSpaceOnUse">
<stop stop-color="#FFE988"/>
<stop offset="0.25" stop-color="#BA801E"/>
<stop offset="0.5" stop-color="#FBEC83"/>
<stop offset="0.75" stop-color="#BA801F"/>
<stop offset="1" stop-color="#FFE97F"/>
</linearGradient>
<radialGradient id="paint12_radial_461_213841" cx="0" cy="0" r="1" gradientUnits="userSpaceOnUse" gradientTransform="translate(68.4156 73.4989) rotate(37.8899) scale(46.4116 5.01748)">
<stop stop-color="#FCFBDF"/>
<stop offset="0.16" stop-color="#BCBCA7"/>
<stop offset="0.33" stop-color="#848375"/>
<stop offset="0.49" stop-color="#55544B"/>
<stop offset="0.64" stop-color="#30302A"/>
<stop offset="0.78" stop-color="#161513"/>
<stop offset="0.9" stop-color="#060605"/>
<stop offset="1"/>
</radialGradient>
<radialGradient id="paint13_radial_461_213841" cx="0" cy="0" r="1" gradientUnits="userSpaceOnUse" gradientTransform="translate(64.4218 69.6843) rotate(127.89) scale(19.4508 3.76468)">
<stop stop-color="#FCFBDF"/>
<stop offset="0.01" stop-color="#F6F5D9"/>
<stop offset="0.05" stop-color="#C8C7B1"/>
<stop offset="0.09" stop-color="#9D9C8B"/>
<stop offset="0.14" stop-color="#777769"/>
<stop offset="0.19" stop-color="#57564D"/>
<stop offset="0.25" stop-color="#3B3B35"/>
<stop offset="0.32" stop-color="#252521"/>
<stop offset="0.4" stop-color="#141412"/>
<stop offset="0.49" stop-color="#090908"/>
<stop offset="0.63" stop-color="#020202"/>
<stop offset="1"/>
</radialGradient>
<radialGradient id="paint14_radial_461_213841" cx="0" cy="0" r="1" gradientUnits="userSpaceOnUse" gradientTransform="translate(-26470.1 1575.66) rotate(-179.43) scale(8571.1 74.8401)">
<stop stop-color="#FCFBDF"/>
<stop offset="0.01" stop-color="#F6F5D9"/>
<stop offset="0.05" stop-color="#C8C7B1"/>
<stop offset="0.09" stop-color="#9D9C8B"/>
<stop offset="0.14" stop-color="#777769"/>
<stop offset="0.19" stop-color="#57564D"/>
<stop offset="0.25" stop-color="#3B3B35"/>
<stop offset="0.32" stop-color="#252521"/>
<stop offset="0.4" stop-color="#141412"/>
<stop offset="0.49" stop-color="#090908"/>
<stop offset="0.63" stop-color="#020202"/>
<stop offset="1"/>
</radialGradient>
<radialGradient id="paint15_radial_461_213841" cx="0" cy="0" r="1" gradientUnits="userSpaceOnUse" gradientTransform="translate(3249.4 232.506) rotate(-106.32) scale(650.182 657.648)">
<stop stop-color="#FCFBDF"/>
<stop offset="0.01" stop-color="#F6F5D9"/>
<stop offset="0.05" stop-color="#C8C7B1"/>
<stop offset="0.09" stop-color="#9D9C8B"/>
<stop offset="0.14" stop-color="#777769"/>
<stop offset="0.19" stop-color="#57564D"/>
<stop offset="0.25" stop-color="#3B3B35"/>
<stop offset="0.32" stop-color="#252521"/>
<stop offset="0.4" stop-color="#141412"/>
<stop offset="0.49" stop-color="#090908"/>
<stop offset="0.63" stop-color="#020202"/>
<stop offset="1"/>
</radialGradient>
<radialGradient id="paint16_radial_461_213841" cx="0" cy="0" r="1" gradientUnits="userSpaceOnUse" gradientTransform="translate(875.679 10479.5) rotate(38.0888) scale(1028.68 950.407)">
<stop stop-color="#FCFBDF"/>
<stop offset="0.01" stop-color="#F6F5D9"/>
<stop offset="0.05" stop-color="#C8C7B1"/>
<stop offset="0.09" stop-color="#9D9C8B"/>
<stop offset="0.14" stop-color="#777769"/>
<stop offset="0.19" stop-color="#57564D"/>
<stop offset="0.25" stop-color="#3B3B35"/>
<stop offset="0.32" stop-color="#252521"/>
<stop offset="0.4" stop-color="#141412"/>
<stop offset="0.49" stop-color="#090908"/>
<stop offset="0.63" stop-color="#020202"/>
<stop offset="1"/>
</radialGradient>
<radialGradient id="paint17_radial_461_213841" cx="0" cy="0" r="1" gradientUnits="userSpaceOnUse" gradientTransform="translate(89647.3 -1147.37) rotate(-1.19) scale(17376.5 203.293)">
<stop stop-color="#FCFBDF"/>
<stop offset="0.16" stop-color="#BCBCA7"/>
<stop offset="0.33" stop-color="#848375"/>
<stop offset="0.49" stop-color="#55544B"/>
<stop offset="0.64" stop-color="#30302A"/>
<stop offset="0.78" stop-color="#161513"/>
<stop offset="0.9" stop-color="#060605"/>
<stop offset="1"/>
</radialGradient>
<radialGradient id="paint18_radial_461_213841" cx="0" cy="0" r="1" gradientUnits="userSpaceOnUse" gradientTransform="translate(4713.22 1380.85) rotate(88.86) scale(324.742 332.673)">
<stop stop-color="#FCFBDF"/>
<stop offset="0.01" stop-color="#F6F5D9"/>
<stop offset="0.05" stop-color="#C8C7B1"/>
<stop offset="0.09" stop-color="#9D9C8B"/>
<stop offset="0.14" stop-color="#777769"/>
<stop offset="0.19" stop-color="#57564D"/>
<stop offset="0.25" stop-color="#3B3B35"/>
<stop offset="0.32" stop-color="#252521"/>
<stop offset="0.4" stop-color="#141412"/>
<stop offset="0.49" stop-color="#090908"/>
<stop offset="0.63" stop-color="#020202"/>
<stop offset="1"/>
</radialGradient>
<radialGradient id="paint19_radial_461_213841" cx="0" cy="0" r="1" gradientUnits="userSpaceOnUse" gradientTransform="translate(-3574.35 3226.28) rotate(153.74) scale(1911.39 84.479)">
<stop stop-color="#FCFBDF"/>
<stop offset="0.01" stop-color="#F6F5D9"/>
<stop offset="0.05" stop-color="#C8C7B1"/>
<stop offset="0.09" stop-color="#9D9C8B"/>
<stop offset="0.14" stop-color="#777769"/>
<stop offset="0.19" stop-color="#57564D"/>
<stop offset="0.25" stop-color="#3B3B35"/>
<stop offset="0.32" stop-color="#252521"/>
<stop offset="0.4" stop-color="#141412"/>
<stop offset="0.49" stop-color="#090908"/>
<stop offset="0.63" stop-color="#020202"/>
<stop offset="1"/>
</radialGradient>
<radialGradient id="paint20_radial_461_213841" cx="0" cy="0" r="1" gradientUnits="userSpaceOnUse" gradientTransform="translate(2342.58 -2621.36) rotate(-152.76) scale(363.619 372.144)">
<stop stop-color="#FCFBDF"/>
<stop offset="0.01" stop-color="#F6F5D9"/>
<stop offset="0.05" stop-color="#C8C7B1"/>
<stop offset="0.09" stop-color="#9D9C8B"/>
<stop offset="0.14" stop-color="#777769"/>
<stop offset="0.19" stop-color="#57564D"/>
<stop offset="0.25" stop-color="#3B3B35"/>
<stop offset="0.32" stop-color="#252521"/>
<stop offset="0.4" stop-color="#141412"/>
<stop offset="0.49" stop-color="#090908"/>
<stop offset="0.63" stop-color="#020202"/>
<stop offset="1"/>
</radialGradient>
<radialGradient id="paint21_radial_461_213841" cx="0" cy="0" r="1" gradientUnits="userSpaceOnUse" gradientTransform="translate(24950 324.865) rotate(-1.19) scale(3974.77 269.657)">
<stop stop-color="#FCFBDF"/>
<stop offset="0.01" stop-color="#F6F5D9"/>
<stop offset="0.05" stop-color="#C8C7B1"/>
<stop offset="0.09" stop-color="#9D9C8B"/>
<stop offset="0.14" stop-color="#777769"/>
<stop offset="0.19" stop-color="#57564D"/>
<stop offset="0.25" stop-color="#3B3B35"/>
<stop offset="0.32" stop-color="#252521"/>
<stop offset="0.4" stop-color="#141412"/>
<stop offset="0.49" stop-color="#090908"/>
<stop offset="0.63" stop-color="#020202"/>
<stop offset="1"/>
</radialGradient>
<radialGradient id="paint22_radial_461_213841" cx="0" cy="0" r="1" gradientUnits="userSpaceOnUse" gradientTransform="translate(60.6861 37.2875) scale(41.3769 4.47593)">
<stop stop-color="#FCFBDF"/>
<stop offset="0.16" stop-color="#BCBCA7"/>
<stop offset="0.33" stop-color="#848375"/>
<stop offset="0.49" stop-color="#55544B"/>
<stop offset="0.64" stop-color="#30302A"/>
<stop offset="0.78" stop-color="#161513"/>
<stop offset="0.9" stop-color="#060605"/>
<stop offset="1"/>
</radialGradient>
<radialGradient id="paint23_radial_461_213841" cx="0" cy="0" r="1" gradientUnits="userSpaceOnUse" gradientTransform="translate(61.7761 37.4245) rotate(90) scale(17.3515 4.47503)">
<stop stop-color="#FCFBDF"/>
<stop offset="0.01" stop-color="#F6F5D9"/>
<stop offset="0.05" stop-color="#C8C7B1"/>
<stop offset="0.09" stop-color="#9D9C8B"/>
<stop offset="0.14" stop-color="#777769"/>
<stop offset="0.19" stop-color="#57564D"/>
<stop offset="0.25" stop-color="#3B3B35"/>
<stop offset="0.32" stop-color="#252521"/>
<stop offset="0.4" stop-color="#141412"/>
<stop offset="0.49" stop-color="#090908"/>
<stop offset="0.63" stop-color="#020202"/>
<stop offset="1"/>
</radialGradient>
<radialGradient id="paint24_radial_461_213841" cx="0" cy="0" r="1" gradientUnits="userSpaceOnUse" gradientTransform="translate(-13941 11509.9) rotate(144.293) scale(7674.84 80.5122)">
<stop stop-color="#FCFBDF"/>
<stop offset="0.01" stop-color="#F6F5D9"/>
<stop offset="0.05" stop-color="#C8C7B1"/>
<stop offset="0.09" stop-color="#9D9C8B"/>
<stop offset="0.14" stop-color="#777769"/>
<stop offset="0.19" stop-color="#57564D"/>
<stop offset="0.25" stop-color="#3B3B35"/>
<stop offset="0.32" stop-color="#252521"/>
<stop offset="0.4" stop-color="#141412"/>
<stop offset="0.49" stop-color="#090908"/>
<stop offset="0.63" stop-color="#020202"/>
<stop offset="1"/>
</radialGradient>
<radialGradient id="paint25_radial_461_213841" cx="0" cy="0" r="1" gradientUnits="userSpaceOnUse" gradientTransform="translate(5645.29 -4571.76) rotate(-144.383) scale(591.41 586.88)">
<stop stop-color="#FCFBDF"/>
<stop offset="0.01" stop-color="#F6F5D9"/>
<stop offset="0.05" stop-color="#C8C7B1"/>
<stop offset="0.09" stop-color="#9D9C8B"/>
<stop offset="0.14" stop-color="#777769"/>
<stop offset="0.19" stop-color="#57564D"/>
<stop offset="0.25" stop-color="#3B3B35"/>
<stop offset="0.32" stop-color="#252521"/>
<stop offset="0.4" stop-color="#141412"/>
<stop offset="0.49" stop-color="#090908"/>
<stop offset="0.63" stop-color="#020202"/>
<stop offset="1"/>
</radialGradient>
<radialGradient id="paint26_radial_461_213841" cx="0" cy="0" r="1" gradientUnits="userSpaceOnUse" gradientTransform="translate(23722.2 422.294) scale(3631.85 214.151)">
<stop stop-color="#FCFBDF"/>
<stop offset="0.01" stop-color="#F6F5D9"/>
<stop offset="0.05" stop-color="#C8C7B1"/>
<stop offset="0.09" stop-color="#9D9C8B"/>
<stop offset="0.14" stop-color="#777769"/>
<stop offset="0.19" stop-color="#57564D"/>
<stop offset="0.25" stop-color="#3B3B35"/>
<stop offset="0.32" stop-color="#252521"/>
<stop offset="0.4" stop-color="#141412"/>
<stop offset="0.49" stop-color="#090908"/>
<stop offset="0.63" stop-color="#020202"/>
<stop offset="1"/>
</radialGradient>
<clipPath id="clip0_461_213841">
<rect width="90" height="90" fill="white" transform="translate(15 15)"/>
</clipPath>
<clipPath id="clip1_461_213841">
<rect width="90" height="90" fill="white" transform="translate(15 15)"/>
</clipPath>
</defs>
</svg>
