<svg width="120" height="120" viewBox="0 0 120 120" fill="none" xmlns="http://www.w3.org/2000/svg">
<g clip-path="url(#clip0_153_645938)">
<path d="M95.3643 49.645C95.3643 49.4348 95.3451 49.2245 95.3451 49.0143C95.3259 48.7276 95.3067 48.4409 95.2876 48.1542C95.2684 47.944 95.2684 47.7146 95.2492 47.5044C95.2108 47.1986 95.1917 46.8928 95.1533 46.587C95.0958 46.1283 95.019 45.6696 94.9423 45.2109C94.8656 44.7713 94.7697 44.3508 94.693 43.9113C94.693 43.873 94.6738 43.8539 94.6738 43.8157C94.5971 43.5099 94.5396 43.2041 94.4437 42.8983C94.3286 42.4396 94.1943 41.9809 94.0601 41.5222C93.9642 41.2164 93.8683 40.9106 93.7724 40.6048C93.5998 40.1079 93.408 39.6109 93.2162 39.114C92.7175 37.8526 92.123 36.6103 91.4709 35.3871C91.3366 35.1386 91.2024 34.8902 91.0681 34.6417C90.8955 34.3359 90.7037 34.0301 90.5119 33.7243C90.3968 33.5332 90.2626 33.3612 90.1475 33.17C89.9365 32.8451 89.7256 32.5202 89.5146 32.1953C89.4954 32.1762 89.4954 32.1571 89.4762 32.138C89.3612 31.9851 89.2461 31.8322 89.1118 31.6793C88.8817 31.3543 88.6323 31.0485 88.4022 30.7427C88.2679 30.5707 88.1337 30.3987 87.9802 30.2267C87.7309 29.9209 87.4432 29.6151 87.1939 29.3284C87.0405 29.1564 86.9062 28.9844 86.7528 28.8124C86.4651 28.5066 86.1774 28.239 85.8897 27.9523C85.7171 27.7994 85.5637 27.6274 85.391 27.4745C85.0842 27.1878 84.7773 26.9202 84.4513 26.6336C84.2786 26.4807 84.0868 26.3278 83.9142 26.1749C83.569 25.9073 83.243 25.6397 82.8977 25.3721C82.7059 25.2192 82.495 25.0854 82.3032 24.9325C81.9771 24.7032 81.6511 24.4738 81.3059 24.2636C80.9798 24.0534 80.6538 23.8431 80.3085 23.652C74.4588 20.25 68.053 19.5237 62.6828 21.8554L62.7019 21.8363C60.1127 22.8302 57.6386 23.9005 55.3946 25.5059C46.7064 32.826 46.3612 48.2307 54.6083 59.8511C59.3264 66.5022 65.8665 70.4776 72.2149 71.2995C74.9 71.567 77.5659 71.2995 80.04 70.4203C80.4236 70.3438 80.6154 70.2292 80.999 70.1336C81.2867 70.0189 81.7278 69.9425 81.9963 69.8087C81.9579 69.8278 81.9004 69.8278 81.8429 69.8469C81.8237 69.8469 81.8045 69.8469 81.7853 69.866C81.8045 69.866 81.8237 69.866 81.8429 69.8469C81.9004 69.8278 81.9388 69.8278 81.9963 69.8087C82.4374 69.7131 82.8594 69.5793 83.2813 69.4455C83.4539 69.3882 83.6265 69.3309 83.8183 69.2544C83.9334 69.2162 84.0293 69.178 84.1252 69.1397C84.5855 68.9677 85.0266 68.7575 85.4678 68.5473C85.5828 68.4899 85.6787 68.4326 85.7938 68.3752C85.9664 68.2797 86.139 68.1841 86.3116 68.0886C87.1172 67.6107 87.9035 67.0756 88.6515 66.4449C90.5311 64.8586 92.0271 62.89 93.1203 60.6729C93.5422 59.8128 93.9066 58.8954 94.2135 57.978C94.3094 57.7105 94.3861 57.4429 94.4628 57.1753C94.5396 56.9077 94.6163 56.6211 94.6738 56.3535C94.7122 56.2197 94.7314 56.0668 94.7697 55.933C94.8656 55.5125 94.9423 55.0921 95.019 54.6525C95.0766 54.3658 95.1149 54.0791 95.1533 53.7924C95.1917 53.5057 95.23 53.219 95.2492 52.9132C95.2684 52.7603 95.2684 52.6266 95.2876 52.4737C95.3067 52.359 95.3067 52.2443 95.3067 52.1105C95.3067 52.0341 95.3259 51.9576 95.3259 51.8812C95.3451 51.69 95.3451 51.4989 95.3643 51.2887C95.3643 51.0784 95.3835 50.8873 95.3835 50.6771C95.3835 50.3331 95.3834 49.989 95.3643 49.645Z" fill="#FCA463"/>
<path d="M55.1453 43.1276C55.9508 55.0921 65.4829 65.4893 75.7439 66.1773C76.2617 66.2155 76.7795 66.2155 77.2782 66.1964C86.024 65.9289 91.8928 58.0927 91.0489 48.0778C90.1859 37.6041 82.2073 27.6848 72.6944 25.7162C70.5846 25.2766 68.4941 25.2575 66.5186 25.6588C59.4223 27.1114 54.5124 33.8963 55.1453 43.1276Z" fill="#FAF4E6"/>
<path opacity="0.5" d="M55.1453 43.1276C55.9508 55.0921 65.4829 65.4893 75.7439 66.1773C76.2617 66.2155 76.7795 66.2155 77.2782 66.1964C86.024 65.9289 91.8928 58.0927 91.0489 48.0778C90.1859 37.6041 82.2073 27.6848 72.6944 25.7162C70.5846 25.2766 68.4941 25.2575 66.5186 25.6588C59.4223 27.1114 54.5124 33.8963 55.1453 43.1276Z" fill="url(#paint0_linear_153_645938)"/>
<path d="M81.1524 41.2546C80.5003 38.8082 78.4098 37.7952 75.7822 37.241L75.2069 33.8198L73.1355 33.4949L73.6917 36.9161C73.1355 36.8587 72.5409 36.7823 71.9656 36.7058L71.4094 33.2274L69.1846 32.8833L69.7408 36.5338L64.8309 35.9604L65.1761 38.4833C65.1761 38.4833 67.0173 38.6171 66.9981 38.6553C67.6694 38.6553 68.3407 39.1522 68.5325 39.8021L70.1244 50.6388C70.1435 50.8682 70.0668 51.0975 69.9134 51.2504C69.7599 51.4225 69.549 51.4989 69.2996 51.4798C69.338 51.4989 67.4584 51.5371 67.4584 51.5371L67.4009 54.6716L72.4259 54.3658L73.078 58.5896L75.4178 58.3412L74.7657 54.2702L76.5494 54.1555L77.2015 58.1309L79.3496 57.9016L78.6783 53.9835C82.0347 53.5439 84.0869 52.5119 83.7033 49.0907C83.4156 46.415 82.0922 45.1918 80.1935 44.6184C81.1716 44.1215 81.6511 43.0512 81.1524 41.2546ZM79.8483 48.7467C80.3469 51.518 75.859 51.346 74.3438 51.3842L73.5191 46.1856C75.0151 46.2047 79.3496 45.8798 79.8483 48.7467ZM77.7385 41.9235C78.1605 44.3891 74.4013 43.9112 73.1547 43.8539L72.4259 39.3242C73.6725 39.4389 77.2974 39.4007 77.7385 41.9235Z" fill="#F09242"/>
<path d="M95.2875 52.4546C95.3067 52.3399 95.3067 52.2253 95.3067 52.0915C95.3067 52.015 95.3259 51.9386 95.3259 51.8621C95.3451 51.671 95.3451 51.4799 95.3643 51.2696C95.3643 51.0594 95.3834 50.8683 95.3834 50.658C95.3834 50.314 95.3834 49.97 95.3834 49.626C95.3834 49.4157 95.3643 49.2055 95.3643 48.9953C95.3451 48.7086 95.3259 48.4219 95.3067 48.1352C95.2875 47.925 95.2875 47.6956 95.2684 47.4854C95.23 47.1796 95.2108 46.8738 95.1725 46.568C95.1149 46.1093 95.0382 45.6506 94.9615 45.1919C94.8848 44.7523 94.7889 44.3318 94.7122 43.8922C94.7122 43.854 94.693 43.8349 94.693 43.7967C94.6163 43.4909 94.5587 43.1851 94.4628 42.8793C94.3478 42.4206 94.2135 41.9619 94.0793 41.5032C93.9834 41.1974 93.8875 40.8916 93.7916 40.5858C93.6189 40.0888 93.4272 39.5919 93.2354 39.095C92.7367 37.8336 92.1421 36.5912 91.49 35.368C91.3558 35.1196 91.2215 34.8711 91.0873 34.6227C90.9147 34.3169 90.7229 34.0111 90.5311 33.7053C90.416 33.5141 90.2817 33.3421 90.1667 33.151C89.9557 32.8261 89.7447 32.5012 89.5338 32.1763C89.5146 32.1571 89.5146 32.138 89.4954 32.1189C89.3803 31.966 89.2652 31.8131 89.131 31.6602C88.9008 31.3353 88.6515 31.0295 88.4214 30.7237C88.2871 30.5517 88.1528 30.3797 87.9994 30.2077C87.7501 29.9019 87.4624 29.5961 87.2131 29.3094C87.0596 29.1374 86.9254 28.9654 86.7719 28.7933C86.4843 28.4875 86.1966 28.22 85.9089 27.9333C85.7363 27.7804 85.5828 27.6084 85.4102 27.4555C85.1033 27.1688 84.7965 26.9012 84.4704 26.6145C84.2978 26.4616 84.106 26.3087 83.9334 26.1558C83.5882 25.8883 83.2621 25.6207 82.9169 25.3531C82.7251 25.2002 82.5141 25.0664 82.3223 24.9135C81.9963 24.6842 81.6702 24.4548 81.325 24.2446C80.999 24.0343 80.6729 23.8241 80.3277 23.633C74.5164 20.2692 68.0721 19.5429 62.6827 21.9129C62.491 21.9893 62.3183 22.0849 62.1265 22.1613C61.8389 22.2951 61.5512 22.448 61.2635 22.62C61.1292 22.6965 60.9758 22.7729 60.8415 22.8685L60.8224 22.8876C60.6881 22.964 60.5538 23.0405 60.4388 23.1361C60.4196 23.1552 60.4004 23.1743 60.3812 23.1743C60.2662 23.2507 60.1511 23.3272 60.036 23.4036C59.9976 23.4227 59.9593 23.461 59.9209 23.4801C59.825 23.5565 59.7291 23.6139 59.6332 23.6903C59.5757 23.7477 59.499 23.7859 59.4414 23.8432C59.3647 23.9006 59.3072 23.9579 59.2305 23.9961C59.0962 24.1108 58.962 24.2064 58.8277 24.321C58.751 24.3784 58.6935 24.4357 58.6167 24.5122C58.4825 24.6268 58.3674 24.7415 58.2332 24.8562C58.1181 24.9709 57.9838 25.0855 57.8687 25.2002C57.8687 25.2002 57.8687 25.2002 57.8496 25.2193C57.7345 25.334 57.6194 25.4487 57.5043 25.5633L57.4852 25.5825C57.3701 25.6971 57.255 25.8309 57.1399 25.9456C56.929 26.1941 56.718 26.4425 56.507 26.691C56.4111 26.8056 56.3152 26.9394 56.2193 27.0541L56.2001 27.0732C56.1043 27.207 56.0084 27.3217 55.9125 27.4555C55.8933 27.4937 55.8549 27.5319 55.8357 27.5702C55.7782 27.6466 55.7207 27.723 55.6823 27.7995C55.6439 27.8568 55.6056 27.9142 55.5672 27.9715C55.5289 28.0288 55.4905 28.0862 55.4522 28.1626C55.4138 28.22 55.3754 28.2773 55.3371 28.3347C55.2795 28.4302 55.2028 28.5449 55.1453 28.6404C55.1069 28.7169 55.0494 28.7933 55.011 28.8698C54.9727 28.9271 54.9535 28.9654 54.9151 29.0227C54.8768 29.0991 54.8384 29.1565 54.8001 29.2329C54.7617 29.2903 54.7233 29.3667 54.685 29.4241C54.6466 29.4814 54.6274 29.5387 54.5891 29.5961C54.5315 29.6916 54.4932 29.7872 54.4357 29.8828C54.4165 29.921 54.3973 29.9401 54.3781 29.9783C54.3014 30.1503 54.2055 30.3223 54.1288 30.4944C54.1288 30.5135 54.1096 30.5135 54.1096 30.5326C54.0329 30.7046 53.9562 30.8766 53.8795 31.0486C53.7068 31.45 53.5342 31.8705 53.4 32.31C53.3424 32.4821 53.2849 32.635 53.2274 32.807C53.2274 32.807 53.2274 32.807 53.2274 32.8261C53.1698 32.9981 53.1315 33.151 53.0739 33.323C53.0164 33.5141 52.9588 33.7053 52.9205 33.8964C52.9205 33.9155 52.9205 33.9155 52.9013 33.9346C52.8438 34.1257 52.8054 34.3169 52.7479 34.508C52.7095 34.6609 52.6712 34.8329 52.6328 34.9858C52.5944 35.1387 52.5561 35.3107 52.5369 35.4636C52.4985 35.6547 52.4602 35.8267 52.441 36.0179V36.037C52.4026 36.2281 52.3835 36.4192 52.3451 36.6104C52.3259 36.7633 52.3068 36.897 52.2876 37.0499C52.2876 37.0691 52.2876 37.0691 52.2876 37.0882C52.2684 37.2411 52.2492 37.394 52.23 37.5469C52.2109 37.7189 52.1917 37.91 52.1725 38.082C52.1533 38.2731 52.1341 38.4452 52.1341 38.6363C52.1341 38.7701 52.115 38.923 52.115 39.0568C52.115 39.0759 52.115 39.0759 52.115 39.095C52.115 39.2479 52.0958 39.3817 52.0958 39.5346C52.0958 39.7066 52.0766 39.8977 52.0766 40.0697C52.0766 40.2417 52.0766 40.4329 52.0766 40.6049C52.0766 40.7387 52.0766 40.8916 52.0766 41.0253C52.0766 41.0445 52.0766 41.0636 52.0766 41.0827C52.0766 41.2165 52.0766 41.3503 52.0958 41.484C52.0958 41.6561 52.115 41.8281 52.115 42.0001V42.0192C52.115 42.1912 52.1341 42.3632 52.1533 42.5352V42.5543C52.1725 42.8219 52.1917 43.1086 52.23 43.3953C52.2492 43.5673 52.2684 43.7393 52.2876 43.8922C52.3068 44.0642 52.3259 44.2362 52.3451 44.4083C52.3643 44.542 52.3835 44.6758 52.4026 44.8096C52.4026 44.867 52.4218 44.9243 52.4218 44.9816C52.441 45.0772 52.441 45.1728 52.4602 45.2683V45.2874C52.5177 45.6123 52.5753 45.9373 52.6328 46.2622C52.6903 46.5297 52.7479 46.7973 52.8054 47.084C52.8438 47.2369 52.8821 47.4089 52.9205 47.5618V47.5809C52.9588 47.7338 52.9972 47.8867 53.0356 48.0396C53.1123 48.3072 53.189 48.5748 53.2657 48.8424C53.3041 48.9953 53.3616 49.1482 53.4 49.3011V49.3202C53.4383 49.4731 53.4959 49.626 53.5534 49.7789C53.6301 50.0464 53.726 50.2949 53.8219 50.5625C53.8795 50.7154 53.937 50.8492 53.9754 51.0021C53.9754 51.0212 53.9753 51.0212 53.9945 51.0403C54.0521 51.1932 54.1096 51.3461 54.1671 51.499C54.263 51.7475 54.3589 52.015 54.474 52.2635C54.5315 52.3973 54.5891 52.5311 54.6466 52.6649C54.6466 52.684 54.6658 52.7031 54.6658 52.7222C54.7233 52.8751 54.8001 53.028 54.8576 53.1618C54.9727 53.4102 55.0877 53.6587 55.2028 53.9072C55.2028 53.9072 55.2028 53.9072 55.2028 53.9263C55.3371 54.213 55.4905 54.5188 55.6439 54.8055C55.759 55.0348 55.8741 55.245 55.9892 55.4744C56.1618 55.7802 56.3344 56.0669 56.507 56.3536C56.5262 56.3727 56.5454 56.4109 56.5454 56.43C56.5646 56.4491 56.5837 56.4874 56.6029 56.5065L56.6221 56.5256C56.7372 56.7167 56.8522 56.9078 56.9865 57.099C57.0057 57.1372 57.0249 57.1754 57.044 57.1945C57.1208 57.3283 57.1975 57.443 57.2934 57.5577C57.3125 57.5959 57.3317 57.615 57.3509 57.6532C57.3893 57.7106 57.4276 57.787 57.4852 57.8443C57.5043 57.8826 57.5427 57.9208 57.5619 57.959C57.6961 58.1501 57.8112 58.3413 57.9455 58.5324C57.9646 58.5706 57.9838 58.5897 58.0222 58.628C58.214 58.9146 58.4249 59.1822 58.6359 59.4498C58.7126 59.5454 58.7894 59.6409 58.8469 59.7365C58.9044 59.8129 58.9811 59.9085 59.0387 59.9849C59.077 60.0423 59.1154 60.0805 59.1538 60.1378C59.2113 60.2143 59.2688 60.2716 59.3264 60.3481C59.4798 60.5392 59.6332 60.7112 59.7867 60.9023C59.8059 60.9215 59.825 60.9406 59.825 60.9597C59.9018 61.0552 59.9976 61.1508 60.0744 61.2464C60.1319 61.3228 60.2086 61.3993 60.2662 61.4757C60.2853 61.4948 60.3237 61.5331 60.3429 61.5522C60.3621 61.5713 60.3812 61.5904 60.4004 61.6095C60.6497 61.8771 60.8799 62.1255 61.1292 62.374C61.1484 62.3931 61.1676 62.4122 61.1868 62.4313C61.2059 62.4505 61.2251 62.4696 61.2251 62.4696C61.3402 62.5842 61.4553 62.6989 61.5704 62.8136C61.6279 62.8709 61.6854 62.9283 61.743 62.9856C61.8005 63.0238 61.8389 63.0812 61.8964 63.1194C62.0498 63.2723 62.2224 63.4252 62.3759 63.5781C62.4334 63.6354 62.491 63.6928 62.5677 63.7501C62.6636 63.8457 62.7786 63.9412 62.8745 64.0177C62.9321 64.0559 62.9896 64.1132 63.028 64.1515C63.0855 64.1897 63.1239 64.247 63.1814 64.2853C63.2006 64.3044 63.2198 64.3235 63.2389 64.3426C63.2389 64.3426 63.2581 64.3426 63.2581 64.3617C63.4116 64.4764 63.565 64.6102 63.6992 64.7248C63.6992 64.7248 63.6992 64.7248 63.7184 64.744C63.8719 64.8586 64.0061 64.9733 64.1596 65.088C64.2746 65.1644 64.3705 65.26 64.4856 65.3364C64.5048 65.3556 64.524 65.3556 64.5431 65.3747C64.5623 65.3938 64.5815 65.4129 64.6199 65.432C64.639 65.4511 64.6582 65.4702 64.6774 65.4702C64.7733 65.5276 64.85 65.604 64.9459 65.6614C65.1185 65.776 65.272 65.8907 65.4446 66.0054C65.5405 66.0818 65.6364 66.1392 65.7514 66.1965C65.809 66.2347 65.8857 66.2921 65.9432 66.3303C66.2309 66.5214 66.5186 66.6934 66.8255 66.8654C66.8447 66.8846 66.8638 66.8846 66.883 66.9037C67.2091 67.0948 67.5543 67.2859 67.8803 67.4579C67.8995 67.477 67.9187 67.477 67.9379 67.4962C68.0338 67.5535 68.1488 67.6108 68.2447 67.6491C68.3023 67.6682 68.3406 67.7064 68.3982 67.7255C68.5324 67.802 68.6859 67.8593 68.8201 67.9357C68.8393 67.9549 68.8585 67.9549 68.8777 67.974H68.8968C68.8968 67.974 68.916 67.974 68.916 67.9931C68.9927 68.0313 69.0503 68.0504 69.127 68.0886C69.2612 68.146 69.4147 68.2224 69.5489 68.2798C69.5489 68.2798 69.5681 68.2798 69.5681 68.2989C69.5873 68.2989 69.5873 68.2989 69.6065 68.318C69.6257 68.318 69.6448 68.3371 69.664 68.3371C69.8558 68.4136 70.0476 68.49 70.2202 68.5664H70.2394C70.6038 68.7193 70.9682 68.8531 71.3326 68.9678C71.3518 68.9678 71.371 68.9869 71.3901 68.9869C71.6395 69.0634 71.8888 69.1398 72.1381 69.2163C72.1573 69.2163 72.1573 69.2163 72.1765 69.2354C72.1957 69.2354 72.234 69.2545 72.2532 69.2545C72.3491 69.2927 72.445 69.3118 72.5409 69.3309C72.6752 69.3692 72.8094 69.4074 72.9437 69.4456C72.9628 69.4456 72.9629 69.4456 72.982 69.4647C73.1163 69.503 73.2697 69.5412 73.404 69.5603C73.4423 69.5603 73.4807 69.5794 73.519 69.5794C73.5574 69.5794 73.5766 69.5985 73.6149 69.5985C73.6725 69.6176 73.73 69.6176 73.7876 69.6367C73.9985 69.675 74.1903 69.7132 74.4013 69.7514C74.5739 69.7896 74.7657 69.8088 74.9383 69.8279C75.1493 69.8661 75.3603 69.9043 75.5712 69.9234C75.7247 69.9425 75.8589 69.9617 76.0124 69.9617C76.1658 69.9808 76.3 69.9808 76.4535 69.9999C76.4727 69.9999 76.4918 69.9999 76.4918 69.9999C76.5686 69.9999 76.6644 70.019 76.7412 70.019C76.8562 70.019 76.9521 70.0381 77.0672 70.0381C77.0864 70.0381 77.0864 70.0381 77.1056 70.0381C77.4316 70.0572 77.7385 70.0572 78.0645 70.0572C78.0837 70.0572 78.1221 70.0572 78.1413 70.0572C78.3331 70.0572 78.5248 70.0381 78.7166 70.0381C78.755 70.0381 78.7934 70.0381 78.8317 70.0381C78.966 70.0381 79.1002 70.019 79.2345 70.019C79.292 70.019 79.3496 69.9999 79.4071 69.9999C79.4838 69.9999 79.5413 69.9808 79.6181 69.9808C79.7715 69.9617 79.9058 69.9425 80.04 69.9234C80.1551 69.9043 80.251 69.8852 80.3661 69.8852C80.5579 69.8661 80.7305 69.8279 80.9031 69.7897C81.114 69.7514 81.325 69.7132 81.5168 69.675C81.5552 69.6559 81.6127 69.6559 81.6511 69.6367C81.7086 69.6176 81.747 69.6176 81.8045 69.5985C82.2456 69.503 82.6676 69.3692 83.0895 69.2354C83.2621 69.178 83.4347 69.1207 83.6265 69.0443C83.7416 69.006 83.8375 68.9678 83.9334 68.9296C84.3937 68.7576 84.8348 68.5473 85.276 68.3371C85.391 68.2798 85.4869 68.2224 85.602 68.1651C85.7746 68.0695 85.9472 67.974 86.1198 67.8784C86.9254 67.4006 87.7117 66.8654 88.4597 66.2347C90.3393 64.6484 91.8353 62.6798 92.9285 60.4628C93.3504 59.6027 93.7148 58.6853 94.0217 57.7679C94.1176 57.5003 94.1943 57.2327 94.271 56.9652C94.3478 56.6976 94.4245 56.4109 94.482 56.1433C94.5204 56.0095 94.5395 55.8566 94.5779 55.7229C94.6738 55.3024 94.7505 54.8819 94.8272 54.4423C94.8848 54.1556 94.9231 53.8689 94.9615 53.5823C94.9999 53.2956 95.0382 53.0089 95.0574 52.7031C95.2684 52.7604 95.2684 52.6075 95.2875 52.4546ZM86.5801 34.4889C87.7884 36.1899 88.7858 37.9865 89.5338 39.8404C90.7229 42.6881 91.375 45.6315 91.49 48.4983C91.6243 51.7092 91.1065 54.7863 89.9365 57.4621C89.2269 59.0675 88.2871 60.5201 87.098 61.7624C87.0788 61.8006 87.0404 61.8197 87.0021 61.858C86.9829 61.8771 86.9637 61.8962 86.9637 61.8962C86.9254 61.9344 86.887 61.9918 86.8295 62.03C86.6952 62.1638 86.561 62.2976 86.4267 62.4122C86.2925 62.546 86.1582 62.6607 86.0048 62.7754C85.9281 62.8327 85.8705 62.89 85.7938 62.9474C85.7746 62.9665 85.7554 62.9856 85.7171 63.0047C85.6787 63.0429 85.6212 63.0812 85.5828 63.1194C85.5445 63.1576 85.5061 63.1767 85.4677 63.215C85.4102 63.2532 85.3527 63.2914 85.2951 63.3487C85.2376 63.387 85.1992 63.4252 85.1417 63.4634C85.1225 63.4825 85.0842 63.5016 85.065 63.5208L85.0458 63.5399C85.0458 63.5399 85.0458 63.5399 85.0266 63.559C84.8924 63.6545 84.7389 63.7501 84.6047 63.8457C84.5855 63.8648 84.5663 63.8648 84.5471 63.8839C84.4129 63.9603 84.2978 64.0368 84.1636 64.1132C84.1252 64.1324 84.0677 64.1706 84.0293 64.1897C83.9718 64.2279 83.895 64.2661 83.8375 64.3044C83.8183 64.3044 83.8183 64.3235 83.7991 64.3235C83.7608 64.3426 83.7224 64.3808 83.6649 64.3999C83.6457 64.3999 83.6265 64.419 83.6074 64.419C83.5882 64.419 83.5882 64.4382 83.569 64.4382C83.569 64.4382 83.5498 64.4382 83.5498 64.4573C83.4731 64.4955 83.3964 64.5337 83.3005 64.5719C83.2238 64.6102 83.1662 64.6484 83.0895 64.6866C83.0703 64.6866 83.0703 64.7057 83.0512 64.7057C83.0512 64.7057 83.032 64.7057 83.032 64.7248C83.0128 64.7248 83.0128 64.744 82.9936 64.744C82.8594 64.8013 82.7443 64.8586 82.61 64.916C82.5909 64.9351 82.5717 64.9351 82.5333 64.9542C82.5141 64.9542 82.5141 64.9733 82.495 64.9733C82.495 64.9733 82.4758 64.9733 82.4758 64.9924C82.3991 65.0115 82.3415 65.0498 82.2648 65.0689C82.1881 65.088 82.1306 65.1262 82.0538 65.1453C82.0347 65.1453 82.0155 65.1644 81.9963 65.1644C81.8429 65.2218 81.6894 65.2791 81.5168 65.3173C81.4785 65.3364 81.4401 65.3364 81.4017 65.3556C81.3826 65.3556 81.3634 65.3747 81.3442 65.3747C81.325 65.3747 81.3058 65.3938 81.2867 65.3938C81.2675 65.3938 81.2483 65.4129 81.2291 65.4129C81.1524 65.432 81.0949 65.4511 81.0182 65.4702C80.9798 65.4702 80.9606 65.4893 80.9223 65.4893C80.9031 65.4893 80.9031 65.4893 80.8839 65.4893C80.8455 65.5085 80.8072 65.5085 80.7496 65.5276C80.6346 65.5658 80.5003 65.5849 80.3852 65.6231C80.251 65.6614 80.0975 65.6805 79.9633 65.7187C79.9441 65.7187 79.9058 65.7378 79.8866 65.7378C79.8674 65.7378 79.8482 65.7378 79.829 65.7569C79.8099 65.7569 79.7907 65.7569 79.7715 65.776C79.6372 65.7951 79.503 65.8143 79.3687 65.8334C79.3304 65.8334 79.292 65.8525 79.2537 65.8525C79.081 65.8716 78.9084 65.8907 78.7358 65.9098H78.7166C78.5632 65.9289 78.3906 65.948 78.2372 65.948C78.1988 65.948 78.1413 65.948 78.1029 65.948C77.9686 65.948 77.8152 65.9672 77.681 65.9672C77.6426 65.9672 77.6234 65.9672 77.5851 65.9672C77.5851 65.9672 77.5851 65.9672 77.5659 65.9672C77.5467 65.9672 77.5275 65.9672 77.5275 65.9672C77.3741 65.9672 77.2015 65.9672 77.048 65.9672C77.0289 65.9672 76.9905 65.9672 76.9713 65.9672C76.933 65.9672 76.9138 65.9672 76.8754 65.9672C76.8371 65.9672 76.7795 65.9672 76.7412 65.9672C76.6644 65.9672 76.5877 65.9672 76.511 65.9672C76.4727 65.9672 76.4151 65.9672 76.3768 65.9672C76.2809 65.9672 76.2041 65.948 76.1083 65.948C76.0507 65.948 75.9932 65.948 75.9356 65.9289C75.9165 65.9289 75.8781 65.9289 75.8589 65.9289C75.6863 65.9098 75.5137 65.8907 75.3219 65.8716C75.2835 65.8716 75.2452 65.8525 75.2068 65.8525C75.1301 65.8334 75.0534 65.8334 74.9767 65.8143C74.9191 65.8143 74.8424 65.7951 74.7849 65.7951C74.7465 65.7951 74.7273 65.776 74.689 65.776C74.6698 65.776 74.6506 65.776 74.6506 65.776C74.478 65.7569 74.3246 65.7187 74.152 65.6805H74.1328C73.9794 65.6422 73.8259 65.6231 73.6725 65.5849C73.6533 65.5849 73.6149 65.5658 73.5958 65.5658C73.5766 65.5658 73.5574 65.5467 73.5382 65.5467C73.519 65.5467 73.4999 65.5276 73.4807 65.5276C73.3464 65.4893 73.2122 65.4511 73.0587 65.4129C73.0204 65.3938 72.9628 65.3938 72.9245 65.3747C72.8286 65.3556 72.7519 65.3173 72.656 65.2982C72.6176 65.2791 72.5793 65.2791 72.5409 65.26C72.4834 65.2409 72.445 65.2409 72.3875 65.2218C72.3875 65.2218 72.3875 65.2218 72.3683 65.2218C72.3108 65.2026 72.2532 65.1835 72.1765 65.1644C72.0614 65.1262 71.9655 65.088 71.8504 65.0498C71.8121 65.0306 71.7737 65.0306 71.7354 65.0115C71.7162 65.0115 71.7162 65.0115 71.697 64.9924C71.6203 64.9733 71.5436 64.9351 71.486 64.916C71.4285 64.8969 71.3518 64.8777 71.2942 64.8395C71.2559 64.8204 71.2175 64.8013 71.16 64.7822C71.0257 64.7248 70.9107 64.6866 70.7764 64.6293C70.7381 64.6102 70.6805 64.5911 70.6422 64.5719C70.6038 64.5528 70.5846 64.5528 70.5463 64.5337C70.4504 64.4955 70.3545 64.4382 70.2394 64.3999C70.201 64.3808 70.1435 64.3617 70.1051 64.3426C70.0476 64.3235 70.0092 64.3044 69.9517 64.2661C69.8558 64.2279 69.7599 64.1706 69.6832 64.1324C69.6448 64.1132 69.5873 64.0941 69.5489 64.075C69.5298 64.075 69.5298 64.0559 69.5106 64.0559C69.4914 64.0368 69.453 64.0368 69.4339 64.0177C69.4147 64.0177 69.3955 63.9986 69.3763 63.9986C69.338 63.9795 69.3188 63.9603 69.2804 63.9412C69.2421 63.9221 69.2037 63.903 69.1653 63.8839C69.0886 63.8457 68.9927 63.8074 68.916 63.7501C68.8777 63.731 68.8393 63.7119 68.8009 63.6928C68.7242 63.6545 68.6475 63.6163 68.5708 63.5781C68.5133 63.5399 68.4557 63.5208 68.3982 63.4825C68.379 63.4825 68.379 63.4634 68.3598 63.4634C68.3406 63.4634 68.3215 63.4443 68.3023 63.4443C68.2831 63.4252 68.2447 63.4061 68.2256 63.4061C68.1105 63.3296 67.9954 63.2723 67.8803 63.1958C67.8612 63.1767 67.842 63.1767 67.8228 63.1576C67.8036 63.1385 67.7844 63.1385 67.7653 63.1194C67.6118 63.0238 67.4584 62.9283 67.2858 62.8136C67.2666 62.7945 67.2474 62.7945 67.2282 62.7754C67.2282 62.7754 67.2091 62.7754 67.2091 62.7563C67.1899 62.7563 67.1899 62.7371 67.1707 62.7371C67.1515 62.718 67.1323 62.718 67.1132 62.6989C67.0556 62.6607 67.0173 62.6225 66.9597 62.6034C66.9022 62.5651 66.8447 62.5269 66.7871 62.4887C66.7679 62.4696 66.7296 62.4505 66.7104 62.4313C66.6912 62.4122 66.6529 62.3931 66.6337 62.374C66.6145 62.3549 66.5953 62.3358 66.5761 62.3358C66.5378 62.3167 66.5186 62.2976 66.4802 62.2593C66.4227 62.2211 66.3652 62.1829 66.3268 62.1447C66.3268 62.1447 66.3076 62.1447 66.3076 62.1255C66.2693 62.0873 66.2117 62.0682 66.1734 62.03C66.0967 61.9726 66.0199 61.9153 65.9432 61.858C65.8857 61.8197 65.8282 61.7815 65.7898 61.7433C65.7898 61.7433 65.7706 61.7433 65.7706 61.7242C65.7706 61.7242 65.7514 61.7242 65.7514 61.7051C65.7323 61.686 65.7323 61.686 65.7131 61.6668C65.5596 61.5522 65.4062 61.4375 65.272 61.3037C65.2336 61.2655 65.1761 61.2273 65.1377 61.189C65.0993 61.1508 65.0418 61.1126 65.0034 61.0744C64.9843 61.0552 64.9651 61.0361 64.9459 61.0361C64.9075 60.9979 64.8692 60.9597 64.8117 60.9215C64.7733 60.9023 64.7541 60.8641 64.7158 60.845C64.6966 60.8259 64.6774 60.8068 64.6582 60.7877C64.5623 60.7112 64.4856 60.6348 64.3897 60.5583C64.3705 60.5392 64.3513 60.5201 64.3322 60.5201C64.2938 60.4819 64.2363 60.4436 64.1979 60.4054C64.1212 60.3481 64.0637 60.2716 63.9869 60.1952C63.9294 60.1378 63.891 60.0996 63.8335 60.0423C63.8143 60.0232 63.7951 60.0041 63.776 59.9849L63.7568 59.9658C63.7376 59.9467 63.7184 59.9276 63.7184 59.9276C63.6801 59.8894 63.6417 59.8512 63.6034 59.8129C63.5266 59.7365 63.4307 59.66 63.354 59.5645C63.3348 59.5454 63.3157 59.5071 63.2773 59.488C63.2581 59.4689 63.2389 59.4498 63.2198 59.4307L63.2006 59.4116C63.1047 59.316 63.0088 59.2204 62.9129 59.1058C62.8745 59.0484 62.817 59.0102 62.7786 58.9529C62.6636 58.8382 62.5677 58.7235 62.4526 58.5897C62.4142 58.5515 62.3951 58.5133 62.3567 58.4942C62.2224 58.3413 62.0882 58.1884 61.9539 58.0355C61.9156 57.9972 61.8772 57.959 61.858 57.9017C61.8005 57.8443 61.7621 57.787 61.7046 57.7297C61.6471 57.6723 61.6087 57.615 61.5512 57.5577C61.532 57.5385 61.5128 57.5003 61.4936 57.4812C61.4745 57.4621 61.4553 57.4239 61.4361 57.4048C61.3402 57.2901 61.2443 57.1754 61.1676 57.0416C61.1292 56.9843 61.0909 56.9461 61.0525 56.8887C61.0525 56.8696 61.0333 56.8696 61.0333 56.8505L61.0142 56.8314C60.8991 56.6785 60.784 56.5256 60.6881 56.3727C60.6114 56.2771 60.5538 56.1624 60.4771 56.0669C60.4004 55.9713 60.3237 55.8566 60.2662 55.7611C60.2278 55.7037 60.2086 55.6655 60.1703 55.6082C60.1511 55.5891 60.1511 55.57 60.1319 55.5508C60.0744 55.4744 60.0168 55.3979 59.9785 55.3024C59.9593 55.2642 59.9209 55.2259 59.9018 55.1877C59.8634 55.1304 59.825 55.073 59.7867 55.0157C59.71 54.901 59.6332 54.7672 59.5757 54.6526C59.5757 54.6334 59.5565 54.6334 59.5565 54.6143C59.5565 54.6143 59.5565 54.6143 59.5565 54.5952C59.5565 54.5952 59.5565 54.5952 59.5565 54.5761C59.5373 54.5379 59.5182 54.4997 59.499 54.4805C59.4798 54.4614 59.4798 54.4423 59.4606 54.4232C59.3456 54.2321 59.2305 54.041 59.1346 53.8498C59.0962 53.7734 59.0387 53.6778 59.0003 53.6014C58.9811 53.5823 58.9811 53.5631 58.962 53.544C58.9044 53.4294 58.8469 53.3147 58.7702 53.2C58.7318 53.1427 58.7126 53.0853 58.6743 53.0089C58.6743 52.9898 58.6551 52.9898 58.6551 52.9707C58.6167 52.8942 58.5784 52.8369 58.5592 52.7604C58.5208 52.684 58.4825 52.6266 58.4633 52.5502C58.3866 52.3973 58.3099 52.2444 58.2523 52.0915C58.1756 51.9386 58.1181 51.7857 58.0414 51.6328C58.003 51.5563 57.9838 51.4799 57.9455 51.4034C57.9071 51.327 57.8879 51.2505 57.8496 51.1741C57.7537 50.9447 57.6578 50.7345 57.5811 50.5051C57.5427 50.4287 57.5235 50.3522 57.4852 50.2758C57.3701 49.9891 57.2742 49.6833 57.1591 49.3966V49.3775C57.0632 49.0717 56.9673 48.785 56.8714 48.4792C56.8331 48.3263 56.7755 48.1734 56.7372 48.0205C56.6988 47.8676 56.6604 47.7147 56.6221 47.5618C56.6029 47.4854 56.5837 47.3898 56.5646 47.3134C56.507 47.1031 56.4687 46.8929 56.4111 46.7018C56.2769 46.0902 56.1426 45.4594 56.0659 44.8478C55.97 44.1598 55.8933 43.4909 55.8549 42.8219C55.8357 42.5926 55.8357 42.3823 55.8166 42.153C55.7782 41.1782 55.8166 40.2035 55.8933 39.267C55.9316 38.8465 55.9892 38.426 56.0467 38.0247C56.1426 37.394 56.2769 36.7633 56.4303 36.1517C56.929 34.2022 57.7345 32.3865 58.8277 30.8193C58.9428 30.6664 59.0579 30.4944 59.1729 30.3415C59.3264 30.1312 59.499 29.921 59.6716 29.7299C60.1703 29.1374 60.7265 28.5831 61.321 28.0862C68.4365 21.9893 79.7715 24.8944 86.5801 34.4889Z" fill="#F09242"/>
<path d="M89.553 39.8403C90.7421 42.688 91.3942 45.6314 91.5093 48.4982C91.6435 51.7091 91.1257 54.7862 89.9557 57.462C89.2461 59.0674 88.3063 60.52 87.1172 61.7623C89.668 58.7425 90.9531 54.6525 90.9722 50.2566C90.9914 46.8354 90.2242 43.2232 88.6899 39.8021C87.9803 38.1966 87.0788 36.6294 86.024 35.1386C83.8567 32.0806 81.21 29.6915 78.3906 28.067C72.3875 24.6076 65.598 24.5503 60.7457 28.6404C60.3621 28.9653 59.9977 29.3093 59.6716 29.6533C60.1703 29.0608 60.7265 28.5066 61.321 28.0096C68.4366 22.0083 79.7715 24.9134 86.5802 34.5079C87.7885 36.1898 88.7858 37.9864 89.553 39.8403Z" fill="#DD7F37"/>
<path d="M54.6083 59.8511C59.3264 66.5022 65.8666 70.4776 72.2149 71.2995C74.9 71.567 77.5659 71.2995 80.04 70.4203C80.4236 70.3438 80.6154 70.2292 80.999 70.1336C81.2867 70.0189 81.7278 69.9425 81.9963 69.8087C81.958 69.8278 81.9004 69.8278 81.8429 69.8469C81.8045 69.866 81.747 69.866 81.7086 69.8852C81.5936 69.9043 81.4593 69.9425 81.3251 69.9616C81.2483 69.9807 81.1524 69.9807 81.0757 69.9998C80.9031 70.038 80.7113 70.0572 80.5387 70.0954C80.5004 70.0954 80.462 70.1145 80.4428 70.1145C80.4045 70.1145 80.3661 70.1336 80.3469 70.1336C80.3277 70.1336 80.3277 70.1336 80.3086 70.1336C80.2894 70.1336 80.251 70.1336 80.2318 70.1336C80.0976 70.1527 79.9441 70.1718 79.8099 70.1909C79.7332 70.1909 79.6756 70.2101 79.5989 70.2101C79.5414 70.2101 79.4838 70.2292 79.4263 70.2292C79.2921 70.2483 79.1578 70.2483 79.0235 70.2483C78.9852 70.2483 78.9468 70.2483 78.9085 70.2483C78.7167 70.2674 78.5249 70.2674 78.3331 70.2674C78.3139 70.2674 78.2756 70.2674 78.2564 70.2674C77.9303 70.2674 77.6235 70.2674 77.2974 70.2483C77.2782 70.2483 77.2782 70.2483 77.2591 70.2483C77.144 70.2483 77.0481 70.2292 76.933 70.2292C76.8563 70.2292 76.7604 70.2101 76.6837 70.2101C76.6645 70.2101 76.6453 70.2101 76.6453 70.2101C76.4919 70.1909 76.3576 70.191 76.2042 70.1718C76.0508 70.1527 75.9165 70.1336 75.7631 70.1336C75.5521 70.1145 75.3411 70.0763 75.1301 70.038C74.9575 70.0189 74.7657 69.9807 74.5931 69.9616C74.3822 69.9234 74.1904 69.8851 73.9794 69.8469C73.9219 69.8278 73.8643 69.8278 73.8068 69.8087C73.7684 69.8087 73.7492 69.7896 73.7109 69.7896C73.6725 69.7896 73.6342 69.7705 73.5958 69.7705C73.4616 69.7322 73.3081 69.694 73.1739 69.6749C73.1547 69.6749 73.1547 69.6749 73.1355 69.6558C73.0012 69.6176 72.867 69.5793 72.7327 69.5411C72.6368 69.522 72.5409 69.4838 72.445 69.4647C72.4259 69.4647 72.3875 69.4456 72.3683 69.4456C72.3492 69.4456 72.3492 69.4456 72.33 69.4264C72.0806 69.35 71.8313 69.2735 71.582 69.1971C71.4477 69.1589 71.3326 69.1015 71.1984 69.0633C71.1409 69.0442 71.0833 69.0251 71.0258 69.006C70.8148 68.9295 70.623 68.8531 70.412 68.7766C70.2202 68.7002 70.0285 68.6237 69.8558 68.5473C69.8367 68.5473 69.8175 68.5282 69.7983 68.5282C69.7791 68.5282 69.7791 68.5282 69.7599 68.509C69.7599 68.509 69.7408 68.509 69.7408 68.4899C69.6065 68.4326 69.4531 68.3561 69.3188 68.2988C69.2421 68.2606 69.1846 68.2415 69.1079 68.2032C69.1079 68.2032 69.0887 68.2032 69.0887 68.1841H69.0695C69.0503 68.165 69.0311 68.165 69.012 68.1459C68.8777 68.0886 68.7243 68.0121 68.59 67.9357C68.5325 67.9166 68.4941 67.8783 68.4366 67.8592C68.3407 67.8019 68.2256 67.7445 68.1297 67.7063C68.1105 67.6872 68.0914 67.6872 68.0722 67.6681C67.9187 67.5917 67.7653 67.4961 67.6119 67.4196C67.4393 67.3241 67.2475 67.2094 67.0748 67.1138C67.0557 67.0947 67.0365 67.0947 67.0173 67.0756C66.8831 66.9992 66.7296 66.9036 66.5954 66.808C66.4419 66.7125 66.2885 66.6169 66.1542 66.5214C66.0967 66.4831 66.02 66.4258 65.9624 66.3876C65.8666 66.3302 65.7707 66.2538 65.6556 66.1964C65.6364 66.1964 65.6364 66.1773 65.6172 66.1773C65.4638 66.0626 65.3104 65.9671 65.1569 65.8524C65.1569 65.8524 65.1377 65.8524 65.1377 65.8333C65.061 65.776 64.9651 65.7186 64.8884 65.6613C64.8692 65.6422 64.8501 65.6231 64.8309 65.6231C64.8117 65.6039 64.7925 65.5848 64.7542 65.5657C64.735 65.5466 64.7158 65.5466 64.6966 65.5275C64.5815 65.451 64.4856 65.3555 64.3706 65.279C64.313 65.2217 64.2363 65.1835 64.1788 65.1261C64.1021 65.0688 64.0253 64.9923 63.9294 64.935C63.9294 64.935 63.9294 64.935 63.9103 64.9159C63.8335 64.8586 63.776 64.8012 63.6993 64.7439C63.6226 64.6865 63.5459 64.6101 63.4691 64.5528C63.45 64.5336 63.4116 64.5145 63.3924 64.4954C63.3349 64.4572 63.2965 64.419 63.239 64.3616C63.1814 64.3234 63.1239 64.2661 63.0856 64.2279C62.9897 64.1323 62.8746 64.0558 62.7787 63.9603C62.7211 63.9029 62.6636 63.8456 62.5869 63.7883C62.491 63.7118 62.4143 63.6354 62.3184 63.5398C62.2417 63.4633 62.1649 63.406 62.0882 63.3296C62.0307 63.2913 61.9923 63.234 61.9348 63.1958C61.9156 63.1767 61.8773 63.1384 61.8581 63.1193C61.8197 63.0811 61.8005 63.062 61.7622 63.0238C61.6471 62.9091 61.532 62.7944 61.417 62.6797C61.3978 62.6606 61.3786 62.6415 61.3786 62.6415C61.3594 62.6224 61.3402 62.6033 61.3211 62.5842C61.0717 62.3357 60.8224 62.0681 60.5922 61.8197C60.5731 61.8006 60.5539 61.7815 60.5347 61.7623C60.5155 61.7432 60.4772 61.705 60.458 61.6859C60.4005 61.6094 60.3237 61.533 60.2662 61.4757C60.1895 61.3801 60.0936 61.2845 60.0169 61.189C59.9977 61.1699 59.9785 61.1507 59.9785 61.1316C59.8251 60.9596 59.6716 60.7685 59.5182 60.5774C59.4607 60.5009 59.4031 60.4436 59.3456 60.3671C59.3072 60.3098 59.2689 60.2716 59.2305 60.2142C59.173 60.1378 59.0963 60.0422 59.0387 59.9658C58.962 59.8702 58.8853 59.7746 58.8278 59.6791C58.6168 59.4115 58.425 59.1248 58.214 58.8572L58.1948 58.8381C58.1757 58.819 58.1565 58.7999 58.1373 58.7617C58.003 58.5706 57.8496 58.3603 57.7154 58.1501C57.6962 58.131 57.677 58.0927 57.6578 58.0736C57.6195 58.0163 57.5811 57.9398 57.5236 57.8825C57.5044 57.8443 57.4852 57.8252 57.466 57.7869C57.3893 57.6723 57.3126 57.5385 57.2167 57.4238C57.1975 57.3856 57.1783 57.3474 57.1592 57.3282C57.0441 57.1371 56.929 56.946 56.8139 56.7549L56.7947 56.7358C56.7756 56.6975 56.7564 56.6593 56.7372 56.6211C56.718 56.602 56.718 56.5829 56.6989 56.5637C56.6797 56.5255 56.6605 56.5064 56.6413 56.4682C56.5071 56.2197 56.3536 55.9904 56.2194 55.7419C56.2002 55.7228 56.2002 55.7037 56.181 55.6654C56.0659 55.4552 55.9509 55.2259 55.8358 54.9965C55.6823 54.7098 55.5289 54.404 55.3947 54.1173C55.3947 54.1173 55.3947 54.1173 55.3947 54.0982C55.2796 53.8498 55.1645 53.6013 55.0494 53.3528C54.9727 53.1999 54.9152 53.047 54.8576 52.9133C54.8576 52.8941 54.8385 52.875 54.8385 52.8559C54.7809 52.7221 54.7234 52.5883 54.6658 52.4546C54.5508 52.2061 54.4549 51.9385 54.359 51.6901C54.3014 51.5372 54.2439 51.3843 54.1864 51.2314C54.1864 51.2122 54.1864 51.2122 54.1672 51.1931C54.1096 51.0402 54.0521 50.9064 54.0137 50.7535C53.9179 50.486 53.8411 50.2375 53.7452 49.9699C53.6877 49.817 53.6493 49.6641 53.5918 49.5112V49.4921C53.5534 49.3392 53.4959 49.1863 53.4575 49.0334C53.3808 48.7658 53.3041 48.4983 53.2274 48.2307C53.189 48.0778 53.1507 47.9249 53.1123 47.772V47.7529C53.074 47.6 53.0356 47.428 52.9972 47.2751C52.9397 47.0075 52.8822 46.7399 52.8246 46.4532C52.7671 46.1283 52.6904 45.8034 52.652 45.4785V45.4594L49.7176 46.587L52.652 45.4594C52.6328 45.3638 52.6137 45.2683 52.6137 45.1727C52.6137 45.1154 52.5945 45.058 52.5945 45.0007C52.5753 44.8669 52.5561 44.7331 52.5369 44.5993C52.5178 44.4273 52.4986 44.2553 52.4794 44.0833C52.4602 43.9113 52.441 43.7393 52.4219 43.5864C52.4027 43.2997 52.3643 43.0321 52.3452 42.7454V42.7263C52.326 42.5543 52.326 42.3823 52.3068 42.2103V42.1911C52.3068 42.0191 52.2876 41.8471 52.2876 41.6751C52.2876 41.5413 52.2876 41.4075 52.2684 41.2737C52.2684 41.2546 52.2684 41.2355 52.2684 41.2164C52.2684 41.0826 52.2684 40.9297 52.2684 40.7959C52.2684 40.6239 52.2684 40.4328 52.2684 40.2608C52.2684 40.0888 52.2684 39.8976 52.2876 39.7256C52.2876 39.5727 52.3068 39.4389 52.3068 39.286C52.3068 39.2669 52.3068 39.2669 52.3068 39.2478C52.3068 39.114 52.326 38.9611 52.326 38.8273C52.3452 38.6362 52.3452 38.4642 52.3643 38.2731C52.3835 38.082 52.4027 37.9099 52.4219 37.7379C52.441 37.585 52.4602 37.4321 52.4794 37.2792C52.4794 37.2601 52.4794 37.2601 52.4794 37.241C52.4986 37.0881 52.5178 36.9543 52.5369 36.8014C52.5561 36.6103 52.5945 36.4192 52.6328 36.228V36.2089C52.6712 36.0178 52.6904 35.8458 52.7287 35.6547C52.7671 35.5018 52.7863 35.3298 52.8246 35.1769C52.863 35.024 52.9013 34.8519 52.9397 34.699C52.9781 34.5079 53.0356 34.3168 53.0931 34.1257C53.0931 34.1066 53.0931 34.1066 53.1123 34.0874C53.1699 33.8963 53.2082 33.7052 53.2658 33.5141C53.3233 33.3421 53.3617 33.1892 53.4192 33.0171C53.4192 33.0171 53.4192 33.0171 53.4192 32.998C53.4767 32.826 53.5343 32.6731 53.5918 32.5011C53.7452 32.0806 53.8987 31.6602 54.0713 31.2397C54.148 31.0677 54.2247 30.8957 54.3014 30.7236C54.3014 30.7045 54.3206 30.7045 54.3206 30.6854C54.3973 30.5134 54.4741 30.3414 54.5699 30.1694C54.5891 30.1312 54.6083 30.112 54.6275 30.0738C54.685 29.9783 54.7234 29.8827 54.7809 29.7871C54.8193 29.7298 54.8385 29.6725 54.8768 29.6151C54.9152 29.5578 54.9535 29.4813 54.9919 29.424C55.0303 29.3475 55.0686 29.2902 55.107 29.2138C55.1453 29.1564 55.1645 29.1182 55.2029 29.0609C55.2412 28.9844 55.2988 28.908 55.3371 28.8315C55.3947 28.7359 55.4522 28.6213 55.5289 28.5257C55.5673 28.4684 55.6056 28.411 55.644 28.3537C55.6823 28.2964 55.7207 28.239 55.7591 28.1626C55.7974 28.1052 55.8358 28.0479 55.8741 27.9906C55.9317 27.9141 55.9892 27.8377 56.0276 27.7612C56.0468 27.723 56.0851 27.6848 56.1043 27.6465C56.2002 27.5127 56.2961 27.379 56.392 27.2643L56.4112 27.2452C56.5071 27.1305 56.603 26.9967 56.6989 26.882C56.9098 26.6336 57.1208 26.3851 57.3318 26.1366L55.0303 27.0158L57.3318 26.1366C57.4468 26.0029 57.5619 25.8882 57.677 25.7735L57.6962 25.7544C57.8112 25.6397 57.9263 25.525 58.0414 25.4104C58.0414 25.4104 58.0414 25.4104 58.0606 25.3913C58.1757 25.2766 58.3099 25.1619 58.425 25.0472C58.5592 24.9326 58.6743 24.8179 58.8086 24.7032C58.8853 24.6459 58.9428 24.5694 59.0195 24.5121C59.1538 24.3974 59.2881 24.2827 59.4223 24.1872C59.499 24.1298 59.5566 24.0725 59.6333 24.0343C59.6908 23.9769 59.7675 23.9387 59.8251 23.8814C59.921 23.8049 60.0169 23.7476 60.1128 23.6711C60.1511 23.652 60.1895 23.6138 60.2278 23.5947C60.3429 23.5182 60.458 23.4418 60.5731 23.3653C60.5922 23.3462 60.6114 23.3271 60.6306 23.3271C60.7649 23.2507 60.8991 23.1551 61.0142 23.0786L61.0334 23.0595C61.1676 22.9831 61.3019 22.8875 61.4553 22.8111C61.743 22.6582 62.702 22.1804 62.9897 22.0466C60.4005 23.0404 57.9263 24.1107 55.6823 25.7162C46.7256 32.826 46.3612 48.2307 54.6083 59.8511ZM50.0053 49.2245C50.082 49.4921 50.1395 49.7597 50.2162 50.0273C50.1587 49.7597 50.082 49.4921 50.0053 49.2245Z" fill="#FCA463"/>
<path fill-rule="evenodd" clip-rule="evenodd" d="M73.9985 83.6843C73.9985 83.6843 74.6123 83.5314 75.5904 83.6079C76.3001 83.6461 76.3192 84.0666 76.6453 83.4359C76.9713 82.8052 80.3085 78.8489 86.6952 78.3711C86.6952 78.3711 89.7064 77.9315 90.5119 80.3205C90.8188 81.8878 89.6488 82.098 88.9392 82.4803C88.2296 82.8625 86.3308 83.9901 85.2376 84.7929C84.1444 85.5956 80.1935 88.7492 80.1935 88.7492C80.1935 88.7492 73.3848 88.9403 73.9985 83.6843Z" fill="#895446"/>
<path fill-rule="evenodd" clip-rule="evenodd" d="M80.8072 88.883C80.8072 88.883 83.7608 89.571 87.6734 87.8318C91.5859 86.0925 96.3808 87.4686 97.9343 88.2905C99.4878 89.1123 99.1618 90.7178 98.7398 91.4823C98.3179 92.2468 89.4571 92.7628 86.561 91.7881C83.6649 90.7942 80.8072 88.883 80.8072 88.883Z" fill="#895446"/>
<path fill-rule="evenodd" clip-rule="evenodd" d="M36.3496 71.5479L31.3246 66.9609C30.6917 66.3684 29.656 66.7507 29.5409 67.6107L29.0231 71.8919C28.9847 72.2551 28.6779 72.5227 28.3135 72.5227L20.6993 72.6373C20.0664 72.6564 19.7403 73.4018 20.1814 73.8605L24.7078 78.5813C25.053 78.9445 24.9379 79.5561 24.4776 79.7472L21.6966 80.9322C21.313 81.1042 21.1404 81.5629 21.3322 81.926L22.4062 84.0284C22.6172 84.4489 22.3871 84.9458 21.9459 85.0605L18.8581 85.8441C18.2443 85.997 18.1101 86.8188 18.6471 87.1628C19.1074 87.4495 19.1074 88.1185 18.6471 88.386L15.3483 90.3928C14.7921 90.7369 14.9263 91.5778 15.5784 91.7116C18.1293 92.2467 20.2773 93.1068 28.3518 95.6488C36.4263 98.1907 40.4348 98.8979 48.2408 98.8979C56.0467 98.8979 63.8527 99.7388 67.5351 99.433C71.2175 99.1272 75.9165 98.0569 81.1524 98.1907C86.3692 98.3245 90.1091 98.8406 92.5066 98.0378C94.904 97.2351 99.0467 97.2924 102.307 97.2924C105.568 97.2924 105.338 94.9416 104.359 93.642C103.381 92.3423 100.197 91.2529 97.8576 90.9853C95.5177 90.7178 92.1422 91.4249 83.9526 89.5519C75.763 87.6789 75.7822 86.6468 74.3629 84.296C72.9437 81.9451 72.3683 82.0216 73.615 81.0851C74.8616 80.1485 76.9713 78.868 80.04 78.3902C83.1087 77.9124 86.7336 75.81 87.9611 75.3513C89.1885 74.8926 94.9232 73.8988 96.0931 72.1213C97.263 70.3438 97.685 69.3118 96.3616 67.6681C95.0382 66.0435 94.8464 65.5084 91.2024 65.2599C87.5583 65.0306 84.2403 66.3684 79.3496 68.2415C75.4753 69.6749 73.2697 70.21 71.3518 70.4203C69.4339 70.6305 66.7871 70.8408 66.0967 71.0128C65.4062 71.1848 65.4062 71.2039 64.4664 70.9554C63.5266 70.6879 57.5619 69.4455 51.9615 71.9302C46.342 74.4148 47.4352 74.625 42.6979 74.7779C37.9607 74.9499 36.3496 71.5479 36.3496 71.5479Z" fill="#A16552"/>
</g>
<defs>
<linearGradient id="paint0_linear_153_645938" x1="80.8981" y1="65.662" x2="65.3618" y2="25.8966" gradientUnits="userSpaceOnUse">
<stop offset="0.0172918" stop-color="#FFFCF3" stop-opacity="0.1"/>
<stop offset="0.3468" stop-color="white" stop-opacity="0.4"/>
<stop offset="1" stop-color="#FFFCF3" stop-opacity="0.1"/>
</linearGradient>
<clipPath id="clip0_153_645938">
<rect width="90" height="90" fill="white" transform="translate(15 15)"/>
</clipPath>
</defs>
</svg>
