<svg width="420" height="120" viewBox="0 0 420 120" fill="none" xmlns="http://www.w3.org/2000/svg">
<g clip-path="url(#clip0_1_150174)">
<g clip-path="url(#clip1_1_150174)">
<path d="M-125.08 -3.67993H501.52V123.6H-125.08V-3.67993Z" fill="#FFDAB9"/>
<path style="mix-blend-mode:multiply" opacity="0.2" d="M141.999 123.6H103.359V-3.67993H170.559C179.559 40.0801 169.719 90.4401 141.999 123.6Z" fill="url(#paint0_radial_1_150174)"/>
<g style="mix-blend-mode:multiply" opacity="0.26">
<path d="M172.039 124.56H-61.8009V-4.63989H198.319C206.999 38.4401 194.919 88.0801 172.039 124.56Z" fill="#3A3333"/>
</g>
<path d="M163.72 124.56H-125.12V-4.63995H196.2C207 39.36 191.68 88.24 163.72 124.56Z" fill="url(#paint1_radial_1_150174)"/>
<path opacity="0.2" d="M198.239 123.6C197.479 121.24 192.159 110.68 199.759 109.08C205.399 108.2 224.919 107.52 224.359 114C223.359 116.2 221.279 123.6 221.279 123.6H198.239Z" fill="#DD8B7A"/>
<path d="M147.24 123.6H-99.0002V-3.67993H176.76C184.84 38.7201 172.64 91.4001 147.24 123.6Z" fill="url(#paint2_linear_1_150174)"/>
<path d="M137.639 123.6H-125.121V-3.67993H169.999C178.879 39.1201 165.399 91.4401 137.639 123.6Z" fill="url(#paint3_linear_1_150174)"/>
<g style="mix-blend-mode:lighten" opacity="0.19">
<path d="M-99.8005 -2.03992C-85.2005 -2.03992 -72.2005 -2.03992 -60.4805 3.76008C-23.4405 13.2801 8.79952 -10.2799 48.0395 3.20008C63.8795 9.84008 81.9595 8.12008 101 4.04008C120.04 -0.0399166 161.6 9.84008 167.32 11.0001C173.04 12.1601 188.56 15.9601 188.56 15.9601V24.5601C180.88 4.52008 112.88 42.4401 80.3995 24.6401C44.2395 16.5201 54.6795 3.76008 22.9595 5.20008C-8.76046 6.64008 -11.0005 13.8801 -29.0805 17.5201C-82.7605 28.6801 -79.5205 -10.6799 -134.4 19.4401V6.36008C-134.4 6.36008 -114.4 -2.03992 -99.8005 -2.03992ZM85.9995 17.4001C91.7195 18.7601 105.56 22.6001 113.68 22.4401C121.8 22.2801 135.68 20.0801 137.8 18.0801C139.92 16.0801 142.48 14.0001 137.28 13.1601C132.08 12.3201 131.76 9.96008 117.2 9.56008C105.8 8.72008 75.7595 14.5601 85.9995 17.4001Z" fill="#FDFFFF"/>
<path d="M-128.361 53.4801C-116.481 56.9601 -71.2408 44.0401 -58.8808 45.5601C-54.2408 46.1201 -28.0008 51.5201 -8.56081 43.8801C10.8792 36.2401 41.4392 45.5601 55.9592 48.4001C94.8792 56.3201 149.079 65.5201 182.199 47.5601V56.2801C119.999 82.3201 101.799 45.8001 42.9992 64.2001C-33.2008 99.0401 -16.7608 54.8801 -66.2808 56.2801C-102.961 57.2401 -136.321 80.0001 -128.361 53.4801ZM-26.3208 61.9601C-23.4008 65.8801 -20.2808 65.3201 -11.2008 68.5601C-2.1208 71.8001 1.47918 67.4401 9.47918 67.3201C17.4792 67.2001 19.6792 64.2001 22.1592 61.6801C24.6392 59.1601 36.0392 56.0001 38.3592 54.2401C40.6792 52.4801 37.1192 51.9201 30.7192 52.6401C17.7992 54.3601 14.9592 50.3201 0.67918 50.3601C-7.96082 51.2001 -12.2808 58.0001 -17.0408 58.2801C-24.4808 58.6801 -29.2408 58.0001 -26.3208 61.9601V61.9601Z" fill="#FDFFFF"/>
<path d="M170.88 92.4801C162.36 81.2801 101.56 94.6401 90.3195 96.0001C74.3195 97.4401 36.2795 97.7201 16.4795 94.2401C-3.32046 90.7601 -13.2404 83.6801 -39.4804 88.0801C-71.8804 93.7601 -112.12 119.56 -134.08 107.68V120.24C-83.5204 122.48 -55.9205 82.3201 4.95954 100.36C43.0395 113.84 79.7595 112.68 116.2 103.44C144.48 91.8001 174.84 115.84 170.88 92.4801Z" fill="#FDFFFF"/>
</g>
<g style="mix-blend-mode:multiply" opacity="0.15">
<path d="M-1.67979 64.52C-5.63979 57.24 -7.7198 59.76 -2.6398 53.24C0.400205 53.16 0.960195 52.92 3.2002 55.24L-1.67979 64.52Z" fill="#155784"/>
<path d="M3.95992 53.7999C1.63992 51.3599 1.35992 51.3599 -1.84008 51.5199L-0.0400758 46.7599C3.19992 46.2399 5.9999 46.1599 9.0799 47.4799L3.95992 53.7999Z" fill="#155784"/>
<path d="M-5.5998 33.4C-5.9998 33.44 -8.27979 34.96 -8.27979 34.96C-3.31979 36.2 -1.1998 34.76 3.2002 33.16L2.4002 32.28L-5.5998 33.4Z" fill="#155784"/>
<path d="M-5.9598 44.48C-2.3598 37.64 -3.87981 37.32 3.88019 34.52C3.88019 34.52 15.1202 40.92 14.9602 40.96C14.8002 41 10.8002 46.16 10.6002 45.8C10.4002 45.44 5.08019 43.88 5.08019 43.88C2.76019 44.48 -3.5998 44.72 -5.9598 44.48Z" fill="#155784"/>
<path d="M-11.2405 26.56L-7.00054 28.68L-5.80054 31.72L1.43945 31.28L-2.08052 24.6L-6.56055 22.72L-11.2405 26.56Z" fill="#155784"/>
<path d="M16.3199 39.44L10.6399 36.04C15.6399 33.44 23.9599 25.48 30.0399 28.16L16.3199 39.44Z" fill="#155784"/>
<path d="M31.1599 26.7599L27.2799 26.0399C31.7999 20.3599 29.0399 18.9999 35.7999 22.5199L31.1599 26.7599Z" fill="#155784"/>
<path d="M25.4799 25.72L29.1199 19.84C23.4799 19.6 20.0399 20.6 14.9599 22.76V28C19.9199 28.84 21.2399 27.8 25.4799 25.72Z" fill="#155784"/>
<path d="M18.4795 29.64C14.8795 28.32 7.59949 30.76 4.19949 31.72C4.51949 33.56 7.71947 34.68 9.07947 35.44L18.4795 29.64Z" fill="#155784"/>
<path d="M13.1199 27.6V22.92L0.239929 24.36C4.35993 33.52 2.19993 30.04 13.1199 27.6Z" fill="#155784"/>
<path d="M36.9999 21.32L32.5599 19.2L37.7199 13.28L43.2399 11.16L45.1599 12.32L36.9999 21.32Z" fill="#155784"/>
<path d="M45.1599 11.52C42.4399 10.32 43.2399 9.27997 42.8799 6.83997L46.1999 7.55997C46.5599 9.55997 46.5199 9.99997 45.1599 11.52Z" fill="#155784"/>
<path d="M42.4395 10.6001L41.8395 6.56006C41.8395 6.56006 34.7595 6.96006 34.6795 6.84006C34.5995 6.72006 33.3995 9.48006 33.3995 9.48006L37.3995 12.1601L42.4395 10.6001Z" fill="#155784"/>
<path d="M31.1199 18.48L36.1599 12.92L32.2399 10.36L22.7999 11.96L22.1999 18.84L31.1199 18.48Z" fill="#155784"/>
<path d="M32.7199 7.03998C32.5655 7.8244 32.3652 8.59907 32.1199 9.35998L22.6399 10.92L21.8399 8.99998L32.7199 7.03998Z" fill="#155784"/>
<path d="M-4.64053 21.3998L-0.880518 23.1998L12.4395 21.6398L10.8395 14.9998L8.19946 13.8398L-4.64053 21.3998Z" fill="#155784"/>
<path d="M20.9202 19.24L14.2802 21.32L13.1202 17.32L21.2002 14.72L20.9202 19.24Z" fill="#155784"/>
<path d="M21.0399 13.4C21.3199 12.32 20.9999 10.36 20.5199 9.35999L10.4399 13.12C11.5599 13.8 12.5999 14.76 12.8799 16.08L21.0399 13.4Z" fill="#155784"/>
<path d="M-7.64048 100.64L-12.8405 106.16C-11.8405 110.04 -12.7605 111.56 -8.84048 113.84L-1.04048 110.4L0.479492 106.84L-7.64048 100.64Z" fill="#0E3772"/>
<path d="M-0.359718 112.76C-8.43972 116.36 -7.19972 115.36 -10.7597 123.36C-6.83972 125.64 1.60029 129.8 6.00029 130.84C9.64029 117.92 8.04028 122.76 -0.359718 112.76Z" fill="#0E3772"/>
<path d="M2.27991 107.84L0.639918 111.08L8.75994 119.68C12.7599 118.72 13.4399 118.88 15.7999 115.2L2.27991 107.84Z" fill="#0E3772"/>
<path d="M17.4002 115.84L16.1202 118.84L25.3202 125.08C25.9602 129.96 26.0403 128.2 30.1603 128.04L34.2402 122.16L17.4002 115.84Z" fill="#0E3772"/>
<path d="M68.4795 124.44C68.4395 118.2 68.0795 117.28 64.6395 112.12L55.3595 119.68L55.1595 124.44C55.4395 124.16 69.1995 125.84 68.4795 124.44Z" fill="#2B7AC9"/>
<path d="M53.3199 124.24L53.7199 119.36L36.6399 115.56L29.8399 118.6C35.0399 120.16 48.0399 123.88 53.3199 124.24Z" fill="#2B7AC9"/>
<path d="M54.3199 118.04L59.9999 113.72C54.5999 113.08 43.7599 111.36 38.4399 110.32L37.3599 114.16L54.3199 118.04Z" fill="#2B7AC9"/>
<path d="M63.3203 110.96C62.4803 114.08 40.8803 108.6 38.9603 108.68L39.5203 100.88C42.6403 102.2 61.2003 108.72 63.3203 110.96Z" fill="#2B7AC9"/>
<path d="M-1.03979 68.52C-1.15979 68.76 -7.0398 71 -7.0398 71L-5.1998 75.76L3.2002 73.12L-1.03979 68.52Z" fill="#2B7AC9"/>
<path d="M4.04026 74.6799C3.48026 74.7999 -5.59973 77.4799 -5.59973 77.4799L-7.43972 81.1199C2.92028 86.1199 0.720273 85.2799 11.2803 81.6799L4.04026 74.6799Z" fill="#2B7AC9"/>
<path d="M0.119934 87L-7.28007 83.52L-9.92011 84.76L-6.72011 90.68L0.119934 87Z" fill="#2B7AC9"/>
<path d="M12.3199 83.08L3.83993 86.32L15.7999 91.32L21.8799 90L12.3199 83.08Z" fill="#2B7AC9"/>
<path d="M37.9599 100.08L37.0399 106.76C29.0399 102.12 28.2399 105.88 31.5599 96.84L37.9599 100.08Z" fill="#2B7AC9"/>
<path d="M29.8399 96.12C29.8399 96.12 27.6799 101.68 27.1999 101.56C26.7199 101.44 16.9999 92.92 16.9999 92.92C25.3199 90.36 23.1199 91.68 29.8399 96.12Z" fill="#2B7AC9"/>
<path d="M37.0399 108.72C35.4399 115.6 34.8799 113.88 29.1999 116.92L24.9199 113.48L25.8399 103.44L37.0399 108.72Z" fill="#2B7AC9"/>
<path d="M27.5996 118.04C23.5996 113.76 24.1596 114.52 18.5596 114.92L27.5996 118.04Z" fill="#2B7AC9"/>
<path d="M23.3999 113.04C24.1599 107.24 23.2399 108.96 18.9999 106.08L13.9599 109.04L13.2799 112.4C17.8799 115.16 18.6399 113.96 23.3999 113.04Z" fill="#2B7AC9"/>
<path d="M23.6796 106.08L24.5596 101.56L15.5196 94.1199L11.2796 103L13.2796 107.24C18.3996 105.2 18.1196 103.52 23.6796 106.08Z" fill="#2B7AC9"/>
<path d="M11.2795 111.36C13.0395 107.92 11.3195 106.84 10.1195 103.88L-1.56053 99.28L-3.20052 102.24L11.2795 111.36Z" fill="#2B7AC9"/>
<path d="M9.91948 102.08L13.4395 94.12L-0.0805168 93.04L-0.960546 98L9.91948 102.08Z" fill="#2B7AC9"/>
<path d="M13.4399 93.0399L13.8799 92.1199L3.19994 87.5599L-1.60006 89.3199L-0.0800417 91.7599L13.4399 93.0399Z" fill="#2B7AC9"/>
<path d="M69.4399 122.96C69.2359 121.06 69.1291 119.151 69.1199 117.24C71.2799 117.4 78.3599 117.68 80.3199 118.28C81.9199 120.12 82.8399 120.64 82.4799 123.32L69.4399 122.96Z" fill="#0E3772"/>
</g>
<path d="M172.879 -29.72C210.119 -30.4 198.239 -31.84 204.039 2.44004C204.799 7.84004 179.199 7.08004 177.119 8.64004C171.559 8.76004 172.879 -27.76 171.719 -29.72H172.879Z" fill="url(#paint4_linear_1_150174)"/>
<path d="M202.32 8.64004C196.16 8.88004 184.4 10.84 178.04 10.96C175.88 10.52 176 10.8 175.84 13.72C175.96 19.56 176.04 30.72 175.12 35.52C177.76 40.44 197.32 39.04 200.76 39.32C205.24 39.2 202 21.08 203 18.04C203.16 16.72 203.24 8.60004 202.32 8.64004Z" fill="url(#paint5_linear_1_150174)"/>
<path d="M200.12 42.5601C196.6 42.2401 184.32 41.6801 180.76 41.3201C178.92 41.2801 176 39.4801 174.96 41.5201C174.4 45.0401 173.24 57.4801 172.6 60.8401C176.32 67.1601 192.48 59.0401 197.84 59.0801C198.24 58.1201 201.08 43.2401 200.12 42.5601Z" fill="url(#paint6_linear_1_150174)"/>
<path d="M197.2 61.2001C195.24 61.3601 184.44 64.1201 181.92 64.9201C179.08 66.3601 187.04 67.0801 188.08 68.2401C189.76 68.8001 195.16 73.8001 195.44 71.0001C195.4 70.0801 197.64 61.2401 197.2 61.2001Z" fill="url(#paint7_linear_1_150174)"/>
<path d="M194.04 76.64C195 73.52 193.96 74.04 190.96 72.72C188.04 70.72 182.68 68.52 179.32 67.56C178.12 67.32 173.72 63.6 172.6 64C171.48 64.4 164.68 86.76 165.04 89.8C168.56 89.16 175.32 93.32 178.72 94.6C181 95.56 185.76 103.88 187.48 97.96C188.56 93.88 193.12 80.68 194.04 76.64Z" fill="url(#paint8_linear_1_150174)"/>
<path d="M184.72 104.6C186.16 101.8 183.52 101.56 182 100.08C178 95.68 169.8 93 164.12 91.92C161.76 93.32 157.84 106.2 156.36 109C156.92 112 163.72 113.08 166.36 114.36C170.44 115.64 173.72 119.84 177.16 120.68C179.12 118.04 183.76 107.8 184.72 104.6Z" fill="url(#paint9_linear_1_150174)"/>
<path d="M154.92 112.28C155.92 111.96 155.64 111.76 156.72 112.92C159.04 114.44 162.68 115.28 165.52 116.36C167 116.96 170.64 118.56 168.64 119.16C163.16 119.48 163.28 124.56 157.24 121.96C154.88 121.32 151.48 122.52 149.96 120.68C151 119.36 153.72 113.2 154.92 112.28Z" fill="url(#paint10_linear_1_150174)"/>
<path d="M176.24 123.24C176.72 122 175.76 121.6 174.6 121.24C173.44 120.88 172.8 120.12 171.8 120C170.8 119.88 169.24 120.96 167.92 120.88C166.6 120.8 163.56 122.72 164.24 123.96C164.92 125.2 164.2 124.48 166.12 125.2C174.36 129.04 171.08 132.32 176.24 123.24Z" fill="url(#paint11_linear_1_150174)"/>
<path opacity="0.1" d="M224.079 -3.67993C221.359 -0.799932 201.119 9.04007 208.919 18.0401C210.879 20.9601 218.239 40.8001 220.919 42.2801C223.599 43.7601 233.519 44.2401 236.639 42.2801C245.599 32.8401 266.559 6.76007 272.199 -3.67993H224.079Z" fill="#DD8B7A"/>
<path opacity="0.1" d="M288.8 103.24C292.16 100.92 299.08 95.76 300.08 91.68C301.08 87.6 304.48 78.64 301.8 74.44C299.12 70.24 277.68 65.96 273.64 65.08C265.28 61.6 253.04 74.52 256.64 81.48C258.48 83.68 274.12 104.32 276.32 104.64C278.52 104.96 285.92 105.24 288.8 103.24Z" fill="#DD8B7A"/>
<path style="mix-blend-mode:lighten" opacity="0.2" d="M192.32 123.6L242.24 -3.67993H294L244.84 123.6H192.32Z" fill="url(#paint12_linear_1_150174)"/>
<path style="mix-blend-mode:lighten" opacity="0.2" d="M268.68 123.6L319 -3.67993H335.88L284.12 123.6H268.68Z" fill="url(#paint13_linear_1_150174)"/>
<rect opacity="0.3" width="420" height="120" rx="10" transform="matrix(-1 0 0 1 420 0)" fill="url(#paint14_linear_1_150174)"/>
</g>
</g>
<defs>
<radialGradient id="paint0_radial_1_150174" cx="0" cy="0" r="1" gradientUnits="userSpaceOnUse" gradientTransform="translate(-19.3529 24.1521) rotate(180) scale(190.416)">
<stop stop-color="#1D1D1B" stop-opacity="0"/>
<stop offset="0.56" stop-color="#1D1D1B"/>
<stop offset="0.71" stop-color="#1F1D1B"/>
<stop offset="0.76" stop-color="#261C1C"/>
<stop offset="0.79" stop-color="#311B1D"/>
<stop offset="0.82" stop-color="#421A1E"/>
<stop offset="0.85" stop-color="#581721"/>
<stop offset="0.86" stop-color="#681622"/>
<stop offset="0.92" stop-color="#681622" stop-opacity="0.98"/>
<stop offset="0.95" stop-color="#691620" stop-opacity="0.92"/>
<stop offset="0.96" stop-color="#6B161E" stop-opacity="0.8"/>
<stop offset="0.97" stop-color="#6E161A" stop-opacity="0.64"/>
<stop offset="0.99" stop-color="#751610" stop-opacity="0.17"/>
<stop offset="1" stop-color="#78160C" stop-opacity="0"/>
</radialGradient>
<radialGradient id="paint1_radial_1_150174" cx="0" cy="0" r="1" gradientUnits="userSpaceOnUse" gradientTransform="translate(40.8809 28.3859) rotate(1.39718) scale(157.27 152.19)">
<stop stop-color="#F4868C"/>
<stop offset="0.11" stop-color="#EE928F"/>
<stop offset="0.35" stop-color="#E5A494"/>
<stop offset="0.59" stop-color="#E0AF97"/>
<stop offset="0.86" stop-color="#DEB398"/>
<stop offset="0.87" stop-color="#E2B89C"/>
<stop offset="0.89" stop-color="#EBC5A6"/>
<stop offset="0.92" stop-color="#EEC9A9"/>
<stop offset="0.96" stop-color="#EDC9A9"/>
<stop offset="0.98" stop-color="#ECC7A8"/>
<stop offset="0.99" stop-color="#E7C0A2"/>
<stop offset="1" stop-color="#DEB398"/>
</radialGradient>
<linearGradient id="paint2_linear_1_150174" x1="179.244" y1="59.9681" x2="-98.9962" y2="59.9681" gradientUnits="userSpaceOnUse">
<stop stop-color="#0077B6"/>
<stop offset="0.11" stop-color="#0096C7"/>
<stop offset="0.32" stop-color="#00B4D8"/>
</linearGradient>
<linearGradient id="paint3_linear_1_150174" x1="172.719" y1="59.9681" x2="-125.109" y2="59.9681" gradientUnits="userSpaceOnUse">
<stop stop-color="#0096C7"/>
<stop offset="0.32" stop-color="#00B4D8"/>
<stop offset="0.97" stop-color="#0077B6"/>
</linearGradient>
<linearGradient id="paint4_linear_1_150174" x1="203.387" y1="-12.74" x2="171.203" y2="-10.304" gradientUnits="userSpaceOnUse">
<stop stop-color="#F4978E"/>
<stop offset="0.11" stop-color="#F4918D"/>
<stop offset="0.2" stop-color="#F4868C"/>
<stop offset="0.27" stop-color="#F4868C"/>
<stop offset="0.77" stop-color="#F4868C"/>
<stop offset="1" stop-color="#F4978E"/>
</linearGradient>
<linearGradient id="paint5_linear_1_150174" x1="203.204" y1="23.984" x2="175.136" y2="23.984" gradientUnits="userSpaceOnUse">
<stop stop-color="#F4978E"/>
<stop offset="0.16" stop-color="#F4868C"/>
<stop offset="0.23" stop-color="#F4868C"/>
<stop offset="0.8" stop-color="#F4868C"/>
<stop offset="0.81" stop-color="#F4888C"/>
<stop offset="1" stop-color="#F4978E"/>
</linearGradient>
<linearGradient id="paint6_linear_1_150174" x1="199.64" y1="54.1081" x2="173.144" y2="51.1841" gradientUnits="userSpaceOnUse">
<stop stop-color="#F4978E"/>
<stop offset="0.16" stop-color="#F4868C"/>
<stop offset="0.23" stop-color="#F4868C"/>
<stop offset="0.8" stop-color="#F4868C"/>
<stop offset="0.81" stop-color="#F4888C"/>
<stop offset="1" stop-color="#F4978E"/>
</linearGradient>
<linearGradient id="paint7_linear_1_150174" x1="198.232" y1="67.3081" x2="165.516" y2="56.6881" gradientUnits="userSpaceOnUse">
<stop stop-color="#F4868C"/>
<stop offset="0.55" stop-color="#F4978E"/>
<stop offset="1" stop-color="#F4868C"/>
</linearGradient>
<linearGradient id="paint8_linear_1_150174" x1="191.844" y1="88.036" x2="166.896" y2="76.076" gradientUnits="userSpaceOnUse">
<stop stop-color="#F4978E"/>
<stop offset="0.16" stop-color="#F4868C"/>
<stop offset="0.23" stop-color="#F4868C"/>
<stop offset="0.8" stop-color="#F4868C"/>
<stop offset="0.81" stop-color="#F4888C"/>
<stop offset="1" stop-color="#F4978E"/>
</linearGradient>
<linearGradient id="paint9_linear_1_150174" x1="182.864" y1="110.604" x2="158.788" y2="101.316" gradientUnits="userSpaceOnUse">
<stop stop-color="#F4978E"/>
<stop offset="0.16" stop-color="#F4868C"/>
<stop offset="0.23" stop-color="#F4868C"/>
<stop offset="0.8" stop-color="#F4868C"/>
<stop offset="0.81" stop-color="#F4888C"/>
<stop offset="1" stop-color="#F4978E"/>
</linearGradient>
<linearGradient id="paint10_linear_1_150174" x1="151.164" y1="115.82" x2="181.272" y2="128.252" gradientUnits="userSpaceOnUse">
<stop stop-color="#F4868C"/>
<stop offset="0.55" stop-color="#F4978E"/>
<stop offset="1" stop-color="#F4868C"/>
</linearGradient>
<linearGradient id="paint11_linear_1_150174" x1="175.428" y1="125.912" x2="157.148" y2="118.256" gradientUnits="userSpaceOnUse">
<stop stop-color="#F4868C"/>
<stop offset="0.55" stop-color="#F4978E"/>
<stop offset="1" stop-color="#F4868C"/>
</linearGradient>
<linearGradient id="paint12_linear_1_150174" x1="271" y1="-5.35593" x2="216.66" y2="123.884" gradientUnits="userSpaceOnUse">
<stop stop-color="white"/>
<stop offset="1" stop-color="#F6F6F6" stop-opacity="0"/>
</linearGradient>
<linearGradient id="paint13_linear_1_150174" x1="327.048" y1="-3.51193" x2="277.48" y2="123.52" gradientUnits="userSpaceOnUse">
<stop stop-color="white"/>
<stop offset="1" stop-color="#F6F6F6" stop-opacity="0"/>
</linearGradient>
<linearGradient id="paint14_linear_1_150174" x1="10" y1="56.2162" x2="414.615" y2="56.2162" gradientUnits="userSpaceOnUse">
<stop stop-opacity="0.75"/>
<stop offset="1" stop-color="#C4C4C4" stop-opacity="0"/>
<stop offset="1"/>
</linearGradient>
<clipPath id="clip0_1_150174">
<rect width="420" height="120" rx="10" fill="white"/>
</clipPath>
<clipPath id="clip1_1_150174">
<rect width="420" height="120" fill="white" transform="matrix(-1 0 0 1 420 0)"/>
</clipPath>
</defs>
</svg>
